<?xml version="1.0" encoding="us-ascii" standalone="no"?><svg xmlns="http://www.w3.org/2000/svg" xmlns:xlink="http://www.w3.org/1999/xlink" contentStyleType="text/css" height="464px" preserveAspectRatio="none" style="width:1742px;height:464px;background:#FFFFFF;" version="1.1" viewBox="0 0 1742 464" width="1742px" zoomAndPan="magnify"><defs/><g><!--cluster StorageManagment--><g id="cluster_StorageManagment"><path d="M8.5,6 L162.5,6 A3.75,3.75 0 0 1 165,8.5 L172,28.2969 L1034.5,28.2969 A2.5,2.5 0 0 1 1037,30.7969 L1037,454.95 A2.5,2.5 0 0 1 1034.5,457.45 L8.5,457.45 A2.5,2.5 0 0 1 6,454.95 L6,8.5 A2.5,2.5 0 0 1 8.5,6 " fill="#DDDDDD" style="stroke:#000000;stroke-width:1.5;"/><line style="stroke:#000000;stroke-width:1.5;" x1="6" x2="172" y1="28.2969" y2="28.2969"/><text fill="#000000" font-family="sans-serif" font-size="14" font-weight="bold" lengthAdjust="spacing" textLength="153" x="10" y="20.9951">StorageManagment</text></g><!--cluster PersistaceLayer--><g id="cluster_PersistaceLayer"><path d="M1063.5,14.15 L1191.5,14.15 A3.75,3.75 0 0 1 1194,16.65 L1201,36.4469 L1460.5,36.4469 A2.5,2.5 0 0 1 1463,38.9469 L1463,159.54 A2.5,2.5 0 0 1 1460.5,162.04 L1063.5,162.04 A2.5,2.5 0 0 1 1061,159.54 L1061,16.65 A2.5,2.5 0 0 1 1063.5,14.15 " fill="#DDDDDD" style="stroke:#000000;stroke-width:1.5;"/><line style="stroke:#000000;stroke-width:1.5;" x1="1061" x2="1201" y1="36.4469" y2="36.4469"/><text fill="#000000" font-family="sans-serif" font-size="14" font-weight="bold" lengthAdjust="spacing" textLength="127" x="1065" y="29.1451">PersistaceLayer</text></g><!--cluster AdapterLayer--><g id="cluster_AdapterLayer"><path d="M1489.5,22.29 L1597.5,22.29 A3.75,3.75 0 0 1 1600,24.79 L1607,44.5869 L1732.5,44.5869 A2.5,2.5 0 0 1 1735,47.0869 L1735,151.39 A2.5,2.5 0 0 1 1732.5,153.89 L1489.5,153.89 A2.5,2.5 0 0 1 1487,151.39 L1487,24.79 A2.5,2.5 0 0 1 1489.5,22.29 " fill="#DDDDDD" style="stroke:#000000;stroke-width:1.5;"/><line style="stroke:#000000;stroke-width:1.5;" x1="1487" x2="1607" y1="44.5869" y2="44.5869"/><text fill="#000000" font-family="sans-serif" font-size="14" font-weight="bold" lengthAdjust="spacing" textLength="107" x="1491" y="37.2851">AdapterLayer</text></g><!--class ItemFactory--><g id="elem_ItemFactory"><rect codeLine="2" fill="#F1F1F1" height="80.5938" id="ItemFactory" rx="2.5" ry="2.5" style="stroke:#181818;stroke-width:0.5;" width="225" x="22.5" y="57.29"/><ellipse cx="90.75" cy="73.29" fill="#ADD1B2" rx="11" ry="11" style="stroke:#181818;stroke-width:1.0;"/><path d="M93.7188,78.9306 Q93.1406,79.2275 92.5,79.3681 Q91.8594,79.5244 91.1563,79.5244 Q88.6563,79.5244 87.3281,77.8837 Q86.0156,76.2275 86.0156,73.1025 Q86.0156,69.9775 87.3281,68.3212 Q88.6563,66.665 91.1563,66.665 Q91.8594,66.665 92.5,66.8212 Q93.1563,66.9775 93.7188,67.2744 L93.7188,69.9931 Q93.0938,69.415 92.5,69.1494 Q91.9063,68.8681 91.2813,68.8681 Q89.9375,68.8681 89.25,69.9462 Q88.5625,71.0087 88.5625,73.1025 Q88.5625,75.1962 89.25,76.2744 Q89.9375,77.3369 91.2813,77.3369 Q91.9063,77.3369 92.5,77.0712 Q93.0938,76.79 93.7188,76.2119 L93.7188,78.9306 Z " fill="#000000"/><text fill="#000000" font-family="sans-serif" font-size="14" lengthAdjust="spacing" textLength="80" x="111.25" y="78.1367">ItemFactory</text><line style="stroke:#181818;stroke-width:0.5;" x1="23.5" x2="246.5" y1="89.29" y2="89.29"/><line style="stroke:#181818;stroke-width:0.5;" x1="23.5" x2="246.5" y1="97.29" y2="97.29"/><text fill="#000000" font-family="sans-serif" font-size="14" lengthAdjust="spacing" textLength="198" x="28.5" y="114.2851">ItemStack getRandomItem();</text><text fill="#000000" font-family="sans-serif" font-size="14" lengthAdjust="spacing" textLength="213" x="28.5" y="130.582">ItemStack getItem(ItemType t);</text></g><!--class LoaderItem--><g id="elem_LoaderItem"><rect codeLine="8" fill="#F1F1F1" height="80.5938" id="LoaderItem" rx="2.5" ry="2.5" style="stroke:#181818;stroke-width:0.5;" width="175" x="282.5" y="57.29"/><ellipse cx="327.25" cy="73.29" fill="#ADD1B2" rx="11" ry="11" style="stroke:#181818;stroke-width:1.0;"/><path d="M330.2188,78.9306 Q329.6406,79.2275 329,79.3681 Q328.3594,79.5244 327.6563,79.5244 Q325.1563,79.5244 323.8281,77.8837 Q322.5156,76.2275 322.5156,73.1025 Q322.5156,69.9775 323.8281,68.3212 Q325.1563,66.665 327.6563,66.665 Q328.3594,66.665 329,66.8212 Q329.6563,66.9775 330.2188,67.2744 L330.2188,69.9931 Q329.5938,69.415 329,69.1494 Q328.4063,68.8681 327.7813,68.8681 Q326.4375,68.8681 325.75,69.9462 Q325.0625,71.0087 325.0625,73.1025 Q325.0625,75.1962 325.75,76.2744 Q326.4375,77.3369 327.7813,77.3369 Q328.4063,77.3369 329,77.0712 Q329.5938,76.79 330.2188,76.2119 L330.2188,78.9306 Z " fill="#000000"/><text fill="#000000" font-family="sans-serif" font-size="14" lengthAdjust="spacing" textLength="77" x="347.75" y="78.1367">LoaderItem</text><line style="stroke:#181818;stroke-width:0.5;" x1="283.5" x2="456.5" y1="89.29" y2="89.29"/><line style="stroke:#181818;stroke-width:0.5;" x1="283.5" x2="456.5" y1="97.29" y2="97.29"/><text fill="#000000" font-family="sans-serif" font-size="14" lengthAdjust="spacing" textLength="155" x="288.5" y="114.2851">LoaderItem(String file);</text><text fill="#000000" font-family="sans-serif" font-size="14" lengthAdjust="spacing" textLength="163" x="288.5" y="130.582">Inventoy getInventory();</text></g><!--class ItemStack--><g id="elem_ItemStack"><rect codeLine="13" fill="#F1F1F1" height="227.2656" id="ItemStack" rx="2.5" ry="2.5" style="stroke:#181818;stroke-width:0.5;" width="187" x="699.5" y="214.18"/><ellipse cx="754.75" cy="230.18" fill="#ADD1B2" rx="11" ry="11" style="stroke:#181818;stroke-width:1.0;"/><path d="M757.7188,235.8206 Q757.1406,236.1175 756.5,236.2581 Q755.8594,236.4144 755.1563,236.4144 Q752.6563,236.4144 751.3281,234.7738 Q750.0156,233.1175 750.0156,229.9925 Q750.0156,226.8675 751.3281,225.2113 Q752.6563,223.555 755.1563,223.555 Q755.8594,223.555 756.5,223.7113 Q757.1563,223.8675 757.7188,224.1644 L757.7188,226.8831 Q757.0938,226.305 756.5,226.0394 Q755.9063,225.7581 755.2813,225.7581 Q753.9375,225.7581 753.25,226.8363 Q752.5625,227.8988 752.5625,229.9925 Q752.5625,232.0863 753.25,233.1644 Q753.9375,234.2269 755.2813,234.2269 Q755.9063,234.2269 756.5,233.9613 Q757.0938,233.68 757.7188,233.1019 L757.7188,235.8206 Z " fill="#000000"/><text fill="#000000" font-family="sans-serif" font-size="14" lengthAdjust="spacing" textLength="68" x="775.25" y="235.0267">ItemStack</text><line style="stroke:#181818;stroke-width:0.5;" x1="700.5" x2="885.5" y1="246.18" y2="246.18"/><text fill="#000000" font-family="sans-serif" font-size="14" lengthAdjust="spacing" textLength="89" x="705.5" y="263.1751">String nome;</text><text fill="#000000" font-family="sans-serif" font-size="14" lengthAdjust="spacing" textLength="74" x="705.5" y="279.472">byte peso;</text><text fill="#000000" font-family="sans-serif" font-size="14" lengthAdjust="spacing" textLength="86" x="705.5" y="295.7689">byte quanty;</text><text fill="#000000" font-family="sans-serif" font-size="14" lengthAdjust="spacing" textLength="80" x="705.5" y="312.0657">byte valore;</text><text fill="#000000" font-family="sans-serif" font-size="14" lengthAdjust="spacing" textLength="131" x="705.5" y="328.3626">ItemType tipologia;</text><text fill="#000000" font-family="sans-serif" font-size="14" lengthAdjust="spacing" textLength="126" x="705.5" y="344.6595">String description;</text><line style="stroke:#181818;stroke-width:0.5;" x1="700.5" x2="885.5" y1="351.9613" y2="351.9613"/><text fill="#000000" font-family="sans-serif" font-size="14" lengthAdjust="spacing" textLength="124" x="705.5" y="368.9564">byte getQuanity();</text><text fill="#000000" font-family="sans-serif" font-size="14" lengthAdjust="spacing" textLength="130" x="705.5" y="385.2532">void addQuantity();</text><text fill="#000000" font-family="sans-serif" font-size="14" lengthAdjust="spacing" textLength="148" x="705.5" y="401.5501">void removeQuanty();</text><text fill="#000000" font-family="sans-serif" font-size="14" lengthAdjust="spacing" textLength="175" x="705.5" y="417.847">String showDescription();</text><text fill="#000000" font-family="sans-serif" font-size="14" lengthAdjust="spacing" textLength="113" x="705.5" y="434.1439">short getPeso();</text></g><!--class ItemType--><g id="elem_ItemType"><rect codeLine="30" fill="#F1F1F1" height="145.7813" id="ItemType" rx="2.5" ry="2.5" style="stroke:#181818;stroke-width:0.5;" width="99" x="921.5" y="254.93"/><ellipse cx="937.85" cy="270.93" fill="#EB937F" rx="11" ry="11" style="stroke:#181818;stroke-width:1.0;"/><path d="M941.9594,276.93 L934.2406,276.93 L934.2406,264.5394 L941.9594,264.5394 L941.9594,266.6956 L936.6938,266.6956 L936.6938,269.3675 L941.4594,269.3675 L941.4594,271.5238 L936.6938,271.5238 L936.6938,274.7738 L941.9594,274.7738 L941.9594,276.93 Z " fill="#000000"/><text fill="#000000" font-family="sans-serif" font-size="14" lengthAdjust="spacing" textLength="64" x="952.15" y="275.7767">ItemType</text><line style="stroke:#181818;stroke-width:0.5;" x1="922.5" x2="1019.5" y1="286.93" y2="286.93"/><text fill="#000000" font-family="sans-serif" font-size="14" lengthAdjust="spacing" textLength="72" x="927.5" y="303.9251">POZIONE1</text><text fill="#000000" font-family="sans-serif" font-size="14" lengthAdjust="spacing" textLength="72" x="927.5" y="320.222">POZIONE2</text><text fill="#000000" font-family="sans-serif" font-size="14" lengthAdjust="spacing" textLength="49" x="927.5" y="336.5189">ARMA1</text><text fill="#000000" font-family="sans-serif" font-size="14" lengthAdjust="spacing" textLength="49" x="927.5" y="352.8157">ARMA2</text><text fill="#000000" font-family="sans-serif" font-size="14" lengthAdjust="spacing" textLength="87" x="927.5" y="369.1126">ARMATURA1</text><text fill="#000000" font-family="sans-serif" font-size="14" lengthAdjust="spacing" textLength="87" x="927.5" y="385.4095">ARMATURA2</text><line style="stroke:#181818;stroke-width:0.5;" x1="922.5" x2="1019.5" y1="392.7113" y2="392.7113"/></g><!--class Storage--><g id="elem_Storage"><rect codeLine="40" fill="#F1F1F1" height="113.1875" id="Storage" rx="2.5" ry="2.5" style="stroke:#181818;stroke-width:0.5;" width="376" x="289" y="271.22"/><ellipse cx="445.75" cy="287.22" fill="#A9DCDF" rx="11" ry="11" style="stroke:#181818;stroke-width:1.0;"/><path d="M445.8594,282.5637 L444.7031,287.6419 L447.0313,287.6419 L445.8594,282.5637 Z M444.375,280.3294 L447.3594,280.3294 L450.7188,292.72 L448.2656,292.72 L447.5,289.6575 L444.2188,289.6575 L443.4688,292.72 L441.0313,292.72 L444.375,280.3294 Z " fill="#000000"/><text fill="#000000" font-family="sans-serif" font-size="14" font-style="italic" lengthAdjust="spacing" textLength="54" x="466.25" y="292.0667">Storage</text><line style="stroke:#181818;stroke-width:0.5;" x1="290" x2="664" y1="303.22" y2="303.22"/><text fill="#000000" font-family="sans-serif" font-size="14" lengthAdjust="spacing" textLength="364" x="295" y="320.2151">List&lt;ItemStack&gt; items = new ArrayList&lt;ItemStack&gt;;</text><line style="stroke:#181818;stroke-width:0.5;" x1="290" x2="664" y1="327.5169" y2="327.5169"/><text fill="#000000" font-family="sans-serif" font-size="14" lengthAdjust="spacing" textLength="148" x="295" y="344.512">void add(ItemStack i);</text><text fill="#000000" font-family="sans-serif" font-size="14" lengthAdjust="spacing" textLength="202" x="295" y="360.8089">boolean remove(ItemStack i);</text><text fill="#000000" font-family="sans-serif" font-size="14" lengthAdjust="spacing" textLength="150" x="295" y="377.1057">String showStorage();</text></g><g id="elem_GMN8"><path d="M22,315.25 L22,340.3828 A0,0 0 0 0 22,340.3828 L254,340.3828 A0,0 0 0 0 254,340.3828 L254,333.25 L288.58,327.82 L254,325.25 L254,325.25 L244,315.25 L22,315.25 A0,0 0 0 0 22,315.25 " fill="#FEFFDD" style="stroke:#181818;stroke-width:0.5;"/><path d="M244,315.25 L244,325.25 L254,325.25 L244,315.25 " fill="#FEFFDD" style="stroke:#181818;stroke-width:0.5;"/><text fill="#000000" font-family="sans-serif" font-size="13" lengthAdjust="spacing" textLength="211" x="28" y="332.3169">Classe base per tutti i contenitori</text></g><!--class Inventario--><g id="elem_Inventario"><rect codeLine="49" fill="#F1F1F1" height="113.1875" id="Inventario" rx="2.5" ry="2.5" style="stroke:#181818;stroke-width:0.5;" width="242" x="493" y="41"/><ellipse cx="576.25" cy="57" fill="#ADD1B2" rx="11" ry="11" style="stroke:#181818;stroke-width:1.0;"/><path d="M579.2188,62.6406 Q578.6406,62.9375 578,63.0781 Q577.3594,63.2344 576.6563,63.2344 Q574.1563,63.2344 572.8281,61.5938 Q571.5156,59.9375 571.5156,56.8125 Q571.5156,53.6875 572.8281,52.0313 Q574.1563,50.375 576.6563,50.375 Q577.3594,50.375 578,50.5313 Q578.6563,50.6875 579.2188,50.9844 L579.2188,53.7031 Q578.5938,53.125 578,52.8594 Q577.4063,52.5781 576.7813,52.5781 Q575.4375,52.5781 574.75,53.6563 Q574.0625,54.7188 574.0625,56.8125 Q574.0625,58.9063 574.75,59.9844 Q575.4375,61.0469 576.7813,61.0469 Q577.4063,61.0469 578,60.7813 Q578.5938,60.5 579.2188,59.9219 L579.2188,62.6406 Z " fill="#000000"/><text fill="#000000" font-family="sans-serif" font-size="14" lengthAdjust="spacing" textLength="67" x="596.75" y="61.8467">Inventario</text><line style="stroke:#181818;stroke-width:0.5;" x1="494" x2="734" y1="73" y2="73"/><text fill="#000000" font-family="sans-serif" font-size="14" lengthAdjust="spacing" textLength="85" x="499" y="89.9951">byte weight;</text><line style="stroke:#181818;stroke-width:0.5;" x1="494" x2="734" y1="97.2969" y2="97.2969"/><text fill="#000000" font-family="sans-serif" font-size="14" lengthAdjust="spacing" textLength="120" x="499" y="114.292">byte getWeight();</text><text fill="#000000" font-family="sans-serif" font-size="14" lengthAdjust="spacing" textLength="193" x="499" y="130.5889">byte quantyOf(String items);</text><text fill="#000000" font-family="sans-serif" font-size="14" lengthAdjust="spacing" textLength="230" x="499" y="146.8857">ItemStack searchFor(String item);</text></g><!--class Chest--><g id="elem_Chest"><rect codeLine="57" fill="#F1F1F1" height="48" id="Chest" rx="2.5" ry="2.5" style="stroke:#181818;stroke-width:0.5;" width="73" x="770.5" y="73.59"/><ellipse cx="785.5" cy="89.59" fill="#ADD1B2" rx="11" ry="11" style="stroke:#181818;stroke-width:1.0;"/><path d="M788.4688,95.2306 Q787.8906,95.5275 787.25,95.6681 Q786.6094,95.8244 785.9063,95.8244 Q783.4063,95.8244 782.0781,94.1837 Q780.7656,92.5275 780.7656,89.4025 Q780.7656,86.2775 782.0781,84.6212 Q783.4063,82.965 785.9063,82.965 Q786.6094,82.965 787.25,83.1212 Q787.9063,83.2775 788.4688,83.5744 L788.4688,86.2931 Q787.8438,85.715 787.25,85.4494 Q786.6563,85.1681 786.0313,85.1681 Q784.6875,85.1681 784,86.2462 Q783.3125,87.3087 783.3125,89.4025 Q783.3125,91.4962 784,92.5744 Q784.6875,93.6369 786.0313,93.6369 Q786.6563,93.6369 787.25,93.3712 Q787.8438,93.09 788.4688,92.5119 L788.4688,95.2306 Z " fill="#000000"/><text fill="#000000" font-family="sans-serif" font-size="14" lengthAdjust="spacing" textLength="41" x="799.5" y="94.4367">Chest</text><line style="stroke:#181818;stroke-width:0.5;" x1="771.5" x2="842.5" y1="105.59" y2="105.59"/><line style="stroke:#181818;stroke-width:0.5;" x1="771.5" x2="842.5" y1="113.59" y2="113.59"/></g><!--class awsClient--><g id="elem_awsClient"><rect codeLine="71" fill="#F1F1F1" height="96.8906" id="awsClient" rx="2.5" ry="2.5" style="stroke:#181818;stroke-width:0.5;" width="231" x="1076.5" y="49.15"/><ellipse cx="1154.75" cy="65.15" fill="#ADD1B2" rx="11" ry="11" style="stroke:#181818;stroke-width:1.0;"/><path d="M1157.7188,70.7906 Q1157.1406,71.0875 1156.5,71.2281 Q1155.8594,71.3844 1155.1563,71.3844 Q1152.6563,71.3844 1151.3281,69.7437 Q1150.0156,68.0875 1150.0156,64.9625 Q1150.0156,61.8375 1151.3281,60.1812 Q1152.6563,58.525 1155.1563,58.525 Q1155.8594,58.525 1156.5,58.6812 Q1157.1563,58.8375 1157.7188,59.1344 L1157.7188,61.8531 Q1157.0938,61.275 1156.5,61.0094 Q1155.9063,60.7281 1155.2813,60.7281 Q1153.9375,60.7281 1153.25,61.8062 Q1152.5625,62.8687 1152.5625,64.9625 Q1152.5625,67.0562 1153.25,68.1344 Q1153.9375,69.1969 1155.2813,69.1969 Q1155.9063,69.1969 1156.5,68.9312 Q1157.0938,68.65 1157.7188,68.0719 L1157.7188,70.7906 Z " fill="#000000"/><text fill="#000000" font-family="sans-serif" font-size="14" lengthAdjust="spacing" textLength="66" x="1175.25" y="69.9967">awsClient</text><line style="stroke:#181818;stroke-width:0.5;" x1="1077.5" x2="1306.5" y1="81.15" y2="81.15"/><line style="stroke:#181818;stroke-width:0.5;" x1="1077.5" x2="1306.5" y1="89.15" y2="89.15"/><text fill="#000000" font-family="sans-serif" font-size="14" lengthAdjust="spacing" textLength="125" x="1082.5" y="106.1451">void upload(File f);</text><text fill="#000000" font-family="sans-serif" font-size="14" lengthAdjust="spacing" textLength="177" x="1082.5" y="122.442">void download(String file);</text><text fill="#000000" font-family="sans-serif" font-size="14" lengthAdjust="spacing" textLength="219" x="1082.5" y="138.7389">String getChecksum(String file);</text></g><!--class JsonParser--><g id="elem_JsonParser"><rect codeLine="77" fill="#F1F1F1" height="48" id="JsonParser" rx="2.5" ry="2.5" style="stroke:#181818;stroke-width:0.5;" width="105" x="1342.5" y="73.59"/><ellipse cx="1357.5" cy="89.59" fill="#ADD1B2" rx="11" ry="11" style="stroke:#181818;stroke-width:1.0;"/><path d="M1360.4688,95.2306 Q1359.8906,95.5275 1359.25,95.6681 Q1358.6094,95.8244 1357.9063,95.8244 Q1355.4063,95.8244 1354.0781,94.1837 Q1352.7656,92.5275 1352.7656,89.4025 Q1352.7656,86.2775 1354.0781,84.6212 Q1355.4063,82.965 1357.9063,82.965 Q1358.6094,82.965 1359.25,83.1212 Q1359.9063,83.2775 1360.4688,83.5744 L1360.4688,86.2931 Q1359.8438,85.715 1359.25,85.4494 Q1358.6563,85.1681 1358.0313,85.1681 Q1356.6875,85.1681 1356,86.2462 Q1355.3125,87.3087 1355.3125,89.4025 Q1355.3125,91.4962 1356,92.5744 Q1356.6875,93.6369 1358.0313,93.6369 Q1358.6563,93.6369 1359.25,93.3712 Q1359.8438,93.09 1360.4688,92.5119 L1360.4688,95.2306 Z " fill="#000000"/><text fill="#000000" font-family="sans-serif" font-size="14" lengthAdjust="spacing" textLength="73" x="1371.5" y="94.4367">JsonParser</text><line style="stroke:#181818;stroke-width:0.5;" x1="1343.5" x2="1446.5" y1="105.59" y2="105.59"/><line style="stroke:#181818;stroke-width:0.5;" x1="1343.5" x2="1446.5" y1="113.59" y2="113.59"/></g><!--class AdapterSave--><g id="elem_AdapterSave"><rect codeLine="84" fill="#F1F1F1" height="80.5938" id="AdapterSave" rx="2.5" ry="2.5" style="stroke:#181818;stroke-width:0.5;" width="216" x="1503" y="57.29"/><ellipse cx="1563.25" cy="73.29" fill="#ADD1B2" rx="11" ry="11" style="stroke:#181818;stroke-width:1.0;"/><path d="M1566.2188,78.9306 Q1565.6406,79.2275 1565,79.3681 Q1564.3594,79.5244 1563.6563,79.5244 Q1561.1563,79.5244 1559.8281,77.8837 Q1558.5156,76.2275 1558.5156,73.1025 Q1558.5156,69.9775 1559.8281,68.3212 Q1561.1563,66.665 1563.6563,66.665 Q1564.3594,66.665 1565,66.8212 Q1565.6563,66.9775 1566.2188,67.2744 L1566.2188,69.9931 Q1565.5938,69.415 1565,69.1494 Q1564.4063,68.8681 1563.7813,68.8681 Q1562.4375,68.8681 1561.75,69.9462 Q1561.0625,71.0087 1561.0625,73.1025 Q1561.0625,75.1962 1561.75,76.2744 Q1562.4375,77.3369 1563.7813,77.3369 Q1564.4063,77.3369 1565,77.0712 Q1565.5938,76.79 1566.2188,76.2119 L1566.2188,78.9306 Z " fill="#000000"/><text fill="#000000" font-family="sans-serif" font-size="14" lengthAdjust="spacing" textLength="87" x="1583.75" y="78.1367">AdapterSave</text><line style="stroke:#181818;stroke-width:0.5;" x1="1504" x2="1718" y1="89.29" y2="89.29"/><line style="stroke:#181818;stroke-width:0.5;" x1="1504" x2="1718" y1="97.29" y2="97.29"/><text fill="#000000" font-family="sans-serif" font-size="14" lengthAdjust="spacing" textLength="204" x="1509" y="114.2851">boolean checkOldSave(File f);</text><text fill="#000000" font-family="sans-serif" font-size="14" lengthAdjust="spacing" textLength="104" x="1509" y="130.582">File loadSave();</text></g><!--link Storage to ItemStack--><g id="link_Storage_ItemStack"><path codeLine="61" d="M665.24,327.82 C676.55,327.82 681.87,327.82 693.18,327.82 " fill="none" id="Storage-to-ItemStack" style="stroke:#181818;stroke-width:1.0;"/><polygon fill="#181818" points="699.18,327.82,690.18,323.82,694.18,327.82,690.18,331.82,699.18,327.82" style="stroke:#181818;stroke-width:1.0;"/></g><!--link Inventario to Storage--><g id="link_Inventario_Storage"><path codeLine="62" d="M580.49,154.42 C559.26,189.79 541.1654,219.9278 519.9054,255.3378 " fill="none" id="Inventario-to-Storage" style="stroke:#181818;stroke-width:1.0;"/><polygon fill="none" points="510.64,270.77,525.0495,258.4263,514.7613,252.2493,510.64,270.77" style="stroke:#181818;stroke-width:1.0;"/></g><!--link Chest to Storage--><g id="link_Chest_Storage"><path codeLine="64" d="M792.43,122.08 C782.36,137.05 767.94,156.16 752,170.04 C737.03,183.07 667.1035,222.6503 595.3035,262.2303 " fill="none" id="Chest-to-Storage" style="stroke:#181818;stroke-width:1.0;"/><polygon fill="none" points="579.54,270.92,598.2001,267.4848,592.407,256.9758,579.54,270.92" style="stroke:#181818;stroke-width:1.0;"/></g><!--link ItemStack to ItemType--><g id="link_ItemStack_ItemType"><path codeLine="65" d="M886.87,327.82 C898.26,327.82 903.65,327.82 915.05,327.82 " fill="none" id="ItemStack-to-ItemType" style="stroke:#181818;stroke-width:1.0;"/><polygon fill="#181818" points="921.05,327.82,912.05,323.82,916.05,327.82,912.05,331.82,921.05,327.82" style="stroke:#181818;stroke-width:1.0;"/></g><!--SRC=[TLJ1RXen4BtlLupI0_GGeUJOj4Y852bL4cX8LQatipkxM5dihUrTkgByJ_yZFzOPsxjBg8eGs3Fsc-Stpwv4-Y8AX8krquO63qA9OeVANS2xM_yv04n6Lgj2bmXELhhKXKJ04dcP74sIj1JMmft3tKAa1DCcXmJyVEq87WfqJq9bUiUXyVkRywGFyyzpMr49Md1C8kYz5XaQpZ7aC1kldP6gW5oM601LGsnqw_72sBJZ00K3mL2JiI0YABr31e1Dwn0gj7gO_Qo5SkqmRqIfJLWzq8sAY1kAdk1cQ5CZAoUryXjw42BubN2bQuCKq6YPWSWoZhgpiC6TRj1dkdZ4jrkzlnrgn2H5ZUCIApf8Z4r6hdPEWaMVeOOH6v85LRthpy6Ih9O_xfQFdw-6uJKDPqyFiwlutysVlptrCHvVCzvaLA1bBWYP1AboIOUa0LMWcc9ZdI5xG3JQ8MXoBwtxs7TcwbTR-0GAzp0pHhHd2swedRrYuw6bqfzreycaGaNPtgQz4eOPkbhQ524NfKNWRs04ht-WgRNJNg4JcIFZu2QbgOSbvWvqtfq5Fi2SBOQm4PPDP218BY7LoY7fe8tiF1tiAOpK1sBqg1LnC4tmteFunTlJhMT3heAAADDo946XAaMBnjFpLjgZBBREIz9PwxiFXSwVU7YPTpV62tns1oqAAhdGvdJHwJMSRqct0y-FINVco-a9GZ8S2YulVqyxPPB4RtqR6xP533PWmfyglaOhD9RwBbAyvnFtJn6n3eJ4tivBIHNzLGw6gAkIteVnWfu4o8FrGoBJU-LJvuz6tsKIZdYcBxR-zsNX1oHM_KBFu4eOQbSewxFXCdNCPvce79h_q8xPjMWm87I6JRdwiimuy_O4ViBiVOfiF1anDM-2OtBy2m00]--></g></svg>