<?xml version="1.0" encoding="us-ascii" standalone="no"?><svg xmlns="http://www.w3.org/2000/svg" xmlns:xlink="http://www.w3.org/1999/xlink" contentStyleType="text/css" height="578px" preserveAspectRatio="none" style="width:2405px;height:578px;background:#FFFFFF;" version="1.1" viewBox="0 0 2405 578" width="2405px" zoomAndPan="magnify"><defs/><g><!--cluster StorageManagment--><g id="cluster_StorageManagment"><path d="M8.5,6 L162.5,6 A3.75,3.75 0 0 1 165,8.5 L172,28.2969 L1697.5,28.2969 A2.5,2.5 0 0 1 1700,30.7969 L1700,569.03 A2.5,2.5 0 0 1 1697.5,571.53 L8.5,571.53 A2.5,2.5 0 0 1 6,569.03 L6,8.5 A2.5,2.5 0 0 1 8.5,6 " fill="#DDDDDD" style="stroke:#000000;stroke-width:1.5;"/><line style="stroke:#000000;stroke-width:1.5;" x1="6" x2="172" y1="28.2969" y2="28.2969"/><text fill="#000000" font-family="sans-serif" font-size="14" font-weight="bold" lengthAdjust="spacing" textLength="153" x="10" y="20.9951">StorageManagment</text></g><!--cluster PersistaceLayer--><g id="cluster_PersistaceLayer"><path d="M1726.5,14.15 L1854.5,14.15 A3.75,3.75 0 0 1 1857,16.65 L1864,36.4469 L2123.5,36.4469 A2.5,2.5 0 0 1 2126,38.9469 L2126,159.54 A2.5,2.5 0 0 1 2123.5,162.04 L1726.5,162.04 A2.5,2.5 0 0 1 1724,159.54 L1724,16.65 A2.5,2.5 0 0 1 1726.5,14.15 " fill="#DDDDDD" style="stroke:#000000;stroke-width:1.5;"/><line style="stroke:#000000;stroke-width:1.5;" x1="1724" x2="1864" y1="36.4469" y2="36.4469"/><text fill="#000000" font-family="sans-serif" font-size="14" font-weight="bold" lengthAdjust="spacing" textLength="127" x="1728" y="29.1451">PersistaceLayer</text></g><!--cluster AdapterLayer--><g id="cluster_AdapterLayer"><path d="M2152.5,22.3 L2260.5,22.3 A3.75,3.75 0 0 1 2263,24.8 L2270,44.5969 L2395.5,44.5969 A2.5,2.5 0 0 1 2398,47.0969 L2398,151.39 A2.5,2.5 0 0 1 2395.5,153.89 L2152.5,153.89 A2.5,2.5 0 0 1 2150,151.39 L2150,24.8 A2.5,2.5 0 0 1 2152.5,22.3 " fill="#DDDDDD" style="stroke:#000000;stroke-width:1.5;"/><line style="stroke:#000000;stroke-width:1.5;" x1="2150" x2="2270" y1="44.5969" y2="44.5969"/><text fill="#000000" font-family="sans-serif" font-size="14" font-weight="bold" lengthAdjust="spacing" textLength="107" x="2154" y="37.2951">AdapterLayer</text></g><!--class ItemFactory--><g id="elem_ItemFactory"><rect codeLine="2" fill="#F1F1F1" height="113.1875" id="ItemFactory" rx="2.5" ry="2.5" style="stroke:#181818;stroke-width:0.5;" width="729" x="22.5" y="41"/><ellipse cx="342.75" cy="57" fill="#ADD1B2" rx="11" ry="11" style="stroke:#181818;stroke-width:1.0;"/><path d="M345.7188,62.6406 Q345.1406,62.9375 344.5,63.0781 Q343.8594,63.2344 343.1563,63.2344 Q340.6563,63.2344 339.3281,61.5938 Q338.0156,59.9375 338.0156,56.8125 Q338.0156,53.6875 339.3281,52.0313 Q340.6563,50.375 343.1563,50.375 Q343.8594,50.375 344.5,50.5313 Q345.1563,50.6875 345.7188,50.9844 L345.7188,53.7031 Q345.0938,53.125 344.5,52.8594 Q343.9063,52.5781 343.2813,52.5781 Q341.9375,52.5781 341.25,53.6563 Q340.5625,54.7188 340.5625,56.8125 Q340.5625,58.9063 341.25,59.9844 Q341.9375,61.0469 343.2813,61.0469 Q343.9063,61.0469 344.5,60.7813 Q345.0938,60.5 345.7188,59.9219 L345.7188,62.6406 Z " fill="#000000"/><text fill="#000000" font-family="sans-serif" font-size="14" lengthAdjust="spacing" textLength="80" x="363.25" y="61.8467">ItemFactory</text><line style="stroke:#181818;stroke-width:0.5;" x1="23.5" x2="750.5" y1="73" y2="73"/><line style="stroke:#181818;stroke-width:0.5;" x1="23.5" x2="750.5" y1="81" y2="81"/><text fill="#000000" font-family="sans-serif" font-size="14" lengthAdjust="spacing" textLength="198" x="28.5" y="97.9951">ItemStack getRandomItem();</text><text fill="#000000" font-family="sans-serif" font-size="14" lengthAdjust="spacing" textLength="241" x="28.5" y="114.292">ItemStack getRandom(ItemType t);</text><text fill="#000000" font-family="sans-serif" font-size="14" lengthAdjust="spacing" textLength="223" x="28.5" y="130.5889">ItemStack getItem(String name);</text><text fill="#000000" font-family="sans-serif" font-size="14" lengthAdjust="spacing" textLength="717" x="28.5" y="146.8857">ItemStack createItem(String name, ItemType t, byte value, byte weight, byte quantity, String description);</text></g><!--class LoaderItem--><g id="elem_LoaderItem"><rect codeLine="10" fill="#F1F1F1" height="80.5938" id="LoaderItem" rx="2.5" ry="2.5" style="stroke:#181818;stroke-width:0.5;" width="532" x="787" y="57.3"/><ellipse cx="1010.25" cy="73.3" fill="#ADD1B2" rx="11" ry="11" style="stroke:#181818;stroke-width:1.0;"/><path d="M1013.2188,78.9406 Q1012.6406,79.2375 1012,79.3781 Q1011.3594,79.5344 1010.6563,79.5344 Q1008.1563,79.5344 1006.8281,77.8937 Q1005.5156,76.2375 1005.5156,73.1125 Q1005.5156,69.9875 1006.8281,68.3312 Q1008.1563,66.675 1010.6563,66.675 Q1011.3594,66.675 1012,66.8312 Q1012.6563,66.9875 1013.2188,67.2844 L1013.2188,70.0031 Q1012.5938,69.425 1012,69.1594 Q1011.4063,68.8781 1010.7813,68.8781 Q1009.4375,68.8781 1008.75,69.9562 Q1008.0625,71.0187 1008.0625,73.1125 Q1008.0625,75.2062 1008.75,76.2844 Q1009.4375,77.3469 1010.7813,77.3469 Q1011.4063,77.3469 1012,77.0812 Q1012.5938,76.8 1013.2188,76.2219 L1013.2188,78.9406 Z " fill="#000000"/><text fill="#000000" font-family="sans-serif" font-size="14" lengthAdjust="spacing" textLength="77" x="1030.75" y="78.1467">LoaderItem</text><line style="stroke:#181818;stroke-width:0.5;" x1="788" x2="1318" y1="89.3" y2="89.3"/><line style="stroke:#181818;stroke-width:0.5;" x1="788" x2="1318" y1="97.3" y2="97.3"/><text fill="#000000" font-family="sans-serif" font-size="14" lengthAdjust="spacing" textLength="155" x="793" y="114.2951">LoaderItem(String file);</text><text fill="#000000" font-family="sans-serif" font-size="14" lengthAdjust="spacing" textLength="520" x="793" y="130.592">public /'HashMap&lt;ItemType, ItemStack&gt; '/ Vector&lt;ItemSatck&gt; loadItems();</text></g><!--class ItemStack--><g id="elem_ItemStack"><rect codeLine="15" fill="#F1F1F1" height="341.3438" id="ItemStack" rx="2.5" ry="2.5" style="stroke:#181818;stroke-width:0.5;" width="196" x="1285" y="214.19"/><ellipse cx="1344.75" cy="230.19" fill="#ADD1B2" rx="11" ry="11" style="stroke:#181818;stroke-width:1.0;"/><path d="M1347.7188,235.8306 Q1347.1406,236.1275 1346.5,236.2681 Q1345.8594,236.4244 1345.1563,236.4244 Q1342.6563,236.4244 1341.3281,234.7838 Q1340.0156,233.1275 1340.0156,230.0025 Q1340.0156,226.8775 1341.3281,225.2213 Q1342.6563,223.565 1345.1563,223.565 Q1345.8594,223.565 1346.5,223.7213 Q1347.1563,223.8775 1347.7188,224.1744 L1347.7188,226.8931 Q1347.0938,226.315 1346.5,226.0494 Q1345.9063,225.7681 1345.2813,225.7681 Q1343.9375,225.7681 1343.25,226.8463 Q1342.5625,227.9088 1342.5625,230.0025 Q1342.5625,232.0963 1343.25,233.1744 Q1343.9375,234.2369 1345.2813,234.2369 Q1345.9063,234.2369 1346.5,233.9713 Q1347.0938,233.69 1347.7188,233.1119 L1347.7188,235.8306 Z " fill="#000000"/><text fill="#000000" font-family="sans-serif" font-size="14" lengthAdjust="spacing" textLength="68" x="1365.25" y="235.0367">ItemStack</text><line style="stroke:#181818;stroke-width:0.5;" x1="1286" x2="1480" y1="246.19" y2="246.19"/><text fill="#000000" font-family="sans-serif" font-size="14" lengthAdjust="spacing" textLength="88" x="1291" y="263.1851">String name;</text><text fill="#000000" font-family="sans-serif" font-size="14" lengthAdjust="spacing" textLength="85" x="1291" y="279.482">byte weight;</text><text fill="#000000" font-family="sans-serif" font-size="14" lengthAdjust="spacing" textLength="94" x="1291" y="295.7789">byte quantity;</text><text fill="#000000" font-family="sans-serif" font-size="14" lengthAdjust="spacing" textLength="75" x="1291" y="312.0757">byte value;</text><text fill="#000000" font-family="sans-serif" font-size="14" lengthAdjust="spacing" textLength="103" x="1291" y="328.3726">ItemType type;</text><text fill="#000000" font-family="sans-serif" font-size="14" lengthAdjust="spacing" textLength="126" x="1291" y="344.6695">String description;</text><line style="stroke:#181818;stroke-width:0.5;" x1="1286" x2="1480" y1="351.9713" y2="351.9713"/><text fill="#000000" font-family="sans-serif" font-size="14" lengthAdjust="spacing" textLength="124" x="1291" y="368.9664">byte getQuanity();</text><text fill="#000000" font-family="sans-serif" font-size="14" lengthAdjust="spacing" textLength="120" x="1291" y="385.2632">byte getWeight();</text><text fill="#000000" font-family="sans-serif" font-size="14" lengthAdjust="spacing" textLength="110" x="1291" y="401.5601">byte getValue();</text><text fill="#000000" font-family="sans-serif" font-size="14" lengthAdjust="spacing" textLength="140" x="1291" y="417.857">ItemType getType();</text><text fill="#000000" font-family="sans-serif" font-size="14" lengthAdjust="spacing" textLength="122" x="1291" y="434.1539">String getName();</text><text fill="#000000" font-family="sans-serif" font-size="14" lengthAdjust="spacing" textLength="4" x="1291" y="450.4507">&#160;</text><text fill="#000000" font-family="sans-serif" font-size="14" lengthAdjust="spacing" textLength="130" x="1291" y="466.7476">void addQuantity();</text><text fill="#000000" font-family="sans-serif" font-size="14" lengthAdjust="spacing" textLength="184" x="1291" y="483.0445">boolean removeQuantity();</text><text fill="#000000" font-family="sans-serif" font-size="14" lengthAdjust="spacing" textLength="175" x="1291" y="499.3414">String showDescription();</text><text fill="#000000" font-family="sans-serif" font-size="14" lengthAdjust="spacing" textLength="4" x="1291" y="515.6382">&#160;</text><text fill="#000000" font-family="sans-serif" font-size="14" lengthAdjust="spacing" textLength="166" x="1291" y="531.9351">boolean equals(Object);</text><text fill="#000000" font-family="sans-serif" font-size="14" lengthAdjust="spacing" textLength="125" x="1291" y="548.232">ItemStack clone();</text></g><!--class ItemType--><g id="elem_ItemType"><rect codeLine="37" fill="#F1F1F1" height="210.9688" id="ItemType" rx="2.5" ry="2.5" style="stroke:#181818;stroke-width:0.5;" width="169" x="1515.5" y="279.37"/><ellipse cx="1563.75" cy="295.37" fill="#EB937F" rx="11" ry="11" style="stroke:#181818;stroke-width:1.0;"/><path d="M1567.8594,301.37 L1560.1406,301.37 L1560.1406,288.9794 L1567.8594,288.9794 L1567.8594,291.1356 L1562.5938,291.1356 L1562.5938,293.8075 L1567.3594,293.8075 L1567.3594,295.9637 L1562.5938,295.9637 L1562.5938,299.2137 L1567.8594,299.2137 L1567.8594,301.37 Z " fill="#000000"/><text fill="#000000" font-family="sans-serif" font-size="14" lengthAdjust="spacing" textLength="64" x="1584.25" y="300.2167">ItemType</text><line style="stroke:#181818;stroke-width:0.5;" x1="1516.5" x2="1683.5" y1="311.37" y2="311.37"/><text fill="#000000" font-family="sans-serif" font-size="14" lengthAdjust="spacing" textLength="40" x="1521.5" y="328.3651">ARMA</text><text fill="#000000" font-family="sans-serif" font-size="14" lengthAdjust="spacing" textLength="78" x="1521.5" y="344.662">ARMATURA</text><text fill="#000000" font-family="sans-serif" font-size="14" lengthAdjust="spacing" textLength="109" x="1521.5" y="360.9589">POZIONE_CURA</text><text fill="#000000" font-family="sans-serif" font-size="14" lengthAdjust="spacing" textLength="121" x="1521.5" y="377.2557">POZIONE_DANNO</text><text fill="#000000" font-family="sans-serif" font-size="14" lengthAdjust="spacing" textLength="118" x="1521.5" y="393.5526">POZIONE_FORZA</text><text fill="#000000" font-family="sans-serif" font-size="14" lengthAdjust="spacing" textLength="157" x="1521.5" y="409.8495">POZIONE_RESISTENZA</text><text fill="#000000" font-family="sans-serif" font-size="14" lengthAdjust="spacing" textLength="125" x="1521.5" y="426.1464">POZIONE_VELENO</text><text fill="#000000" font-family="sans-serif" font-size="14" lengthAdjust="spacing" textLength="143" x="1521.5" y="442.4432">POZIONE_INVALIDITA</text><text fill="#000000" font-family="sans-serif" font-size="14" lengthAdjust="spacing" textLength="34" x="1521.5" y="458.7401">CIBO</text><text fill="#000000" font-family="sans-serif" font-size="14" lengthAdjust="spacing" textLength="93" x="1521.5" y="475.037">EASTER_EGG</text><line style="stroke:#181818;stroke-width:0.5;" x1="1516.5" x2="1683.5" y1="482.3387" y2="482.3387"/></g><!--class Storage--><g id="elem_Storage"><rect codeLine="51" fill="#F1F1F1" height="210.9688" id="Storage" rx="2.5" ry="2.5" style="stroke:#181818;stroke-width:0.5;" width="376" x="874" y="279.37"/><ellipse cx="1030.75" cy="295.37" fill="#A9DCDF" rx="11" ry="11" style="stroke:#181818;stroke-width:1.0;"/><path d="M1030.8594,290.7137 L1029.7031,295.7919 L1032.0313,295.7919 L1030.8594,290.7137 Z M1029.375,288.4794 L1032.3594,288.4794 L1035.7188,300.87 L1033.2656,300.87 L1032.5,297.8075 L1029.2188,297.8075 L1028.4688,300.87 L1026.0313,300.87 L1029.375,288.4794 Z " fill="#000000"/><text fill="#000000" font-family="sans-serif" font-size="14" font-style="italic" lengthAdjust="spacing" textLength="54" x="1051.25" y="300.2167">Storage</text><line style="stroke:#181818;stroke-width:0.5;" x1="875" x2="1249" y1="311.37" y2="311.37"/><text fill="#000000" font-family="sans-serif" font-size="14" lengthAdjust="spacing" textLength="364" x="880" y="328.3651">List&lt;ItemStack&gt; items = new ArrayList&lt;ItemStack&gt;;</text><line style="stroke:#181818;stroke-width:0.5;" x1="875" x2="1249" y1="335.6669" y2="335.6669"/><text fill="#000000" font-family="sans-serif" font-size="14" lengthAdjust="spacing" textLength="176" x="880" y="352.662">boolean add(ItemStack i);</text><text fill="#000000" font-family="sans-serif" font-size="14" lengthAdjust="spacing" textLength="202" x="880" y="368.9589">boolean remove(ItemStack i);</text><text fill="#000000" font-family="sans-serif" font-size="14" lengthAdjust="spacing" textLength="4" x="880" y="385.2557">&#160;</text><text fill="#000000" font-family="sans-serif" font-size="14" lengthAdjust="spacing" textLength="225" x="880" y="401.5526">List&lt;ItemStack&gt; showStorage();</text><text fill="#000000" font-family="sans-serif" font-size="14" lengthAdjust="spacing" textLength="192" x="880" y="417.8495">byte quantityOf(ItemType t);</text><text fill="#000000" font-family="sans-serif" font-size="14" lengthAdjust="spacing" textLength="229" x="880" y="434.1464">ItemStack searchFor(ItemType t);</text><text fill="#000000" font-family="sans-serif" font-size="14" lengthAdjust="spacing" textLength="239" x="880" y="450.4432">ItemStack searchFor(String name);</text><text fill="#000000" font-family="sans-serif" font-size="14" lengthAdjust="spacing" textLength="4" x="880" y="466.7401">&#160;</text><text fill="#000000" font-family="sans-serif" font-size="14" lengthAdjust="spacing" textLength="113" x="880" y="483.037">String toString();</text></g><path d="M506.5,359.73 L506.5,399.9956 A0,0 0 0 0 506.5,399.9956 L839.5,399.9956 A0,0 0 0 0 839.5,399.9956 L839.5,383.8628 L878,445.5966 L839.5,375.8628 L839.5,369.73 L829.5,359.73 L506.5,359.73 A0,0 0 0 0 506.5,359.73 " fill="#FEFFDD" style="stroke:#181818;stroke-width:0.5;"/><path d="M829.5,359.73 L829.5,369.73 L839.5,369.73 L829.5,359.73 " fill="#FEFFDD" style="stroke:#181818;stroke-width:0.5;"/><text fill="#000000" font-family="sans-serif" font-size="13" lengthAdjust="spacing" textLength="312" x="512.5" y="376.7969">shallow copy, evita di influenzare elementi interni</text><text fill="#000000" font-family="sans-serif" font-size="13" lengthAdjust="spacing" textLength="297" x="512.5" y="391.9297">?esiste modo per fare un final per il chiamante</text><!--class Inventario--><g id="elem_Inventario"><rect codeLine="69" fill="#F1F1F1" height="80.5938" id="Inventario" rx="2.5" ry="2.5" style="stroke:#181818;stroke-width:0.5;" width="153" x="1354.5" y="57.3"/><ellipse cx="1393.8" cy="73.3" fill="#ADD1B2" rx="11" ry="11" style="stroke:#181818;stroke-width:1.0;"/><path d="M1396.7688,78.9406 Q1396.1906,79.2375 1395.55,79.3781 Q1394.9094,79.5344 1394.2063,79.5344 Q1391.7063,79.5344 1390.3781,77.8937 Q1389.0656,76.2375 1389.0656,73.1125 Q1389.0656,69.9875 1390.3781,68.3312 Q1391.7063,66.675 1394.2063,66.675 Q1394.9094,66.675 1395.55,66.8312 Q1396.2063,66.9875 1396.7688,67.2844 L1396.7688,70.0031 Q1396.1438,69.425 1395.55,69.1594 Q1394.9563,68.8781 1394.3313,68.8781 Q1392.9875,68.8781 1392.3,69.9562 Q1391.6125,71.0187 1391.6125,73.1125 Q1391.6125,75.2062 1392.3,76.2844 Q1392.9875,77.3469 1394.3313,77.3469 Q1394.9563,77.3469 1395.55,77.0812 Q1396.1438,76.8 1396.7688,76.2219 L1396.7688,78.9406 Z " fill="#000000"/><text fill="#000000" font-family="sans-serif" font-size="14" lengthAdjust="spacing" textLength="67" x="1413.2" y="78.1467">Inventario</text><line style="stroke:#181818;stroke-width:0.5;" x1="1355.5" x2="1506.5" y1="89.3" y2="89.3"/><text fill="#000000" font-family="sans-serif" font-size="14" lengthAdjust="spacing" textLength="85" x="1360.5" y="106.2951">byte weight;</text><line style="stroke:#181818;stroke-width:0.5;" x1="1355.5" x2="1506.5" y1="113.5969" y2="113.5969"/><text fill="#000000" font-family="sans-serif" font-size="14" lengthAdjust="spacing" textLength="141" x="1360.5" y="130.592">int getTotalWeight();</text></g><!--class Chest--><g id="elem_Chest"><rect codeLine="75" fill="#F1F1F1" height="113.1875" id="Chest" rx="2.5" ry="2.5" style="stroke:#181818;stroke-width:0.5;" width="142" x="1542" y="41"/><ellipse cx="1588.25" cy="57" fill="#ADD1B2" rx="11" ry="11" style="stroke:#181818;stroke-width:1.0;"/><path d="M1591.2188,62.6406 Q1590.6406,62.9375 1590,63.0781 Q1589.3594,63.2344 1588.6563,63.2344 Q1586.1563,63.2344 1584.8281,61.5938 Q1583.5156,59.9375 1583.5156,56.8125 Q1583.5156,53.6875 1584.8281,52.0313 Q1586.1563,50.375 1588.6563,50.375 Q1589.3594,50.375 1590,50.5313 Q1590.6563,50.6875 1591.2188,50.9844 L1591.2188,53.7031 Q1590.5938,53.125 1590,52.8594 Q1589.4063,52.5781 1588.7813,52.5781 Q1587.4375,52.5781 1586.75,53.6563 Q1586.0625,54.7188 1586.0625,56.8125 Q1586.0625,58.9063 1586.75,59.9844 Q1587.4375,61.0469 1588.7813,61.0469 Q1589.4063,61.0469 1590,60.7813 Q1590.5938,60.5 1591.2188,59.9219 L1591.2188,62.6406 Z " fill="#000000"/><text fill="#000000" font-family="sans-serif" font-size="14" lengthAdjust="spacing" textLength="41" x="1608.75" y="61.8467">Chest</text><line style="stroke:#181818;stroke-width:0.5;" x1="1543" x2="1683" y1="73" y2="73"/><text fill="#000000" font-family="sans-serif" font-size="14" lengthAdjust="spacing" textLength="93" x="1548" y="89.9951">boolean lock;</text><line style="stroke:#181818;stroke-width:0.5;" x1="1543" x2="1683" y1="97.2969" y2="97.2969"/><text fill="#000000" font-family="sans-serif" font-size="14" lengthAdjust="spacing" textLength="75" x="1548" y="114.292">void lock();</text><text fill="#000000" font-family="sans-serif" font-size="14" lengthAdjust="spacing" textLength="88" x="1548" y="130.5889">void unlock()</text><text fill="#000000" font-family="sans-serif" font-size="14" lengthAdjust="spacing" textLength="130" x="1548" y="146.8857">boolean getLock();</text></g><!--class awsClient--><g id="elem_awsClient"><rect codeLine="95" fill="#F1F1F1" height="96.8906" id="awsClient" rx="2.5" ry="2.5" style="stroke:#181818;stroke-width:0.5;" width="231" x="1739.5" y="49.15"/><ellipse cx="1817.75" cy="65.15" fill="#ADD1B2" rx="11" ry="11" style="stroke:#181818;stroke-width:1.0;"/><path d="M1820.7188,70.7906 Q1820.1406,71.0875 1819.5,71.2281 Q1818.8594,71.3844 1818.1563,71.3844 Q1815.6563,71.3844 1814.3281,69.7437 Q1813.0156,68.0875 1813.0156,64.9625 Q1813.0156,61.8375 1814.3281,60.1812 Q1815.6563,58.525 1818.1563,58.525 Q1818.8594,58.525 1819.5,58.6812 Q1820.1563,58.8375 1820.7188,59.1344 L1820.7188,61.8531 Q1820.0938,61.275 1819.5,61.0094 Q1818.9063,60.7281 1818.2813,60.7281 Q1816.9375,60.7281 1816.25,61.8062 Q1815.5625,62.8687 1815.5625,64.9625 Q1815.5625,67.0562 1816.25,68.1344 Q1816.9375,69.1969 1818.2813,69.1969 Q1818.9063,69.1969 1819.5,68.9312 Q1820.0938,68.65 1820.7188,68.0719 L1820.7188,70.7906 Z " fill="#000000"/><text fill="#000000" font-family="sans-serif" font-size="14" lengthAdjust="spacing" textLength="66" x="1838.25" y="69.9967">awsClient</text><line style="stroke:#181818;stroke-width:0.5;" x1="1740.5" x2="1969.5" y1="81.15" y2="81.15"/><line style="stroke:#181818;stroke-width:0.5;" x1="1740.5" x2="1969.5" y1="89.15" y2="89.15"/><text fill="#000000" font-family="sans-serif" font-size="14" lengthAdjust="spacing" textLength="125" x="1745.5" y="106.1451">void upload(File f);</text><text fill="#000000" font-family="sans-serif" font-size="14" lengthAdjust="spacing" textLength="177" x="1745.5" y="122.442">void download(String file);</text><text fill="#000000" font-family="sans-serif" font-size="14" lengthAdjust="spacing" textLength="219" x="1745.5" y="138.7389">String getChecksum(String file);</text></g><!--class JsonParser--><g id="elem_JsonParser"><rect codeLine="101" fill="#F1F1F1" height="48" id="JsonParser" rx="2.5" ry="2.5" style="stroke:#181818;stroke-width:0.5;" width="105" x="2005.5" y="73.59"/><ellipse cx="2020.5" cy="89.59" fill="#ADD1B2" rx="11" ry="11" style="stroke:#181818;stroke-width:1.0;"/><path d="M2023.4688,95.2306 Q2022.8906,95.5275 2022.25,95.6681 Q2021.6094,95.8244 2020.9063,95.8244 Q2018.4063,95.8244 2017.0781,94.1837 Q2015.7656,92.5275 2015.7656,89.4025 Q2015.7656,86.2775 2017.0781,84.6212 Q2018.4063,82.965 2020.9063,82.965 Q2021.6094,82.965 2022.25,83.1212 Q2022.9063,83.2775 2023.4688,83.5744 L2023.4688,86.2931 Q2022.8438,85.715 2022.25,85.4494 Q2021.6563,85.1681 2021.0313,85.1681 Q2019.6875,85.1681 2019,86.2462 Q2018.3125,87.3087 2018.3125,89.4025 Q2018.3125,91.4962 2019,92.5744 Q2019.6875,93.6369 2021.0313,93.6369 Q2021.6563,93.6369 2022.25,93.3712 Q2022.8438,93.09 2023.4688,92.5119 L2023.4688,95.2306 Z " fill="#000000"/><text fill="#000000" font-family="sans-serif" font-size="14" lengthAdjust="spacing" textLength="73" x="2034.5" y="94.4367">JsonParser</text><line style="stroke:#181818;stroke-width:0.5;" x1="2006.5" x2="2109.5" y1="105.59" y2="105.59"/><line style="stroke:#181818;stroke-width:0.5;" x1="2006.5" x2="2109.5" y1="113.59" y2="113.59"/></g><!--class AdapterSave--><g id="elem_AdapterSave"><rect codeLine="108" fill="#F1F1F1" height="80.5938" id="AdapterSave" rx="2.5" ry="2.5" style="stroke:#181818;stroke-width:0.5;" width="216" x="2166" y="57.3"/><ellipse cx="2226.25" cy="73.3" fill="#ADD1B2" rx="11" ry="11" style="stroke:#181818;stroke-width:1.0;"/><path d="M2229.2188,78.9406 Q2228.6406,79.2375 2228,79.3781 Q2227.3594,79.5344 2226.6563,79.5344 Q2224.1563,79.5344 2222.8281,77.8937 Q2221.5156,76.2375 2221.5156,73.1125 Q2221.5156,69.9875 2222.8281,68.3312 Q2224.1563,66.675 2226.6563,66.675 Q2227.3594,66.675 2228,66.8312 Q2228.6563,66.9875 2229.2188,67.2844 L2229.2188,70.0031 Q2228.5938,69.425 2228,69.1594 Q2227.4063,68.8781 2226.7813,68.8781 Q2225.4375,68.8781 2224.75,69.9562 Q2224.0625,71.0187 2224.0625,73.1125 Q2224.0625,75.2062 2224.75,76.2844 Q2225.4375,77.3469 2226.7813,77.3469 Q2227.4063,77.3469 2228,77.0812 Q2228.5938,76.8 2229.2188,76.2219 L2229.2188,78.9406 Z " fill="#000000"/><text fill="#000000" font-family="sans-serif" font-size="14" lengthAdjust="spacing" textLength="87" x="2246.75" y="78.1467">AdapterSave</text><line style="stroke:#181818;stroke-width:0.5;" x1="2167" x2="2381" y1="89.3" y2="89.3"/><line style="stroke:#181818;stroke-width:0.5;" x1="2167" x2="2381" y1="97.3" y2="97.3"/><text fill="#000000" font-family="sans-serif" font-size="14" lengthAdjust="spacing" textLength="204" x="2172" y="114.2951">boolean checkOldSave(File f);</text><text fill="#000000" font-family="sans-serif" font-size="14" lengthAdjust="spacing" textLength="104" x="2172" y="130.592">File loadSave();</text></g><!--link Storage to ItemStack--><g id="link_Storage_ItemStack"><path codeLine="85" d="M1250.4,384.86 C1261.79,384.86 1267.19,384.86 1278.59,384.86 " fill="none" id="Storage-to-ItemStack" style="stroke:#181818;stroke-width:1.0;"/><polygon fill="#181818" points="1284.59,384.86,1275.59,380.86,1279.59,384.86,1275.59,388.86,1284.59,384.86" style="stroke:#181818;stroke-width:1.0;"/></g><!--link Inventario to Storage--><g id="link_Inventario_Storage"><path codeLine="86" d="M1380.33,138.29 C1366.45,148.84 1351.29,160.06 1337,170.04 C1307.15,190.88 1297.44,192.76 1268,214.19 C1240.37,234.29 1225.5188,245.5355 1198.5088,267.5255 " fill="none" id="Inventario-to-Storage" style="stroke:#181818;stroke-width:1.0;"/><polygon fill="none" points="1184.55,278.89,1202.297,272.1785,1194.7207,262.8726,1184.55,278.89" style="stroke:#181818;stroke-width:1.0;"/></g><!--link Chest to Storage--><g id="link_Chest_Storage"><path codeLine="88" d="M1551.67,154.68 C1543.13,160.56 1534.14,165.89 1525,170.04 C1419.46,217.93 1373.37,165.92 1268,214.19 C1232.62,230.4 1212.1955,242.8347 1182.0255,267.5447 " fill="none" id="Chest-to-Storage" style="stroke:#181818;stroke-width:1.0;"/><polygon fill="none" points="1168.1,278.95,1185.8272,272.1865,1178.2237,262.9029,1168.1,278.95" style="stroke:#181818;stroke-width:1.0;"/></g><!--link ItemStack to ItemType--><g id="link_ItemStack_ItemType"><path codeLine="89" d="M1481.33,384.86 C1492.61,384.86 1497.89,384.86 1509.17,384.86 " fill="none" id="ItemStack-to-ItemType" style="stroke:#181818;stroke-width:1.0;"/><polygon fill="#181818" points="1515.17,384.86,1506.17,380.86,1510.17,384.86,1506.17,388.86,1515.17,384.86" style="stroke:#181818;stroke-width:1.0;"/></g><!--SRC=[ZLRDRjj64BxpAGRkGGfWG_SuTQ3QSgf2bXp9TO5SWZKvehQckEpkIeAYw7rww0lax1VBDqjIf1G7A66Ot9dP-Vc-sLaLAdvMATFPp1kBZpkLgtJ9kJ-ZNsx2ioFgTPp9KvCnULsOpAIQYJCMCztfHN6cdAEXv-MjYk5cI-7fTLIMcLYHILFsNbDXEK_mPoXH52khl6UhdTVnWaKqruYGQ8fDFjVfogelskIC0Bk8WlkPHxO4PrC5BqiHTTzSlgxiYknXMo3d7qt2pfctEayfLqi-iOWjAy-dHkVKk3odfwrdMgjinTNtXdMwg1N_h1ImyTjpgXmax6Ah2u-Atbm2cfmpSchDv3HqUAiqrQiyPIkRsNa1oHiKluygW4T69MmbXnqSI8xa_Cfx00N8baP0DJc9I9rWI0LRqXdDItxWbLhkwY85_u14iNhAT8mWloktk5F5kxhmymQaA-hqw975Nr3Fb1TX1g-oTDrGfiH56ESClVnBXNxvLgPgy78l_vsJ1qucf9TccZGQ0bLRVR16ng4hf66MJrfPRaFIK2Ojqk9AgcYnSbZMl1m4WS6Q_P9R_Bj4-pOEMzo99TLxqKWVuG_koYwiXN-5cCUoHudJD6k81B6yIsaL2x8nyXSPX6kZ4-2NVApIhdmQ74MLa-MbMVEnhdBZ5cPpqwHTkQitCc38N7Voz3VuE-tz3FqYzW2PyzNoaAuWt9_UzQlNmvzJ-RoVV1fEneFFryVBc_vuF6cjRoVJJstzT30RpXu6uoFXus0qEDer73_sHyERuODONGz_4zsWZttJpuCF7oJ3NYV5MGajZi6XqVEW8_JH4dsYdfotQ7cgXjkk96-4cVEkrSXYxUXNodb3VMlLziJW23kmqMtGqgyGSg9-9Q2mKwNKwfAwDoVpdyyknyh6YrjZ_u_9yO1hciERygDaEJU8dV7SavdNGBrzU_QwcxF8BMIgRt1-2qmtNciCcn9wD7Z-1GVqS3L0YFESw-WzEo3050w-dFMvcAroJ9nSPVLmYXTQBG41e-yIahGEnpnVmv-oskn-FDS84awIyIfhJbwl0oQiJ2F93gGHL_IqvyVr0jspQp68- -fPdDPdJzObHM6voaj1QmT2ZqeZZ3j3IyOSCrKjY2zwyEBvFU9Au7rKOKmNLotMegP6khZuUbKp4KKXnsDPiwto8OqGoLDKr_azMu5SnJnIMy1Rt-L8lAnSRTnrfX5HH7LrXU3LlPM1Emz5Luh4RFAWEhqescCBUSRFRdLocmGezz4XxX_u9N6lh6DR1WvQlFPDxlr45UYRdoHUQMUuEqiFDH6nn9zaYMYEQmWBoJ-e0b6INBW5zz7-Em00]--></g></svg>