<?xml version="1.0" encoding="us-ascii" standalone="no"?><svg xmlns="http://www.w3.org/2000/svg" xmlns:xlink="http://www.w3.org/1999/xlink" contentStyleType="text/css" height="529px" preserveAspectRatio="none" style="width:1958px;height:529px;background:#FFFFFF;" version="1.1" viewBox="0 0 1958 529" width="1958px" zoomAndPan="magnify"><defs/><g><!--cluster StorageManagment--><g id="cluster_StorageManagment"><path d="M8.5,6 L162.5,6 A3.75,3.75 0 0 1 165,8.5 L172,28.2969 L1250.5,28.2969 A2.5,2.5 0 0 1 1253,30.7969 L1253,520.14 A2.5,2.5 0 0 1 1250.5,522.64 L8.5,522.64 A2.5,2.5 0 0 1 6,520.14 L6,8.5 A2.5,2.5 0 0 1 8.5,6 " fill="#DDDDDD" style="stroke:#000000;stroke-width:1.5;"/><line style="stroke:#000000;stroke-width:1.5;" x1="6" x2="172" y1="28.2969" y2="28.2969"/><text fill="#000000" font-family="sans-serif" font-size="14" font-weight="bold" lengthAdjust="spacing" textLength="153" x="10" y="20.9951">StorageManagment</text></g><!--cluster PersistaceLayer--><g id="cluster_PersistaceLayer"><path d="M1279.5,14.15 L1407.5,14.15 A3.75,3.75 0 0 1 1410,16.65 L1417,36.4469 L1676.5,36.4469 A2.5,2.5 0 0 1 1679,38.9469 L1679,159.54 A2.5,2.5 0 0 1 1676.5,162.04 L1279.5,162.04 A2.5,2.5 0 0 1 1277,159.54 L1277,16.65 A2.5,2.5 0 0 1 1279.5,14.15 " fill="#DDDDDD" style="stroke:#000000;stroke-width:1.5;"/><line style="stroke:#000000;stroke-width:1.5;" x1="1277" x2="1417" y1="36.4469" y2="36.4469"/><text fill="#000000" font-family="sans-serif" font-size="14" font-weight="bold" lengthAdjust="spacing" textLength="127" x="1281" y="29.1451">PersistaceLayer</text></g><!--cluster AdapterLayer--><g id="cluster_AdapterLayer"><path d="M1705.5,22.3 L1813.5,22.3 A3.75,3.75 0 0 1 1816,24.8 L1823,44.5969 L1948.5,44.5969 A2.5,2.5 0 0 1 1951,47.0969 L1951,151.39 A2.5,2.5 0 0 1 1948.5,153.89 L1705.5,153.89 A2.5,2.5 0 0 1 1703,151.39 L1703,24.8 A2.5,2.5 0 0 1 1705.5,22.3 " fill="#DDDDDD" style="stroke:#000000;stroke-width:1.5;"/><line style="stroke:#000000;stroke-width:1.5;" x1="1703" x2="1823" y1="44.5969" y2="44.5969"/><text fill="#000000" font-family="sans-serif" font-size="14" font-weight="bold" lengthAdjust="spacing" textLength="107" x="1707" y="37.2951">AdapterLayer</text></g><!--class ItemFactory--><g id="elem_ItemFactory"><rect codeLine="2" fill="#F1F1F1" height="113.1875" id="ItemFactory" rx="2.5" ry="2.5" style="stroke:#181818;stroke-width:0.5;" width="385" x="21.5" y="41"/><ellipse cx="169.75" cy="57" fill="#ADD1B2" rx="11" ry="11" style="stroke:#181818;stroke-width:1.0;"/><path d="M172.7188,62.6406 Q172.1406,62.9375 171.5,63.0781 Q170.8594,63.2344 170.1563,63.2344 Q167.6563,63.2344 166.3281,61.5938 Q165.0156,59.9375 165.0156,56.8125 Q165.0156,53.6875 166.3281,52.0313 Q167.6563,50.375 170.1563,50.375 Q170.8594,50.375 171.5,50.5313 Q172.1563,50.6875 172.7188,50.9844 L172.7188,53.7031 Q172.0938,53.125 171.5,52.8594 Q170.9063,52.5781 170.2813,52.5781 Q168.9375,52.5781 168.25,53.6563 Q167.5625,54.7188 167.5625,56.8125 Q167.5625,58.9063 168.25,59.9844 Q168.9375,61.0469 170.2813,61.0469 Q170.9063,61.0469 171.5,60.7813 Q172.0938,60.5 172.7188,59.9219 L172.7188,62.6406 Z " fill="#000000"/><text fill="#000000" font-family="sans-serif" font-size="14" lengthAdjust="spacing" textLength="80" x="190.25" y="61.8467">ItemFactory</text><line style="stroke:#181818;stroke-width:0.5;" x1="22.5" x2="405.5" y1="73" y2="73"/><line style="stroke:#181818;stroke-width:0.5;" x1="22.5" x2="405.5" y1="81" y2="81"/><text fill="#000000" font-family="sans-serif" font-size="14" lengthAdjust="spacing" textLength="198" x="27.5" y="97.9951">ItemStack getRandomItem();</text><text fill="#000000" font-family="sans-serif" font-size="14" lengthAdjust="spacing" textLength="213" x="27.5" y="114.292">ItemStack getItem(ItemType t);</text><text fill="#000000" font-family="sans-serif" font-size="14" lengthAdjust="spacing" textLength="296" x="27.5" y="130.5889">ItemStack getItem(ItemType t, byte valore);</text><text fill="#000000" font-family="sans-serif" font-size="14" lengthAdjust="spacing" textLength="373" x="27.5" y="146.8857">ItemStack getItem(ItemType t, byte valore, byte peso);</text></g><!--class LoaderItem--><g id="elem_LoaderItem"><rect codeLine="10" fill="#F1F1F1" height="80.5938" id="LoaderItem" rx="2.5" ry="2.5" style="stroke:#181818;stroke-width:0.5;" width="371" x="441.5" y="57.3"/><ellipse cx="584.25" cy="73.3" fill="#ADD1B2" rx="11" ry="11" style="stroke:#181818;stroke-width:1.0;"/><path d="M587.2188,78.9406 Q586.6406,79.2375 586,79.3781 Q585.3594,79.5344 584.6563,79.5344 Q582.1563,79.5344 580.8281,77.8938 Q579.5156,76.2375 579.5156,73.1125 Q579.5156,69.9875 580.8281,68.3313 Q582.1563,66.675 584.6563,66.675 Q585.3594,66.675 586,66.8313 Q586.6563,66.9875 587.2188,67.2844 L587.2188,70.0031 Q586.5938,69.425 586,69.1594 Q585.4063,68.8781 584.7813,68.8781 Q583.4375,68.8781 582.75,69.9563 Q582.0625,71.0188 582.0625,73.1125 Q582.0625,75.2063 582.75,76.2844 Q583.4375,77.3469 584.7813,77.3469 Q585.4063,77.3469 586,77.0813 Q586.5938,76.8 587.2188,76.2219 L587.2188,78.9406 Z " fill="#000000"/><text fill="#000000" font-family="sans-serif" font-size="14" lengthAdjust="spacing" textLength="77" x="604.75" y="78.1467">LoaderItem</text><line style="stroke:#181818;stroke-width:0.5;" x1="442.5" x2="811.5" y1="89.3" y2="89.3"/><line style="stroke:#181818;stroke-width:0.5;" x1="442.5" x2="811.5" y1="97.3" y2="97.3"/><text fill="#000000" font-family="sans-serif" font-size="14" lengthAdjust="spacing" textLength="155" x="447.5" y="114.2951">LoaderItem(String file);</text><text fill="#000000" font-family="sans-serif" font-size="14" lengthAdjust="spacing" textLength="359" x="447.5" y="130.592">public HashMap&lt;ItemType, ItemStack&gt; loadItems();</text></g><!--class ItemStack--><g id="elem_ItemStack"><rect codeLine="15" fill="#F1F1F1" height="292.4531" id="ItemStack" rx="2.5" ry="2.5" style="stroke:#181818;stroke-width:0.5;" width="187" x="846.5" y="214.19"/><ellipse cx="901.75" cy="230.19" fill="#ADD1B2" rx="11" ry="11" style="stroke:#181818;stroke-width:1.0;"/><path d="M904.7188,235.8306 Q904.1406,236.1275 903.5,236.2681 Q902.8594,236.4244 902.1563,236.4244 Q899.6563,236.4244 898.3281,234.7838 Q897.0156,233.1275 897.0156,230.0025 Q897.0156,226.8775 898.3281,225.2213 Q899.6563,223.565 902.1563,223.565 Q902.8594,223.565 903.5,223.7213 Q904.1563,223.8775 904.7188,224.1744 L904.7188,226.8931 Q904.0938,226.315 903.5,226.0494 Q902.9063,225.7681 902.2813,225.7681 Q900.9375,225.7681 900.25,226.8463 Q899.5625,227.9088 899.5625,230.0025 Q899.5625,232.0963 900.25,233.1744 Q900.9375,234.2369 902.2813,234.2369 Q902.9063,234.2369 903.5,233.9713 Q904.0938,233.69 904.7188,233.1119 L904.7188,235.8306 Z " fill="#000000"/><text fill="#000000" font-family="sans-serif" font-size="14" lengthAdjust="spacing" textLength="68" x="922.25" y="235.0367">ItemStack</text><line style="stroke:#181818;stroke-width:0.5;" x1="847.5" x2="1032.5" y1="246.19" y2="246.19"/><text fill="#000000" font-family="sans-serif" font-size="14" lengthAdjust="spacing" textLength="88" x="852.5" y="263.1851">String name;</text><text fill="#000000" font-family="sans-serif" font-size="14" lengthAdjust="spacing" textLength="85" x="852.5" y="279.482">byte weight;</text><text fill="#000000" font-family="sans-serif" font-size="14" lengthAdjust="spacing" textLength="86" x="852.5" y="295.7789">byte quanty;</text><text fill="#000000" font-family="sans-serif" font-size="14" lengthAdjust="spacing" textLength="75" x="852.5" y="312.0757">byte value;</text><text fill="#000000" font-family="sans-serif" font-size="14" lengthAdjust="spacing" textLength="103" x="852.5" y="328.3726">ItemType type;</text><text fill="#000000" font-family="sans-serif" font-size="14" lengthAdjust="spacing" textLength="126" x="852.5" y="344.6695">String description;</text><line style="stroke:#181818;stroke-width:0.5;" x1="847.5" x2="1032.5" y1="351.9713" y2="351.9713"/><text fill="#000000" font-family="sans-serif" font-size="14" lengthAdjust="spacing" textLength="124" x="852.5" y="368.9664">byte getQuanity();</text><text fill="#000000" font-family="sans-serif" font-size="14" lengthAdjust="spacing" textLength="130" x="852.5" y="385.2632">void addQuantity();</text><text fill="#000000" font-family="sans-serif" font-size="14" lengthAdjust="spacing" textLength="107" x="852.5" y="401.5601">byte getPeso();</text><text fill="#000000" font-family="sans-serif" font-size="14" lengthAdjust="spacing" textLength="110" x="852.5" y="417.857">byte getValue();</text><text fill="#000000" font-family="sans-serif" font-size="14" lengthAdjust="spacing" textLength="140" x="852.5" y="434.1539">ItemType getType();</text><text fill="#000000" font-family="sans-serif" font-size="14" lengthAdjust="spacing" textLength="122" x="852.5" y="450.4507">String getName();</text><text fill="#000000" font-family="sans-serif" font-size="14" lengthAdjust="spacing" textLength="4" x="852.5" y="466.7476">&#160;</text><text fill="#000000" font-family="sans-serif" font-size="14" lengthAdjust="spacing" textLength="156" x="852.5" y="483.0445">void removeQuantity();</text><text fill="#000000" font-family="sans-serif" font-size="14" lengthAdjust="spacing" textLength="175" x="852.5" y="499.3414">String showDescription();</text></g><!--class ItemType--><g id="elem_ItemType"><rect codeLine="34" fill="#F1F1F1" height="210.9688" id="ItemType" rx="2.5" ry="2.5" style="stroke:#181818;stroke-width:0.5;" width="169" x="1068.5" y="254.93"/><ellipse cx="1116.75" cy="270.93" fill="#EB937F" rx="11" ry="11" style="stroke:#181818;stroke-width:1.0;"/><path d="M1120.8594,276.93 L1113.1406,276.93 L1113.1406,264.5394 L1120.8594,264.5394 L1120.8594,266.6956 L1115.5938,266.6956 L1115.5938,269.3675 L1120.3594,269.3675 L1120.3594,271.5238 L1115.5938,271.5238 L1115.5938,274.7738 L1120.8594,274.7738 L1120.8594,276.93 Z " fill="#000000"/><text fill="#000000" font-family="sans-serif" font-size="14" lengthAdjust="spacing" textLength="64" x="1137.25" y="275.7767">ItemType</text><line style="stroke:#181818;stroke-width:0.5;" x1="1069.5" x2="1236.5" y1="286.93" y2="286.93"/><text fill="#000000" font-family="sans-serif" font-size="14" lengthAdjust="spacing" textLength="40" x="1074.5" y="303.9251">ARMA</text><text fill="#000000" font-family="sans-serif" font-size="14" lengthAdjust="spacing" textLength="78" x="1074.5" y="320.222">ARMATURA</text><text fill="#000000" font-family="sans-serif" font-size="14" lengthAdjust="spacing" textLength="109" x="1074.5" y="336.5189">POZIONE_CURA</text><text fill="#000000" font-family="sans-serif" font-size="14" lengthAdjust="spacing" textLength="121" x="1074.5" y="352.8157">POZIONE_DANNO</text><text fill="#000000" font-family="sans-serif" font-size="14" lengthAdjust="spacing" textLength="118" x="1074.5" y="369.1126">POZIONE_FORZA</text><text fill="#000000" font-family="sans-serif" font-size="14" lengthAdjust="spacing" textLength="157" x="1074.5" y="385.4095">POZIONE_RESISTENZA</text><text fill="#000000" font-family="sans-serif" font-size="14" lengthAdjust="spacing" textLength="125" x="1074.5" y="401.7064">POZIONE_VELENO</text><text fill="#000000" font-family="sans-serif" font-size="14" lengthAdjust="spacing" textLength="143" x="1074.5" y="418.0032">POZIONE_INVALIDITA</text><text fill="#000000" font-family="sans-serif" font-size="14" lengthAdjust="spacing" textLength="34" x="1074.5" y="434.3001">CIBO</text><text fill="#000000" font-family="sans-serif" font-size="14" lengthAdjust="spacing" textLength="93" x="1074.5" y="450.597">EASTER_EGG</text><line style="stroke:#181818;stroke-width:0.5;" x1="1069.5" x2="1236.5" y1="457.8988" y2="457.8988"/></g><!--class Storage--><g id="elem_Storage"><rect codeLine="48" fill="#F1F1F1" height="129.4844" id="Storage" rx="2.5" ry="2.5" style="stroke:#181818;stroke-width:0.5;" width="376" x="436" y="295.67"/><ellipse cx="592.75" cy="311.67" fill="#A9DCDF" rx="11" ry="11" style="stroke:#181818;stroke-width:1.0;"/><path d="M592.8594,307.0137 L591.7031,312.0919 L594.0313,312.0919 L592.8594,307.0137 Z M591.375,304.7794 L594.3594,304.7794 L597.7188,317.17 L595.2656,317.17 L594.5,314.1075 L591.2188,314.1075 L590.4688,317.17 L588.0313,317.17 L591.375,304.7794 Z " fill="#000000"/><text fill="#000000" font-family="sans-serif" font-size="14" font-style="italic" lengthAdjust="spacing" textLength="54" x="613.25" y="316.5167">Storage</text><line style="stroke:#181818;stroke-width:0.5;" x1="437" x2="811" y1="327.67" y2="327.67"/><text fill="#000000" font-family="sans-serif" font-size="14" lengthAdjust="spacing" textLength="364" x="442" y="344.6651">List&lt;ItemStack&gt; items = new ArrayList&lt;ItemStack&gt;;</text><line style="stroke:#181818;stroke-width:0.5;" x1="437" x2="811" y1="351.9669" y2="351.9669"/><text fill="#000000" font-family="sans-serif" font-size="14" lengthAdjust="spacing" textLength="176" x="442" y="368.962">boolean add(ItemStack i);</text><text fill="#000000" font-family="sans-serif" font-size="14" lengthAdjust="spacing" textLength="202" x="442" y="385.2589">boolean remove(ItemStack i);</text><text fill="#000000" font-family="sans-serif" font-size="14" lengthAdjust="spacing" textLength="225" x="442" y="401.5557">List&lt;ItemStack&gt; showStorage();</text><text fill="#000000" font-family="sans-serif" font-size="14" lengthAdjust="spacing" textLength="113" x="442" y="417.8526">String toString();</text></g><!--class Inventario--><g id="elem_Inventario"><rect codeLine="57" fill="#F1F1F1" height="113.1875" id="Inventario" rx="2.5" ry="2.5" style="stroke:#181818;stroke-width:0.5;" width="241" x="847.5" y="41"/><ellipse cx="930.25" cy="57" fill="#ADD1B2" rx="11" ry="11" style="stroke:#181818;stroke-width:1.0;"/><path d="M933.2188,62.6406 Q932.6406,62.9375 932,63.0781 Q931.3594,63.2344 930.6563,63.2344 Q928.1563,63.2344 926.8281,61.5938 Q925.5156,59.9375 925.5156,56.8125 Q925.5156,53.6875 926.8281,52.0313 Q928.1563,50.375 930.6563,50.375 Q931.3594,50.375 932,50.5313 Q932.6563,50.6875 933.2188,50.9844 L933.2188,53.7031 Q932.5938,53.125 932,52.8594 Q931.4063,52.5781 930.7813,52.5781 Q929.4375,52.5781 928.75,53.6563 Q928.0625,54.7188 928.0625,56.8125 Q928.0625,58.9063 928.75,59.9844 Q929.4375,61.0469 930.7813,61.0469 Q931.4063,61.0469 932,60.7813 Q932.5938,60.5 933.2188,59.9219 L933.2188,62.6406 Z " fill="#000000"/><text fill="#000000" font-family="sans-serif" font-size="14" lengthAdjust="spacing" textLength="67" x="950.75" y="61.8467">Inventario</text><line style="stroke:#181818;stroke-width:0.5;" x1="848.5" x2="1087.5" y1="73" y2="73"/><text fill="#000000" font-family="sans-serif" font-size="14" lengthAdjust="spacing" textLength="85" x="853.5" y="89.9951">byte weight;</text><line style="stroke:#181818;stroke-width:0.5;" x1="848.5" x2="1087.5" y1="97.2969" y2="97.2969"/><text fill="#000000" font-family="sans-serif" font-size="14" lengthAdjust="spacing" textLength="120" x="853.5" y="114.292">byte getWeight();</text><text fill="#000000" font-family="sans-serif" font-size="14" lengthAdjust="spacing" textLength="184" x="853.5" y="130.5889">byte quantyOf(ItemType t);</text><text fill="#000000" font-family="sans-serif" font-size="14" lengthAdjust="spacing" textLength="229" x="853.5" y="146.8857">ItemStack searchFor(ItemType t);</text></g><!--class Chest--><g id="elem_Chest"><rect codeLine="65" fill="#F1F1F1" height="113.1875" id="Chest" rx="2.5" ry="2.5" style="stroke:#181818;stroke-width:0.5;" width="114" x="1123" y="41"/><ellipse cx="1156.45" cy="57" fill="#ADD1B2" rx="11" ry="11" style="stroke:#181818;stroke-width:1.0;"/><path d="M1159.4188,62.6406 Q1158.8406,62.9375 1158.2,63.0781 Q1157.5594,63.2344 1156.8563,63.2344 Q1154.3563,63.2344 1153.0281,61.5938 Q1151.7156,59.9375 1151.7156,56.8125 Q1151.7156,53.6875 1153.0281,52.0313 Q1154.3563,50.375 1156.8563,50.375 Q1157.5594,50.375 1158.2,50.5313 Q1158.8563,50.6875 1159.4188,50.9844 L1159.4188,53.7031 Q1158.7938,53.125 1158.2,52.8594 Q1157.6063,52.5781 1156.9813,52.5781 Q1155.6375,52.5781 1154.95,53.6563 Q1154.2625,54.7188 1154.2625,56.8125 Q1154.2625,58.9063 1154.95,59.9844 Q1155.6375,61.0469 1156.9813,61.0469 Q1157.6063,61.0469 1158.2,60.7813 Q1158.7938,60.5 1159.4188,59.9219 L1159.4188,62.6406 Z " fill="#000000"/><text fill="#000000" font-family="sans-serif" font-size="14" lengthAdjust="spacing" textLength="41" x="1174.55" y="61.8467">Chest</text><line style="stroke:#181818;stroke-width:0.5;" x1="1124" x2="1236" y1="73" y2="73"/><text fill="#000000" font-family="sans-serif" font-size="14" lengthAdjust="spacing" textLength="93" x="1129" y="89.9951">boolean lock;</text><line style="stroke:#181818;stroke-width:0.5;" x1="1124" x2="1236" y1="97.2969" y2="97.2969"/><text fill="#000000" font-family="sans-serif" font-size="14" lengthAdjust="spacing" textLength="75" x="1129" y="114.292">void lock();</text><text fill="#000000" font-family="sans-serif" font-size="14" lengthAdjust="spacing" textLength="88" x="1129" y="130.5889">void unlock()</text><text fill="#000000" font-family="sans-serif" font-size="14" lengthAdjust="spacing" textLength="102" x="1129" y="146.8857">void getLock();</text></g><!--class awsClient--><g id="elem_awsClient"><rect codeLine="85" fill="#F1F1F1" height="96.8906" id="awsClient" rx="2.5" ry="2.5" style="stroke:#181818;stroke-width:0.5;" width="231" x="1292.5" y="49.15"/><ellipse cx="1370.75" cy="65.15" fill="#ADD1B2" rx="11" ry="11" style="stroke:#181818;stroke-width:1.0;"/><path d="M1373.7188,70.7906 Q1373.1406,71.0875 1372.5,71.2281 Q1371.8594,71.3844 1371.1563,71.3844 Q1368.6563,71.3844 1367.3281,69.7437 Q1366.0156,68.0875 1366.0156,64.9625 Q1366.0156,61.8375 1367.3281,60.1812 Q1368.6563,58.525 1371.1563,58.525 Q1371.8594,58.525 1372.5,58.6812 Q1373.1563,58.8375 1373.7188,59.1344 L1373.7188,61.8531 Q1373.0938,61.275 1372.5,61.0094 Q1371.9063,60.7281 1371.2813,60.7281 Q1369.9375,60.7281 1369.25,61.8062 Q1368.5625,62.8687 1368.5625,64.9625 Q1368.5625,67.0562 1369.25,68.1344 Q1369.9375,69.1969 1371.2813,69.1969 Q1371.9063,69.1969 1372.5,68.9312 Q1373.0938,68.65 1373.7188,68.0719 L1373.7188,70.7906 Z " fill="#000000"/><text fill="#000000" font-family="sans-serif" font-size="14" lengthAdjust="spacing" textLength="66" x="1391.25" y="69.9967">awsClient</text><line style="stroke:#181818;stroke-width:0.5;" x1="1293.5" x2="1522.5" y1="81.15" y2="81.15"/><line style="stroke:#181818;stroke-width:0.5;" x1="1293.5" x2="1522.5" y1="89.15" y2="89.15"/><text fill="#000000" font-family="sans-serif" font-size="14" lengthAdjust="spacing" textLength="125" x="1298.5" y="106.1451">void upload(File f);</text><text fill="#000000" font-family="sans-serif" font-size="14" lengthAdjust="spacing" textLength="177" x="1298.5" y="122.442">void download(String file);</text><text fill="#000000" font-family="sans-serif" font-size="14" lengthAdjust="spacing" textLength="219" x="1298.5" y="138.7389">String getChecksum(String file);</text></g><!--class JsonParser--><g id="elem_JsonParser"><rect codeLine="91" fill="#F1F1F1" height="48" id="JsonParser" rx="2.5" ry="2.5" style="stroke:#181818;stroke-width:0.5;" width="105" x="1558.5" y="73.59"/><ellipse cx="1573.5" cy="89.59" fill="#ADD1B2" rx="11" ry="11" style="stroke:#181818;stroke-width:1.0;"/><path d="M1576.4688,95.2306 Q1575.8906,95.5275 1575.25,95.6681 Q1574.6094,95.8244 1573.9063,95.8244 Q1571.4063,95.8244 1570.0781,94.1837 Q1568.7656,92.5275 1568.7656,89.4025 Q1568.7656,86.2775 1570.0781,84.6212 Q1571.4063,82.965 1573.9063,82.965 Q1574.6094,82.965 1575.25,83.1212 Q1575.9063,83.2775 1576.4688,83.5744 L1576.4688,86.2931 Q1575.8438,85.715 1575.25,85.4494 Q1574.6563,85.1681 1574.0313,85.1681 Q1572.6875,85.1681 1572,86.2462 Q1571.3125,87.3087 1571.3125,89.4025 Q1571.3125,91.4962 1572,92.5744 Q1572.6875,93.6369 1574.0313,93.6369 Q1574.6563,93.6369 1575.25,93.3712 Q1575.8438,93.09 1576.4688,92.5119 L1576.4688,95.2306 Z " fill="#000000"/><text fill="#000000" font-family="sans-serif" font-size="14" lengthAdjust="spacing" textLength="73" x="1587.5" y="94.4367">JsonParser</text><line style="stroke:#181818;stroke-width:0.5;" x1="1559.5" x2="1662.5" y1="105.59" y2="105.59"/><line style="stroke:#181818;stroke-width:0.5;" x1="1559.5" x2="1662.5" y1="113.59" y2="113.59"/></g><!--class AdapterSave--><g id="elem_AdapterSave"><rect codeLine="98" fill="#F1F1F1" height="80.5938" id="AdapterSave" rx="2.5" ry="2.5" style="stroke:#181818;stroke-width:0.5;" width="216" x="1719" y="57.3"/><ellipse cx="1779.25" cy="73.3" fill="#ADD1B2" rx="11" ry="11" style="stroke:#181818;stroke-width:1.0;"/><path d="M1782.2188,78.9406 Q1781.6406,79.2375 1781,79.3781 Q1780.3594,79.5344 1779.6563,79.5344 Q1777.1563,79.5344 1775.8281,77.8938 Q1774.5156,76.2375 1774.5156,73.1125 Q1774.5156,69.9875 1775.8281,68.3313 Q1777.1563,66.675 1779.6563,66.675 Q1780.3594,66.675 1781,66.8313 Q1781.6563,66.9875 1782.2188,67.2844 L1782.2188,70.0031 Q1781.5938,69.425 1781,69.1594 Q1780.4063,68.8781 1779.7813,68.8781 Q1778.4375,68.8781 1777.75,69.9563 Q1777.0625,71.0188 1777.0625,73.1125 Q1777.0625,75.2063 1777.75,76.2844 Q1778.4375,77.3469 1779.7813,77.3469 Q1780.4063,77.3469 1781,77.0813 Q1781.5938,76.8 1782.2188,76.2219 L1782.2188,78.9406 Z " fill="#000000"/><text fill="#000000" font-family="sans-serif" font-size="14" lengthAdjust="spacing" textLength="87" x="1799.75" y="78.1467">AdapterSave</text><line style="stroke:#181818;stroke-width:0.5;" x1="1720" x2="1934" y1="89.3" y2="89.3"/><line style="stroke:#181818;stroke-width:0.5;" x1="1720" x2="1934" y1="97.3" y2="97.3"/><text fill="#000000" font-family="sans-serif" font-size="14" lengthAdjust="spacing" textLength="204" x="1725" y="114.2951">boolean checkOldSave(File f);</text><text fill="#000000" font-family="sans-serif" font-size="14" lengthAdjust="spacing" textLength="104" x="1725" y="130.592">File loadSave();</text></g><!--link Storage to ItemStack--><g id="link_Storage_ItemStack"><path codeLine="75" d="M812.24,360.41 C823.55,360.41 828.87,360.41 840.18,360.41 " fill="none" id="Storage-to-ItemStack" style="stroke:#181818;stroke-width:1.0;"/><polygon fill="#181818" points="846.18,360.41,837.18,356.41,841.18,360.41,837.18,364.41,846.18,360.41" style="stroke:#181818;stroke-width:1.0;"/></g><!--link Inventario to Storage--><g id="link_Inventario_Storage"><path codeLine="76" d="M894.2,154.55 C839.72,195.86 779.7929,241.2843 722.9129,284.4143 " fill="none" id="Inventario-to-Storage" style="stroke:#181818;stroke-width:1.0;"/><polygon fill="none" points="708.57,295.29,726.5381,289.1953,719.2877,279.6333,708.57,295.29" style="stroke:#181818;stroke-width:1.0;"/></g><!--link Chest to Storage--><g id="link_Chest_Storage"><path codeLine="78" d="M1129.75,154.49 C1122.3,160.48 1114.31,165.89 1106,170.04 C994.46,225.71 944.44,167.11 829,214.19 C781.34,233.62 748.2077,254.8489 711.0777,284.1089 " fill="none" id="Chest-to-Storage" style="stroke:#181818;stroke-width:1.0;"/><polygon fill="none" points="696.94,295.25,714.7914,288.8215,707.364,279.3963,696.94,295.25" style="stroke:#181818;stroke-width:1.0;"/></g><!--link ItemStack to ItemType--><g id="link_ItemStack_ItemType"><path codeLine="79" d="M1033.6,360.41 C1045.11,360.41 1050.61,360.41 1062.12,360.41 " fill="none" id="ItemStack-to-ItemType" style="stroke:#181818;stroke-width:1.0;"/><polygon fill="#181818" points="1068.12,360.41,1059.12,356.41,1063.12,360.41,1059.12,364.41,1068.12,360.41" style="stroke:#181818;stroke-width:1.0;"/></g><!--SRC=[bLNRRjim37ttLn3TGrEWHJ-WNO4ibyv3ccH9rW5zAHIRSOGwaYSf2Omi_rxIbcCxHJ7C3xPu4SyXHSgPYDv4Wd0nTzhGuaaeaMnGkGluqY-U0y3jfTKgqIc2avbETI8HC4LsavUtGPGAQo5qk1cAYCBamI60Gfux2Wy9kfbGiTwmgdDrTsuirFnQv1b1_DFX6fQvGzY9L1lyFsylP6WrRJm6dlj8YnWDxs7cjTIPEoDL0YkPba3PTfdA2BuBktuIsNs5SbqpU82KjhDeEqs8cY93-BXAR9335gJsA9ErEub_jaAv_2GI_orMkPQPqUiE0EfmCTh8oCn9hTWJghrKb9yKJRgyhFvEonX47BFIdRILwvIAqzOyCtPzS0KwgVbRQZq-wSQK4Uig58CRlSCsaFUsQxtlrunzjL1jDoSKBbLtzjJrdyMl6I-davTmCXwyzjfYlpiUJnhoS39xQTfdWtauNmp6BUNpO3HexGh7pzrHs0yNxDKBlx5jqALzizV1uoCplBrCq39ZX5Y2L2j9bQK5SQPX44lh38q1-84wbESmajRTDvg4lIry1OLxw1eZyZE7ee9BJJCd51zLf-uVMPwDjvK5_c0-n-DYUqQjGt2wNBHxLUrej8MH-d3Ud8sk-5se6frITknazVaiMnGcMW-rQRkSW7jhgkoXaLsgepSEKRKJouqUtgfIKSd4QkGzEEWny2d3pKE3HL3d1pStVn-gemg20h-jgxVv6Cmwu2VpL-SKZQLgYmX78aTpkZU9L9cLsDjUAWcHLHNpZA-9pf0k5bWL2Nb3hFUgC9rVFSqf8vxHczr-l9-EmGdr1ztPKs4icXAsiDBdM3FlnY9pQ3wXxQrpiSCoGdKe4QDFqfWjxGmAWTaNfgix-dCmDHeB1Z- -0m00]--></g></svg>