<?xml version="1.0" encoding="us-ascii" standalone="no"?><svg xmlns="http://www.w3.org/2000/svg" xmlns:xlink="http://www.w3.org/1999/xlink" contentStyleType="text/css" height="1458px" preserveAspectRatio="none" style="width:2611px;height:1458px;background:#FFFFFF;" version="1.1" viewBox="0 0 2611 1458" width="2611px" zoomAndPan="magnify"><defs/><g><!--cluster Item1--><g id="cluster_Item1"><path d="M1180.5,310.48 L1225.5,310.48 A3.75,3.75 0 0 1 1228,312.98 L1235,332.7769 L2045.5,332.7769 A2.5,2.5 0 0 1 2048,335.2769 L2048,708.66 A2.5,2.5 0 0 1 2045.5,711.16 L1180.5,711.16 A2.5,2.5 0 0 1 1178,708.66 L1178,312.98 A2.5,2.5 0 0 1 1180.5,310.48 " fill="#DDDDDD" style="stroke:#000000;stroke-width:1.5;"/><line style="stroke:#000000;stroke-width:1.5;" x1="1178" x2="1235" y1="332.7769" y2="332.7769"/><text fill="#000000" font-family="sans-serif" font-size="14" font-weight="bold" lengthAdjust="spacing" textLength="44" x="1182" y="325.4751">Item1</text></g><!--cluster Entita'--><g id="cluster_Entita'"><path d="M8.5,547.12 L57.5,547.12 A3.75,3.75 0 0 1 60,549.62 L67,569.4169 L589.5,569.4169 A2.5,2.5 0 0 1 592,571.9169 L592,1449 A2.5,2.5 0 0 1 589.5,1451.5 L8.5,1451.5 A2.5,2.5 0 0 1 6,1449 L6,549.62 A2.5,2.5 0 0 1 8.5,547.12 " fill="#DDDDDD" style="stroke:#000000;stroke-width:1.5;"/><line style="stroke:#000000;stroke-width:1.5;" x1="6" x2="67" y1="569.4169" y2="569.4169"/><text fill="#000000" font-family="sans-serif" font-size="14" font-weight="bold" lengthAdjust="spacing" textLength="48" x="10" y="562.1151">Entita'</text></g><!--cluster Menu1--><g id="cluster_Menu1"><path d="M2074.5,6 L2128.5,6 A3.75,3.75 0 0 1 2131,8.5 L2138,28.2969 L2601.5,28.2969 A2.5,2.5 0 0 1 2604,30.7969 L2604,504.77 A2.5,2.5 0 0 1 2601.5,507.27 L2074.5,507.27 A2.5,2.5 0 0 1 2072,504.77 L2072,8.5 A2.5,2.5 0 0 1 2074.5,6 " fill="#DDDDDD" style="stroke:#000000;stroke-width:1.5;"/><line style="stroke:#000000;stroke-width:1.5;" x1="2072" x2="2138" y1="28.2969" y2="28.2969"/><text fill="#000000" font-family="sans-serif" font-size="14" font-weight="bold" lengthAdjust="spacing" textLength="53" x="2076" y="20.9951">Menu1</text></g><!--cluster Mappa--><g id="cluster_Mappa"><path d="M102.5,113 L154.5,113 A3.75,3.75 0 0 1 157,115.5 L164,135.2969 L560.5,135.2969 A2.5,2.5 0 0 1 563,137.7969 L563,504.62 A2.5,2.5 0 0 1 560.5,507.12 L102.5,507.12 A2.5,2.5 0 0 1 100,504.62 L100,115.5 A2.5,2.5 0 0 1 102.5,113 " fill="#DDDDDD" style="stroke:#000000;stroke-width:1.5;"/><line style="stroke:#000000;stroke-width:1.5;" x1="100" x2="164" y1="135.2969" y2="135.2969"/><text fill="#000000" font-family="sans-serif" font-size="14" font-weight="bold" lengthAdjust="spacing" textLength="51" x="104" y="127.9951">Mappa</text></g><!--cluster Prompts--><g id="cluster_Prompts"><path d="M634.5,827.16 L701.5,827.16 A3.75,3.75 0 0 1 704,829.66 L711,849.4569 L1966.5,849.4569 A2.5,2.5 0 0 1 1969,851.9569 L1969,1367.52 A2.5,2.5 0 0 1 1966.5,1370.02 L634.5,1370.02 A2.5,2.5 0 0 1 632,1367.52 L632,829.66 A2.5,2.5 0 0 1 634.5,827.16 " fill="#DDDDDD" style="stroke:#000000;stroke-width:1.5;"/><line style="stroke:#000000;stroke-width:1.5;" x1="632" x2="711" y1="849.4569" y2="849.4569"/><text fill="#000000" font-family="sans-serif" font-size="14" font-weight="bold" lengthAdjust="spacing" textLength="66" x="636" y="842.1551">Prompts</text></g><!--class Item--><g id="elem_Item"><rect codeLine="2" fill="#F1F1F1" height="129.4844" id="Item" rx="2.5" ry="2.5" style="stroke:#181818;stroke-width:0.5;" width="143" x="1889.5" y="565.67"/><ellipse cx="1941.75" cy="581.67" fill="#ADD1B2" rx="11" ry="11" style="stroke:#181818;stroke-width:1.0;"/><path d="M1944.7188,587.3106 Q1944.1406,587.6075 1943.5,587.7481 Q1942.8594,587.9044 1942.1563,587.9044 Q1939.6563,587.9044 1938.3281,586.2638 Q1937.0156,584.6075 1937.0156,581.4825 Q1937.0156,578.3575 1938.3281,576.7013 Q1939.6563,575.045 1942.1563,575.045 Q1942.8594,575.045 1943.5,575.2013 Q1944.1563,575.3575 1944.7188,575.6544 L1944.7188,578.3731 Q1944.0938,577.795 1943.5,577.5294 Q1942.9063,577.2481 1942.2813,577.2481 Q1940.9375,577.2481 1940.25,578.3263 Q1939.5625,579.3888 1939.5625,581.4825 Q1939.5625,583.5763 1940.25,584.6544 Q1940.9375,585.7169 1942.2813,585.7169 Q1942.9063,585.7169 1943.5,585.4513 Q1944.0938,585.17 1944.7188,584.5919 L1944.7188,587.3106 Z " fill="#000000"/><text fill="#000000" font-family="sans-serif" font-size="14" lengthAdjust="spacing" textLength="30" x="1962.25" y="586.5167">Item</text><line style="stroke:#181818;stroke-width:0.5;" x1="1890.5" x2="2031.5" y1="597.67" y2="597.67"/><text fill="#000000" font-family="sans-serif" font-size="14" lengthAdjust="spacing" textLength="89" x="1895.5" y="614.6651">String nome;</text><text fill="#000000" font-family="sans-serif" font-size="14" lengthAdjust="spacing" textLength="61" x="1895.5" y="630.962">int peso;</text><text fill="#000000" font-family="sans-serif" font-size="14" lengthAdjust="spacing" textLength="131" x="1895.5" y="647.2589">ItemType tipologia;</text><line style="stroke:#181818;stroke-width:0.5;" x1="1890.5" x2="2031.5" y1="654.5606" y2="654.5606"/><text fill="#000000" font-family="sans-serif" font-size="14" lengthAdjust="spacing" textLength="112" x="1895.5" y="671.5557">int getQuanita();</text><text fill="#000000" font-family="sans-serif" font-size="14" lengthAdjust="spacing" textLength="131" x="1895.5" y="687.8526">void addQuantita();</text></g><!--class ItemType--><g id="elem_ItemType"><rect codeLine="11" fill="#F1F1F1" height="145.7813" id="ItemType" rx="2.5" ry="2.5" style="stroke:#181818;stroke-width:0.5;" width="99" x="1196.5" y="345.48"/><ellipse cx="1212.85" cy="361.48" fill="#EB937F" rx="11" ry="11" style="stroke:#181818;stroke-width:1.0;"/><path d="M1216.9594,367.48 L1209.2406,367.48 L1209.2406,355.0894 L1216.9594,355.0894 L1216.9594,357.2456 L1211.6938,357.2456 L1211.6938,359.9175 L1216.4594,359.9175 L1216.4594,362.0738 L1211.6938,362.0738 L1211.6938,365.3238 L1216.9594,365.3238 L1216.9594,367.48 Z " fill="#000000"/><text fill="#000000" font-family="sans-serif" font-size="14" lengthAdjust="spacing" textLength="64" x="1227.15" y="366.3267">ItemType</text><line style="stroke:#181818;stroke-width:0.5;" x1="1197.5" x2="1294.5" y1="377.48" y2="377.48"/><text fill="#000000" font-family="sans-serif" font-size="14" lengthAdjust="spacing" textLength="72" x="1202.5" y="394.4751">POZIONE1</text><text fill="#000000" font-family="sans-serif" font-size="14" lengthAdjust="spacing" textLength="72" x="1202.5" y="410.772">POZIONE2</text><text fill="#000000" font-family="sans-serif" font-size="14" lengthAdjust="spacing" textLength="49" x="1202.5" y="427.0689">ARMA1</text><text fill="#000000" font-family="sans-serif" font-size="14" lengthAdjust="spacing" textLength="49" x="1202.5" y="443.3657">ARMA2</text><text fill="#000000" font-family="sans-serif" font-size="14" lengthAdjust="spacing" textLength="87" x="1202.5" y="459.6626">ARMATURA1</text><text fill="#000000" font-family="sans-serif" font-size="14" lengthAdjust="spacing" textLength="87" x="1202.5" y="475.9595">ARMATURA2</text><line style="stroke:#181818;stroke-width:0.5;" x1="1197.5" x2="1294.5" y1="483.2613" y2="483.2613"/></g><g id="elem_GMN5"><path d="M1654,617.85 L1654,642.9828 A0,0 0 0 0 1654,642.9828 L1854,642.9828 A0,0 0 0 0 1854,642.9828 L1854,635.85 L1889.29,630.41 L1854,627.85 L1854,627.85 L1844,617.85 L1654,617.85 A0,0 0 0 0 1654,617.85 " fill="#FEFFDD" style="stroke:#181818;stroke-width:0.5;"/><path d="M1844,617.85 L1844,627.85 L1854,627.85 L1844,617.85 " fill="#FEFFDD" style="stroke:#181818;stroke-width:0.5;"/><text fill="#000000" font-family="sans-serif" font-size="13" lengthAdjust="spacing" textLength="179" x="1660" y="634.9169">Implementa un singolo Item</text></g><!--class Storage--><g id="elem_Storage"><rect codeLine="21" fill="#F1F1F1" height="96.8906" id="Storage" rx="2.5" ry="2.5" style="stroke:#181818;stroke-width:0.5;" width="158" x="1461" y="581.97"/><ellipse cx="1508.75" cy="597.97" fill="#ADD1B2" rx="11" ry="11" style="stroke:#181818;stroke-width:1.0;"/><path d="M1511.7188,603.6106 Q1511.1406,603.9075 1510.5,604.0481 Q1509.8594,604.2044 1509.1563,604.2044 Q1506.6563,604.2044 1505.3281,602.5638 Q1504.0156,600.9075 1504.0156,597.7825 Q1504.0156,594.6575 1505.3281,593.0013 Q1506.6563,591.345 1509.1563,591.345 Q1509.8594,591.345 1510.5,591.5013 Q1511.1563,591.6575 1511.7188,591.9544 L1511.7188,594.6731 Q1511.0938,594.095 1510.5,593.8294 Q1509.9063,593.5481 1509.2813,593.5481 Q1507.9375,593.5481 1507.25,594.6263 Q1506.5625,595.6888 1506.5625,597.7825 Q1506.5625,599.8763 1507.25,600.9544 Q1507.9375,602.0169 1509.2813,602.0169 Q1509.9063,602.0169 1510.5,601.7513 Q1511.0938,601.47 1511.7188,600.8919 L1511.7188,603.6106 Z " fill="#000000"/><text fill="#000000" font-family="sans-serif" font-size="14" lengthAdjust="spacing" textLength="54" x="1529.25" y="602.8167">Storage</text><line style="stroke:#181818;stroke-width:0.5;" x1="1462" x2="1618" y1="613.97" y2="613.97"/><line style="stroke:#181818;stroke-width:0.5;" x1="1462" x2="1618" y1="621.97" y2="621.97"/><text fill="#000000" font-family="sans-serif" font-size="14" lengthAdjust="spacing" textLength="101" x="1467" y="638.9651">boolean add();</text><text fill="#000000" font-family="sans-serif" font-size="14" lengthAdjust="spacing" textLength="127" x="1467" y="655.262">boolean remove();</text><text fill="#000000" font-family="sans-serif" font-size="14" lengthAdjust="spacing" textLength="146" x="1467" y="671.5589">Item[] listaElementi();</text></g><g id="elem_GMN9"><path d="M1194,617.85 L1194,642.9828 A0,0 0 0 0 1194,642.9828 L1426,642.9828 A0,0 0 0 0 1426,642.9828 L1426,635.85 L1460.53,630.41 L1426,627.85 L1426,627.85 L1416,617.85 L1194,617.85 A0,0 0 0 0 1194,617.85 " fill="#FEFFDD" style="stroke:#181818;stroke-width:0.5;"/><path d="M1416,617.85 L1416,627.85 L1426,627.85 L1416,617.85 " fill="#FEFFDD" style="stroke:#181818;stroke-width:0.5;"/><text fill="#000000" font-family="sans-serif" font-size="13" lengthAdjust="spacing" textLength="211" x="1200" y="634.9169">Classe base per tutti i contenitori</text></g><!--class Inventario--><g id="elem_Inventario"><rect codeLine="28" fill="#F1F1F1" height="129.4844" id="Inventario" rx="2.5" ry="2.5" style="stroke:#181818;stroke-width:0.5;" width="208" x="1335" y="353.63"/><ellipse cx="1401.25" cy="369.63" fill="#ADD1B2" rx="11" ry="11" style="stroke:#181818;stroke-width:1.0;"/><path d="M1404.2188,375.2706 Q1403.6406,375.5675 1403,375.7081 Q1402.3594,375.8644 1401.6563,375.8644 Q1399.1563,375.8644 1397.8281,374.2238 Q1396.5156,372.5675 1396.5156,369.4425 Q1396.5156,366.3175 1397.8281,364.6613 Q1399.1563,363.005 1401.6563,363.005 Q1402.3594,363.005 1403,363.1613 Q1403.6563,363.3175 1404.2188,363.6144 L1404.2188,366.3331 Q1403.5938,365.755 1403,365.4894 Q1402.4063,365.2081 1401.7813,365.2081 Q1400.4375,365.2081 1399.75,366.2863 Q1399.0625,367.3488 1399.0625,369.4425 Q1399.0625,371.5363 1399.75,372.6144 Q1400.4375,373.6769 1401.7813,373.6769 Q1402.4063,373.6769 1403,373.4113 Q1403.5938,373.13 1404.2188,372.5519 L1404.2188,375.2706 Z " fill="#000000"/><text fill="#000000" font-family="sans-serif" font-size="14" lengthAdjust="spacing" textLength="67" x="1421.75" y="374.4767">Inventario</text><line style="stroke:#181818;stroke-width:0.5;" x1="1336" x2="1542" y1="385.63" y2="385.63"/><text fill="#000000" font-family="sans-serif" font-size="14" lengthAdjust="spacing" textLength="135" x="1341" y="402.6251">byte pesoMassimo;</text><text fill="#000000" font-family="sans-serif" font-size="14" lengthAdjust="spacing" textLength="122" x="1341" y="418.922">byte pesoAttuale;</text><line style="stroke:#181818;stroke-width:0.5;" x1="1336" x2="1542" y1="426.2238" y2="426.2238"/><text fill="#000000" font-family="sans-serif" font-size="14" lengthAdjust="spacing" textLength="196" x="1341" y="443.2189">public Inventario(byte peso);</text><text fill="#000000" font-family="sans-serif" font-size="14" lengthAdjust="spacing" textLength="73" x="1341" y="459.5157">getPeso();</text><text fill="#000000" font-family="sans-serif" font-size="14" lengthAdjust="spacing" textLength="83" x="1341" y="475.8126">int search();</text></g><!--class Chest--><g id="elem_Chest"><rect codeLine="36" fill="#F1F1F1" height="48" id="Chest" rx="2.5" ry="2.5" style="stroke:#181818;stroke-width:0.5;" width="73" x="1578.5" y="394.38"/><ellipse cx="1593.5" cy="410.38" fill="#ADD1B2" rx="11" ry="11" style="stroke:#181818;stroke-width:1.0;"/><path d="M1596.4688,416.0206 Q1595.8906,416.3175 1595.25,416.4581 Q1594.6094,416.6144 1593.9063,416.6144 Q1591.4063,416.6144 1590.0781,414.9738 Q1588.7656,413.3175 1588.7656,410.1925 Q1588.7656,407.0675 1590.0781,405.4113 Q1591.4063,403.755 1593.9063,403.755 Q1594.6094,403.755 1595.25,403.9113 Q1595.9063,404.0675 1596.4688,404.3644 L1596.4688,407.0831 Q1595.8438,406.505 1595.25,406.2394 Q1594.6563,405.9581 1594.0313,405.9581 Q1592.6875,405.9581 1592,407.0363 Q1591.3125,408.0988 1591.3125,410.1925 Q1591.3125,412.2863 1592,413.3644 Q1592.6875,414.4269 1594.0313,414.4269 Q1594.6563,414.4269 1595.25,414.1613 Q1595.8438,413.88 1596.4688,413.3019 L1596.4688,416.0206 Z " fill="#000000"/><text fill="#000000" font-family="sans-serif" font-size="14" lengthAdjust="spacing" textLength="41" x="1607.5" y="415.2267">Chest</text><line style="stroke:#181818;stroke-width:0.5;" x1="1579.5" x2="1650.5" y1="426.38" y2="426.38"/><line style="stroke:#181818;stroke-width:0.5;" x1="1579.5" x2="1650.5" y1="434.38" y2="434.38"/></g><!--class Arma--><g id="elem_Arma"><rect codeLine="38" fill="#F1F1F1" height="64.2969" id="Arma" rx="2.5" ry="2.5" style="stroke:#181818;stroke-width:0.5;" width="79" x="1688.5" y="386.23"/><ellipse cx="1708.9" cy="402.23" fill="#ADD1B2" rx="11" ry="11" style="stroke:#181818;stroke-width:1.0;"/><path d="M1711.8688,407.8706 Q1711.2906,408.1675 1710.65,408.3081 Q1710.0094,408.4644 1709.3063,408.4644 Q1706.8063,408.4644 1705.4781,406.8238 Q1704.1656,405.1675 1704.1656,402.0425 Q1704.1656,398.9175 1705.4781,397.2613 Q1706.8063,395.605 1709.3063,395.605 Q1710.0094,395.605 1710.65,395.7613 Q1711.3063,395.9175 1711.8688,396.2144 L1711.8688,398.9331 Q1711.2438,398.355 1710.65,398.0894 Q1710.0563,397.8081 1709.4313,397.8081 Q1708.0875,397.8081 1707.4,398.8863 Q1706.7125,399.9488 1706.7125,402.0425 Q1706.7125,404.1363 1707.4,405.2144 Q1708.0875,406.2769 1709.4313,406.2769 Q1710.0563,406.2769 1710.65,406.0113 Q1711.2438,405.73 1711.8688,405.1519 L1711.8688,407.8706 Z " fill="#000000"/><text fill="#000000" font-family="sans-serif" font-size="14" lengthAdjust="spacing" textLength="35" x="1724.1" y="407.0767">Arma</text><line style="stroke:#181818;stroke-width:0.5;" x1="1689.5" x2="1766.5" y1="418.23" y2="418.23"/><text fill="#000000" font-family="sans-serif" font-size="14" lengthAdjust="spacing" textLength="67" x="1694.5" y="435.2251">int valore;</text><line style="stroke:#181818;stroke-width:0.5;" x1="1689.5" x2="1766.5" y1="442.5269" y2="442.5269"/></g><!--class Armatura--><g id="elem_Armatura"><rect codeLine="41" fill="#F1F1F1" height="64.2969" id="Armatura" rx="2.5" ry="2.5" style="stroke:#181818;stroke-width:0.5;" width="94" x="1803" y="386.23"/><ellipse cx="1818" cy="402.23" fill="#ADD1B2" rx="11" ry="11" style="stroke:#181818;stroke-width:1.0;"/><path d="M1820.9688,407.8706 Q1820.3906,408.1675 1819.75,408.3081 Q1819.1094,408.4644 1818.4063,408.4644 Q1815.9063,408.4644 1814.5781,406.8238 Q1813.2656,405.1675 1813.2656,402.0425 Q1813.2656,398.9175 1814.5781,397.2613 Q1815.9063,395.605 1818.4063,395.605 Q1819.1094,395.605 1819.75,395.7613 Q1820.4063,395.9175 1820.9688,396.2144 L1820.9688,398.9331 Q1820.3438,398.355 1819.75,398.0894 Q1819.1563,397.8081 1818.5313,397.8081 Q1817.1875,397.8081 1816.5,398.8863 Q1815.8125,399.9488 1815.8125,402.0425 Q1815.8125,404.1363 1816.5,405.2144 Q1817.1875,406.2769 1818.5313,406.2769 Q1819.1563,406.2769 1819.75,406.0113 Q1820.3438,405.73 1820.9688,405.1519 L1820.9688,407.8706 Z " fill="#000000"/><text fill="#000000" font-family="sans-serif" font-size="14" lengthAdjust="spacing" textLength="62" x="1832" y="407.0767">Armatura</text><line style="stroke:#181818;stroke-width:0.5;" x1="1804" x2="1896" y1="418.23" y2="418.23"/><text fill="#000000" font-family="sans-serif" font-size="14" lengthAdjust="spacing" textLength="67" x="1809" y="435.2251">int valore;</text><line style="stroke:#181818;stroke-width:0.5;" x1="1804" x2="1896" y1="442.5269" y2="442.5269"/></g><!--class Pozione--><g id="elem_Pozione"><rect codeLine="44" fill="#F1F1F1" height="80.5938" id="Pozione" rx="2.5" ry="2.5" style="stroke:#181818;stroke-width:0.5;" width="100" x="1932" y="378.08"/><ellipse cx="1952.4" cy="394.08" fill="#ADD1B2" rx="11" ry="11" style="stroke:#181818;stroke-width:1.0;"/><path d="M1955.3688,399.7206 Q1954.7906,400.0175 1954.15,400.1581 Q1953.5094,400.3144 1952.8063,400.3144 Q1950.3063,400.3144 1948.9781,398.6737 Q1947.6656,397.0175 1947.6656,393.8925 Q1947.6656,390.7675 1948.9781,389.1112 Q1950.3063,387.455 1952.8063,387.455 Q1953.5094,387.455 1954.15,387.6112 Q1954.8063,387.7675 1955.3688,388.0644 L1955.3688,390.7831 Q1954.7438,390.205 1954.15,389.9394 Q1953.5563,389.6581 1952.9313,389.6581 Q1951.5875,389.6581 1950.9,390.7362 Q1950.2125,391.7987 1950.2125,393.8925 Q1950.2125,395.9862 1950.9,397.0644 Q1951.5875,398.1269 1952.9313,398.1269 Q1953.5563,398.1269 1954.15,397.8612 Q1954.7438,397.58 1955.3688,397.0019 L1955.3688,399.7206 Z " fill="#000000"/><text fill="#000000" font-family="sans-serif" font-size="14" lengthAdjust="spacing" textLength="56" x="1967.6" y="398.9267">Pozione</text><line style="stroke:#181818;stroke-width:0.5;" x1="1933" x2="2031" y1="410.08" y2="410.08"/><text fill="#000000" font-family="sans-serif" font-size="14" lengthAdjust="spacing" textLength="67" x="1938" y="427.0751">int valore;</text><line style="stroke:#181818;stroke-width:0.5;" x1="1933" x2="2031" y1="434.3769" y2="434.3769"/><text fill="#000000" font-family="sans-serif" font-size="14" lengthAdjust="spacing" textLength="88" x="1938" y="451.372">int get_set();</text></g><!--class Entity--><g id="elem_Entity"><rect codeLine="58" fill="#F1F1F1" height="276.1563" id="Entity" rx="2.5" ry="2.5" style="stroke:#181818;stroke-width:0.5;" width="194" x="147" y="1151.34"/><ellipse cx="220.75" cy="1167.34" fill="#A9DCDF" rx="11" ry="11" style="stroke:#181818;stroke-width:1.0;"/><path d="M220.8594,1162.6838 L219.7031,1167.7619 L222.0313,1167.7619 L220.8594,1162.6838 Z M219.375,1160.4494 L222.3594,1160.4494 L225.7188,1172.84 L223.2656,1172.84 L222.5,1169.7775 L219.2188,1169.7775 L218.4688,1172.84 L216.0313,1172.84 L219.375,1160.4494 Z " fill="#000000"/><text fill="#000000" font-family="sans-serif" font-size="14" font-style="italic" lengthAdjust="spacing" textLength="38" x="241.25" y="1172.1867">Entity</text><line style="stroke:#181818;stroke-width:0.5;" x1="148" x2="340" y1="1183.34" y2="1183.34"/><text fill="#000000" font-family="sans-serif" font-size="14" lengthAdjust="spacing" textLength="95" x="153" y="1200.3351">Inventario inv;</text><text fill="#000000" font-family="sans-serif" font-size="14" lengthAdjust="spacing" textLength="108" x="153" y="1216.632">short int salute;</text><text fill="#000000" font-family="sans-serif" font-size="14" lengthAdjust="spacing" textLength="124" x="153" y="1232.9289">byte danno_base;</text><text fill="#000000" font-family="sans-serif" font-size="14" lengthAdjust="spacing" textLength="141" x="153" y="1249.2257">byte armatura_base;</text><text fill="#000000" font-family="sans-serif" font-size="14" lengthAdjust="spacing" textLength="88" x="153" y="1265.5226">String name;</text><text fill="#000000" font-family="sans-serif" font-size="14" lengthAdjust="spacing" textLength="76" x="153" y="1281.8195">byte livello;</text><line style="stroke:#181818;stroke-width:0.5;" x1="148" x2="340" y1="1289.1213" y2="1289.1213"/><text fill="#000000" font-family="sans-serif" font-size="14" lengthAdjust="spacing" textLength="113" x="153" y="1306.1164">byte getLivello();</text><text fill="#000000" font-family="sans-serif" font-size="14" lengthAdjust="spacing" textLength="112" x="153" y="1322.4132">byte setLivello();</text><text fill="#000000" font-family="sans-serif" font-size="14" lengthAdjust="spacing" textLength="113" x="153" y="1338.7101">String toString();</text><text fill="#000000" font-family="sans-serif" font-size="14" lengthAdjust="spacing" textLength="113" x="153" y="1355.007">int changeVita();</text><text fill="#000000" font-family="sans-serif" font-size="14" lengthAdjust="spacing" textLength="131" x="153" y="1371.3039">boolean addItem();</text><text fill="#000000" font-family="sans-serif" font-size="14" lengthAdjust="spacing" textLength="157" x="153" y="1387.6007">boolean removeItem();</text><text fill="#000000" font-family="sans-serif" font-size="14" lengthAdjust="spacing" textLength="182" x="153" y="1403.8976">Inventario[] getInventory();</text><text fill="#000000" font-family="sans-serif" font-size="14" lengthAdjust="spacing" textLength="133" x="153" y="1420.1945">attackEntity(Entity);</text></g><!--class Player--><g id="elem_Player"><rect codeLine="75" fill="#F1F1F1" height="96.8906" id="Player" rx="2.5" ry="2.5" style="stroke:#181818;stroke-width:0.5;" width="115" x="118.5" y="994.45"/><ellipse cx="152.4" cy="1010.45" fill="#ADD1B2" rx="11" ry="11" style="stroke:#181818;stroke-width:1.0;"/><path d="M155.3688,1016.0906 Q154.7906,1016.3875 154.15,1016.5281 Q153.5094,1016.6844 152.8063,1016.6844 Q150.3063,1016.6844 148.9781,1015.0438 Q147.6656,1013.3875 147.6656,1010.2625 Q147.6656,1007.1375 148.9781,1005.4813 Q150.3063,1003.825 152.8063,1003.825 Q153.5094,1003.825 154.15,1003.9813 Q154.8063,1004.1375 155.3688,1004.4344 L155.3688,1007.1531 Q154.7438,1006.575 154.15,1006.3094 Q153.5563,1006.0281 152.9313,1006.0281 Q151.5875,1006.0281 150.9,1007.1063 Q150.2125,1008.1688 150.2125,1010.2625 Q150.2125,1012.3563 150.9,1013.4344 Q151.5875,1014.4969 152.9313,1014.4969 Q153.5563,1014.4969 154.15,1014.2313 Q154.7438,1013.95 155.3688,1013.3719 L155.3688,1016.0906 Z " fill="#000000"/><text fill="#000000" font-family="sans-serif" font-size="14" lengthAdjust="spacing" textLength="41" x="170.6" y="1015.2967">Player</text><line style="stroke:#181818;stroke-width:0.5;" x1="119.5" x2="232.5" y1="1026.45" y2="1026.45"/><text fill="#000000" font-family="sans-serif" font-size="14" lengthAdjust="spacing" textLength="103" x="124.5" y="1043.4451">byte Carattere;</text><line style="stroke:#181818;stroke-width:0.5;" x1="119.5" x2="232.5" y1="1050.7469" y2="1050.7469"/><text fill="#000000" font-family="sans-serif" font-size="14" lengthAdjust="spacing" textLength="101" x="124.5" y="1067.742">setCarattere();</text><text fill="#000000" font-family="sans-serif" font-size="14" lengthAdjust="spacing" textLength="102" x="124.5" y="1084.0389">getCarattere();</text></g><!--class Monster--><g id="elem_Monster"><rect codeLine="82" fill="#F1F1F1" height="64.2969" id="Monster" rx="2.5" ry="2.5" style="stroke:#181818;stroke-width:0.5;" width="89" x="268.5" y="1010.75"/><ellipse cx="283.5" cy="1026.75" fill="#A9DCDF" rx="11" ry="11" style="stroke:#181818;stroke-width:1.0;"/><path d="M283.6094,1022.0938 L282.4531,1027.1719 L284.7813,1027.1719 L283.6094,1022.0938 Z M282.125,1019.8594 L285.1094,1019.8594 L288.4688,1032.25 L286.0156,1032.25 L285.25,1029.1875 L281.9688,1029.1875 L281.2188,1032.25 L278.7813,1032.25 L282.125,1019.8594 Z " fill="#000000"/><text fill="#000000" font-family="sans-serif" font-size="14" font-style="italic" lengthAdjust="spacing" textLength="57" x="297.5" y="1031.5967">Monster</text><line style="stroke:#181818;stroke-width:0.5;" x1="269.5" x2="356.5" y1="1042.75" y2="1042.75"/><line style="stroke:#181818;stroke-width:0.5;" x1="269.5" x2="356.5" y1="1050.75" y2="1050.75"/><text fill="#000000" font-family="sans-serif" font-size="14" lengthAdjust="spacing" textLength="47" x="274.5" y="1067.7451">drop();</text></g><!--class Monster_Factory--><g id="elem_Monster_Factory"><rect codeLine="85" fill="#F1F1F1" height="80.5938" id="Monster_Factory" rx="2.5" ry="2.5" style="stroke:#181818;stroke-width:0.5;" width="190" x="218" y="590.12"/><ellipse cx="252.8" cy="606.12" fill="#ADD1B2" rx="11" ry="11" style="stroke:#181818;stroke-width:1.0;"/><path d="M255.7688,611.7606 Q255.1906,612.0575 254.55,612.1981 Q253.9094,612.3544 253.2063,612.3544 Q250.7063,612.3544 249.3781,610.7138 Q248.0656,609.0575 248.0656,605.9325 Q248.0656,602.8075 249.3781,601.1513 Q250.7063,599.495 253.2063,599.495 Q253.9094,599.495 254.55,599.6513 Q255.2063,599.8075 255.7688,600.1044 L255.7688,602.8231 Q255.1438,602.245 254.55,601.9794 Q253.9563,601.6981 253.3313,601.6981 Q251.9875,601.6981 251.3,602.7763 Q250.6125,603.8388 250.6125,605.9325 Q250.6125,608.0263 251.3,609.1044 Q251.9875,610.1669 253.3313,610.1669 Q253.9563,610.1669 254.55,609.9013 Q255.1438,609.62 255.7688,609.0419 L255.7688,611.7606 Z " fill="#000000"/><text fill="#000000" font-family="sans-serif" font-size="14" lengthAdjust="spacing" textLength="114" x="271.2" y="610.9667">Monster_Factory</text><line style="stroke:#181818;stroke-width:0.5;" x1="219" x2="407" y1="622.12" y2="622.12"/><line style="stroke:#181818;stroke-width:0.5;" x1="219" x2="407" y1="630.12" y2="630.12"/><text fill="#000000" font-family="sans-serif" font-size="14" lengthAdjust="spacing" textLength="171" x="224" y="647.1151">Monster create(int type);</text><text fill="#000000" font-family="sans-serif" font-size="14" lengthAdjust="spacing" textLength="178" x="224" y="663.412">Monster createRandom();</text></g><!--class Gatto--><g id="elem_Gatto"><rect codeLine="90" fill="#F1F1F1" height="48" id="Gatto" rx="2.5" ry="2.5" style="stroke:#181818;stroke-width:0.5;" width="70" x="30" y="755.16"/><ellipse cx="45" cy="771.16" fill="#ADD1B2" rx="11" ry="11" style="stroke:#181818;stroke-width:1.0;"/><path d="M47.9688,776.8006 Q47.3906,777.0975 46.75,777.2381 Q46.1094,777.3944 45.4063,777.3944 Q42.9063,777.3944 41.5781,775.7538 Q40.2656,774.0975 40.2656,770.9725 Q40.2656,767.8475 41.5781,766.1913 Q42.9063,764.535 45.4063,764.535 Q46.1094,764.535 46.75,764.6913 Q47.4063,764.8475 47.9688,765.1444 L47.9688,767.8631 Q47.3438,767.285 46.75,767.0194 Q46.1563,766.7381 45.5313,766.7381 Q44.1875,766.7381 43.5,767.8163 Q42.8125,768.8788 42.8125,770.9725 Q42.8125,773.0663 43.5,774.1444 Q44.1875,775.2069 45.5313,775.2069 Q46.1563,775.2069 46.75,774.9413 Q47.3438,774.66 47.9688,774.0819 L47.9688,776.8006 Z " fill="#000000"/><text fill="#000000" font-family="sans-serif" font-size="14" lengthAdjust="spacing" textLength="38" x="59" y="776.0067">Gatto</text><line style="stroke:#181818;stroke-width:0.5;" x1="31" x2="99" y1="787.16" y2="787.16"/><line style="stroke:#181818;stroke-width:0.5;" x1="31" x2="99" y1="795.16" y2="795.16"/></g><!--class Mago_nero--><g id="elem_Mago_nero"><rect codeLine="93" fill="#F1F1F1" height="48" id="Mago_nero" rx="2.5" ry="2.5" style="stroke:#181818;stroke-width:0.5;" width="109" x="134.5" y="755.16"/><ellipse cx="149.5" cy="771.16" fill="#ADD1B2" rx="11" ry="11" style="stroke:#181818;stroke-width:1.0;"/><path d="M152.4688,776.8006 Q151.8906,777.0975 151.25,777.2381 Q150.6094,777.3944 149.9063,777.3944 Q147.4063,777.3944 146.0781,775.7538 Q144.7656,774.0975 144.7656,770.9725 Q144.7656,767.8475 146.0781,766.1913 Q147.4063,764.535 149.9063,764.535 Q150.6094,764.535 151.25,764.6913 Q151.9063,764.8475 152.4688,765.1444 L152.4688,767.8631 Q151.8438,767.285 151.25,767.0194 Q150.6563,766.7381 150.0313,766.7381 Q148.6875,766.7381 148,767.8163 Q147.3125,768.8788 147.3125,770.9725 Q147.3125,773.0663 148,774.1444 Q148.6875,775.2069 150.0313,775.2069 Q150.6563,775.2069 151.25,774.9413 Q151.8438,774.66 152.4688,774.0819 L152.4688,776.8006 Z " fill="#000000"/><text fill="#000000" font-family="sans-serif" font-size="14" lengthAdjust="spacing" textLength="77" x="163.5" y="776.0067">Mago_nero</text><line style="stroke:#181818;stroke-width:0.5;" x1="135.5" x2="242.5" y1="787.16" y2="787.16"/><line style="stroke:#181818;stroke-width:0.5;" x1="135.5" x2="242.5" y1="795.16" y2="795.16"/></g><!--class Ladro--><g id="elem_Ladro"><rect codeLine="96" fill="#F1F1F1" height="48" id="Ladro" rx="2.5" ry="2.5" style="stroke:#181818;stroke-width:0.5;" width="70" x="278" y="755.16"/><ellipse cx="293" cy="771.16" fill="#ADD1B2" rx="11" ry="11" style="stroke:#181818;stroke-width:1.0;"/><path d="M295.9688,776.8006 Q295.3906,777.0975 294.75,777.2381 Q294.1094,777.3944 293.4063,777.3944 Q290.9063,777.3944 289.5781,775.7538 Q288.2656,774.0975 288.2656,770.9725 Q288.2656,767.8475 289.5781,766.1913 Q290.9063,764.535 293.4063,764.535 Q294.1094,764.535 294.75,764.6913 Q295.4063,764.8475 295.9688,765.1444 L295.9688,767.8631 Q295.3438,767.285 294.75,767.0194 Q294.1563,766.7381 293.5313,766.7381 Q292.1875,766.7381 291.5,767.8163 Q290.8125,768.8788 290.8125,770.9725 Q290.8125,773.0663 291.5,774.1444 Q292.1875,775.2069 293.5313,775.2069 Q294.1563,775.2069 294.75,774.9413 Q295.3438,774.66 295.9688,774.0819 L295.9688,776.8006 Z " fill="#000000"/><text fill="#000000" font-family="sans-serif" font-size="14" lengthAdjust="spacing" textLength="38" x="307" y="776.0067">Ladro</text><line style="stroke:#181818;stroke-width:0.5;" x1="279" x2="347" y1="787.16" y2="787.16"/><line style="stroke:#181818;stroke-width:0.5;" x1="279" x2="347" y1="795.16" y2="795.16"/></g><!--class Lupo--><g id="elem_Lupo"><rect codeLine="99" fill="#F1F1F1" height="48" id="Lupo" rx="2.5" ry="2.5" style="stroke:#181818;stroke-width:0.5;" width="66" x="383" y="755.16"/><ellipse cx="398" cy="771.16" fill="#ADD1B2" rx="11" ry="11" style="stroke:#181818;stroke-width:1.0;"/><path d="M400.9688,776.8006 Q400.3906,777.0975 399.75,777.2381 Q399.1094,777.3944 398.4063,777.3944 Q395.9063,777.3944 394.5781,775.7538 Q393.2656,774.0975 393.2656,770.9725 Q393.2656,767.8475 394.5781,766.1913 Q395.9063,764.535 398.4063,764.535 Q399.1094,764.535 399.75,764.6913 Q400.4063,764.8475 400.9688,765.1444 L400.9688,767.8631 Q400.3438,767.285 399.75,767.0194 Q399.1563,766.7381 398.5313,766.7381 Q397.1875,766.7381 396.5,767.8163 Q395.8125,768.8788 395.8125,770.9725 Q395.8125,773.0663 396.5,774.1444 Q397.1875,775.2069 398.5313,775.2069 Q399.1563,775.2069 399.75,774.9413 Q400.3438,774.66 400.9688,774.0819 L400.9688,776.8006 Z " fill="#000000"/><text fill="#000000" font-family="sans-serif" font-size="14" lengthAdjust="spacing" textLength="34" x="412" y="776.0067">Lupo</text><line style="stroke:#181818;stroke-width:0.5;" x1="384" x2="448" y1="787.16" y2="787.16"/><line style="stroke:#181818;stroke-width:0.5;" x1="384" x2="448" y1="795.16" y2="795.16"/></g><!--class Goblin--><g id="elem_Goblin"><rect codeLine="102" fill="#F1F1F1" height="48" id="Goblin" rx="2.5" ry="2.5" style="stroke:#181818;stroke-width:0.5;" width="76" x="484" y="755.16"/><ellipse cx="499" cy="771.16" fill="#ADD1B2" rx="11" ry="11" style="stroke:#181818;stroke-width:1.0;"/><path d="M501.9688,776.8006 Q501.3906,777.0975 500.75,777.2381 Q500.1094,777.3944 499.4063,777.3944 Q496.9063,777.3944 495.5781,775.7538 Q494.2656,774.0975 494.2656,770.9725 Q494.2656,767.8475 495.5781,766.1913 Q496.9063,764.535 499.4063,764.535 Q500.1094,764.535 500.75,764.6913 Q501.4063,764.8475 501.9688,765.1444 L501.9688,767.8631 Q501.3438,767.285 500.75,767.0194 Q500.1563,766.7381 499.5313,766.7381 Q498.1875,766.7381 497.5,767.8163 Q496.8125,768.8788 496.8125,770.9725 Q496.8125,773.0663 497.5,774.1444 Q498.1875,775.2069 499.5313,775.2069 Q500.1563,775.2069 500.75,774.9413 Q501.3438,774.66 501.9688,774.0819 L501.9688,776.8006 Z " fill="#000000"/><text fill="#000000" font-family="sans-serif" font-size="14" lengthAdjust="spacing" textLength="44" x="513" y="776.0067">Goblin</text><line style="stroke:#181818;stroke-width:0.5;" x1="485" x2="559" y1="787.16" y2="787.16"/><line style="stroke:#181818;stroke-width:0.5;" x1="485" x2="559" y1="795.16" y2="795.16"/></g><!--class MenuItem--><g id="elem_MenuItem"><rect codeLine="122" fill="#F1F1F1" height="145.7813" id="MenuItem" rx="2.5" ry="2.5" style="stroke:#181818;stroke-width:0.5;" width="138" x="2147" y="345.48"/><ellipse cx="2178.65" cy="361.48" fill="#ADD1B2" rx="11" ry="11" style="stroke:#181818;stroke-width:1.0;"/><path d="M2181.6188,367.1206 Q2181.0406,367.4175 2180.4,367.5581 Q2179.7594,367.7144 2179.0563,367.7144 Q2176.5563,367.7144 2175.2281,366.0738 Q2173.9156,364.4175 2173.9156,361.2925 Q2173.9156,358.1675 2175.2281,356.5113 Q2176.5563,354.855 2179.0563,354.855 Q2179.7594,354.855 2180.4,355.0113 Q2181.0563,355.1675 2181.6188,355.4644 L2181.6188,358.1831 Q2180.9938,357.605 2180.4,357.3394 Q2179.8063,357.0581 2179.1813,357.0581 Q2177.8375,357.0581 2177.15,358.1363 Q2176.4625,359.1988 2176.4625,361.2925 Q2176.4625,363.3863 2177.15,364.4644 Q2177.8375,365.5269 2179.1813,365.5269 Q2179.8063,365.5269 2180.4,365.2613 Q2180.9938,364.98 2181.6188,364.4019 L2181.6188,367.1206 Z " fill="#000000"/><text fill="#000000" font-family="sans-serif" font-size="14" lengthAdjust="spacing" textLength="69" x="2196.35" y="366.3267">MenuItem</text><line style="stroke:#181818;stroke-width:0.5;" x1="2148" x2="2284" y1="377.48" y2="377.48"/><text fill="#000000" font-family="sans-serif" font-size="14" lengthAdjust="spacing" textLength="118" x="2153" y="394.4751">String command;</text><text fill="#000000" font-family="sans-serif" font-size="14" lengthAdjust="spacing" textLength="126" x="2153" y="410.772">String description;</text><line style="stroke:#181818;stroke-width:0.5;" x1="2148" x2="2284" y1="418.0738" y2="418.0738"/><text fill="#000000" font-family="sans-serif" font-size="14" lengthAdjust="spacing" textLength="108" x="2153" y="435.0689">setCommand();</text><text fill="#000000" font-family="sans-serif" font-size="14" lengthAdjust="spacing" textLength="116" x="2153" y="451.3657">setDescription();</text><text fill="#000000" font-family="sans-serif" font-size="14" lengthAdjust="spacing" textLength="109" x="2153" y="467.6626">getCommand();</text><text fill="#000000" font-family="sans-serif" font-size="14" lengthAdjust="spacing" textLength="117" x="2153" y="483.9595">getDescription();</text></g><!--class Menu--><g id="elem_Menu"><rect codeLine="132" fill="#F1F1F1" height="96.8906" id="Menu" rx="2.5" ry="2.5" style="stroke:#181818;stroke-width:0.5;" width="501" x="2087.5" y="172.3"/><ellipse cx="2314.25" cy="188.3" fill="#ADD1B2" rx="11" ry="11" style="stroke:#181818;stroke-width:1.0;"/><path d="M2317.2188,193.9406 Q2316.6406,194.2375 2316,194.3781 Q2315.3594,194.5344 2314.6563,194.5344 Q2312.1563,194.5344 2310.8281,192.8937 Q2309.5156,191.2375 2309.5156,188.1125 Q2309.5156,184.9875 2310.8281,183.3312 Q2312.1563,181.675 2314.6563,181.675 Q2315.3594,181.675 2316,181.8312 Q2316.6563,181.9875 2317.2188,182.2844 L2317.2188,185.0031 Q2316.5938,184.425 2316,184.1594 Q2315.4063,183.8781 2314.7813,183.8781 Q2313.4375,183.8781 2312.75,184.9562 Q2312.0625,186.0187 2312.0625,188.1125 Q2312.0625,190.2062 2312.75,191.2844 Q2313.4375,192.3469 2314.7813,192.3469 Q2315.4063,192.3469 2316,192.0812 Q2316.5938,191.8 2317.2188,191.2219 L2317.2188,193.9406 Z " fill="#000000"/><text fill="#000000" font-family="sans-serif" font-size="14" lengthAdjust="spacing" textLength="39" x="2334.75" y="193.1467">Menu</text><line style="stroke:#181818;stroke-width:0.5;" x1="2088.5" x2="2587.5" y1="204.3" y2="204.3"/><text fill="#000000" font-family="sans-serif" font-size="14" lengthAdjust="spacing" textLength="489" x="2093.5" y="221.2951">Map&lt;int, MenuItem&gt; commandMap = new HashMap&lt;int, MenuItem&gt;;</text><line style="stroke:#181818;stroke-width:0.5;" x1="2088.5" x2="2587.5" y1="228.5969" y2="228.5969"/><text fill="#000000" font-family="sans-serif" font-size="14" lengthAdjust="spacing" textLength="123" x="2093.5" y="245.592">PrintMenuItems();</text><text fill="#000000" font-family="sans-serif" font-size="14" lengthAdjust="spacing" textLength="112" x="2093.5" y="261.8889">selectMenu(int )</text></g><!--class Classi_Disponibili--><g id="elem_Classi_Disponibili"><rect codeLine="138" fill="#F1F1F1" height="48" id="Classi_Disponibili" rx="2.5" ry="2.5" style="stroke:#181818;stroke-width:0.5;" width="149" x="2092.5" y="41"/><ellipse cx="2107.5" cy="57" fill="#ADD1B2" rx="11" ry="11" style="stroke:#181818;stroke-width:1.0;"/><path d="M2110.4688,62.6406 Q2109.8906,62.9375 2109.25,63.0781 Q2108.6094,63.2344 2107.9063,63.2344 Q2105.4063,63.2344 2104.0781,61.5938 Q2102.7656,59.9375 2102.7656,56.8125 Q2102.7656,53.6875 2104.0781,52.0313 Q2105.4063,50.375 2107.9063,50.375 Q2108.6094,50.375 2109.25,50.5313 Q2109.9063,50.6875 2110.4688,50.9844 L2110.4688,53.7031 Q2109.8438,53.125 2109.25,52.8594 Q2108.6563,52.5781 2108.0313,52.5781 Q2106.6875,52.5781 2106,53.6563 Q2105.3125,54.7188 2105.3125,56.8125 Q2105.3125,58.9063 2106,59.9844 Q2106.6875,61.0469 2108.0313,61.0469 Q2108.6563,61.0469 2109.25,60.7813 Q2109.8438,60.5 2110.4688,59.9219 L2110.4688,62.6406 Z " fill="#000000"/><text fill="#000000" font-family="sans-serif" font-size="14" lengthAdjust="spacing" textLength="117" x="2121.5" y="61.8467">Classi_Disponibili</text><line style="stroke:#181818;stroke-width:0.5;" x1="2093.5" x2="2240.5" y1="73" y2="73"/><line style="stroke:#181818;stroke-width:0.5;" x1="2093.5" x2="2240.5" y1="81" y2="81"/></g><!--class Menu_iniziale--><g id="elem_Menu_iniziale"><rect codeLine="139" fill="#F1F1F1" height="48" id="Menu_iniziale" rx="2.5" ry="2.5" style="stroke:#181818;stroke-width:0.5;" width="124" x="2276" y="41"/><ellipse cx="2291" cy="57" fill="#ADD1B2" rx="11" ry="11" style="stroke:#181818;stroke-width:1.0;"/><path d="M2293.9688,62.6406 Q2293.3906,62.9375 2292.75,63.0781 Q2292.1094,63.2344 2291.4063,63.2344 Q2288.9063,63.2344 2287.5781,61.5938 Q2286.2656,59.9375 2286.2656,56.8125 Q2286.2656,53.6875 2287.5781,52.0313 Q2288.9063,50.375 2291.4063,50.375 Q2292.1094,50.375 2292.75,50.5313 Q2293.4063,50.6875 2293.9688,50.9844 L2293.9688,53.7031 Q2293.3438,53.125 2292.75,52.8594 Q2292.1563,52.5781 2291.5313,52.5781 Q2290.1875,52.5781 2289.5,53.6563 Q2288.8125,54.7188 2288.8125,56.8125 Q2288.8125,58.9063 2289.5,59.9844 Q2290.1875,61.0469 2291.5313,61.0469 Q2292.1563,61.0469 2292.75,60.7813 Q2293.3438,60.5 2293.9688,59.9219 L2293.9688,62.6406 Z " fill="#000000"/><text fill="#000000" font-family="sans-serif" font-size="14" lengthAdjust="spacing" textLength="92" x="2305" y="61.8467">Menu_iniziale</text><line style="stroke:#181818;stroke-width:0.5;" x1="2277" x2="2399" y1="73" y2="73"/><line style="stroke:#181818;stroke-width:0.5;" x1="2277" x2="2399" y1="81" y2="81"/></g><!--class Menu_battaglia--><g id="elem_Menu_battaglia"><rect codeLine="140" fill="#F1F1F1" height="48" id="Menu_battaglia" rx="2.5" ry="2.5" style="stroke:#181818;stroke-width:0.5;" width="136" x="2435" y="41"/><ellipse cx="2450" cy="57" fill="#ADD1B2" rx="11" ry="11" style="stroke:#181818;stroke-width:1.0;"/><path d="M2452.9688,62.6406 Q2452.3906,62.9375 2451.75,63.0781 Q2451.1094,63.2344 2450.4063,63.2344 Q2447.9063,63.2344 2446.5781,61.5938 Q2445.2656,59.9375 2445.2656,56.8125 Q2445.2656,53.6875 2446.5781,52.0313 Q2447.9063,50.375 2450.4063,50.375 Q2451.1094,50.375 2451.75,50.5313 Q2452.4063,50.6875 2452.9688,50.9844 L2452.9688,53.7031 Q2452.3438,53.125 2451.75,52.8594 Q2451.1563,52.5781 2450.5313,52.5781 Q2449.1875,52.5781 2448.5,53.6563 Q2447.8125,54.7188 2447.8125,56.8125 Q2447.8125,58.9063 2448.5,59.9844 Q2449.1875,61.0469 2450.5313,61.0469 Q2451.1563,61.0469 2451.75,60.7813 Q2452.3438,60.5 2452.9688,59.9219 L2452.9688,62.6406 Z " fill="#000000"/><text fill="#000000" font-family="sans-serif" font-size="14" lengthAdjust="spacing" textLength="104" x="2464" y="61.8467">Menu_battaglia</text><line style="stroke:#181818;stroke-width:0.5;" x1="2436" x2="2570" y1="73" y2="73"/><line style="stroke:#181818;stroke-width:0.5;" x1="2436" x2="2570" y1="81" y2="81"/></g><!--class Coordinates--><g id="elem_Coordinates"><rect codeLine="149" fill="#F1F1F1" height="129.4844" id="Coordinates" rx="2.5" ry="2.5" style="stroke:#181818;stroke-width:0.5;" width="116" x="188" y="156"/><ellipse cx="203" cy="172" fill="#ADD1B2" rx="11" ry="11" style="stroke:#181818;stroke-width:1.0;"/><path d="M205.9688,177.6406 Q205.3906,177.9375 204.75,178.0781 Q204.1094,178.2344 203.4063,178.2344 Q200.9063,178.2344 199.5781,176.5938 Q198.2656,174.9375 198.2656,171.8125 Q198.2656,168.6875 199.5781,167.0313 Q200.9063,165.375 203.4063,165.375 Q204.1094,165.375 204.75,165.5313 Q205.4063,165.6875 205.9688,165.9844 L205.9688,168.7031 Q205.3438,168.125 204.75,167.8594 Q204.1563,167.5781 203.5313,167.5781 Q202.1875,167.5781 201.5,168.6563 Q200.8125,169.7188 200.8125,171.8125 Q200.8125,173.9063 201.5,174.9844 Q202.1875,176.0469 203.5313,176.0469 Q204.1563,176.0469 204.75,175.7813 Q205.3438,175.5 205.9688,174.9219 L205.9688,177.6406 Z " fill="#000000"/><text fill="#000000" font-family="sans-serif" font-size="14" lengthAdjust="spacing" textLength="84" x="217" y="176.8467">Coordinates</text><line style="stroke:#181818;stroke-width:0.5;" x1="189" x2="303" y1="188" y2="188"/><text fill="#000000" font-family="sans-serif" font-size="14" lengthAdjust="spacing" textLength="44" x="194" y="204.9951">int x,y;</text><line style="stroke:#181818;stroke-width:0.5;" x1="189" x2="303" y1="212.2969" y2="212.2969"/><text fill="#000000" font-family="sans-serif" font-size="14" lengthAdjust="spacing" textLength="68" x="194" y="229.292">int getX();</text><text fill="#000000" font-family="sans-serif" font-size="14" lengthAdjust="spacing" textLength="68" x="194" y="245.5889">int getY();</text><text fill="#000000" font-family="sans-serif" font-size="14" lengthAdjust="spacing" textLength="67" x="194" y="261.8857">int setX();</text><text fill="#000000" font-family="sans-serif" font-size="14" lengthAdjust="spacing" textLength="67" x="194" y="278.1826">int setY();</text></g><!--class Direction--><g id="elem_Direction"><rect codeLine="158" fill="#F1F1F1" height="113.1875" id="Direction" rx="2.5" ry="2.5" style="stroke:#181818;stroke-width:0.5;" width="94" x="339" y="164.15"/><ellipse cx="354" cy="180.15" fill="#EB937F" rx="11" ry="11" style="stroke:#181818;stroke-width:1.0;"/><path d="M358.1094,186.15 L350.3906,186.15 L350.3906,173.7594 L358.1094,173.7594 L358.1094,175.9156 L352.8438,175.9156 L352.8438,178.5875 L357.6094,178.5875 L357.6094,180.7438 L352.8438,180.7438 L352.8438,183.9938 L358.1094,183.9938 L358.1094,186.15 Z " fill="#000000"/><text fill="#000000" font-family="sans-serif" font-size="14" lengthAdjust="spacing" textLength="62" x="368" y="184.9967">Direction</text><line style="stroke:#181818;stroke-width:0.5;" x1="340" x2="432" y1="196.15" y2="196.15"/><text fill="#000000" font-family="sans-serif" font-size="14" lengthAdjust="spacing" textLength="42" x="345" y="213.1451">NORD</text><text fill="#000000" font-family="sans-serif" font-size="14" lengthAdjust="spacing" textLength="40" x="345" y="229.442">WEST</text><text fill="#000000" font-family="sans-serif" font-size="14" lengthAdjust="spacing" textLength="47" x="345" y="245.7389">OVEST</text><text fill="#000000" font-family="sans-serif" font-size="14" lengthAdjust="spacing" textLength="49" x="345" y="262.0357">SOUTH</text><line style="stroke:#181818;stroke-width:0.5;" x1="340" x2="432" y1="269.3375" y2="269.3375"/></g><!--class node--><g id="elem_node"><rect codeLine="165" fill="#F1F1F1" height="129.4844" id="node" rx="2.5" ry="2.5" style="stroke:#181818;stroke-width:0.5;" width="244" x="124" y="353.63"/><ellipse cx="223.75" cy="369.63" fill="#ADD1B2" rx="11" ry="11" style="stroke:#181818;stroke-width:1.0;"/><path d="M226.7188,375.2706 Q226.1406,375.5675 225.5,375.7081 Q224.8594,375.8644 224.1563,375.8644 Q221.6563,375.8644 220.3281,374.2238 Q219.0156,372.5675 219.0156,369.4425 Q219.0156,366.3175 220.3281,364.6613 Q221.6563,363.005 224.1563,363.005 Q224.8594,363.005 225.5,363.1613 Q226.1563,363.3175 226.7188,363.6144 L226.7188,366.3331 Q226.0938,365.755 225.5,365.4894 Q224.9063,365.2081 224.2813,365.2081 Q222.9375,365.2081 222.25,366.2863 Q221.5625,367.3488 221.5625,369.4425 Q221.5625,371.5363 222.25,372.6144 Q222.9375,373.6769 224.2813,373.6769 Q224.9063,373.6769 225.5,373.4113 Q226.0938,373.13 226.7188,372.5519 L226.7188,375.2706 Z " fill="#000000"/><text fill="#000000" font-family="sans-serif" font-size="14" lengthAdjust="spacing" textLength="36" x="244.25" y="374.4767">node</text><line style="stroke:#181818;stroke-width:0.5;" x1="125" x2="367" y1="385.63" y2="385.63"/><text fill="#000000" font-family="sans-serif" font-size="14" lengthAdjust="spacing" textLength="124" x="130" y="402.6251">Coordinates cord;</text><text fill="#000000" font-family="sans-serif" font-size="14" lengthAdjust="spacing" textLength="232" x="130" y="418.922">Direction[] dir = new Direction[4];</text><line style="stroke:#181818;stroke-width:0.5;" x1="125" x2="367" y1="426.2238" y2="426.2238"/><text fill="#000000" font-family="sans-serif" font-size="14" lengthAdjust="spacing" textLength="184" x="130" y="443.2189">setDirection(Direction[] d);</text><text fill="#000000" font-family="sans-serif" font-size="14" lengthAdjust="spacing" textLength="178" x="130" y="459.5157">addDirection(Direction d);</text><text fill="#000000" font-family="sans-serif" font-size="14" lengthAdjust="spacing" textLength="176" x="130" y="475.8126">Direction[] getDirection();</text></g><!--class Stanza--><g id="elem_Stanza"><rect codeLine="174" fill="#F1F1F1" height="80.5938" id="Stanza" rx="2.5" ry="2.5" style="stroke:#181818;stroke-width:0.5;" width="127" x="403.5" y="378.08"/><ellipse cx="440.1" cy="394.08" fill="#ADD1B2" rx="11" ry="11" style="stroke:#181818;stroke-width:1.0;"/><path d="M443.0688,399.7206 Q442.4906,400.0175 441.85,400.1581 Q441.2094,400.3144 440.5063,400.3144 Q438.0063,400.3144 436.6781,398.6737 Q435.3656,397.0175 435.3656,393.8925 Q435.3656,390.7675 436.6781,389.1112 Q438.0063,387.455 440.5063,387.455 Q441.2094,387.455 441.85,387.6112 Q442.5063,387.7675 443.0688,388.0644 L443.0688,390.7831 Q442.4438,390.205 441.85,389.9394 Q441.2563,389.6581 440.6313,389.6581 Q439.2875,389.6581 438.6,390.7362 Q437.9125,391.7987 437.9125,393.8925 Q437.9125,395.9862 438.6,397.0644 Q439.2875,398.1269 440.6313,398.1269 Q441.2563,398.1269 441.85,397.8612 Q442.4438,397.58 443.0688,397.0019 L443.0688,399.7206 Z " fill="#000000"/><text fill="#000000" font-family="sans-serif" font-size="14" lengthAdjust="spacing" textLength="47" x="458.9" y="398.9267">Stanza</text><line style="stroke:#181818;stroke-width:0.5;" x1="404.5" x2="529.5" y1="410.08" y2="410.08"/><text fill="#000000" font-family="sans-serif" font-size="14" lengthAdjust="spacing" textLength="115" x="409.5" y="427.0751">Monster mostro;</text><text fill="#000000" font-family="sans-serif" font-size="14" lengthAdjust="spacing" textLength="88" x="409.5" y="443.372">Chest baule;</text><line style="stroke:#181818;stroke-width:0.5;" x1="404.5" x2="529.5" y1="450.6737" y2="450.6737"/></g><!--class Command--><g id="elem_Command"><rect codeLine="183" fill="#F1F1F1" height="113.1875" id="Command" rx="2.5" ry="2.5" style="stroke:#181818;stroke-width:0.5;" width="165" x="1754.5" y="1232.83"/><ellipse cx="1797.4" cy="1248.83" fill="#B4A7E5" rx="11" ry="11" style="stroke:#181818;stroke-width:1.0;"/><path d="M1793.3219,1244.5956 L1793.3219,1242.4394 L1800.7125,1242.4394 L1800.7125,1244.5956 L1798.2438,1244.5956 L1798.2438,1252.6738 L1800.7125,1252.6738 L1800.7125,1254.83 L1793.3219,1254.83 L1793.3219,1252.6738 L1795.7906,1252.6738 L1795.7906,1244.5956 L1793.3219,1244.5956 Z " fill="#000000"/><text fill="#000000" font-family="sans-serif" font-size="14" font-style="italic" lengthAdjust="spacing" textLength="71" x="1817.6" y="1253.6767">Command</text><line style="stroke:#181818;stroke-width:0.5;" x1="1755.5" x2="1918.5" y1="1264.83" y2="1264.83"/><text fill="#000000" font-family="sans-serif" font-size="14" lengthAdjust="spacing" textLength="61" x="1760.5" y="1281.8251">String id;</text><text fill="#000000" font-family="sans-serif" font-size="14" lengthAdjust="spacing" textLength="89" x="1760.5" y="1298.122">String[] alias;</text><line style="stroke:#181818;stroke-width:0.5;" x1="1755.5" x2="1918.5" y1="1305.4238" y2="1305.4238"/><text fill="#000000" font-family="sans-serif" font-size="14" lengthAdjust="spacing" textLength="153" x="1760.5" y="1322.4189">String getCommand();</text><text fill="#000000" font-family="sans-serif" font-size="14" lengthAdjust="spacing" textLength="123" x="1760.5" y="1338.7157">String[] getAlias();</text></g><!--class Command_Collection--><g id="elem_Command_Collection"><rect codeLine="190" fill="#F1F1F1" height="64.2969" id="Command_Collection" rx="2.5" ry="2.5" style="stroke:#181818;stroke-width:0.5;" width="178" x="1748" y="870.16"/><ellipse cx="1763" cy="886.16" fill="#ADD1B2" rx="11" ry="11" style="stroke:#181818;stroke-width:1.0;"/><path d="M1765.9688,891.8006 Q1765.3906,892.0975 1764.75,892.2381 Q1764.1094,892.3944 1763.4063,892.3944 Q1760.9063,892.3944 1759.5781,890.7538 Q1758.2656,889.0975 1758.2656,885.9725 Q1758.2656,882.8475 1759.5781,881.1913 Q1760.9063,879.535 1763.4063,879.535 Q1764.1094,879.535 1764.75,879.6913 Q1765.4063,879.8475 1765.9688,880.1444 L1765.9688,882.8631 Q1765.3438,882.285 1764.75,882.0194 Q1764.1563,881.7381 1763.5313,881.7381 Q1762.1875,881.7381 1761.5,882.8163 Q1760.8125,883.8788 1760.8125,885.9725 Q1760.8125,888.0663 1761.5,889.1444 Q1762.1875,890.2069 1763.5313,890.2069 Q1764.1563,890.2069 1764.75,889.9413 Q1765.3438,889.66 1765.9688,889.0819 L1765.9688,891.8006 Z " fill="#000000"/><text fill="#000000" font-family="sans-serif" font-size="14" lengthAdjust="spacing" textLength="146" x="1777" y="891.0067">Command_Collection</text><line style="stroke:#181818;stroke-width:0.5;" x1="1749" x2="1925" y1="902.16" y2="902.16"/><text fill="#000000" font-family="sans-serif" font-size="14" lengthAdjust="spacing" textLength="40" x="1754" y="919.1551">enum</text><line style="stroke:#181818;stroke-width:0.5;" x1="1749" x2="1925" y1="926.4569" y2="926.4569"/></g><!--class Command_Parser--><g id="elem_Command_Parser"><rect codeLine="193" fill="#F1F1F1" height="64.2969" id="Command_Parser" rx="2.5" ry="2.5" style="stroke:#181818;stroke-width:0.5;" width="154" x="1119" y="870.16"/><ellipse cx="1134" cy="886.16" fill="#ADD1B2" rx="11" ry="11" style="stroke:#181818;stroke-width:1.0;"/><path d="M1136.9688,891.8006 Q1136.3906,892.0975 1135.75,892.2381 Q1135.1094,892.3944 1134.4063,892.3944 Q1131.9063,892.3944 1130.5781,890.7538 Q1129.2656,889.0975 1129.2656,885.9725 Q1129.2656,882.8475 1130.5781,881.1913 Q1131.9063,879.535 1134.4063,879.535 Q1135.1094,879.535 1135.75,879.6913 Q1136.4063,879.8475 1136.9688,880.1444 L1136.9688,882.8631 Q1136.3438,882.285 1135.75,882.0194 Q1135.1563,881.7381 1134.5313,881.7381 Q1133.1875,881.7381 1132.5,882.8163 Q1131.8125,883.8788 1131.8125,885.9725 Q1131.8125,888.0663 1132.5,889.1444 Q1133.1875,890.2069 1134.5313,890.2069 Q1135.1563,890.2069 1135.75,889.9413 Q1136.3438,889.66 1136.9688,889.0819 L1136.9688,891.8006 Z " fill="#000000"/><text fill="#000000" font-family="sans-serif" font-size="14" lengthAdjust="spacing" textLength="122" x="1148" y="891.0067">Command_Parser</text><line style="stroke:#181818;stroke-width:0.5;" x1="1120" x2="1272" y1="902.16" y2="902.16"/><line style="stroke:#181818;stroke-width:0.5;" x1="1120" x2="1272" y1="910.16" y2="910.16"/><text fill="#000000" font-family="sans-serif" font-size="14" lengthAdjust="spacing" textLength="118" x="1125" y="927.1551">checkSinstassi();</text></g><g id="elem_GMN63"><path d="M656,889.74 L656,914.8728 A0,0 0 0 0 656,914.8728 L1084,914.8728 A0,0 0 0 0 1084,914.8728 L1084,907.74 L1118.74,902.3 L1084,899.74 L1084,899.74 L1074,889.74 L656,889.74 A0,0 0 0 0 656,889.74 " fill="#FEFFDD" style="stroke:#181818;stroke-width:0.5;"/><path d="M1074,889.74 L1074,899.74 L1084,899.74 L1074,889.74 " fill="#FEFFDD" style="stroke:#181818;stroke-width:0.5;"/><text fill="#000000" font-family="sans-serif" font-size="13" lengthAdjust="spacing" textLength="407" x="662" y="906.8069">Per lanciare eccezioni in caso di commandi non corretti / facade</text></g><g id="elem_GMN66"><path d="M1308.5,889.74 L1308.5,914.8728 A0,0 0 0 0 1308.5,914.8728 L1713.5,914.8728 A0,0 0 0 0 1713.5,914.8728 L1713.5,907.74 L1747.97,902.3 L1713.5,899.74 L1713.5,899.74 L1703.5,889.74 L1308.5,889.74 A0,0 0 0 0 1308.5,889.74 " fill="#FEFFDD" style="stroke:#181818;stroke-width:0.5;"/><path d="M1703.5,889.74 L1703.5,899.74 L1713.5,899.74 L1703.5,889.74 " fill="#FEFFDD" style="stroke:#181818;stroke-width:0.5;"/><text fill="#000000" font-family="sans-serif" font-size="13" lengthAdjust="spacing" textLength="384" x="1314.5" y="906.8069">Classe in cui si implementano effettivamente tutti i comandi</text></g><!--link Inventario to Storage--><g id="link_Inventario_Storage"><path codeLine="49" d="M1469.85,483.53 C1485.05,515.14 1495.259,536.3783 1509.229,565.4283 " fill="none" id="Inventario-to-Storage" style="stroke:#181818;stroke-width:1.0;"/><polygon fill="none" points="1517.03,581.65,1514.6363,562.8279,1503.8218,568.0286,1517.03,581.65" style="stroke:#181818;stroke-width:1.0;"/></g><!--link Arma to Item--><g id="link_Arma_Item"><path codeLine="50" d="M1736.46,450.78 C1744.69,474.81 1759.73,506.56 1785,523.12 C1817.48,544.4 1837.26,513.76 1872,531.12 C1888.37,539.3 1890.8487,538.7486 1903.4587,552.1986 " fill="none" id="Arma-to-Item" style="stroke:#181818;stroke-width:1.0;"/><polygon fill="none" points="1915.77,565.33,1907.8359,548.0949,1899.0816,556.3024,1915.77,565.33" style="stroke:#181818;stroke-width:1.0;"/></g><!--link Armatura to Item--><g id="link_Armatura_Item"><path codeLine="51" d="M1866.62,450.82 C1882.58,481.03 1898.7703,511.6553 1918.8503,549.6553 " fill="none" id="Armatura-to-Item" style="stroke:#181818;stroke-width:1.0;"/><polygon fill="none" points="1927.26,565.57,1924.1552,546.8521,1913.5454,552.4585,1927.26,565.57" style="stroke:#181818;stroke-width:1.0;"/></g><!--link Pozione to Item--><g id="link_Pozione_Item"><path codeLine="52" d="M1978.05,458.88 C1975.06,488.83 1972.6706,512.6993 1969.2006,547.4093 " fill="none" id="Pozione-to-Item" style="stroke:#181818;stroke-width:1.0;"/><polygon fill="none" points="1967.41,565.32,1975.1708,548.0061,1963.2303,546.8124,1967.41,565.32" style="stroke:#181818;stroke-width:1.0;"/></g><!--link Chest to Storage--><g id="link_Chest_Storage"><path codeLine="53" d="M1606.69,442.66 C1594.75,476.09 1578.545,521.489 1563.035,564.909 " fill="none" id="Chest-to-Storage" style="stroke:#181818;stroke-width:1.0;"/><polygon fill="none" points="1556.98,581.86,1568.6854,566.9273,1557.3847,562.8907,1556.98,581.86" style="stroke:#181818;stroke-width:1.0;"/></g><!--link Player to Entity--><g id="link_Player_Entity"><path codeLine="106" d="M189.27,1091.63 C194.1,1109 195.0169,1112.2782 200.9269,1133.5282 " fill="none" id="Player-to-Entity" style="stroke:#181818;stroke-width:1.0;"/><polygon fill="none" points="205.75,1150.87,206.7075,1131.9205,195.1463,1135.1359,205.75,1150.87" style="stroke:#181818;stroke-width:1.0;"/></g><!--link Monster to Entity--><g id="link_Monster_Entity"><path codeLine="107" d="M304.12,1075.37 C298.5,1095.29 295.6745,1105.2754 287.6645,1133.6854 " fill="none" id="Monster-to-Entity" style="stroke:#181818;stroke-width:1.0;"/><polygon fill="none" points="282.78,1151.01,293.4394,1135.3136,281.8897,1132.0572,282.78,1151.01" style="stroke:#181818;stroke-width:1.0;"/></g><!--link Gatto to Monster--><g id="link_Gatto_Monster"><path codeLine="108" d="M83.65,803.63 C108.52,834.52 154.37,890.11 197,934.45 C222.59,961.07 239.8791,977.3962 263.2691,998.2662 " fill="none" id="Gatto-to-Monster" style="stroke:#181818;stroke-width:1.0;"/><polygon fill="none" points="276.7,1010.25,267.2638,993.7892,259.2745,1002.7431,276.7,1010.25" style="stroke:#181818;stroke-width:1.0;"/></g><!--link Mago_nero to Monster--><g id="link_Mago_nero_Monster"><path codeLine="109" d="M200,803.38 C222.29,850.43 265.0738,940.743 290.3238,994.043 " fill="none" id="Mago_nero-to-Monster" style="stroke:#181818;stroke-width:1.0;"/><polygon fill="none" points="298.03,1010.31,295.7461,991.4743,284.9015,996.6118,298.03,1010.31" style="stroke:#181818;stroke-width:1.0;"/></g><!--link Goblin to Monster--><g id="link_Goblin_Monster"><path codeLine="110" d="M503.45,803.38 C465.89,850.43 392.0116,942.9441 349.4516,996.2441 " fill="none" id="Goblin-to-Monster" style="stroke:#181818;stroke-width:1.0;"/><polygon fill="none" points="338.22,1010.31,354.1403,999.9879,344.763,992.5002,338.22,1010.31" style="stroke:#181818;stroke-width:1.0;"/></g><!--link Lupo to Monster--><g id="link_Lupo_Monster"><path codeLine="111" d="M406.86,803.38 C388.35,850.43 353.0028,940.2608 332.0228,993.5608 " fill="none" id="Lupo-to-Monster" style="stroke:#181818;stroke-width:1.0;"/><polygon fill="none" points="325.43,1010.31,337.6059,995.7584,326.4398,991.3632,325.43,1010.31" style="stroke:#181818;stroke-width:1.0;"/></g><!--link Ladro to Monster--><g id="link_Ladro_Monster"><path codeLine="112" d="M313,803.38 C313,850.43 313,939.01 313,992.31 " fill="none" id="Ladro-to-Monster" style="stroke:#181818;stroke-width:1.0;"/><polygon fill="none" points="313,1010.31,319,992.31,307,992.31,313,1010.31" style="stroke:#181818;stroke-width:1.0;"/></g><!--link Monster_Factory to Gatto--><g id="link_Monster_Factory_Gatto"><path codeLine="114" d="M245.89,671.12 C198.98,698.88 153.6914,725.6739 115.9014,748.0339 " fill="none" id="Monster_Factory-to-Gatto" style="stroke:#181818;stroke-width:1.0;"/><polygon fill="none" points="100.41,757.2,118.9567,753.1977,112.846,742.8701,100.41,757.2" style="stroke:#181818;stroke-width:1.0;"/></g><!--link Monster_Factory to Mago_nero--><g id="link_Monster_Factory_Mago_nero"><path codeLine="115" d="M279.44,671.12 C256.78,697.95 239.2587,718.6821 220.2687,741.1521 " fill="none" id="Monster_Factory-to-Mago_nero" style="stroke:#181818;stroke-width:1.0;"/><polygon fill="none" points="208.65,754.9,224.8514,745.025,215.6861,737.2792,208.65,754.9" style="stroke:#181818;stroke-width:1.0;"/></g><!--link Monster_Factory to Goblin--><g id="link_Monster_Factory_Goblin"><path codeLine="116" d="M353.13,670.82 C370.47,686.81 391.46,704.84 412,719.16 C434.58,734.89 445.7007,741.5496 467.4207,752.3096 " fill="none" id="Monster_Factory-to-Goblin" style="stroke:#181818;stroke-width:1.0;"/><polygon fill="none" points="483.55,760.3,470.0842,746.9332,464.7573,757.686,483.55,760.3" style="stroke:#181818;stroke-width:1.0;"/></g><!--link Monster_Factory to Lupo--><g id="link_Monster_Factory_Lupo"><path codeLine="117" d="M340.87,671.12 C359.7,697.95 373.5553,717.6995 389.3353,740.1695 " fill="none" id="Monster_Factory-to-Lupo" style="stroke:#181818;stroke-width:1.0;"/><polygon fill="none" points="399.68,754.9,394.2454,736.7213,384.4251,743.6178,399.68,754.9" style="stroke:#181818;stroke-width:1.0;"/></g><!--link Monster_Factory to Ladro--><g id="link_Monster_Factory_Ladro"><path codeLine="118" d="M313,671.12 C313,697.95 313,714.43 313,736.9 " fill="none" id="Monster_Factory-to-Ladro" style="stroke:#181818;stroke-width:1.0;"/><polygon fill="none" points="313,754.9,319,736.9,307,736.9,313,754.9" style="stroke:#181818;stroke-width:1.0;"/></g><!--link Menu to MenuItem--><g id="link_Menu_MenuItem"><path codeLine="142" d="M2308.16,269.6 C2293.98,292.34 2286.2585,304.7289 2270.5285,329.9389 " fill="none" id="Menu-to-MenuItem" style="stroke:#181818;stroke-width:1.0;"/><polygon fill="none" points="2261,345.21,2275.6189,333.1151,2265.4382,326.7627,2261,345.21" style="stroke:#181818;stroke-width:1.0;"/></g><!--link Classi_Disponibili to Menu--><g id="link_Classi_Disponibili_Menu"><path codeLine="143" d="M2192.97,89.35 C2217.26,111.19 2240.8955,132.4344 2271.4555,159.9144 " fill="none" id="Classi_Disponibili-to-Menu" style="stroke:#181818;stroke-width:1.0;"/><polygon fill="none" points="2284.84,171.95,2275.4673,155.4529,2267.4436,164.376,2284.84,171.95" style="stroke:#181818;stroke-width:1.0;"/></g><!--link Menu_iniziale to Menu--><g id="link_Menu_iniziale_Menu"><path codeLine="144" d="M2338,89.35 C2338,111.19 2338,126.47 2338,153.95 " fill="none" id="Menu_iniziale-to-Menu" style="stroke:#181818;stroke-width:1.0;"/><polygon fill="none" points="2338,171.95,2344,153.95,2332,153.95,2338,171.95" style="stroke:#181818;stroke-width:1.0;"/></g><!--link Menu_battaglia to Menu--><g id="link_Menu_battaglia_Menu"><path codeLine="145" d="M2477.94,89.35 C2454.5,111.19 2431.9467,132.1965 2402.4667,159.6765 " fill="none" id="Menu_battaglia-to-Menu" style="stroke:#181818;stroke-width:1.0;"/><polygon fill="none" points="2389.3,171.95,2406.5579,164.0655,2398.3756,155.2876,2389.3,171.95" style="stroke:#181818;stroke-width:1.0;"/></g><!--link Command_Collection to Command--><g id="link_Command_Collection_Command"><path codeLine="200" d="M1837,934.82 C1837,1000.03 1837,1144.52 1837,1226.58 " fill="none" id="Command_Collection-to-Command" style="stroke:#181818;stroke-width:1.0;"/><polygon fill="#181818" points="1837,1232.58,1841,1223.58,1837,1227.58,1833,1223.58,1837,1232.58" style="stroke:#181818;stroke-width:1.0;"/></g><!--link Menu to Item--><!--link Item to Prompts--><!--link Mappa to Entita'--><!--link Entita' to Prompts--><!--SRC=[TLPjRzis4FxENt7eFYG56WGfzcdP0WH9rXPe6ZTEkvSYCCuIOnELI8sal2MQ_yk-xdVqZ-sEf2JAyOmWjfux7U-UU-4rM7p5bOGNxxoiJrx0TvVXqm4S7pYZLwQIu5LZAhDI4cGbQwczEZWMK5Je7F1hq0a0c7khz0gqgUKfFoljeP7EX0TMktjiHbjuIgY8MYlfFxQebSV3bwozCQe4B4i6_O2IGxxrNe6JuHNs0SIM9LAtzN149sOtlx-x-N1rqlzuBSvlhyzFml_u- -xJRNhcNw_9YZPUGYKVF9Y76DGFyAvkOhm8hGQdc0qJXQAFV-wD9VwwuDzAEg_iX2PoRsc8HDGSKOoa1woipKOI5bvkf2tMt_wbyEWeQApP820Kk46o-4UBLM4S4hqQf5EEl3q5qpGj2IlKXM8V4MHHo2Tbj0piiAjVxg4YTRnAFh4BM-P-4d4AWuA-uB0aB97-aKiGELTG6EqbvSXODUHURvWSgqn7_fUoWgR2Hsd3sSj7BqF-hqbLrQ4C1kpSUmf8Kk1CKDCkArLavWu7nS0N9Nj6loDvN31E8d4L8k7qHsykriH-jnKZScvhx0I_iC7AM3bHPw5lxVyhp4mWSYfFvRgW6ep7RyNeDXmT_NtMKoduW8Xm6aH_NWQb4p8an30r8qJJj-XLw8Q3h4cF3yulxrAAgBCKb0euoVxRFy35XqldBHO-XHGCF7AtPauhlM5UtTfO7zd5glLoo5U9Mfi5ryC0OOfbGFlUntfKgjH6LXNblGU8j_SHIst0eDi1aoLlueynvyKQzKf-7iP1rbLCtRxE6l4nN6e7yYC-6_iOnUWzSHpPEOnVeIdxp_41LJyPhT0hwahgpIKkLSKq4yjR4AbYGlLtVMWNQCcmj84IYdDuFkohUe88ggMTV5qRJOqUB9RMDFsae3SvQp42Ta1Cr1S_amMIT30D8JOsyWaKBuHXvGe9jI4epQfa0WehqSj39jxJJ0qEJsMtg4jJnoQ8nxyXiwOJepkuCWijROwzntBwt3Rvunj3aq07O2iYdQ4ROav4xq46XKC9u9P9OZ4Sl8D7wpiWUx0BiPCxcDWXbuNXx7s2qO6zhqKtzec2Cti5mQLi65pJdNSo38AUSGAvwFFxk31rJQawpQ1IkiAgnjFm2Tt9jHcrOcNIy-MeCbPhhhFQeqEpT_GZ-72DpOzKGwy6pyvwVqW2Fu6MVy9RTEldUcoFBSp8Oz-ZBcq2ZYxO8g2XGbzEhW7-hnQNoZL6A-vIw38nlxHGMZqfkd-U2PRS6QjAOSS5o50Snhq3Oe_rGK5CRE_YW-bCaAKJcmQpvIlxPA4POqkbgVbSbwRYNwyUJySjwjTnNDBJR_c5cSjSab688gnES4bRIy69PBiVRculwUkNg_aTVTryZj_pcqztRyMGOcrAALWxSufoQqEX3UPesfRAfaIFwFVtVPdrqE7abJYKotAFE0bpzLLk9uOrK3Rtg9-mowPNc7PX6ucNxHBRAbpy_3VaOsPDtNWtDXZn9kq3qhXCRJ1Dqh2SygB4Olgbu-8Ljg7KUQeSxpZo7AaSN6Z19D_jia6J1EUidC_RfBcuC5KrPeyJ-anbXjRHFJBnjrGRLSOThqBURZsNThm6YhKiliuLCSPON1cd2-FKCksDis275r5UWDCQ6bWeq1bUJ5Bdgx33KgbOoOGT0x6AL4nxpO-nZQifcsmLBybgMD2r0Vdmm0Oto824dNGG9Njiqem_wy-YxFSTV_HbhSfIwlkubOMDFqFF-l8GiMqdec5B4-E-jk_T_m00]--></g></svg>