<?xml version="1.0" encoding="us-ascii" standalone="no"?><svg xmlns="http://www.w3.org/2000/svg" xmlns:xlink="http://www.w3.org/1999/xlink" contentStyleType="text/css" height="453px" preserveAspectRatio="none" style="width:463px;height:453px;background:#FFFFFF;" version="1.1" viewBox="0 0 463 453" width="463px" zoomAndPan="magnify"><defs/><g><!--class GameEngine--><g id="elem_GameEngine"><rect codeLine="2" fill="#F1F1F1" height="439.125" id="GameEngine" rx="2.5" ry="2.5" style="stroke:#181818;stroke-width:0.5;" width="277" x="179" y="7"/><ellipse cx="268.75" cy="23" fill="#ADD1B2" rx="11" ry="11" style="stroke:#181818;stroke-width:1.0;"/><path d="M271.7188,28.6406 Q271.1406,28.9375 270.5,29.0781 Q269.8594,29.2344 269.1563,29.2344 Q266.6563,29.2344 265.3281,27.5938 Q264.0156,25.9375 264.0156,22.8125 Q264.0156,19.6875 265.3281,18.0313 Q266.6563,16.375 269.1563,16.375 Q269.8594,16.375 270.5,16.5313 Q271.1563,16.6875 271.7188,16.9844 L271.7188,19.7031 Q271.0938,19.125 270.5,18.8594 Q269.9063,18.5781 269.2813,18.5781 Q267.9375,18.5781 267.25,19.6563 Q266.5625,20.7188 266.5625,22.8125 Q266.5625,24.9063 267.25,25.9844 Q267.9375,27.0469 269.2813,27.0469 Q269.9063,27.0469 270.5,26.7813 Q271.0938,26.5 271.7188,25.9219 L271.7188,28.6406 Z " fill="#000000"/><text fill="#000000" font-family="sans-serif" font-size="14" lengthAdjust="spacing" textLength="89" x="289.25" y="27.8467">GameEngine</text><line style="stroke:#181818;stroke-width:0.5;" x1="180" x2="455" y1="39" y2="39"/><text fill="#000000" font-family="sans-serif" font-size="14" lengthAdjust="spacing" textLength="59" x="185" y="55.9951">Player p;</text><text fill="#000000" font-family="sans-serif" font-size="14" lengthAdjust="spacing" textLength="68" x="185" y="72.292">Mappa m;</text><text fill="#000000" font-family="sans-serif" font-size="14" lengthAdjust="spacing" textLength="84" x="185" y="88.5889">String buffer</text><line style="stroke:#181818;stroke-width:0.5;" x1="180" x2="455" y1="95.8906" y2="95.8906"/><text fill="#000000" font-family="sans-serif" font-size="14" lengthAdjust="spacing" textLength="111" x="185" y="112.8857">void runSetup();</text><text fill="#000000" font-family="sans-serif" font-size="14" lengthAdjust="spacing" textLength="165" x="185" y="129.1826">Vector&lt;Object&gt; save();</text><text fill="#000000" font-family="sans-serif" font-size="14" lengthAdjust="spacing" textLength="4" x="185" y="145.4795">&#160;</text><text fill="#000000" font-family="sans-serif" font-size="14" lengthAdjust="spacing" textLength="126" x="185" y="161.7764">void lookAround();</text><text fill="#000000" font-family="sans-serif" font-size="14" lengthAdjust="spacing" textLength="89" x="185" y="178.0732">void attack();</text><text fill="#000000" font-family="sans-serif" font-size="14" lengthAdjust="spacing" textLength="160" x="185" y="194.3701">void movePlayerBack();</text><text fill="#000000" font-family="sans-serif" font-size="14" lengthAdjust="spacing" textLength="201" x="185" y="210.667">void movePlayer(Direction d);</text><text fill="#000000" font-family="sans-serif" font-size="14" lengthAdjust="spacing" textLength="196" x="185" y="226.9639">void playerTake(String item);</text><text fill="#000000" font-family="sans-serif" font-size="14" lengthAdjust="spacing" textLength="189" x="185" y="243.2607">void playerUse(String item);</text><text fill="#000000" font-family="sans-serif" font-size="14" lengthAdjust="spacing" textLength="219" x="185" y="259.5576">void playerRemove(String item);</text><text fill="#000000" font-family="sans-serif" font-size="14" lengthAdjust="spacing" textLength="265" x="185" y="275.8545">void playerRemoveStack(String items);</text><text fill="#000000" font-family="sans-serif" font-size="14" lengthAdjust="spacing" textLength="4" x="185" y="292.1514">&#160;</text><text fill="#000000" font-family="sans-serif" font-size="14" lengthAdjust="spacing" textLength="142" x="185" y="308.4482">String getPlayerInv();</text><text fill="#000000" font-family="sans-serif" font-size="14" lengthAdjust="spacing" textLength="136" x="185" y="324.7451">byte getPlayerLife();</text><text fill="#000000" font-family="sans-serif" font-size="14" lengthAdjust="spacing" textLength="127" x="185" y="341.042">byte getPlayerLv();</text><text fill="#000000" font-family="sans-serif" font-size="14" lengthAdjust="spacing" textLength="152" x="185" y="357.3389">byte getMonsterLife();</text><text fill="#000000" font-family="sans-serif" font-size="14" lengthAdjust="spacing" textLength="182" x="185" y="373.6357">boolean PlayerIsFighting();</text><text fill="#000000" font-family="sans-serif" font-size="14" lengthAdjust="spacing" textLength="123" x="185" y="389.9326">String getBuffer();</text><text fill="#000000" font-family="sans-serif" font-size="14" lengthAdjust="spacing" textLength="4" x="185" y="406.2295">&#160;</text><text fill="#000000" font-family="sans-serif" font-size="14" lengthAdjust="spacing" textLength="166" x="185" y="422.5264">void loadPlayer(Player f);</text><text fill="#000000" font-family="sans-serif" font-size="14" lengthAdjust="spacing" textLength="168" x="185" y="438.8232">void loadMap(Mappa m);</text></g><!--class Game--><g id="elem_Game"><rect codeLine="35" fill="#F1F1F1" height="64.2969" id="Game" rx="2.5" ry="2.5" style="stroke:#181818;stroke-width:0.5;" width="137" x="7" y="194.41"/><ellipse cx="50.8" cy="210.41" fill="#ADD1B2" rx="11" ry="11" style="stroke:#181818;stroke-width:1.0;"/><path d="M53.7688,216.0506 Q53.1906,216.3475 52.55,216.4881 Q51.9094,216.6444 51.2063,216.6444 Q48.7063,216.6444 47.3781,215.0038 Q46.0656,213.3475 46.0656,210.2225 Q46.0656,207.0975 47.3781,205.4413 Q48.7063,203.785 51.2063,203.785 Q51.9094,203.785 52.55,203.9413 Q53.2063,204.0975 53.7688,204.3944 L53.7688,207.1131 Q53.1438,206.535 52.55,206.2694 Q51.9563,205.9881 51.3313,205.9881 Q49.9875,205.9881 49.3,207.0663 Q48.6125,208.1288 48.6125,210.2225 Q48.6125,212.3163 49.3,213.3944 Q49.9875,214.4569 51.3313,214.4569 Q51.9563,214.4569 52.55,214.1913 Q53.1438,213.91 53.7688,213.3319 L53.7688,216.0506 Z " fill="#000000"/><text fill="#000000" font-family="sans-serif" font-size="14" lengthAdjust="spacing" textLength="41" x="71.2" y="215.2567">Game</text><line style="stroke:#181818;stroke-width:0.5;" x1="8" x2="143" y1="226.41" y2="226.41"/><line style="stroke:#181818;stroke-width:0.5;" x1="8" x2="143" y1="234.41" y2="234.41"/><text fill="#000000" font-family="sans-serif" font-size="14" lengthAdjust="spacing" textLength="125" x="13" y="251.4051">public void main();</text></g><!--link Game to GameEngine--><g id="link_Game_GameEngine"><path codeLine="40" d="M144.04,226.56 C155.55,226.56 161.07,226.56 172.59,226.56 " fill="none" id="Game-to-GameEngine" style="stroke:#181818;stroke-width:1.0;"/><polygon fill="#181818" points="178.59,226.56,169.59,222.56,173.59,226.56,169.59,230.56,178.59,226.56" style="stroke:#181818;stroke-width:1.0;"/></g><!--SRC=[VLFRRjH037tFL_WjsGUK3oYgHCL5bQX0BF3kJPofsSaucakaRiM_uqa69LjHyZJniNnyZkss5c_GyUM2KJm1WQ6ml7eobe5cSf7rnu9XwQHkgyvY2F09H_hW33jwhW2-MdmY3zEDlXzmcX36_3n6pyx0AGq3-Ke3RJrIb5vWqcnRin8psin-ON7Kz0pJMefWp7KEIWWm2_VWapjIJ5DpoAL_KgTjllro-gMFMmWuKmRs79wxHyOHS__9eui4N6J0LjQAdDzvIQvV2oz1Z16xyoumoaohoBlNWEOzU-r5TK2_uQkSxtYcfhZ1aSQN-8_mN_WRPPhh32XVMwCnd9mXS3gbrMj83e7T86MCOWn5zO4iZ-pKaKt_dk6ugDxHXCDDMqVH4WGnnIXg5uIS1JggdA65DiyPKiXsv-dchiGxr5Mo2CRZm1rUpGIN9LewAPJQvEhblPjNZqzFaRRmPnxed_4NsG_YGhnA5x64hkpfVVZ8vZ4guufkx7UBUzUBz5TKTjSAzbbvSZ2XZnnnlqZObqqevp1iSyoW7aPJZaF7L_skgjqjFLTJEbdkobOXkwKBJSeelBdTNTmV]--></g></svg>