<svg xmlns="http://www.w3.org/2000/svg" xmlns:xlink="http://www.w3.org/1999/xlink" contentStyleType="text/css" height="1098px" preserveAspectRatio="none" style="width:1051px;height:1098px;background:#FFFFFF;" version="1.1" viewBox="0 0 1051 1098" width="1051px" zoomAndPan="magnify"><defs/><g><!--class GameEngine--><g id="elem_GameEngine"><rect codeLine="2" fill="#F1F1F1" height="879.1406" id="GameEngine" rx="2.5" ry="2.5" style="stroke:#181818;stroke-width:0.5;" width="346" x="7" y="7"/><ellipse cx="131.25" cy="23" fill="#ADD1B2" rx="11" ry="11" style="stroke:#181818;stroke-width:1.0;"/><path d="M134.2188,28.6406 Q133.6406,28.9375 133,29.0781 Q132.3594,29.2344 131.6563,29.2344 Q129.1563,29.2344 127.8281,27.5938 Q126.5156,25.9375 126.5156,22.8125 Q126.5156,19.6875 127.8281,18.0313 Q129.1563,16.375 131.6563,16.375 Q132.3594,16.375 133,16.5313 Q133.6563,16.6875 134.2188,16.9844 L134.2188,19.7031 Q133.5938,19.125 133,18.8594 Q132.4063,18.5781 131.7813,18.5781 Q130.4375,18.5781 129.75,19.6563 Q129.0625,20.7188 129.0625,22.8125 Q129.0625,24.9063 129.75,25.9844 Q130.4375,27.0469 131.7813,27.0469 Q132.4063,27.0469 133,26.7813 Q133.5938,26.5 134.2188,25.9219 L134.2188,28.6406 Z " fill="#000000"/><text fill="#000000" font-family="sans-serif" font-size="14" lengthAdjust="spacing" textLength="89" x="151.75" y="27.8467">GameEngine</text><line style="stroke:#181818;stroke-width:0.5;" x1="8" x2="352" y1="39" y2="39"/><text fill="#000000" font-family="sans-serif" font-size="14" lengthAdjust="spacing" textLength="244" x="13" y="55.9951">final byte MAX_POTION_USAGE = 3;</text><text fill="#000000" font-family="sans-serif" font-size="14" lengthAdjust="spacing" textLength="334" x="13" y="72.292">final float PROBABILITY_ATTACK_MISTAKE = 0.2f;</text><text fill="#000000" font-family="sans-serif" font-size="14" lengthAdjust="spacing" textLength="59" x="13" y="88.5889">Player p;</text><text fill="#000000" font-family="sans-serif" font-size="14" lengthAdjust="spacing" textLength="110" x="13" y="104.8857">MapGraph map;</text><text fill="#000000" font-family="sans-serif" font-size="14" lengthAdjust="spacing" textLength="89" x="13" y="121.1826">String buffer;</text><text fill="#000000" font-family="sans-serif" font-size="14" lengthAdjust="spacing" textLength="70" x="13" y="137.4795">byte level;</text><text fill="#000000" font-family="sans-serif" font-size="14" lengthAdjust="spacing" textLength="94" x="13" y="153.7764">boolean lose;</text><text fill="#000000" font-family="sans-serif" font-size="14" lengthAdjust="spacing" textLength="281" x="13" y="170.0732">Map&lt;ItemType, Byte&gt; potionsActiveted;</text><text fill="#000000" font-family="sans-serif" font-size="14" lengthAdjust="spacing" textLength="234" x="13" y="186.3701">Stack&lt;Coordinates&gt; playerStack;</text><text fill="#000000" font-family="sans-serif" font-size="14" lengthAdjust="spacing" textLength="224" x="13" y="202.667">static boolean enableFormatted;</text><line style="stroke:#181818;stroke-width:0.5;" x1="8" x2="352" y1="209.9688" y2="209.9688"/><text fill="#000000" font-family="sans-serif" font-size="14" lengthAdjust="spacing" textLength="236" x="13" y="226.9639">void runSetup(String playerName);</text><text fill="#000000" font-family="sans-serif" font-size="14" lengthAdjust="spacing" textLength="142" x="13" y="243.2607">MapGraph getMap();</text><text fill="#000000" font-family="sans-serif" font-size="14" lengthAdjust="spacing" textLength="124" x="13" y="259.5576">Player getPlayer();</text><text fill="#000000" font-family="sans-serif" font-size="14" lengthAdjust="spacing" textLength="232" x="13" y="275.8545">void loadPlayer(Player newPlayer);</text><text fill="#000000" font-family="sans-serif" font-size="14" lengthAdjust="spacing" textLength="238" x="13" y="292.1514">void loadMap(MapGraph newMap);</text><text fill="#000000" font-family="sans-serif" font-size="14" lengthAdjust="spacing" textLength="4" x="13" y="308.4482">&#160;</text><text fill="#000000" font-family="sans-serif" font-size="14" lengthAdjust="spacing" textLength="330" x="13" y="324.7451">private String format(String str, String colorTAG);</text><text fill="#000000" font-family="sans-serif" font-size="14" lengthAdjust="spacing" textLength="294" x="13" y="341.042">private String getRoomInfo(Coordinates c);</text><text fill="#000000" font-family="sans-serif" font-size="14" lengthAdjust="spacing" textLength="322" x="13" y="357.3389">private String getNearDirection(Coordinates c);</text><text fill="#000000" font-family="sans-serif" font-size="14" lengthAdjust="spacing" textLength="304" x="13" y="373.6357">private boolean throwRandomCoin(float val);</text><text fill="#000000" font-family="sans-serif" font-size="14" lengthAdjust="spacing" textLength="277" x="13" y="389.9326">private byte getPotionValue(ItemType t);</text><text fill="#000000" font-family="sans-serif" font-size="14" lengthAdjust="spacing" textLength="302" x="13" y="406.2295">private ItemType getPotion(ItemStack item);</text><text fill="#000000" font-family="sans-serif" font-size="14" lengthAdjust="spacing" textLength="287" x="13" y="422.5264">private void applayPotion(ItemStack item);</text><text fill="#000000" font-family="sans-serif" font-size="14" lengthAdjust="spacing" textLength="263" x="13" y="438.8232">private short playerAttack(Monster m);</text><text fill="#000000" font-family="sans-serif" font-size="14" lengthAdjust="spacing" textLength="280" x="13" y="455.1201">private short monsterAttack(Monster m);</text><text fill="#000000" font-family="sans-serif" font-size="14" lengthAdjust="spacing" textLength="126" x="13" y="471.417">void lookAround();</text><text fill="#000000" font-family="sans-serif" font-size="14" lengthAdjust="spacing" textLength="158" x="13" y="487.7139">boolean playerIsAlive();</text><text fill="#000000" font-family="sans-serif" font-size="14" lengthAdjust="spacing" textLength="89" x="13" y="504.0107">void attack();</text><text fill="#000000" font-family="sans-serif" font-size="14" lengthAdjust="spacing" textLength="186" x="13" y="520.3076">boolean playerCanAttack();</text><text fill="#000000" font-family="sans-serif" font-size="14" lengthAdjust="spacing" textLength="160" x="13" y="536.6045">void movePlayerBack();</text><text fill="#000000" font-family="sans-serif" font-size="14" lengthAdjust="spacing" textLength="201" x="13" y="552.9014">void movePlayer(Direction d);</text><text fill="#000000" font-family="sans-serif" font-size="14" lengthAdjust="spacing" textLength="236" x="13" y="569.1982">boolean canPlayerGo(Direction d);</text><text fill="#000000" font-family="sans-serif" font-size="14" lengthAdjust="spacing" textLength="249" x="13" y="585.4951">boolean canPlayerTake(String item);</text><text fill="#000000" font-family="sans-serif" font-size="14" lengthAdjust="spacing" textLength="196" x="13" y="601.792">void playerTake(String item);</text><text fill="#000000" font-family="sans-serif" font-size="14" lengthAdjust="spacing" textLength="224" x="13" y="618.0889">boolean playerHave(String item);</text><text fill="#000000" font-family="sans-serif" font-size="14" lengthAdjust="spacing" textLength="189" x="13" y="634.3857">void playerUse(String item);</text><text fill="#000000" font-family="sans-serif" font-size="14" lengthAdjust="spacing" textLength="219" x="13" y="650.6826">void playerRemove(String item);</text><text fill="#000000" font-family="sans-serif" font-size="14" lengthAdjust="spacing" textLength="265" x="13" y="666.9795">void playerRemoveStack(String items);</text><text fill="#000000" font-family="sans-serif" font-size="14" lengthAdjust="spacing" textLength="142" x="13" y="683.2764">String getPlayerInv();</text><text fill="#000000" font-family="sans-serif" font-size="14" lengthAdjust="spacing" textLength="169" x="13" y="699.5732">short getPlayerMaxLife();</text><text fill="#000000" font-family="sans-serif" font-size="14" lengthAdjust="spacing" textLength="136" x="13" y="715.8701">byte getPlayerLife();</text><text fill="#000000" font-family="sans-serif" font-size="14" lengthAdjust="spacing" textLength="127" x="13" y="732.167">byte getPlayerLv();</text><text fill="#000000" font-family="sans-serif" font-size="14" lengthAdjust="spacing" textLength="185" x="13" y="748.4639">short getMonsterMaxLife();</text><text fill="#000000" font-family="sans-serif" font-size="14" lengthAdjust="spacing" textLength="152" x="13" y="764.7607">byte getMonsterLife();</text><text fill="#000000" font-family="sans-serif" font-size="14" lengthAdjust="spacing" textLength="123" x="13" y="781.0576">String getBuffer();</text><text fill="#000000" font-family="sans-serif" font-size="14" lengthAdjust="spacing" textLength="180" x="13" y="797.3545">boolean isPlayerInRoom();</text><text fill="#000000" font-family="sans-serif" font-size="14" lengthAdjust="spacing" textLength="176" x="13" y="813.6514">void addBuffer(String str);</text><text fill="#000000" font-family="sans-serif" font-size="14" lengthAdjust="spacing" textLength="83" x="13" y="829.9482">void reset();</text><text fill="#000000" font-family="sans-serif" font-size="14" lengthAdjust="spacing" textLength="200" x="13" y="846.2451">Coordinates getPlayerCord();</text><text fill="#000000" font-family="sans-serif" font-size="14" lengthAdjust="spacing" textLength="188" x="13" y="862.542">byte getPlayerMaxWeight();</text><text fill="#000000" font-family="sans-serif" font-size="14" lengthAdjust="spacing" textLength="161" x="13" y="878.8389">byte getPlayerWeight();</text></g><!--class Game--><g id="elem_Game"><rect codeLine="66" fill="#F1F1F1" height="64.2969" id="Game" rx="2.5" ry="2.5" style="stroke:#181818;stroke-width:0.5;" width="137" x="388.5" y="414.42"/><ellipse cx="432.3" cy="430.42" fill="#ADD1B2" rx="11" ry="11" style="stroke:#181818;stroke-width:1.0;"/><path d="M435.2688,436.0606 Q434.6906,436.3575 434.05,436.4981 Q433.4094,436.6544 432.7063,436.6544 Q430.2063,436.6544 428.8781,435.0138 Q427.5656,433.3575 427.5656,430.2325 Q427.5656,427.1075 428.8781,425.4513 Q430.2063,423.795 432.7063,423.795 Q433.4094,423.795 434.05,423.9513 Q434.7063,424.1075 435.2688,424.4044 L435.2688,427.1231 Q434.6438,426.545 434.05,426.2794 Q433.4563,425.9981 432.8313,425.9981 Q431.4875,425.9981 430.8,427.0763 Q430.1125,428.1388 430.1125,430.2325 Q430.1125,432.3263 430.8,433.4044 Q431.4875,434.4669 432.8313,434.4669 Q433.4563,434.4669 434.05,434.2013 Q434.6438,433.92 435.2688,433.3419 L435.2688,436.0606 Z " fill="#000000"/><text fill="#000000" font-family="sans-serif" font-size="14" lengthAdjust="spacing" textLength="41" x="452.7" y="435.2667">Game</text><line style="stroke:#181818;stroke-width:0.5;" x1="389.5" x2="524.5" y1="446.42" y2="446.42"/><line style="stroke:#181818;stroke-width:0.5;" x1="389.5" x2="524.5" y1="454.42" y2="454.42"/><text fill="#000000" font-family="sans-serif" font-size="14" lengthAdjust="spacing" textLength="125" x="394.5" y="471.4151">public void main();</text></g><!--class GameFrame--><g id="elem_GameFrame"><rect codeLine="70" fill="#F1F1F1" height="488.0156" id="GameFrame" rx="2.5" ry="2.5" style="stroke:#181818;stroke-width:0.5;" width="327" x="560.5" y="202.56"/><ellipse cx="677.75" cy="218.56" fill="#ADD1B2" rx="11" ry="11" style="stroke:#181818;stroke-width:1.0;"/><path d="M680.7188,224.2006 Q680.1406,224.4975 679.5,224.6381 Q678.8594,224.7944 678.1563,224.7944 Q675.6563,224.7944 674.3281,223.1538 Q673.0156,221.4975 673.0156,218.3725 Q673.0156,215.2475 674.3281,213.5913 Q675.6563,211.935 678.1563,211.935 Q678.8594,211.935 679.5,212.0913 Q680.1563,212.2475 680.7188,212.5444 L680.7188,215.2631 Q680.0938,214.685 679.5,214.4194 Q678.9063,214.1381 678.2813,214.1381 Q676.9375,214.1381 676.25,215.2163 Q675.5625,216.2788 675.5625,218.3725 Q675.5625,220.4663 676.25,221.5444 Q676.9375,222.6069 678.2813,222.6069 Q678.9063,222.6069 679.5,222.3413 Q680.0938,222.06 680.7188,221.4819 L680.7188,224.2006 Z " fill="#000000"/><text fill="#000000" font-family="sans-serif" font-size="14" lengthAdjust="spacing" textLength="84" x="698.25" y="223.4067">GameFrame</text><line style="stroke:#181818;stroke-width:0.5;" x1="561.5" x2="886.5" y1="234.56" y2="234.56"/><text fill="#000000" font-family="sans-serif" font-size="14" lengthAdjust="spacing" textLength="140" x="566.5" y="251.5551">JButton jButtonInvio;</text><text fill="#000000" font-family="sans-serif" font-size="14" lengthAdjust="spacing" textLength="158" x="566.5" y="267.852">JProgressBar jBarPeso;</text><text fill="#000000" font-family="sans-serif" font-size="14" lengthAdjust="spacing" textLength="200" x="566.5" y="284.1489">JProgressBar jBarVitaNemico;</text><text fill="#000000" font-family="sans-serif" font-size="14" lengthAdjust="spacing" textLength="189" x="566.5" y="300.4457">JProgressBar jBarVitaPlayer;</text><text fill="#000000" font-family="sans-serif" font-size="14" lengthAdjust="spacing" textLength="140" x="566.5" y="316.7426">JButton jButtonInvio;</text><text fill="#000000" font-family="sans-serif" font-size="14" lengthAdjust="spacing" textLength="139" x="566.5" y="333.0395">JLabel jLabelNemico;</text><text fill="#000000" font-family="sans-serif" font-size="14" lengthAdjust="spacing" textLength="122" x="566.5" y="349.3364">JLabel jLabelPeso;</text><text fill="#000000" font-family="sans-serif" font-size="14" lengthAdjust="spacing" textLength="116" x="566.5" y="365.6332">JLabel jLabelMap;</text><text fill="#000000" font-family="sans-serif" font-size="14" lengthAdjust="spacing" textLength="112" x="566.5" y="381.9301">JLabel jLabelVita;</text><text fill="#000000" font-family="sans-serif" font-size="14" lengthAdjust="spacing" textLength="189" x="566.5" y="398.227">JRadioButton jButtonPlayer;</text><text fill="#000000" font-family="sans-serif" font-size="14" lengthAdjust="spacing" textLength="168" x="566.5" y="414.5239">JTextField jTextComandi;</text><text fill="#000000" font-family="sans-serif" font-size="14" lengthAdjust="spacing" textLength="141" x="566.5" y="430.8207">JTextArea jTextStory;</text><text fill="#000000" font-family="sans-serif" font-size="14" lengthAdjust="spacing" textLength="211" x="566.5" y="447.1176">MyRoundButton JButtonMusic;</text><text fill="#000000" font-family="sans-serif" font-size="14" lengthAdjust="spacing" textLength="149" x="566.5" y="463.4145">final int numberRows;</text><text fill="#000000" font-family="sans-serif" font-size="14" lengthAdjust="spacing" textLength="141" x="566.5" y="479.7114">final int numberCols;</text><text fill="#000000" font-family="sans-serif" font-size="14" lengthAdjust="spacing" textLength="203" x="566.5" y="496.0082">final String pathOfTheImages;</text><line style="stroke:#181818;stroke-width:0.5;" x1="561.5" x2="886.5" y1="503.31" y2="503.31"/><text fill="#000000" font-family="sans-serif" font-size="14" lengthAdjust="spacing" textLength="315" x="566.5" y="520.3051">public void remove[Add]Player[Enemy]Bar(){}</text><text fill="#000000" font-family="sans-serif" font-size="14" lengthAdjust="spacing" textLength="206" x="566.5" y="536.602">public void initComonents(){}</text><text fill="#000000" font-family="sans-serif" font-size="14" lengthAdjust="spacing" textLength="266" x="566.5" y="552.8989">public void WriteOnConsole(String t){}</text><text fill="#000000" font-family="sans-serif" font-size="14" lengthAdjust="spacing" textLength="190" x="566.5" y="569.1957">public void setPeso(int x){}</text><text fill="#000000" font-family="sans-serif" font-size="14" lengthAdjust="spacing" textLength="163" x="566.5" y="585.4926">public void getPeso(){}</text><text fill="#000000" font-family="sans-serif" font-size="14" lengthAdjust="spacing" textLength="180" x="566.5" y="601.7895">public void setVita(int x){}</text><text fill="#000000" font-family="sans-serif" font-size="14" lengthAdjust="spacing" textLength="153" x="566.5" y="618.0864">public void getVita(){}</text><text fill="#000000" font-family="sans-serif" font-size="14" lengthAdjust="spacing" textLength="232" x="566.5" y="634.3832">public void setVitaNemico(int x){}</text><text fill="#000000" font-family="sans-serif" font-size="14" lengthAdjust="spacing" textLength="205" x="566.5" y="650.6801">public void getVitaNemico(){}</text><text fill="#000000" font-family="sans-serif" font-size="14" lengthAdjust="spacing" textLength="239" x="566.5" y="666.977">public void move(Coordinates c){}</text><text fill="#000000" font-family="sans-serif" font-size="14" lengthAdjust="spacing" textLength="178" x="566.5" y="683.2739">public void setDragon(){}</text></g><!--class MyRoundButton--><g id="elem_MyRoundButton"><rect codeLine="102" fill="#F1F1F1" height="145.7813" id="MyRoundButton" rx="2.5" ry="2.5" style="stroke:#181818;stroke-width:0.5;" width="334" x="686" y="946.14"/><ellipse cx="792.75" cy="962.14" fill="#ADD1B2" rx="11" ry="11" style="stroke:#181818;stroke-width:1.0;"/><path d="M795.7188,967.7806 Q795.1406,968.0775 794.5,968.2181 Q793.8594,968.3744 793.1563,968.3744 Q790.6563,968.3744 789.3281,966.7338 Q788.0156,965.0775 788.0156,961.9525 Q788.0156,958.8275 789.3281,957.1713 Q790.6563,955.515 793.1563,955.515 Q793.8594,955.515 794.5,955.6713 Q795.1563,955.8275 795.7188,956.1244 L795.7188,958.8431 Q795.0938,958.265 794.5,957.9994 Q793.9063,957.7181 793.2813,957.7181 Q791.9375,957.7181 791.25,958.7963 Q790.5625,959.8588 790.5625,961.9525 Q790.5625,964.0463 791.25,965.1244 Q791.9375,966.1869 793.2813,966.1869 Q793.9063,966.1869 794.5,965.9213 Q795.0938,965.64 795.7188,965.0619 L795.7188,967.7806 Z " fill="#000000"/><text fill="#000000" font-family="sans-serif" font-size="14" lengthAdjust="spacing" textLength="112" x="813.25" y="966.9867">MyRoundButton</text><line style="stroke:#181818;stroke-width:0.5;" x1="687" x2="1019" y1="978.14" y2="978.14"/><line style="stroke:#181818;stroke-width:0.5;" x1="687" x2="1019" y1="986.14" y2="986.14"/><text fill="#000000" font-family="sans-serif" font-size="14" lengthAdjust="spacing" textLength="287" x="692" y="1003.1351">protected void paintBorder(Graphics g){}</text><text fill="#000000" font-family="sans-serif" font-size="14" lengthAdjust="spacing" textLength="322" x="692" y="1019.432">protected void paintComponent(Graphics g){}</text><text fill="#000000" font-family="sans-serif" font-size="14" lengthAdjust="spacing" textLength="256" x="692" y="1035.7289">public boolean contains(int x, int y){}</text><text fill="#000000" font-family="sans-serif" font-size="14" lengthAdjust="spacing" textLength="314" x="692" y="1052.0257">public void actionPerformed(ActionEvent e){}</text><text fill="#000000" font-family="sans-serif" font-size="14" lengthAdjust="spacing" textLength="172" x="692" y="1068.3226">public void playMusic(){}</text><text fill="#000000" font-family="sans-serif" font-size="14" lengthAdjust="spacing" textLength="188" x="692" y="1084.6195">public void pauseMusic(){}</text></g><g id="elem_GMN7"><path d="M922,434 L922,459.1328 L1044,459.1328 L1044,444 L1034,434 L922,434 " fill="#FEFFDD" style="stroke:#181818;stroke-width:0.5;"/><path d="M1034,434 L1034,444 L1044,444 L1034,434 " fill="#FEFFDD" style="stroke:#181818;stroke-width:1.0;"/><text fill="#000000" font-family="sans-serif" font-size="13" lengthAdjust="spacing" textLength="101" x="928" y="451.0669">Extends JButton</text></g><!--link GameFrame to MyRoundButton--><g id="link_GameFrame_MyRoundButton"><path codeLine="111" d="M778.99,690.74 C799.85,783.01 822.08,881.29 836.67,945.8 " fill="none" id="GameFrame-MyRoundButton" style="stroke:#181818;stroke-width:1.0;"/></g><!--link GMN7 to MyRoundButton--><g id="link_GMN7_MyRoundButton"><path d="M981.75,459.63 C976.18,511.51 951.85,720.57 905,886.14 C899.44,905.8 892.02,926.57 884.52,945.67 " fill="none" id="GMN7-MyRoundButton" style="stroke:#181818;stroke-width:1.0;stroke-dasharray:7.0,7.0;"/></g><!--SRC=[XLRVRziu37xFNw6tk41tFTozNRO3dApjPLlQ8CssEmn3mTYqerQM34bEcnRztu-I_2DEaoulaSbF94L-f7GsL3e7oP-Um2gD35cEngzIp0Ldk45fENq8bdELgE7P815W3Bk40izbpYK-3nZBk0J1LbkBR1R_Upk_Nawlhsw_tiINv-m3-tFKGZAXmBBvudeSZwTVfil_RkFbCfvylfrDRvRnPuV-_RS_ChTXBc2BcfLkFOFoKaEvPWNuxnkhkSpPgieor4xWNGkALlWlfGI2P48PhBU_dreibjiIJzcOi7-pKbckf8aJopTeCGrc8Rb_Fr5AfnIjHKCm7uLNE8InO7dIEa09Au4NIXTWlGs2d0qBj2fLhAJenP1JSZa8b-4dSeXHockZb6mwJWadb5J6DegdJ5Vo1crLHlK10_2ASdtIIqEEbjRHoKwUI1HMGUhDKRBJMbYZ93w4LH_aZBN62KDh3-YEGq5hlg73-s336fiwP3u1JT36wjD6aoYXz3A-zDRsTb742wMAgSnKj9DpbXm1No7eZrnZuWhtnewcE7QjrSC2PAgAYU8o2jpRWEYZ7NDSyZmVle6eC6gumcmFsefRk4TwSZ1EgnxQ9vVgI-d-DTYibRPrkMFhCD6Cs6cfP8U0HT0TGFOOg7cova2beGwkD4ZQp-j6PXtfX5BtiLQLJ0Drclo5QAOc5jGXEwo2uFK0TW8otb5wTA4s62WtFgQ8sggoj6Sr0HaGb-hNc2NSOqF1Dh_UKtbStu__7zYyQUAhULEzG7UcFeBLlxCXv3clP8xKNwAUNAoIm3ZnlvwsAYTcKR5GyC9HctT5slNWERJhnfoCpePMaGcYR6MjefgwKKLCeyPr26zeiDlEbN6qS3FA1QQq11hw0bYk8UC9-0rTxuKKJ-Kc532mi9NFuF4BpsgEj0tbLKVb-vPg4XyqLUiwHHVOs2UoJqPkcd3TVDbbRfhM-6vKTLgD1cr0xmwNDkG9oGuTXKB-ZZnVsqFAJlD2lTdTdS-3ibe9kaf2Bm3Dfu3f81VQupwDNKKbkml_L0EkHeDFSwroYjYCGPCAz1pD8V4tRk4A2vuSKuOmHyVSV84LqVNE_zLs6ahtbTx_dcpcRkkUn7aSXSqBIBdgEsrZMUAZlU0eKdRdbXDLq1ZdjIBM245-Go-LxMWmsoxSzAfjrGUPLOOdeq5uTd1fcQoA5NMGUZ2lfHCb30KVnCtT2tPzdItNE2s07aKqMdShfdqd_eZJz6U8-iUvn6Bxax8QdJo_zB3q1717eCjVMlDA-rrJWrxB2N6SwDimq-x3Y9iknP4B-d5VcTVA0vjSnezkyieZcqArtznQG_QrVWhsx-VNBZvgoEbET9gkCtgL752FQ6LfwcDQ3q5g4pickzJ1_gt24-fFR_m0a59U-fplOqCWxGMYf2Mu2ISzzQpOxWSC_kgPetPF7KoZs7-VkzSnmtsmczMUVgyoKq9bi5Ez3De-V_UkVtP9vs5MbKnb_QpynSuVBShKD4J_7m00]--></g></svg>