<svg xmlns="http://www.w3.org/2000/svg" xmlns:xlink="http://www.w3.org/1999/xlink" contentStyleType="text/css" height="746px" preserveAspectRatio="none" style="width:528px;height:746px;background:#FFFFFF;" version="1.1" viewBox="0 0 528 746" width="528px" zoomAndPan="magnify"><defs/><g><!--class GameEngine--><g id="elem_GameEngine"><rect codeLine="2" fill="#F1F1F1" height="732.4688" id="GameEngine" rx="2.5" ry="2.5" style="stroke:#181818;stroke-width:0.5;" width="342" x="7" y="7"/><ellipse cx="129.25" cy="23" fill="#ADD1B2" rx="11" ry="11" style="stroke:#181818;stroke-width:1.0;"/><path d="M132.2188,28.6406 Q131.6406,28.9375 131,29.0781 Q130.3594,29.2344 129.6563,29.2344 Q127.1563,29.2344 125.8281,27.5938 Q124.5156,25.9375 124.5156,22.8125 Q124.5156,19.6875 125.8281,18.0313 Q127.1563,16.375 129.6563,16.375 Q130.3594,16.375 131,16.5313 Q131.6563,16.6875 132.2188,16.9844 L132.2188,19.7031 Q131.5938,19.125 131,18.8594 Q130.4063,18.5781 129.7813,18.5781 Q128.4375,18.5781 127.75,19.6563 Q127.0625,20.7188 127.0625,22.8125 Q127.0625,24.9063 127.75,25.9844 Q128.4375,27.0469 129.7813,27.0469 Q130.4063,27.0469 131,26.7813 Q131.5938,26.5 132.2188,25.9219 L132.2188,28.6406 Z " fill="#000000"/><text fill="#000000" font-family="sans-serif" font-size="14" lengthAdjust="spacing" textLength="89" x="149.75" y="27.8467">GameEngine</text><line style="stroke:#181818;stroke-width:0.5;" x1="8" x2="348" y1="39" y2="39"/><text fill="#000000" font-family="sans-serif" font-size="14" lengthAdjust="spacing" textLength="59" x="13" y="55.9951">Player p;</text><text fill="#000000" font-family="sans-serif" font-size="14" lengthAdjust="spacing" textLength="110" x="13" y="72.292">MapGraph map;</text><text fill="#000000" font-family="sans-serif" font-size="14" lengthAdjust="spacing" textLength="89" x="13" y="88.5889">String buffer;</text><text fill="#000000" font-family="sans-serif" font-size="14" lengthAdjust="spacing" textLength="70" x="13" y="104.8857">byte level;</text><text fill="#000000" font-family="sans-serif" font-size="14" lengthAdjust="spacing" textLength="135" x="13" y="121.1826">ItemFactory factory;</text><text fill="#000000" font-family="sans-serif" font-size="14" lengthAdjust="spacing" textLength="94" x="13" y="137.4795">boolean lose;</text><text fill="#000000" font-family="sans-serif" font-size="14" lengthAdjust="spacing" textLength="281" x="13" y="153.7764">Map&lt;ItemType, Byte&gt; potionsActiveted;</text><text fill="#000000" font-family="sans-serif" font-size="14" lengthAdjust="spacing" textLength="234" x="13" y="170.0732">Stack&lt;Coordinates&gt; playerStack;</text><line style="stroke:#181818;stroke-width:0.5;" x1="8" x2="348" y1="177.375" y2="177.375"/><text fill="#000000" font-family="sans-serif" font-size="14" lengthAdjust="spacing" textLength="236" x="13" y="194.3701">void runSetup(String playerName);</text><text fill="#000000" font-family="sans-serif" font-size="14" lengthAdjust="spacing" textLength="165" x="13" y="210.667">Vector&lt;Object&gt; save();</text><text fill="#000000" font-family="sans-serif" font-size="14" lengthAdjust="spacing" textLength="4" x="13" y="226.9639">&#160;</text><text fill="#000000" font-family="sans-serif" font-size="14" lengthAdjust="spacing" textLength="330" x="13" y="243.2607">private String format(String str, String colorTAG);</text><text fill="#000000" font-family="sans-serif" font-size="14" lengthAdjust="spacing" textLength="294" x="13" y="259.5576">private String getRoomInfo(Coordinates c);</text><text fill="#000000" font-family="sans-serif" font-size="14" lengthAdjust="spacing" textLength="322" x="13" y="275.8545">private String getNearDirection(Coordinates c);</text><text fill="#000000" font-family="sans-serif" font-size="14" lengthAdjust="spacing" textLength="277" x="13" y="292.1514">private byte getPotionValue(ItemType t);</text><text fill="#000000" font-family="sans-serif" font-size="14" lengthAdjust="spacing" textLength="302" x="13" y="308.4482">private ItemType getPotion(ItemStack item);</text><text fill="#000000" font-family="sans-serif" font-size="14" lengthAdjust="spacing" textLength="287" x="13" y="324.7451">private void applayPotion(ItemStack item);</text><text fill="#000000" font-family="sans-serif" font-size="14" lengthAdjust="spacing" textLength="263" x="13" y="341.042">private short playerAttack(Monster m);</text><text fill="#000000" font-family="sans-serif" font-size="14" lengthAdjust="spacing" textLength="280" x="13" y="357.3389">private short monsterAttack(Monster m);</text><text fill="#000000" font-family="sans-serif" font-size="14" lengthAdjust="spacing" textLength="126" x="13" y="373.6357">void lookAround();</text><text fill="#000000" font-family="sans-serif" font-size="14" lengthAdjust="spacing" textLength="158" x="13" y="389.9326">boolean playerIsAlive();</text><text fill="#000000" font-family="sans-serif" font-size="14" lengthAdjust="spacing" textLength="89" x="13" y="406.2295">void attack();</text><text fill="#000000" font-family="sans-serif" font-size="14" lengthAdjust="spacing" textLength="160" x="13" y="422.5264">void movePlayerBack();</text><text fill="#000000" font-family="sans-serif" font-size="14" lengthAdjust="spacing" textLength="201" x="13" y="438.8232">void movePlayer(Direction d);</text><text fill="#000000" font-family="sans-serif" font-size="14" lengthAdjust="spacing" textLength="236" x="13" y="455.1201">boolean canPlayerGo(Direction d);</text><text fill="#000000" font-family="sans-serif" font-size="14" lengthAdjust="spacing" textLength="249" x="13" y="471.417">boolean canPlayerTake(String item);</text><text fill="#000000" font-family="sans-serif" font-size="14" lengthAdjust="spacing" textLength="224" x="13" y="487.7139">boolean playerHave(String item);</text><text fill="#000000" font-family="sans-serif" font-size="14" lengthAdjust="spacing" textLength="196" x="13" y="504.0107">void playerTake(String item);</text><text fill="#000000" font-family="sans-serif" font-size="14" lengthAdjust="spacing" textLength="189" x="13" y="520.3076">void playerUse(String item);</text><text fill="#000000" font-family="sans-serif" font-size="14" lengthAdjust="spacing" textLength="219" x="13" y="536.6045">void playerRemove(String item);</text><text fill="#000000" font-family="sans-serif" font-size="14" lengthAdjust="spacing" textLength="265" x="13" y="552.9014">void playerRemoveStack(String items);</text><text fill="#000000" font-family="sans-serif" font-size="14" lengthAdjust="spacing" textLength="181" x="13" y="569.1982">boolean playerCanAttack()</text><text fill="#000000" font-family="sans-serif" font-size="14" lengthAdjust="spacing" textLength="4" x="13" y="585.4951">&#160;</text><text fill="#000000" font-family="sans-serif" font-size="14" lengthAdjust="spacing" textLength="142" x="13" y="601.792">String getPlayerInv();</text><text fill="#000000" font-family="sans-serif" font-size="14" lengthAdjust="spacing" textLength="169" x="13" y="618.0889">short getPlayerMaxLife();</text><text fill="#000000" font-family="sans-serif" font-size="14" lengthAdjust="spacing" textLength="136" x="13" y="634.3857">byte getPlayerLife();</text><text fill="#000000" font-family="sans-serif" font-size="14" lengthAdjust="spacing" textLength="127" x="13" y="650.6826">byte getPlayerLv();</text><text fill="#000000" font-family="sans-serif" font-size="14" lengthAdjust="spacing" textLength="185" x="13" y="666.9795">short getMonsterMaxLife();</text><text fill="#000000" font-family="sans-serif" font-size="14" lengthAdjust="spacing" textLength="152" x="13" y="683.2764">byte getMonsterLife();</text><text fill="#000000" font-family="sans-serif" font-size="14" lengthAdjust="spacing" textLength="123" x="13" y="699.5732">String getBuffer();</text><text fill="#000000" font-family="sans-serif" font-size="14" lengthAdjust="spacing" textLength="166" x="13" y="715.8701">void loadPlayer(Player f);</text><text fill="#000000" font-family="sans-serif" font-size="14" lengthAdjust="spacing" textLength="168" x="13" y="732.167">void loadMap(Mappa m);</text></g><!--class Game--><g id="elem_Game"><rect codeLine="58" fill="#F1F1F1" height="64.2969" id="Game" rx="2.5" ry="2.5" style="stroke:#181818;stroke-width:0.5;" width="137" x="384.5" y="341.09"/><ellipse cx="428.3" cy="357.09" fill="#ADD1B2" rx="11" ry="11" style="stroke:#181818;stroke-width:1.0;"/><path d="M431.2688,362.7306 Q430.6906,363.0275 430.05,363.1681 Q429.4094,363.3244 428.7063,363.3244 Q426.2063,363.3244 424.8781,361.6838 Q423.5656,360.0275 423.5656,356.9025 Q423.5656,353.7775 424.8781,352.1213 Q426.2063,350.465 428.7063,350.465 Q429.4094,350.465 430.05,350.6213 Q430.7063,350.7775 431.2688,351.0744 L431.2688,353.7931 Q430.6438,353.215 430.05,352.9494 Q429.4563,352.6681 428.8313,352.6681 Q427.4875,352.6681 426.8,353.7463 Q426.1125,354.8088 426.1125,356.9025 Q426.1125,358.9963 426.8,360.0744 Q427.4875,361.1369 428.8313,361.1369 Q429.4563,361.1369 430.05,360.8713 Q430.6438,360.59 431.2688,360.0119 L431.2688,362.7306 Z " fill="#000000"/><text fill="#000000" font-family="sans-serif" font-size="14" lengthAdjust="spacing" textLength="41" x="448.7" y="361.9367">Game</text><line style="stroke:#181818;stroke-width:0.5;" x1="385.5" x2="520.5" y1="373.09" y2="373.09"/><line style="stroke:#181818;stroke-width:0.5;" x1="385.5" x2="520.5" y1="381.09" y2="381.09"/><text fill="#000000" font-family="sans-serif" font-size="14" lengthAdjust="spacing" textLength="125" x="390.5" y="398.0851">public void main();</text></g><!--SRC=[XLNRJjj047ttLynR70af7m122hHD8pKK0Utxn1wRAUiTQxsE6X3_tjbT9que0LvOxvoTovapazb4N8sMdv_HYoCWgAcBfv9gmq0Rifxrmq3DKiXabXK6kmuMsD1NMxEbbmpWrk2M7BJdUbvXkt3OFaA3yVlUExOrhFkg8XSkrbjFODIp2LzBJyqtB3Jc5ghqFu943A458nqDNYy2z67RqXbSgOjBQCMps6vUUDwGfp95m-Bfubh4bMpHKwUmc5mqd6SAcKqQyb8Aj9gocR1MpsW21S_gZlAIXoVAXjRGubIh1jW8b-1wUq- -R_EXgWIyKJAc8Vfl2WLS_5p_qSCbTBYXF1h6iEhSyGOzHwVfJ3kIAd4D-ftpphkpdQKG8-vXleZUthogoT-9D4jRINvGEHGdm3U4xWixJL7h_U15R9JYRoFFlz7qbEzw0Fu8kh_UmoCoaWwifoDqf5APLV8-1tUFuln0zDm7JBxIhdljptl09jdUGHxrtd7noAXagxXxXrRVyw1n6DjjH9xcJdfRfZRkL9coMNPpmxiEfvfIrF6YaGsbuRWwPSZthO3oA4Y1DY4MyZdc0PzefvizXSVfVWzgV0k9oRIdNHpOVtKVckyer7ICWE5lDi6wvjxM15PNITe5q5i4Lj4EkqPg5O_sWmmtGOyyzk4mGfJ9OPXkUZwRU54NgihUUz6swUm4CUcq1KHqT4p6DTf18jFiS3ZxBaWYR8QGiJYBkWiDGksmuWAZft6I4lTBkqcTJGhStw_mxm-k1dtiXocQJjw_zJG8-5rNWsqqZ8bTHOQ7tVD_VQ49Hh0C1FLA2JhF7WzrZ-MWpc6rLsExWr7NSRuAkp5C5cIlEbpZxy9BrlPhmyMWT6GR4ibU_m40]--></g></svg>