<?xml version="1.0" encoding="us-ascii" standalone="no"?><svg xmlns="http://www.w3.org/2000/svg" xmlns:xlink="http://www.w3.org/1999/xlink" contentStyleType="text/css" height="594px" preserveAspectRatio="none" style="width:1921px;height:594px;background:#FFFFFF;" version="1.1" viewBox="0 0 1921 594" width="1921px" zoomAndPan="magnify"><defs/><g><!--cluster StorageManagment--><g id="cluster_StorageManagment"><path d="M8.5,6 L162.5,6 A3.75,3.75 0 0 1 165,8.5 L172,28.2969 L1213.5,28.2969 A2.5,2.5 0 0 1 1216,30.7969 L1216,585.33 A2.5,2.5 0 0 1 1213.5,587.83 L8.5,587.83 A2.5,2.5 0 0 1 6,585.33 L6,8.5 A2.5,2.5 0 0 1 8.5,6 " fill="#DDDDDD" style="stroke:#000000;stroke-width:1.5;"/><line style="stroke:#000000;stroke-width:1.5;" x1="6" x2="172" y1="28.2969" y2="28.2969"/><text fill="#000000" font-family="sans-serif" font-size="14" font-weight="bold" lengthAdjust="spacing" textLength="153" x="10" y="20.9951">StorageManagment</text></g><!--cluster PersistaceLayer--><g id="cluster_PersistaceLayer"><path d="M1242.5,14.15 L1370.5,14.15 A3.75,3.75 0 0 1 1373,16.65 L1380,36.4469 L1639.5,36.4469 A2.5,2.5 0 0 1 1642,38.9469 L1642,159.54 A2.5,2.5 0 0 1 1639.5,162.04 L1242.5,162.04 A2.5,2.5 0 0 1 1240,159.54 L1240,16.65 A2.5,2.5 0 0 1 1242.5,14.15 " fill="#DDDDDD" style="stroke:#000000;stroke-width:1.5;"/><line style="stroke:#000000;stroke-width:1.5;" x1="1240" x2="1380" y1="36.4469" y2="36.4469"/><text fill="#000000" font-family="sans-serif" font-size="14" font-weight="bold" lengthAdjust="spacing" textLength="127" x="1244" y="29.1451">PersistaceLayer</text></g><!--cluster AdapterLayer--><g id="cluster_AdapterLayer"><path d="M1668.5,22.3 L1776.5,22.3 A3.75,3.75 0 0 1 1779,24.8 L1786,44.5969 L1911.5,44.5969 A2.5,2.5 0 0 1 1914,47.0969 L1914,151.39 A2.5,2.5 0 0 1 1911.5,153.89 L1668.5,153.89 A2.5,2.5 0 0 1 1666,151.39 L1666,24.8 A2.5,2.5 0 0 1 1668.5,22.3 " fill="#DDDDDD" style="stroke:#000000;stroke-width:1.5;"/><line style="stroke:#000000;stroke-width:1.5;" x1="1666" x2="1786" y1="44.5969" y2="44.5969"/><text fill="#000000" font-family="sans-serif" font-size="14" font-weight="bold" lengthAdjust="spacing" textLength="107" x="1670" y="37.2951">AdapterLayer</text></g><!--class ItemFactory--><g id="elem_ItemFactory"><rect codeLine="2" fill="#F1F1F1" height="113.1875" id="ItemFactory" rx="2.5" ry="2.5" style="stroke:#181818;stroke-width:0.5;" width="385" x="21.5" y="41"/><ellipse cx="169.75" cy="57" fill="#ADD1B2" rx="11" ry="11" style="stroke:#181818;stroke-width:1.0;"/><path d="M172.7188,62.6406 Q172.1406,62.9375 171.5,63.0781 Q170.8594,63.2344 170.1563,63.2344 Q167.6563,63.2344 166.3281,61.5938 Q165.0156,59.9375 165.0156,56.8125 Q165.0156,53.6875 166.3281,52.0313 Q167.6563,50.375 170.1563,50.375 Q170.8594,50.375 171.5,50.5313 Q172.1563,50.6875 172.7188,50.9844 L172.7188,53.7031 Q172.0938,53.125 171.5,52.8594 Q170.9063,52.5781 170.2813,52.5781 Q168.9375,52.5781 168.25,53.6563 Q167.5625,54.7188 167.5625,56.8125 Q167.5625,58.9063 168.25,59.9844 Q168.9375,61.0469 170.2813,61.0469 Q170.9063,61.0469 171.5,60.7813 Q172.0938,60.5 172.7188,59.9219 L172.7188,62.6406 Z " fill="#000000"/><text fill="#000000" font-family="sans-serif" font-size="14" lengthAdjust="spacing" textLength="80" x="190.25" y="61.8467">ItemFactory</text><line style="stroke:#181818;stroke-width:0.5;" x1="22.5" x2="405.5" y1="73" y2="73"/><line style="stroke:#181818;stroke-width:0.5;" x1="22.5" x2="405.5" y1="81" y2="81"/><text fill="#000000" font-family="sans-serif" font-size="14" lengthAdjust="spacing" textLength="198" x="27.5" y="97.9951">ItemStack getRandomItem();</text><text fill="#000000" font-family="sans-serif" font-size="14" lengthAdjust="spacing" textLength="213" x="27.5" y="114.292">ItemStack getItem(ItemType t);</text><text fill="#000000" font-family="sans-serif" font-size="14" lengthAdjust="spacing" textLength="296" x="27.5" y="130.5889">ItemStack getItem(ItemType t, byte valore);</text><text fill="#000000" font-family="sans-serif" font-size="14" lengthAdjust="spacing" textLength="373" x="27.5" y="146.8857">ItemStack getItem(ItemType t, byte valore, byte peso);</text></g><!--class LoaderItem--><g id="elem_LoaderItem"><rect codeLine="10" fill="#F1F1F1" height="80.5938" id="LoaderItem" rx="2.5" ry="2.5" style="stroke:#181818;stroke-width:0.5;" width="371" x="441.5" y="57.3"/><ellipse cx="584.25" cy="73.3" fill="#ADD1B2" rx="11" ry="11" style="stroke:#181818;stroke-width:1.0;"/><path d="M587.2188,78.9406 Q586.6406,79.2375 586,79.3781 Q585.3594,79.5344 584.6563,79.5344 Q582.1563,79.5344 580.8281,77.8938 Q579.5156,76.2375 579.5156,73.1125 Q579.5156,69.9875 580.8281,68.3313 Q582.1563,66.675 584.6563,66.675 Q585.3594,66.675 586,66.8313 Q586.6563,66.9875 587.2188,67.2844 L587.2188,70.0031 Q586.5938,69.425 586,69.1594 Q585.4063,68.8781 584.7813,68.8781 Q583.4375,68.8781 582.75,69.9563 Q582.0625,71.0188 582.0625,73.1125 Q582.0625,75.2063 582.75,76.2844 Q583.4375,77.3469 584.7813,77.3469 Q585.4063,77.3469 586,77.0813 Q586.5938,76.8 587.2188,76.2219 L587.2188,78.9406 Z " fill="#000000"/><text fill="#000000" font-family="sans-serif" font-size="14" lengthAdjust="spacing" textLength="77" x="604.75" y="78.1467">LoaderItem</text><line style="stroke:#181818;stroke-width:0.5;" x1="442.5" x2="811.5" y1="89.3" y2="89.3"/><line style="stroke:#181818;stroke-width:0.5;" x1="442.5" x2="811.5" y1="97.3" y2="97.3"/><text fill="#000000" font-family="sans-serif" font-size="14" lengthAdjust="spacing" textLength="155" x="447.5" y="114.2951">LoaderItem(String file);</text><text fill="#000000" font-family="sans-serif" font-size="14" lengthAdjust="spacing" textLength="359" x="447.5" y="130.592">public HashMap&lt;ItemType, ItemStack&gt; loadItems();</text></g><!--class ItemStack--><g id="elem_ItemStack"><rect codeLine="15" fill="#F1F1F1" height="357.6406" id="ItemStack" rx="2.5" ry="2.5" style="stroke:#181818;stroke-width:0.5;" width="196" x="801" y="214.19"/><ellipse cx="860.75" cy="230.19" fill="#ADD1B2" rx="11" ry="11" style="stroke:#181818;stroke-width:1.0;"/><path d="M863.7188,235.8306 Q863.1406,236.1275 862.5,236.2681 Q861.8594,236.4244 861.1563,236.4244 Q858.6563,236.4244 857.3281,234.7838 Q856.0156,233.1275 856.0156,230.0025 Q856.0156,226.8775 857.3281,225.2213 Q858.6563,223.565 861.1563,223.565 Q861.8594,223.565 862.5,223.7213 Q863.1563,223.8775 863.7188,224.1744 L863.7188,226.8931 Q863.0938,226.315 862.5,226.0494 Q861.9063,225.7681 861.2813,225.7681 Q859.9375,225.7681 859.25,226.8463 Q858.5625,227.9088 858.5625,230.0025 Q858.5625,232.0963 859.25,233.1744 Q859.9375,234.2369 861.2813,234.2369 Q861.9063,234.2369 862.5,233.9713 Q863.0938,233.69 863.7188,233.1119 L863.7188,235.8306 Z " fill="#000000"/><text fill="#000000" font-family="sans-serif" font-size="14" lengthAdjust="spacing" textLength="68" x="881.25" y="235.0367">ItemStack</text><line style="stroke:#181818;stroke-width:0.5;" x1="802" x2="996" y1="246.19" y2="246.19"/><text fill="#000000" font-family="sans-serif" font-size="14" lengthAdjust="spacing" textLength="88" x="807" y="263.1851">String name;</text><text fill="#000000" font-family="sans-serif" font-size="14" lengthAdjust="spacing" textLength="85" x="807" y="279.482">byte weight;</text><text fill="#000000" font-family="sans-serif" font-size="14" lengthAdjust="spacing" textLength="94" x="807" y="295.7789">byte quantity;</text><text fill="#000000" font-family="sans-serif" font-size="14" lengthAdjust="spacing" textLength="75" x="807" y="312.0757">byte value;</text><text fill="#000000" font-family="sans-serif" font-size="14" lengthAdjust="spacing" textLength="103" x="807" y="328.3726">ItemType type;</text><text fill="#000000" font-family="sans-serif" font-size="14" lengthAdjust="spacing" textLength="126" x="807" y="344.6695">String description;</text><line style="stroke:#181818;stroke-width:0.5;" x1="802" x2="996" y1="351.9713" y2="351.9713"/><text fill="#000000" font-family="sans-serif" font-size="14" lengthAdjust="spacing" textLength="124" x="807" y="368.9664">byte getQuanity();</text><text fill="#000000" font-family="sans-serif" font-size="14" lengthAdjust="spacing" textLength="130" x="807" y="385.2632">void addQuantity();</text><text fill="#000000" font-family="sans-serif" font-size="14" lengthAdjust="spacing" textLength="107" x="807" y="401.5601">byte getPeso();</text><text fill="#000000" font-family="sans-serif" font-size="14" lengthAdjust="spacing" textLength="110" x="807" y="417.857">byte getValue();</text><text fill="#000000" font-family="sans-serif" font-size="14" lengthAdjust="spacing" textLength="140" x="807" y="434.1539">ItemType getType();</text><text fill="#000000" font-family="sans-serif" font-size="14" lengthAdjust="spacing" textLength="122" x="807" y="450.4507">String getName();</text><text fill="#000000" font-family="sans-serif" font-size="14" lengthAdjust="spacing" textLength="4" x="807" y="466.7476">&#160;</text><text fill="#000000" font-family="sans-serif" font-size="14" lengthAdjust="spacing" textLength="130" x="807" y="483.0445">void addQuantity();</text><text fill="#000000" font-family="sans-serif" font-size="14" lengthAdjust="spacing" textLength="184" x="807" y="499.3414">boolean removeQuantity();</text><text fill="#000000" font-family="sans-serif" font-size="14" lengthAdjust="spacing" textLength="175" x="807" y="515.6382">String showDescription();</text><text fill="#000000" font-family="sans-serif" font-size="14" lengthAdjust="spacing" textLength="4" x="807" y="531.9351">&#160;</text><text fill="#000000" font-family="sans-serif" font-size="14" lengthAdjust="spacing" textLength="166" x="807" y="548.232">boolean equals(Object);</text><text fill="#000000" font-family="sans-serif" font-size="14" lengthAdjust="spacing" textLength="125" x="807" y="564.5289">ItemStack clone();</text></g><!--class ItemType--><g id="elem_ItemType"><rect codeLine="38" fill="#F1F1F1" height="210.9688" id="ItemType" rx="2.5" ry="2.5" style="stroke:#181818;stroke-width:0.5;" width="169" x="1031.5" y="287.53"/><ellipse cx="1079.75" cy="303.53" fill="#EB937F" rx="11" ry="11" style="stroke:#181818;stroke-width:1.0;"/><path d="M1083.8594,309.53 L1076.1406,309.53 L1076.1406,297.1394 L1083.8594,297.1394 L1083.8594,299.2956 L1078.5938,299.2956 L1078.5938,301.9675 L1083.3594,301.9675 L1083.3594,304.1238 L1078.5938,304.1238 L1078.5938,307.3738 L1083.8594,307.3738 L1083.8594,309.53 Z " fill="#000000"/><text fill="#000000" font-family="sans-serif" font-size="14" lengthAdjust="spacing" textLength="64" x="1100.25" y="308.3767">ItemType</text><line style="stroke:#181818;stroke-width:0.5;" x1="1032.5" x2="1199.5" y1="319.53" y2="319.53"/><text fill="#000000" font-family="sans-serif" font-size="14" lengthAdjust="spacing" textLength="40" x="1037.5" y="336.5251">ARMA</text><text fill="#000000" font-family="sans-serif" font-size="14" lengthAdjust="spacing" textLength="78" x="1037.5" y="352.822">ARMATURA</text><text fill="#000000" font-family="sans-serif" font-size="14" lengthAdjust="spacing" textLength="109" x="1037.5" y="369.1189">POZIONE_CURA</text><text fill="#000000" font-family="sans-serif" font-size="14" lengthAdjust="spacing" textLength="121" x="1037.5" y="385.4157">POZIONE_DANNO</text><text fill="#000000" font-family="sans-serif" font-size="14" lengthAdjust="spacing" textLength="118" x="1037.5" y="401.7126">POZIONE_FORZA</text><text fill="#000000" font-family="sans-serif" font-size="14" lengthAdjust="spacing" textLength="157" x="1037.5" y="418.0095">POZIONE_RESISTENZA</text><text fill="#000000" font-family="sans-serif" font-size="14" lengthAdjust="spacing" textLength="125" x="1037.5" y="434.3064">POZIONE_VELENO</text><text fill="#000000" font-family="sans-serif" font-size="14" lengthAdjust="spacing" textLength="143" x="1037.5" y="450.6032">POZIONE_INVALIDITA</text><text fill="#000000" font-family="sans-serif" font-size="14" lengthAdjust="spacing" textLength="34" x="1037.5" y="466.9001">CIBO</text><text fill="#000000" font-family="sans-serif" font-size="14" lengthAdjust="spacing" textLength="93" x="1037.5" y="483.197">EASTER_EGG</text><line style="stroke:#181818;stroke-width:0.5;" x1="1032.5" x2="1199.5" y1="490.4988" y2="490.4988"/></g><!--class Storage--><g id="elem_Storage"><rect codeLine="52" fill="#F1F1F1" height="210.9688" id="Storage" rx="2.5" ry="2.5" style="stroke:#181818;stroke-width:0.5;" width="376" x="390" y="287.53"/><ellipse cx="546.75" cy="303.53" fill="#A9DCDF" rx="11" ry="11" style="stroke:#181818;stroke-width:1.0;"/><path d="M546.8594,298.8738 L545.7031,303.9519 L548.0313,303.9519 L546.8594,298.8738 Z M545.375,296.6394 L548.3594,296.6394 L551.7188,309.03 L549.2656,309.03 L548.5,305.9675 L545.2188,305.9675 L544.4688,309.03 L542.0313,309.03 L545.375,296.6394 Z " fill="#000000"/><text fill="#000000" font-family="sans-serif" font-size="14" font-style="italic" lengthAdjust="spacing" textLength="54" x="567.25" y="308.3767">Storage</text><line style="stroke:#181818;stroke-width:0.5;" x1="391" x2="765" y1="319.53" y2="319.53"/><text fill="#000000" font-family="sans-serif" font-size="14" lengthAdjust="spacing" textLength="364" x="396" y="336.5251">List&lt;ItemStack&gt; items = new ArrayList&lt;ItemStack&gt;;</text><line style="stroke:#181818;stroke-width:0.5;" x1="391" x2="765" y1="343.8269" y2="343.8269"/><text fill="#000000" font-family="sans-serif" font-size="14" lengthAdjust="spacing" textLength="176" x="396" y="360.822">boolean add(ItemStack i);</text><text fill="#000000" font-family="sans-serif" font-size="14" lengthAdjust="spacing" textLength="202" x="396" y="377.1189">boolean remove(ItemStack i);</text><text fill="#000000" font-family="sans-serif" font-size="14" lengthAdjust="spacing" textLength="4" x="396" y="393.4157">&#160;</text><text fill="#000000" font-family="sans-serif" font-size="14" lengthAdjust="spacing" textLength="225" x="396" y="409.7126">List&lt;ItemStack&gt; showStorage();</text><text fill="#000000" font-family="sans-serif" font-size="14" lengthAdjust="spacing" textLength="192" x="396" y="426.0095">byte quantityOf(ItemType t);</text><text fill="#000000" font-family="sans-serif" font-size="14" lengthAdjust="spacing" textLength="229" x="396" y="442.3064">ItemStack searchFor(ItemType t);</text><text fill="#000000" font-family="sans-serif" font-size="14" lengthAdjust="spacing" textLength="239" x="396" y="458.6032">ItemStack searchFor(String name);</text><text fill="#000000" font-family="sans-serif" font-size="14" lengthAdjust="spacing" textLength="4" x="396" y="474.9001">&#160;</text><text fill="#000000" font-family="sans-serif" font-size="14" lengthAdjust="spacing" textLength="113" x="396" y="491.197">String toString();</text></g><path d="M22.5,367.88 L22.5,408.1456 A0,0 0 0 0 22.5,408.1456 L355.5,408.1456 A0,0 0 0 0 355.5,408.1456 L355.5,392.0128 L394,453.7566 L355.5,384.0128 L355.5,377.88 L345.5,367.88 L22.5,367.88 A0,0 0 0 0 22.5,367.88 " fill="#FEFFDD" style="stroke:#181818;stroke-width:0.5;"/><path d="M345.5,367.88 L345.5,377.88 L355.5,377.88 L345.5,367.88 " fill="#FEFFDD" style="stroke:#181818;stroke-width:0.5;"/><text fill="#000000" font-family="sans-serif" font-size="13" lengthAdjust="spacing" textLength="312" x="28.5" y="384.9469">shallow copy, evita di influenzare elementi interni</text><text fill="#000000" font-family="sans-serif" font-size="13" lengthAdjust="spacing" textLength="297" x="28.5" y="400.0797">?esiste modo per fare un final per il chiamante</text><!--class Inventario--><g id="elem_Inventario"><rect codeLine="70" fill="#F1F1F1" height="80.5938" id="Inventario" rx="2.5" ry="2.5" style="stroke:#181818;stroke-width:0.5;" width="166" x="848" y="57.3"/><ellipse cx="893.25" cy="73.3" fill="#ADD1B2" rx="11" ry="11" style="stroke:#181818;stroke-width:1.0;"/><path d="M896.2188,78.9406 Q895.6406,79.2375 895,79.3781 Q894.3594,79.5344 893.6563,79.5344 Q891.1563,79.5344 889.8281,77.8938 Q888.5156,76.2375 888.5156,73.1125 Q888.5156,69.9875 889.8281,68.3313 Q891.1563,66.675 893.6563,66.675 Q894.3594,66.675 895,66.8313 Q895.6563,66.9875 896.2188,67.2844 L896.2188,70.0031 Q895.5938,69.425 895,69.1594 Q894.4063,68.8781 893.7813,68.8781 Q892.4375,68.8781 891.75,69.9563 Q891.0625,71.0188 891.0625,73.1125 Q891.0625,75.2063 891.75,76.2844 Q892.4375,77.3469 893.7813,77.3469 Q894.4063,77.3469 895,77.0813 Q895.5938,76.8 896.2188,76.2219 L896.2188,78.9406 Z " fill="#000000"/><text fill="#000000" font-family="sans-serif" font-size="14" lengthAdjust="spacing" textLength="67" x="913.75" y="78.1467">Inventario</text><line style="stroke:#181818;stroke-width:0.5;" x1="849" x2="1013" y1="89.3" y2="89.3"/><text fill="#000000" font-family="sans-serif" font-size="14" lengthAdjust="spacing" textLength="85" x="854" y="106.2951">byte weight;</text><line style="stroke:#181818;stroke-width:0.5;" x1="849" x2="1013" y1="113.5969" y2="113.5969"/><text fill="#000000" font-family="sans-serif" font-size="14" lengthAdjust="spacing" textLength="154" x="854" y="130.592">byte getTotalWeight();</text></g><!--class Chest--><g id="elem_Chest"><rect codeLine="75" fill="#F1F1F1" height="113.1875" id="Chest" rx="2.5" ry="2.5" style="stroke:#181818;stroke-width:0.5;" width="142" x="1049" y="41"/><ellipse cx="1095.25" cy="57" fill="#ADD1B2" rx="11" ry="11" style="stroke:#181818;stroke-width:1.0;"/><path d="M1098.2188,62.6406 Q1097.6406,62.9375 1097,63.0781 Q1096.3594,63.2344 1095.6563,63.2344 Q1093.1563,63.2344 1091.8281,61.5938 Q1090.5156,59.9375 1090.5156,56.8125 Q1090.5156,53.6875 1091.8281,52.0313 Q1093.1563,50.375 1095.6563,50.375 Q1096.3594,50.375 1097,50.5313 Q1097.6563,50.6875 1098.2188,50.9844 L1098.2188,53.7031 Q1097.5938,53.125 1097,52.8594 Q1096.4063,52.5781 1095.7813,52.5781 Q1094.4375,52.5781 1093.75,53.6563 Q1093.0625,54.7188 1093.0625,56.8125 Q1093.0625,58.9063 1093.75,59.9844 Q1094.4375,61.0469 1095.7813,61.0469 Q1096.4063,61.0469 1097,60.7813 Q1097.5938,60.5 1098.2188,59.9219 L1098.2188,62.6406 Z " fill="#000000"/><text fill="#000000" font-family="sans-serif" font-size="14" lengthAdjust="spacing" textLength="41" x="1115.75" y="61.8467">Chest</text><line style="stroke:#181818;stroke-width:0.5;" x1="1050" x2="1190" y1="73" y2="73"/><text fill="#000000" font-family="sans-serif" font-size="14" lengthAdjust="spacing" textLength="93" x="1055" y="89.9951">boolean lock;</text><line style="stroke:#181818;stroke-width:0.5;" x1="1050" x2="1190" y1="97.2969" y2="97.2969"/><text fill="#000000" font-family="sans-serif" font-size="14" lengthAdjust="spacing" textLength="75" x="1055" y="114.292">void lock();</text><text fill="#000000" font-family="sans-serif" font-size="14" lengthAdjust="spacing" textLength="88" x="1055" y="130.5889">void unlock()</text><text fill="#000000" font-family="sans-serif" font-size="14" lengthAdjust="spacing" textLength="130" x="1055" y="146.8857">boolean getLock();</text></g><!--class awsClient--><g id="elem_awsClient"><rect codeLine="95" fill="#F1F1F1" height="96.8906" id="awsClient" rx="2.5" ry="2.5" style="stroke:#181818;stroke-width:0.5;" width="231" x="1255.5" y="49.15"/><ellipse cx="1333.75" cy="65.15" fill="#ADD1B2" rx="11" ry="11" style="stroke:#181818;stroke-width:1.0;"/><path d="M1336.7188,70.7906 Q1336.1406,71.0875 1335.5,71.2281 Q1334.8594,71.3844 1334.1563,71.3844 Q1331.6563,71.3844 1330.3281,69.7438 Q1329.0156,68.0875 1329.0156,64.9625 Q1329.0156,61.8375 1330.3281,60.1813 Q1331.6563,58.525 1334.1563,58.525 Q1334.8594,58.525 1335.5,58.6813 Q1336.1563,58.8375 1336.7188,59.1344 L1336.7188,61.8531 Q1336.0938,61.275 1335.5,61.0094 Q1334.9063,60.7281 1334.2813,60.7281 Q1332.9375,60.7281 1332.25,61.8063 Q1331.5625,62.8688 1331.5625,64.9625 Q1331.5625,67.0563 1332.25,68.1344 Q1332.9375,69.1969 1334.2813,69.1969 Q1334.9063,69.1969 1335.5,68.9313 Q1336.0938,68.65 1336.7188,68.0719 L1336.7188,70.7906 Z " fill="#000000"/><text fill="#000000" font-family="sans-serif" font-size="14" lengthAdjust="spacing" textLength="66" x="1354.25" y="69.9967">awsClient</text><line style="stroke:#181818;stroke-width:0.5;" x1="1256.5" x2="1485.5" y1="81.15" y2="81.15"/><line style="stroke:#181818;stroke-width:0.5;" x1="1256.5" x2="1485.5" y1="89.15" y2="89.15"/><text fill="#000000" font-family="sans-serif" font-size="14" lengthAdjust="spacing" textLength="125" x="1261.5" y="106.1451">void upload(File f);</text><text fill="#000000" font-family="sans-serif" font-size="14" lengthAdjust="spacing" textLength="177" x="1261.5" y="122.442">void download(String file);</text><text fill="#000000" font-family="sans-serif" font-size="14" lengthAdjust="spacing" textLength="219" x="1261.5" y="138.7389">String getChecksum(String file);</text></g><!--class JsonParser--><g id="elem_JsonParser"><rect codeLine="101" fill="#F1F1F1" height="48" id="JsonParser" rx="2.5" ry="2.5" style="stroke:#181818;stroke-width:0.5;" width="105" x="1521.5" y="73.6"/><ellipse cx="1536.5" cy="89.6" fill="#ADD1B2" rx="11" ry="11" style="stroke:#181818;stroke-width:1.0;"/><path d="M1539.4688,95.2406 Q1538.8906,95.5375 1538.25,95.6781 Q1537.6094,95.8344 1536.9063,95.8344 Q1534.4063,95.8344 1533.0781,94.1938 Q1531.7656,92.5375 1531.7656,89.4125 Q1531.7656,86.2875 1533.0781,84.6313 Q1534.4063,82.975 1536.9063,82.975 Q1537.6094,82.975 1538.25,83.1313 Q1538.9063,83.2875 1539.4688,83.5844 L1539.4688,86.3031 Q1538.8438,85.725 1538.25,85.4594 Q1537.6563,85.1781 1537.0313,85.1781 Q1535.6875,85.1781 1535,86.2563 Q1534.3125,87.3188 1534.3125,89.4125 Q1534.3125,91.5063 1535,92.5844 Q1535.6875,93.6469 1537.0313,93.6469 Q1537.6563,93.6469 1538.25,93.3813 Q1538.8438,93.1 1539.4688,92.5219 L1539.4688,95.2406 Z " fill="#000000"/><text fill="#000000" font-family="sans-serif" font-size="14" lengthAdjust="spacing" textLength="73" x="1550.5" y="94.4467">JsonParser</text><line style="stroke:#181818;stroke-width:0.5;" x1="1522.5" x2="1625.5" y1="105.6" y2="105.6"/><line style="stroke:#181818;stroke-width:0.5;" x1="1522.5" x2="1625.5" y1="113.6" y2="113.6"/></g><!--class AdapterSave--><g id="elem_AdapterSave"><rect codeLine="108" fill="#F1F1F1" height="80.5938" id="AdapterSave" rx="2.5" ry="2.5" style="stroke:#181818;stroke-width:0.5;" width="216" x="1682" y="57.3"/><ellipse cx="1742.25" cy="73.3" fill="#ADD1B2" rx="11" ry="11" style="stroke:#181818;stroke-width:1.0;"/><path d="M1745.2188,78.9406 Q1744.6406,79.2375 1744,79.3781 Q1743.3594,79.5344 1742.6563,79.5344 Q1740.1563,79.5344 1738.8281,77.8938 Q1737.5156,76.2375 1737.5156,73.1125 Q1737.5156,69.9875 1738.8281,68.3313 Q1740.1563,66.675 1742.6563,66.675 Q1743.3594,66.675 1744,66.8313 Q1744.6563,66.9875 1745.2188,67.2844 L1745.2188,70.0031 Q1744.5938,69.425 1744,69.1594 Q1743.4063,68.8781 1742.7813,68.8781 Q1741.4375,68.8781 1740.75,69.9563 Q1740.0625,71.0188 1740.0625,73.1125 Q1740.0625,75.2063 1740.75,76.2844 Q1741.4375,77.3469 1742.7813,77.3469 Q1743.4063,77.3469 1744,77.0813 Q1744.5938,76.8 1745.2188,76.2219 L1745.2188,78.9406 Z " fill="#000000"/><text fill="#000000" font-family="sans-serif" font-size="14" lengthAdjust="spacing" textLength="87" x="1762.75" y="78.1467">AdapterSave</text><line style="stroke:#181818;stroke-width:0.5;" x1="1683" x2="1897" y1="89.3" y2="89.3"/><line style="stroke:#181818;stroke-width:0.5;" x1="1683" x2="1897" y1="97.3" y2="97.3"/><text fill="#000000" font-family="sans-serif" font-size="14" lengthAdjust="spacing" textLength="204" x="1688" y="114.2951">boolean checkOldSave(File f);</text><text fill="#000000" font-family="sans-serif" font-size="14" lengthAdjust="spacing" textLength="104" x="1688" y="130.592">File loadSave();</text></g><!--link Storage to ItemStack--><g id="link_Storage_ItemStack"><path codeLine="85" d="M766.4,393.01 C777.79,393.01 783.19,393.01 794.59,393.01 " fill="none" id="Storage-to-ItemStack" style="stroke:#181818;stroke-width:1.0;"/><polygon fill="#181818" points="800.59,393.01,791.59,389.01,795.59,393.01,791.59,397.01,800.59,393.01" style="stroke:#181818;stroke-width:1.0;"/></g><!--link Inventario to Storage--><g id="link_Inventario_Storage"><path codeLine="86" d="M879.52,138.15 C851.1,160.22 815.32,188.38 784,214.19 C755.74,237.47 739.3626,251.2178 711.2226,275.4378 " fill="none" id="Inventario-to-Storage" style="stroke:#181818;stroke-width:1.0;"/><polygon fill="none" points="697.58,287.18,715.1367,279.9854,707.3086,270.8903,697.58,287.18" style="stroke:#181818;stroke-width:1.0;"/></g><!--link Chest to Storage--><g id="link_Chest_Storage"><path codeLine="88" d="M1058.64,154.63 C1050.11,160.52 1041.13,165.87 1032,170.04 C930.19,216.62 885.09,166.08 784,214.19 C745.82,232.36 722.6748,247.6823 691.1448,275.3723 " fill="none" id="Chest-to-Storage" style="stroke:#181818;stroke-width:1.0;"/><polygon fill="none" points="677.62,287.25,695.1041,279.8806,687.1856,270.8641,677.62,287.25" style="stroke:#181818;stroke-width:1.0;"/></g><!--link ItemStack to ItemType--><g id="link_ItemStack_ItemType"><path codeLine="89" d="M997.33,393.01 C1008.61,393.01 1013.89,393.01 1025.17,393.01 " fill="none" id="ItemStack-to-ItemType" style="stroke:#181818;stroke-width:1.0;"/><polygon fill="#181818" points="1031.17,393.01,1022.17,389.01,1026.17,393.01,1022.17,397.01,1031.17,393.01" style="stroke:#181818;stroke-width:1.0;"/></g><!--SRC=[bLNVRzem47xFNt7g7igaLhotMoS6j6EYG85rKbyganpWrTYPRK2CyR_lBd58Wbfjuu7aVd_-pdT9HVmY5WXd4syilTmBBHOhrFuCtdMotnwWUUwCNXY5u6Lgb5b815J8RlAy6SLAE0SzZwjR4LEQNRIF89CddjB30lrOwCIiMDLuVtrgpDJyDzsbLEAl3XSmstc4ZL36ulzv1o55PoZm40NiVICIj1p3o4kfCV5MwWNCfSeBfUkPaZ5y4MvvBz8FHPMB4i4DA0fdqJMg9Kg8N2BarMA5d3O3jKMvMFgZ-7CjY5w_Eohe16iiJfkVZVwk0Q1CcA2BhKozD9ezeOWbMXue7wNB-TyOcO18aeTG9DSMhYEYfwvvvDfbwxBgfEPdhWtrIJUWCx7kxIg6RfBGO75bDbYtXJHkQRQTyYWXNH68H8roZU7i1yQdjoLMHcCW7lLwTOJBhBV6zwtmc7uRy-je-DGR3hhFxRhOQGq6mufyEnm_LUtZxgGtcNO7DULZjz-jHVK6Zwr-hzERibUxzvbjtHR5ZP-xTtUCi7c-GCSdH4WaI3sNr29w8SmqLsBclAM9WZ2R-xoXVUdyXyfzOsy77q7Z5bhMYjs9GuqxwaQZP4k-qf0Jyoi5kJi1KkMM5FTrE7zxbXqA6ozlZVqNbygCv3Y2mfly9U-oDbHRuTo3cHT4NLsTlPxcB79BePJPGcpItGNWHdeHgASBhdy9MsusKdgqMaQVq14322kJ65eT5kRijjQq5hHGcKOgY9TIh8W2f7kN0CCwZhxUK3vXfTc_CUiyIiOBzJrJr_P6UqatP5_faZBn2mSMyyLoPQZNEbTK8YXxFpXntaCKQ8BBcmhnKGaJBYz_tnHaHb46eQuhmq8ExcN4lpHyK4PecJKHOr_iYA7YQqAuyeE9hMihIHLPLO1FUNasRcdTmZmxKp0aPgipq-b2hcuUmXc_kFN9riwOEaJ7kb_fMpOIrg7D2sTMUXnAxAr4fDJwDu07wqHiCCzGy1np_Q5As58_GoOm_in4c9hd38vcd8iV_W00]--></g></svg>