<?xml version="1.0" encoding="us-ascii" standalone="no"?><svg xmlns="http://www.w3.org/2000/svg" xmlns:xlink="http://www.w3.org/1999/xlink" contentStyleType="text/css" height="1283px" preserveAspectRatio="none" style="width:6372px;height:1283px;background:#FFFFFF;" version="1.1" viewBox="0 0 6372 1283" width="6372px" zoomAndPan="magnify"><defs/><g><!--cluster Entita'--><g id="cluster_Entita'"><path d="M8.5,63.04 L57.5,63.04 A3.75,3.75 0 0 1 60,65.54 L67,85.3369 L1020.5,85.3369 A2.5,2.5 0 0 1 1023,87.8369 L1023,1273.94 A2.5,2.5 0 0 1 1020.5,1276.44 L8.5,1276.44 A2.5,2.5 0 0 1 6,1273.94 L6,65.54 A2.5,2.5 0 0 1 8.5,63.04 " fill="#DDDDDD" style="stroke:#000000;stroke-width:1.5;"/><line style="stroke:#000000;stroke-width:1.5;" x1="6" x2="67" y1="85.3369" y2="85.3369"/><text fill="#000000" font-family="sans-serif" font-size="14" font-weight="bold" lengthAdjust="spacing" textLength="48" x="10" y="78.0351">Entita'</text></g><!--cluster MenuGraphic--><g id="cluster_MenuGraphic"><path d="M1479.5,79.34 L1584.5,79.34 A3.75,3.75 0 0 1 1587,81.84 L1594,101.6369 L2056.5,101.6369 A2.5,2.5 0 0 1 2059,104.1369 L2059,897.04 A2.5,2.5 0 0 1 2056.5,899.54 L1479.5,899.54 A2.5,2.5 0 0 1 1477,897.04 L1477,81.84 A2.5,2.5 0 0 1 1479.5,79.34 " fill="#DDDDDD" style="stroke:#000000;stroke-width:1.5;"/><line style="stroke:#000000;stroke-width:1.5;" x1="1477" x2="1594" y1="101.6369" y2="101.6369"/><text fill="#000000" font-family="sans-serif" font-size="14" font-weight="bold" lengthAdjust="spacing" textLength="104" x="1481" y="94.3351">MenuGraphic</text></g><!--cluster Mappa--><g id="cluster_Mappa"><path d="M2085.5,6 L2137.5,6 A3.75,3.75 0 0 1 2140,8.5 L2147,28.2969 L2890.5,28.2969 A2.5,2.5 0 0 1 2893,30.7969 L2893,921.49 A2.5,2.5 0 0 1 2890.5,923.99 L2085.5,923.99 A2.5,2.5 0 0 1 2083,921.49 L2083,8.5 A2.5,2.5 0 0 1 2085.5,6 " fill="#DDDDDD" style="stroke:#000000;stroke-width:1.5;"/><line style="stroke:#000000;stroke-width:1.5;" x1="2083" x2="2147" y1="28.2969" y2="28.2969"/><text fill="#000000" font-family="sans-serif" font-size="14" font-weight="bold" lengthAdjust="spacing" textLength="51" x="2087" y="20.9951">Mappa</text></g><!--cluster Prompts--><g id="cluster_Prompts"><path d="M3616.5,22.3 L3683.5,22.3 A3.75,3.75 0 0 1 3686,24.8 L3693,44.5969 L6362.5,44.5969 A2.5,2.5 0 0 1 6365,47.0969 L6365,552.74 A2.5,2.5 0 0 1 6362.5,555.24 L3616.5,555.24 A2.5,2.5 0 0 1 3614,552.74 L3614,24.8 A2.5,2.5 0 0 1 3616.5,22.3 " fill="#DDDDDD" style="stroke:#000000;stroke-width:1.5;"/><line style="stroke:#000000;stroke-width:1.5;" x1="3614" x2="3693" y1="44.5969" y2="44.5969"/><text fill="#000000" font-family="sans-serif" font-size="14" font-weight="bold" lengthAdjust="spacing" textLength="66" x="3618" y="37.2951">Prompts</text></g><!--cluster GameEngineLayer--><g id="cluster_GameEngineLayer"><path d="M2919.5,260.67 L3062.5,260.67 A3.75,3.75 0 0 1 3065,263.17 L3072,282.9669 L3587.5,282.9669 A2.5,2.5 0 0 1 3590,285.4669 L3590,732 A2.5,2.5 0 0 1 3587.5,734.5 L2919.5,734.5 A2.5,2.5 0 0 1 2917,732 L2917,263.17 A2.5,2.5 0 0 1 2919.5,260.67 " fill="#DDDDDD" style="stroke:#000000;stroke-width:1.5;"/><line style="stroke:#000000;stroke-width:1.5;" x1="2917" x2="3072" y1="282.9669" y2="282.9669"/><text fill="#000000" font-family="sans-serif" font-size="14" font-weight="bold" lengthAdjust="spacing" textLength="142" x="2921" y="275.6651">GameEngineLayer</text></g><!--class MType--><g id="elem_MType"><rect codeLine="2" fill="#F1F1F1" height="129.4844" id="MType" rx="2.5" ry="2.5" style="stroke:#181818;stroke-width:0.5;" width="136" x="871" y="778.5"/><ellipse cx="912.1" cy="794.5" fill="#EB937F" rx="11" ry="11" style="stroke:#181818;stroke-width:1.0;"/><path d="M916.2094,800.5 L908.4906,800.5 L908.4906,788.1094 L916.2094,788.1094 L916.2094,790.2656 L910.9438,790.2656 L910.9438,792.9375 L915.7094,792.9375 L915.7094,795.0938 L910.9438,795.0938 L910.9438,798.3438 L916.2094,798.3438 L916.2094,800.5 Z " fill="#000000"/><text fill="#000000" font-family="sans-serif" font-size="14" lengthAdjust="spacing" textLength="46" x="931.9" y="799.3467">MType</text><line style="stroke:#181818;stroke-width:0.5;" x1="872" x2="1006" y1="810.5" y2="810.5"/><text fill="#000000" font-family="sans-serif" font-size="14" lengthAdjust="spacing" textLength="124" x="877" y="827.4951">MOSTRO_MARINO</text><text fill="#000000" font-family="sans-serif" font-size="14" lengthAdjust="spacing" textLength="71" x="877" y="843.792">COBOLDO</text><text fill="#000000" font-family="sans-serif" font-size="14" lengthAdjust="spacing" textLength="98" x="877" y="860.0889">BOSS_DRAGO</text><text fill="#000000" font-family="sans-serif" font-size="14" lengthAdjust="spacing" textLength="78" x="877" y="876.3857">ARMATURA</text><text fill="#000000" font-family="sans-serif" font-size="14" lengthAdjust="spacing" textLength="111" x="877" y="892.6826">MAGO_OSCURO</text><line style="stroke:#181818;stroke-width:0.5;" x1="872" x2="1006" y1="899.9844" y2="899.9844"/></g><!--class Entity--><g id="elem_Entity"><rect codeLine="10" fill="#F1F1F1" height="292.4531" id="Entity" rx="2.5" ry="2.5" style="stroke:#181818;stroke-width:0.5;" width="194" x="574" y="967.99"/><ellipse cx="647.75" cy="983.99" fill="#A9DCDF" rx="11" ry="11" style="stroke:#181818;stroke-width:1.0;"/><path d="M647.8594,979.3338 L646.7031,984.4119 L649.0313,984.4119 L647.8594,979.3338 Z M646.375,977.0994 L649.3594,977.0994 L652.7188,989.49 L650.2656,989.49 L649.5,986.4275 L646.2188,986.4275 L645.4688,989.49 L643.0313,989.49 L646.375,977.0994 Z " fill="#000000"/><text fill="#000000" font-family="sans-serif" font-size="14" font-style="italic" lengthAdjust="spacing" textLength="38" x="668.25" y="988.8367">Entity</text><line style="stroke:#181818;stroke-width:0.5;" x1="575" x2="767" y1="999.99" y2="999.99"/><text fill="#000000" font-family="sans-serif" font-size="14" lengthAdjust="spacing" textLength="95" x="580" y="1016.9851">Inventario inv;</text><text fill="#000000" font-family="sans-serif" font-size="14" lengthAdjust="spacing" textLength="108" x="580" y="1033.282">short int salute;</text><text fill="#000000" font-family="sans-serif" font-size="14" lengthAdjust="spacing" textLength="124" x="580" y="1049.5789">byte danno_base;</text><text fill="#000000" font-family="sans-serif" font-size="14" lengthAdjust="spacing" textLength="141" x="580" y="1065.8757">byte armatura_base;</text><text fill="#000000" font-family="sans-serif" font-size="14" lengthAdjust="spacing" textLength="88" x="580" y="1082.1726">String name;</text><text fill="#000000" font-family="sans-serif" font-size="14" lengthAdjust="spacing" textLength="87" x="580" y="1098.4695">String storia;</text><text fill="#000000" font-family="sans-serif" font-size="14" lengthAdjust="spacing" textLength="76" x="580" y="1114.7664">byte livello;</text><line style="stroke:#181818;stroke-width:0.5;" x1="575" x2="767" y1="1122.0681" y2="1122.0681"/><text fill="#000000" font-family="sans-serif" font-size="14" lengthAdjust="spacing" textLength="113" x="580" y="1139.0632">byte getLivello();</text><text fill="#000000" font-family="sans-serif" font-size="14" lengthAdjust="spacing" textLength="121" x="580" y="1155.3601">String getStoria();</text><text fill="#000000" font-family="sans-serif" font-size="14" lengthAdjust="spacing" textLength="112" x="580" y="1171.657">byte setLivello();</text><text fill="#000000" font-family="sans-serif" font-size="14" lengthAdjust="spacing" textLength="113" x="580" y="1187.9539">int changeVita();</text><text fill="#000000" font-family="sans-serif" font-size="14" lengthAdjust="spacing" textLength="131" x="580" y="1204.2507">boolean addItem();</text><text fill="#000000" font-family="sans-serif" font-size="14" lengthAdjust="spacing" textLength="157" x="580" y="1220.5476">boolean removeItem();</text><text fill="#000000" font-family="sans-serif" font-size="14" lengthAdjust="spacing" textLength="182" x="580" y="1236.8445">Inventario[] getInventory();</text><text fill="#000000" font-family="sans-serif" font-size="14" lengthAdjust="spacing" textLength="133" x="580" y="1253.1414">attackEntity(Entity);</text></g><!--class Player--><g id="elem_Player"><rect codeLine="31" fill="#F1F1F1" height="113.1875" id="Player" rx="2.5" ry="2.5" style="stroke:#181818;stroke-width:0.5;" width="157" x="499.5" y="786.65"/><ellipse cx="553.25" cy="802.65" fill="#ADD1B2" rx="11" ry="11" style="stroke:#181818;stroke-width:1.0;"/><path d="M556.2188,808.2906 Q555.6406,808.5875 555,808.7281 Q554.3594,808.8844 553.6563,808.8844 Q551.1563,808.8844 549.8281,807.2438 Q548.5156,805.5875 548.5156,802.4625 Q548.5156,799.3375 549.8281,797.6813 Q551.1563,796.025 553.6563,796.025 Q554.3594,796.025 555,796.1813 Q555.6563,796.3375 556.2188,796.6344 L556.2188,799.3531 Q555.5938,798.775 555,798.5094 Q554.4063,798.2281 553.7813,798.2281 Q552.4375,798.2281 551.75,799.3063 Q551.0625,800.3688 551.0625,802.4625 Q551.0625,804.5563 551.75,805.6344 Q552.4375,806.6969 553.7813,806.6969 Q554.4063,806.6969 555,806.4313 Q555.5938,806.15 556.2188,805.5719 L556.2188,808.2906 Z " fill="#000000"/><text fill="#000000" font-family="sans-serif" font-size="14" lengthAdjust="spacing" textLength="41" x="573.75" y="807.4967">Player</text><line style="stroke:#181818;stroke-width:0.5;" x1="500.5" x2="655.5" y1="818.65" y2="818.65"/><text fill="#000000" font-family="sans-serif" font-size="14" lengthAdjust="spacing" textLength="145" x="505.5" y="835.6451">final byte PESO_MAX;</text><text fill="#000000" font-family="sans-serif" font-size="14" lengthAdjust="spacing" textLength="103" x="505.5" y="851.942">byte Carattere;</text><line style="stroke:#181818;stroke-width:0.5;" x1="500.5" x2="655.5" y1="859.2438" y2="859.2438"/><text fill="#000000" font-family="sans-serif" font-size="14" lengthAdjust="spacing" textLength="101" x="505.5" y="876.2389">setCarattere();</text><text fill="#000000" font-family="sans-serif" font-size="14" lengthAdjust="spacing" textLength="102" x="505.5" y="892.5357">getCarattere();</text></g><g id="elem_GMN6"><path d="M22,830.68 L22,855.8128 A0,0 0 0 0 22,855.8128 L464,855.8128 A0,0 0 0 0 464,855.8128 L464,848.68 L499.07,843.24 L464,840.68 L464,840.68 L454,830.68 L22,830.68 A0,0 0 0 0 22,830.68 " fill="#FEFFDD" style="stroke:#181818;stroke-width:0.5;"/><path d="M454,830.68 L454,840.68 L464,840.68 L454,830.68 " fill="#FEFFDD" style="stroke:#181818;stroke-width:0.5;"/><text fill="#000000" font-family="sans-serif" font-size="13" lengthAdjust="spacing" textLength="421" x="28" y="847.7469">"Il carattere &#232; ancora da implementare(ingorarlo per il momento)"</text></g><!--class Monster--><g id="elem_Monster"><rect codeLine="40" fill="#F1F1F1" height="96.8906" id="Monster" rx="2.5" ry="2.5" style="stroke:#181818;stroke-width:0.5;" width="144" x="692" y="794.8"/><ellipse cx="731.75" cy="810.8" fill="#A9DCDF" rx="11" ry="11" style="stroke:#181818;stroke-width:1.0;"/><path d="M731.8594,806.1438 L730.7031,811.2219 L733.0313,811.2219 L731.8594,806.1438 Z M730.375,803.9094 L733.3594,803.9094 L736.7188,816.3 L734.2656,816.3 L733.5,813.2375 L730.2188,813.2375 L729.4688,816.3 L727.0313,816.3 L730.375,803.9094 Z " fill="#000000"/><text fill="#000000" font-family="sans-serif" font-size="14" font-style="italic" lengthAdjust="spacing" textLength="57" x="751.25" y="815.6467">Monster</text><line style="stroke:#181818;stroke-width:0.5;" x1="693" x2="835" y1="826.8" y2="826.8"/><text fill="#000000" font-family="sans-serif" font-size="14" lengthAdjust="spacing" textLength="72" x="698" y="843.7951">Mtype tipo</text><line style="stroke:#181818;stroke-width:0.5;" x1="693" x2="835" y1="851.0969" y2="851.0969"/><text fill="#000000" font-family="sans-serif" font-size="14" lengthAdjust="spacing" textLength="132" x="698" y="868.092">Monseter(Mtype t);</text><text fill="#000000" font-family="sans-serif" font-size="14" lengthAdjust="spacing" textLength="130" x="698" y="884.3889">Mtype getMType();</text></g><!--class Monster_Factory--><g id="elem_Monster_Factory"><rect codeLine="46" fill="#F1F1F1" height="80.5938" id="Monster_Factory" rx="2.5" ry="2.5" style="stroke:#181818;stroke-width:0.5;" width="212" x="554" y="98.04"/><ellipse cx="598.75" cy="114.04" fill="#ADD1B2" rx="11" ry="11" style="stroke:#181818;stroke-width:1.0;"/><path d="M601.7188,119.6806 Q601.1406,119.9775 600.5,120.1181 Q599.8594,120.2744 599.1563,120.2744 Q596.6563,120.2744 595.3281,118.6337 Q594.0156,116.9775 594.0156,113.8525 Q594.0156,110.7275 595.3281,109.0712 Q596.6563,107.415 599.1563,107.415 Q599.8594,107.415 600.5,107.5712 Q601.1563,107.7275 601.7188,108.0244 L601.7188,110.7431 Q601.0938,110.165 600.5,109.8994 Q599.9063,109.6181 599.2813,109.6181 Q597.9375,109.6181 597.25,110.6962 Q596.5625,111.7587 596.5625,113.8525 Q596.5625,115.9462 597.25,117.0244 Q597.9375,118.0869 599.2813,118.0869 Q599.9063,118.0869 600.5,117.8212 Q601.0938,117.54 601.7188,116.9619 L601.7188,119.6806 Z " fill="#000000"/><text fill="#000000" font-family="sans-serif" font-size="14" lengthAdjust="spacing" textLength="114" x="619.25" y="118.8867">Monster_Factory</text><line style="stroke:#181818;stroke-width:0.5;" x1="555" x2="765" y1="130.04" y2="130.04"/><line style="stroke:#181818;stroke-width:0.5;" x1="555" x2="765" y1="138.04" y2="138.04"/><text fill="#000000" font-family="sans-serif" font-size="14" lengthAdjust="spacing" textLength="200" x="560" y="155.0351">Monster create(MType type);</text><text fill="#000000" font-family="sans-serif" font-size="14" lengthAdjust="spacing" textLength="178" x="560" y="171.332">Monster createRandom();</text></g><!--class Armatura--><g id="elem_Armatura"><rect codeLine="51" fill="#F1F1F1" height="48" id="Armatura" rx="2.5" ry="2.5" style="stroke:#181818;stroke-width:0.5;" width="94" x="476" y="483.09"/><ellipse cx="491" cy="499.09" fill="#ADD1B2" rx="11" ry="11" style="stroke:#181818;stroke-width:1.0;"/><path d="M493.9688,504.7306 Q493.3906,505.0275 492.75,505.1681 Q492.1094,505.3244 491.4063,505.3244 Q488.9063,505.3244 487.5781,503.6838 Q486.2656,502.0275 486.2656,498.9025 Q486.2656,495.7775 487.5781,494.1213 Q488.9063,492.465 491.4063,492.465 Q492.1094,492.465 492.75,492.6213 Q493.4063,492.7775 493.9688,493.0744 L493.9688,495.7931 Q493.3438,495.215 492.75,494.9494 Q492.1563,494.6681 491.5313,494.6681 Q490.1875,494.6681 489.5,495.7463 Q488.8125,496.8088 488.8125,498.9025 Q488.8125,500.9963 489.5,502.0744 Q490.1875,503.1369 491.5313,503.1369 Q492.1563,503.1369 492.75,502.8713 Q493.3438,502.59 493.9688,502.0119 L493.9688,504.7306 Z " fill="#000000"/><text fill="#000000" font-family="sans-serif" font-size="14" lengthAdjust="spacing" textLength="62" x="505" y="503.9367">Armatura</text><line style="stroke:#181818;stroke-width:0.5;" x1="477" x2="569" y1="515.09" y2="515.09"/><line style="stroke:#181818;stroke-width:0.5;" x1="477" x2="569" y1="523.09" y2="523.09"/></g><!--class Mago_nero--><g id="elem_Mago_nero"><rect codeLine="52" fill="#F1F1F1" height="48" id="Mago_nero" rx="2.5" ry="2.5" style="stroke:#181818;stroke-width:0.5;" width="109" x="605.5" y="483.09"/><ellipse cx="620.5" cy="499.09" fill="#ADD1B2" rx="11" ry="11" style="stroke:#181818;stroke-width:1.0;"/><path d="M623.4688,504.7306 Q622.8906,505.0275 622.25,505.1681 Q621.6094,505.3244 620.9063,505.3244 Q618.4063,505.3244 617.0781,503.6838 Q615.7656,502.0275 615.7656,498.9025 Q615.7656,495.7775 617.0781,494.1213 Q618.4063,492.465 620.9063,492.465 Q621.6094,492.465 622.25,492.6213 Q622.9063,492.7775 623.4688,493.0744 L623.4688,495.7931 Q622.8438,495.215 622.25,494.9494 Q621.6563,494.6681 621.0313,494.6681 Q619.6875,494.6681 619,495.7463 Q618.3125,496.8088 618.3125,498.9025 Q618.3125,500.9963 619,502.0744 Q619.6875,503.1369 621.0313,503.1369 Q621.6563,503.1369 622.25,502.8713 Q622.8438,502.59 623.4688,502.0119 L623.4688,504.7306 Z " fill="#000000"/><text fill="#000000" font-family="sans-serif" font-size="14" lengthAdjust="spacing" textLength="77" x="634.5" y="503.9367">Mago_nero</text><line style="stroke:#181818;stroke-width:0.5;" x1="606.5" x2="713.5" y1="515.09" y2="515.09"/><line style="stroke:#181818;stroke-width:0.5;" x1="606.5" x2="713.5" y1="523.09" y2="523.09"/></g><!--class Mostro_Marino--><g id="elem_Mostro_Marino"><rect codeLine="53" fill="#F1F1F1" height="48" id="Mostro_Marino" rx="2.5" ry="2.5" style="stroke:#181818;stroke-width:0.5;" width="133" x="749.5" y="483.09"/><ellipse cx="764.5" cy="499.09" fill="#ADD1B2" rx="11" ry="11" style="stroke:#181818;stroke-width:1.0;"/><path d="M767.4688,504.7306 Q766.8906,505.0275 766.25,505.1681 Q765.6094,505.3244 764.9063,505.3244 Q762.4063,505.3244 761.0781,503.6838 Q759.7656,502.0275 759.7656,498.9025 Q759.7656,495.7775 761.0781,494.1213 Q762.4063,492.465 764.9063,492.465 Q765.6094,492.465 766.25,492.6213 Q766.9063,492.7775 767.4688,493.0744 L767.4688,495.7931 Q766.8438,495.215 766.25,494.9494 Q765.6563,494.6681 765.0313,494.6681 Q763.6875,494.6681 763,495.7463 Q762.3125,496.8088 762.3125,498.9025 Q762.3125,500.9963 763,502.0744 Q763.6875,503.1369 765.0313,503.1369 Q765.6563,503.1369 766.25,502.8713 Q766.8438,502.59 767.4688,502.0119 L767.4688,504.7306 Z " fill="#000000"/><text fill="#000000" font-family="sans-serif" font-size="14" lengthAdjust="spacing" textLength="101" x="778.5" y="503.9367">Mostro_Marino</text><line style="stroke:#181818;stroke-width:0.5;" x1="750.5" x2="881.5" y1="515.09" y2="515.09"/><line style="stroke:#181818;stroke-width:0.5;" x1="750.5" x2="881.5" y1="523.09" y2="523.09"/></g><!--class Coboldo--><g id="elem_Coboldo"><rect codeLine="54" fill="#F1F1F1" height="48" id="Coboldo" rx="2.5" ry="2.5" style="stroke:#181818;stroke-width:0.5;" width="90" x="917" y="483.09"/><ellipse cx="932" cy="499.09" fill="#ADD1B2" rx="11" ry="11" style="stroke:#181818;stroke-width:1.0;"/><path d="M934.9688,504.7306 Q934.3906,505.0275 933.75,505.1681 Q933.1094,505.3244 932.4063,505.3244 Q929.9063,505.3244 928.5781,503.6838 Q927.2656,502.0275 927.2656,498.9025 Q927.2656,495.7775 928.5781,494.1213 Q929.9063,492.465 932.4063,492.465 Q933.1094,492.465 933.75,492.6213 Q934.4063,492.7775 934.9688,493.0744 L934.9688,495.7931 Q934.3438,495.215 933.75,494.9494 Q933.1563,494.6681 932.5313,494.6681 Q931.1875,494.6681 930.5,495.7463 Q929.8125,496.8088 929.8125,498.9025 Q929.8125,500.9963 930.5,502.0744 Q931.1875,503.1369 932.5313,503.1369 Q933.1563,503.1369 933.75,502.8713 Q934.3438,502.59 934.9688,502.0119 L934.9688,504.7306 Z " fill="#000000"/><text fill="#000000" font-family="sans-serif" font-size="14" lengthAdjust="spacing" textLength="58" x="946" y="503.9367">Coboldo</text><line style="stroke:#181818;stroke-width:0.5;" x1="918" x2="1006" y1="515.09" y2="515.09"/><line style="stroke:#181818;stroke-width:0.5;" x1="918" x2="1006" y1="523.09" y2="523.09"/></g><!--class BossDrago--><g id="elem_BossDrago"><rect codeLine="55" fill="#F1F1F1" height="48" id="BossDrago" rx="2.5" ry="2.5" style="stroke:#181818;stroke-width:0.5;" width="109" x="331.5" y="483.09"/><ellipse cx="346.5" cy="499.09" fill="#ADD1B2" rx="11" ry="11" style="stroke:#181818;stroke-width:1.0;"/><path d="M349.4688,504.7306 Q348.8906,505.0275 348.25,505.1681 Q347.6094,505.3244 346.9063,505.3244 Q344.4063,505.3244 343.0781,503.6838 Q341.7656,502.0275 341.7656,498.9025 Q341.7656,495.7775 343.0781,494.1213 Q344.4063,492.465 346.9063,492.465 Q347.6094,492.465 348.25,492.6213 Q348.9063,492.7775 349.4688,493.0744 L349.4688,495.7931 Q348.8438,495.215 348.25,494.9494 Q347.6563,494.6681 347.0313,494.6681 Q345.6875,494.6681 345,495.7463 Q344.3125,496.8088 344.3125,498.9025 Q344.3125,500.9963 345,502.0744 Q345.6875,503.1369 347.0313,503.1369 Q347.6563,503.1369 348.25,502.8713 Q348.8438,502.59 349.4688,502.0119 L349.4688,504.7306 Z " fill="#000000"/><text fill="#000000" font-family="sans-serif" font-size="14" lengthAdjust="spacing" textLength="77" x="360.5" y="503.9367">BossDrago</text><line style="stroke:#181818;stroke-width:0.5;" x1="332.5" x2="439.5" y1="515.09" y2="515.09"/><line style="stroke:#181818;stroke-width:0.5;" x1="332.5" x2="439.5" y1="523.09" y2="523.09"/></g><!--class LoaderMenu--><g id="elem_LoaderMenu"><rect codeLine="75" fill="#F1F1F1" height="80.5938" id="LoaderMenu" rx="2.5" ry="2.5" style="stroke:#181818;stroke-width:0.5;" width="171" x="1663.5" y="466.79"/><ellipse cx="1702.35" cy="482.79" fill="#ADD1B2" rx="11" ry="11" style="stroke:#181818;stroke-width:1.0;"/><path d="M1705.3188,488.4306 Q1704.7406,488.7275 1704.1,488.8681 Q1703.4594,489.0244 1702.7563,489.0244 Q1700.2563,489.0244 1698.9281,487.3838 Q1697.6156,485.7275 1697.6156,482.6025 Q1697.6156,479.4775 1698.9281,477.8213 Q1700.2563,476.165 1702.7563,476.165 Q1703.4594,476.165 1704.1,476.3213 Q1704.7563,476.4775 1705.3188,476.7744 L1705.3188,479.4931 Q1704.6938,478.915 1704.1,478.6494 Q1703.5063,478.3681 1702.8813,478.3681 Q1701.5375,478.3681 1700.85,479.4463 Q1700.1625,480.5088 1700.1625,482.6025 Q1700.1625,484.6963 1700.85,485.7744 Q1701.5375,486.8369 1702.8813,486.8369 Q1703.5063,486.8369 1704.1,486.5713 Q1704.6938,486.29 1705.3188,485.7119 L1705.3188,488.4306 Z " fill="#000000"/><text fill="#000000" font-family="sans-serif" font-size="14" lengthAdjust="spacing" textLength="86" x="1721.65" y="487.6367">LoaderMenu</text><line style="stroke:#181818;stroke-width:0.5;" x1="1664.5" x2="1833.5" y1="498.79" y2="498.79"/><line style="stroke:#181818;stroke-width:0.5;" x1="1664.5" x2="1833.5" y1="506.79" y2="506.79"/><text fill="#000000" font-family="sans-serif" font-size="14" lengthAdjust="spacing" textLength="159" x="1669.5" y="523.7851">LoaderMenu(String file)</text><text fill="#000000" font-family="sans-serif" font-size="14" lengthAdjust="spacing" textLength="120" x="1669.5" y="540.082">Menu getMenu();</text></g><!--class Menu--><g id="elem_Menu"><rect codeLine="81" fill="#F1F1F1" height="80.5938" id="Menu" rx="2.5" ry="2.5" style="stroke:#181818;stroke-width:0.5;" width="489" x="1495.5" y="802.95"/><ellipse cx="1716.25" cy="818.95" fill="#A9DCDF" rx="11" ry="11" style="stroke:#181818;stroke-width:1.0;"/><path d="M1716.3594,814.2938 L1715.2031,819.3719 L1717.5313,819.3719 L1716.3594,814.2938 Z M1714.875,812.0594 L1717.8594,812.0594 L1721.2188,824.45 L1718.7656,824.45 L1718,821.3875 L1714.7188,821.3875 L1713.9688,824.45 L1711.5313,824.45 L1714.875,812.0594 Z " fill="#000000"/><text fill="#000000" font-family="sans-serif" font-size="14" font-style="italic" lengthAdjust="spacing" textLength="39" x="1736.75" y="823.7967">Menu</text><line style="stroke:#181818;stroke-width:0.5;" x1="1496.5" x2="1983.5" y1="834.95" y2="834.95"/><text fill="#000000" font-family="sans-serif" font-size="14" lengthAdjust="spacing" textLength="477" x="1501.5" y="851.9451">Map&lt;String, String&gt; commandMap = new HashMap&lt;String, String&gt;;</text><line style="stroke:#181818;stroke-width:0.5;" x1="1496.5" x2="1983.5" y1="859.2469" y2="859.2469"/><text fill="#000000" font-family="sans-serif" font-size="14" lengthAdjust="spacing" textLength="113" x="1501.5" y="876.242">String toString();</text></g><!--class StartMenu--><g id="elem_StartMenu"><rect codeLine="87" fill="#F1F1F1" height="48" id="StartMenu" rx="2.5" ry="2.5" style="stroke:#181818;stroke-width:0.5;" width="103" x="1793.5" y="114.34"/><ellipse cx="1808.5" cy="130.34" fill="#ADD1B2" rx="11" ry="11" style="stroke:#181818;stroke-width:1.0;"/><path d="M1811.4688,135.9806 Q1810.8906,136.2775 1810.25,136.4181 Q1809.6094,136.5744 1808.9063,136.5744 Q1806.4063,136.5744 1805.0781,134.9338 Q1803.7656,133.2775 1803.7656,130.1525 Q1803.7656,127.0275 1805.0781,125.3713 Q1806.4063,123.715 1808.9063,123.715 Q1809.6094,123.715 1810.25,123.8713 Q1810.9063,124.0275 1811.4688,124.3244 L1811.4688,127.0431 Q1810.8438,126.465 1810.25,126.1994 Q1809.6563,125.9181 1809.0313,125.9181 Q1807.6875,125.9181 1807,126.9963 Q1806.3125,128.0588 1806.3125,130.1525 Q1806.3125,132.2463 1807,133.3244 Q1807.6875,134.3869 1809.0313,134.3869 Q1809.6563,134.3869 1810.25,134.1213 Q1810.8438,133.84 1811.4688,133.2619 L1811.4688,135.9806 Z " fill="#000000"/><text fill="#000000" font-family="sans-serif" font-size="14" lengthAdjust="spacing" textLength="71" x="1822.5" y="135.1867">StartMenu</text><line style="stroke:#181818;stroke-width:0.5;" x1="1794.5" x2="1895.5" y1="146.34" y2="146.34"/><line style="stroke:#181818;stroke-width:0.5;" x1="1794.5" x2="1895.5" y1="154.34" y2="154.34"/></g><!--class BattleMenu--><g id="elem_BattleMenu"><rect codeLine="88" fill="#F1F1F1" height="48" id="BattleMenu" rx="2.5" ry="2.5" style="stroke:#181818;stroke-width:0.5;" width="111" x="1931.5" y="114.34"/><ellipse cx="1946.5" cy="130.34" fill="#ADD1B2" rx="11" ry="11" style="stroke:#181818;stroke-width:1.0;"/><path d="M1949.4688,135.9806 Q1948.8906,136.2775 1948.25,136.4181 Q1947.6094,136.5744 1946.9063,136.5744 Q1944.4063,136.5744 1943.0781,134.9338 Q1941.7656,133.2775 1941.7656,130.1525 Q1941.7656,127.0275 1943.0781,125.3713 Q1944.4063,123.715 1946.9063,123.715 Q1947.6094,123.715 1948.25,123.8713 Q1948.9063,124.0275 1949.4688,124.3244 L1949.4688,127.0431 Q1948.8438,126.465 1948.25,126.1994 Q1947.6563,125.9181 1947.0313,125.9181 Q1945.6875,125.9181 1945,126.9963 Q1944.3125,128.0588 1944.3125,130.1525 Q1944.3125,132.2463 1945,133.3244 Q1945.6875,134.3869 1947.0313,134.3869 Q1947.6563,134.3869 1948.25,134.1213 Q1948.8438,133.84 1949.4688,133.2619 L1949.4688,135.9806 Z " fill="#000000"/><text fill="#000000" font-family="sans-serif" font-size="14" lengthAdjust="spacing" textLength="79" x="1960.5" y="135.1867">BattleMenu</text><line style="stroke:#181818;stroke-width:0.5;" x1="1932.5" x2="2041.5" y1="146.34" y2="146.34"/><line style="stroke:#181818;stroke-width:0.5;" x1="1932.5" x2="2041.5" y1="154.34" y2="154.34"/></g><!--class MovmentMenu--><g id="elem_MovmentMenu"><rect codeLine="89" fill="#F1F1F1" height="48" id="MovmentMenu" rx="2.5" ry="2.5" style="stroke:#181818;stroke-width:0.5;" width="135" x="1493.5" y="114.34"/><ellipse cx="1508.5" cy="130.34" fill="#ADD1B2" rx="11" ry="11" style="stroke:#181818;stroke-width:1.0;"/><path d="M1511.4688,135.9806 Q1510.8906,136.2775 1510.25,136.4181 Q1509.6094,136.5744 1508.9063,136.5744 Q1506.4063,136.5744 1505.0781,134.9338 Q1503.7656,133.2775 1503.7656,130.1525 Q1503.7656,127.0275 1505.0781,125.3713 Q1506.4063,123.715 1508.9063,123.715 Q1509.6094,123.715 1510.25,123.8713 Q1510.9063,124.0275 1511.4688,124.3244 L1511.4688,127.0431 Q1510.8438,126.465 1510.25,126.1994 Q1509.6563,125.9181 1509.0313,125.9181 Q1507.6875,125.9181 1507,126.9963 Q1506.3125,128.0588 1506.3125,130.1525 Q1506.3125,132.2463 1507,133.3244 Q1507.6875,134.3869 1509.0313,134.3869 Q1509.6563,134.3869 1510.25,134.1213 Q1510.8438,133.84 1511.4688,133.2619 L1511.4688,135.9806 Z " fill="#000000"/><text fill="#000000" font-family="sans-serif" font-size="14" lengthAdjust="spacing" textLength="103" x="1522.5" y="135.1867">MovmentMenu</text><line style="stroke:#181818;stroke-width:0.5;" x1="1494.5" x2="1627.5" y1="146.34" y2="146.34"/><line style="stroke:#181818;stroke-width:0.5;" x1="1494.5" x2="1627.5" y1="154.34" y2="154.34"/></g><!--class ExitMenu--><g id="elem_ExitMenu"><rect codeLine="90" fill="#F1F1F1" height="48" id="ExitMenu" rx="2.5" ry="2.5" style="stroke:#181818;stroke-width:0.5;" width="95" x="1663.5" y="114.34"/><ellipse cx="1678.5" cy="130.34" fill="#ADD1B2" rx="11" ry="11" style="stroke:#181818;stroke-width:1.0;"/><path d="M1681.4688,135.9806 Q1680.8906,136.2775 1680.25,136.4181 Q1679.6094,136.5744 1678.9063,136.5744 Q1676.4063,136.5744 1675.0781,134.9338 Q1673.7656,133.2775 1673.7656,130.1525 Q1673.7656,127.0275 1675.0781,125.3713 Q1676.4063,123.715 1678.9063,123.715 Q1679.6094,123.715 1680.25,123.8713 Q1680.9063,124.0275 1681.4688,124.3244 L1681.4688,127.0431 Q1680.8438,126.465 1680.25,126.1994 Q1679.6563,125.9181 1679.0313,125.9181 Q1677.6875,125.9181 1677,126.9963 Q1676.3125,128.0588 1676.3125,130.1525 Q1676.3125,132.2463 1677,133.3244 Q1677.6875,134.3869 1679.0313,134.3869 Q1679.6563,134.3869 1680.25,134.1213 Q1680.8438,133.84 1681.4688,133.2619 L1681.4688,135.9806 Z " fill="#000000"/><text fill="#000000" font-family="sans-serif" font-size="14" lengthAdjust="spacing" textLength="63" x="1692.5" y="135.1867">ExitMenu</text><line style="stroke:#181818;stroke-width:0.5;" x1="1664.5" x2="1757.5" y1="146.34" y2="146.34"/><line style="stroke:#181818;stroke-width:0.5;" x1="1664.5" x2="1757.5" y1="154.34" y2="154.34"/></g><!--class LoaderMap--><g id="elem_LoaderMap"><rect codeLine="106" fill="#F1F1F1" height="80.5938" id="LoaderMap" rx="2.5" ry="2.5" style="stroke:#181818;stroke-width:0.5;" width="166" x="2696" y="98.04"/><ellipse cx="2737.1" cy="114.04" fill="#ADD1B2" rx="11" ry="11" style="stroke:#181818;stroke-width:1.0;"/><path d="M2740.0688,119.6806 Q2739.4906,119.9775 2738.85,120.1181 Q2738.2094,120.2744 2737.5063,120.2744 Q2735.0063,120.2744 2733.6781,118.6337 Q2732.3656,116.9775 2732.3656,113.8525 Q2732.3656,110.7275 2733.6781,109.0712 Q2735.0063,107.415 2737.5063,107.415 Q2738.2094,107.415 2738.85,107.5712 Q2739.5063,107.7275 2740.0688,108.0244 L2740.0688,110.7431 Q2739.4438,110.165 2738.85,109.8994 Q2738.2563,109.6181 2737.6313,109.6181 Q2736.2875,109.6181 2735.6,110.6962 Q2734.9125,111.7587 2734.9125,113.8525 Q2734.9125,115.9462 2735.6,117.0244 Q2736.2875,118.0869 2737.6313,118.0869 Q2738.2563,118.0869 2738.85,117.8212 Q2739.4438,117.54 2740.0688,116.9619 L2740.0688,119.6806 Z " fill="#000000"/><text fill="#000000" font-family="sans-serif" font-size="14" lengthAdjust="spacing" textLength="76" x="2756.9" y="118.8867">LoaderMap</text><line style="stroke:#181818;stroke-width:0.5;" x1="2697" x2="2861" y1="130.04" y2="130.04"/><line style="stroke:#181818;stroke-width:0.5;" x1="2697" x2="2861" y1="138.04" y2="138.04"/><text fill="#000000" font-family="sans-serif" font-size="14" lengthAdjust="spacing" textLength="154" x="2702" y="155.0351">LoaderMap(String file);</text><text fill="#000000" font-family="sans-serif" font-size="14" lengthAdjust="spacing" textLength="128" x="2702" y="171.332">MapGraf getMap();</text></g><!--class Coordinates--><g id="elem_Coordinates"><rect codeLine="111" fill="#F1F1F1" height="129.4844" id="Coordinates" rx="2.5" ry="2.5" style="stroke:#181818;stroke-width:0.5;" width="116" x="2342" y="778.5"/><ellipse cx="2357" cy="794.5" fill="#ADD1B2" rx="11" ry="11" style="stroke:#181818;stroke-width:1.0;"/><path d="M2359.9688,800.1406 Q2359.3906,800.4375 2358.75,800.5781 Q2358.1094,800.7344 2357.4063,800.7344 Q2354.9063,800.7344 2353.5781,799.0938 Q2352.2656,797.4375 2352.2656,794.3125 Q2352.2656,791.1875 2353.5781,789.5313 Q2354.9063,787.875 2357.4063,787.875 Q2358.1094,787.875 2358.75,788.0313 Q2359.4063,788.1875 2359.9688,788.4844 L2359.9688,791.2031 Q2359.3438,790.625 2358.75,790.3594 Q2358.1563,790.0781 2357.5313,790.0781 Q2356.1875,790.0781 2355.5,791.1563 Q2354.8125,792.2188 2354.8125,794.3125 Q2354.8125,796.4063 2355.5,797.4844 Q2356.1875,798.5469 2357.5313,798.5469 Q2358.1563,798.5469 2358.75,798.2813 Q2359.3438,798 2359.9688,797.4219 L2359.9688,800.1406 Z " fill="#000000"/><text fill="#000000" font-family="sans-serif" font-size="14" lengthAdjust="spacing" textLength="84" x="2371" y="799.3467">Coordinates</text><line style="stroke:#181818;stroke-width:0.5;" x1="2343" x2="2457" y1="810.5" y2="810.5"/><text fill="#000000" font-family="sans-serif" font-size="14" lengthAdjust="spacing" textLength="44" x="2348" y="827.4951">int x,y;</text><line style="stroke:#181818;stroke-width:0.5;" x1="2343" x2="2457" y1="834.7969" y2="834.7969"/><text fill="#000000" font-family="sans-serif" font-size="14" lengthAdjust="spacing" textLength="68" x="2348" y="851.792">int getX();</text><text fill="#000000" font-family="sans-serif" font-size="14" lengthAdjust="spacing" textLength="68" x="2348" y="868.0889">int getY();</text><text fill="#000000" font-family="sans-serif" font-size="14" lengthAdjust="spacing" textLength="67" x="2348" y="884.3857">int setX();</text><text fill="#000000" font-family="sans-serif" font-size="14" lengthAdjust="spacing" textLength="67" x="2348" y="900.6826">int setY();</text></g><!--class LoadNode--><g id="elem_LoadNode"><rect codeLine="120" fill="#F1F1F1" height="113.1875" id="LoadNode" rx="2.5" ry="2.5" style="stroke:#181818;stroke-width:0.5;" width="293" x="2305.5" y="450.49"/><ellipse cx="2412.75" cy="466.49" fill="#ADD1B2" rx="11" ry="11" style="stroke:#181818;stroke-width:1.0;"/><path d="M2415.7188,472.1306 Q2415.1406,472.4275 2414.5,472.5681 Q2413.8594,472.7244 2413.1563,472.7244 Q2410.6563,472.7244 2409.3281,471.0838 Q2408.0156,469.4275 2408.0156,466.3025 Q2408.0156,463.1775 2409.3281,461.5213 Q2410.6563,459.865 2413.1563,459.865 Q2413.8594,459.865 2414.5,460.0213 Q2415.1563,460.1775 2415.7188,460.4744 L2415.7188,463.1931 Q2415.0938,462.615 2414.5,462.3494 Q2413.9063,462.0681 2413.2813,462.0681 Q2411.9375,462.0681 2411.25,463.1463 Q2410.5625,464.2088 2410.5625,466.3025 Q2410.5625,468.3963 2411.25,469.4744 Q2411.9375,470.5369 2413.2813,470.5369 Q2413.9063,470.5369 2414.5,470.2713 Q2415.0938,469.99 2415.7188,469.4119 L2415.7188,472.1306 Z " fill="#000000"/><text fill="#000000" font-family="sans-serif" font-size="14" lengthAdjust="spacing" textLength="70" x="2433.25" y="471.3367">LoadNode</text><line style="stroke:#181818;stroke-width:0.5;" x1="2306.5" x2="2597.5" y1="482.49" y2="482.49"/><text fill="#000000" font-family="sans-serif" font-size="14" lengthAdjust="spacing" textLength="281" x="2311.5" y="499.4851">List&lt;node&gt; list = new ArrayList&lt;node&gt;;</text><line style="stroke:#181818;stroke-width:0.5;" x1="2306.5" x2="2597.5" y1="506.7869" y2="506.7869"/><text fill="#000000" font-family="sans-serif" font-size="14" lengthAdjust="spacing" textLength="233" x="2311.5" y="523.782">public LoadNode(String fileName);</text><text fill="#000000" font-family="sans-serif" font-size="14" lengthAdjust="spacing" textLength="4" x="2311.5" y="540.0789">&#160;</text><text fill="#000000" font-family="sans-serif" font-size="14" lengthAdjust="spacing" textLength="227" x="2311.5" y="556.3757">List&lt;node&gt; getListCommands();</text></g><!--class MapGraf--><g id="elem_MapGraf"><rect codeLine="128" fill="#F1F1F1" height="194.6719" id="MapGraf" rx="2.5" ry="2.5" style="stroke:#181818;stroke-width:0.5;" width="377" x="2269.5" y="41"/><ellipse cx="2425.25" cy="57" fill="#ADD1B2" rx="11" ry="11" style="stroke:#181818;stroke-width:1.0;"/><path d="M2428.2188,62.6406 Q2427.6406,62.9375 2427,63.0781 Q2426.3594,63.2344 2425.6563,63.2344 Q2423.1563,63.2344 2421.8281,61.5938 Q2420.5156,59.9375 2420.5156,56.8125 Q2420.5156,53.6875 2421.8281,52.0313 Q2423.1563,50.375 2425.6563,50.375 Q2426.3594,50.375 2427,50.5313 Q2427.6563,50.6875 2428.2188,50.9844 L2428.2188,53.7031 Q2427.5938,53.125 2427,52.8594 Q2426.4063,52.5781 2425.7813,52.5781 Q2424.4375,52.5781 2423.75,53.6563 Q2423.0625,54.7188 2423.0625,56.8125 Q2423.0625,58.9063 2423.75,59.9844 Q2424.4375,61.0469 2425.7813,61.0469 Q2426.4063,61.0469 2427,60.7813 Q2427.5938,60.5 2428.2188,59.9219 L2428.2188,62.6406 Z " fill="#000000"/><text fill="#000000" font-family="sans-serif" font-size="14" lengthAdjust="spacing" textLength="57" x="2445.75" y="61.8467">MapGraf</text><line style="stroke:#181818;stroke-width:0.5;" x1="2270.5" x2="2645.5" y1="73" y2="73"/><text fill="#000000" font-family="sans-serif" font-size="14" lengthAdjust="spacing" textLength="331" x="2275.5" y="89.9951">List&lt;Stanza&gt; stanze = new ArrayList&lt;Stanza&gt;;</text><text fill="#000000" font-family="sans-serif" font-size="14" lengthAdjust="spacing" textLength="329" x="2275.5" y="106.292">/*Questa classe implementa un red-black tree*/</text><text fill="#000000" font-family="sans-serif" font-size="14" lengthAdjust="spacing" textLength="365" x="2275.5" y="122.5889">TreeMap&lt;K,node&gt; nodiTree = new TreeMap&lt;K,V&gt;;</text><line style="stroke:#181818;stroke-width:0.5;" x1="2270.5" x2="2645.5" y1="129.8906" y2="129.8906"/><text fill="#000000" font-family="sans-serif" font-size="14" lengthAdjust="spacing" textLength="126" x="2275.5" y="146.8857">generateStanze();</text><text fill="#000000" font-family="sans-serif" font-size="14" lengthAdjust="spacing" textLength="140" x="2275.5" y="163.1826">generatePercorso();</text><text fill="#000000" font-family="sans-serif" font-size="14" lengthAdjust="spacing" textLength="174" x="2275.5" y="179.4795">listToTree(List&lt;node&gt; l);</text><text fill="#000000" font-family="sans-serif" font-size="14" lengthAdjust="spacing" textLength="363" x="2275.5" y="195.7764">List&lt;node&gt; getPercorsoTo(Nodo start, Stanza end);</text><text fill="#000000" font-family="sans-serif" font-size="14" lengthAdjust="spacing" textLength="277" x="2275.5" y="212.0732">List&lt;Direction&gt; validPositionOf(node n);</text><text fill="#000000" font-family="sans-serif" font-size="14" lengthAdjust="spacing" textLength="236" x="2275.5" y="228.3701">boolean checkpositionOf(node n);</text></g><g id="elem_GMN52"><path d="M2099.5,125.77 L2099.5,150.9028 A0,0 0 0 0 2099.5,150.9028 L2234.5,150.9028 A0,0 0 0 0 2234.5,150.9028 L2234.5,143.77 L2269.34,138.34 L2234.5,135.77 L2234.5,135.77 L2224.5,125.77 L2099.5,125.77 A0,0 0 0 0 2099.5,125.77 " fill="#FEFFDD" style="stroke:#181818;stroke-width:0.5;"/><path d="M2224.5,125.77 L2224.5,135.77 L2234.5,135.77 L2224.5,125.77 " fill="#FEFFDD" style="stroke:#181818;stroke-width:0.5;"/><text fill="#000000" font-family="sans-serif" font-size="13" lengthAdjust="spacing" textLength="114" x="2105.5" y="142.8369">"Classe di facade"</text></g><!--class Direction--><g id="elem_Direction"><rect codeLine="145" fill="#F1F1F1" height="113.1875" id="Direction" rx="2.5" ry="2.5" style="stroke:#181818;stroke-width:0.5;" width="94" x="2708" y="786.65"/><ellipse cx="2723" cy="802.65" fill="#EB937F" rx="11" ry="11" style="stroke:#181818;stroke-width:1.0;"/><path d="M2727.1094,808.65 L2719.3906,808.65 L2719.3906,796.2594 L2727.1094,796.2594 L2727.1094,798.4156 L2721.8438,798.4156 L2721.8438,801.0875 L2726.6094,801.0875 L2726.6094,803.2438 L2721.8438,803.2438 L2721.8438,806.4938 L2727.1094,806.4938 L2727.1094,808.65 Z " fill="#000000"/><text fill="#000000" font-family="sans-serif" font-size="14" lengthAdjust="spacing" textLength="62" x="2737" y="807.4967">Direction</text><line style="stroke:#181818;stroke-width:0.5;" x1="2709" x2="2801" y1="818.65" y2="818.65"/><text fill="#000000" font-family="sans-serif" font-size="14" lengthAdjust="spacing" textLength="42" x="2714" y="835.6451">NORD</text><text fill="#000000" font-family="sans-serif" font-size="14" lengthAdjust="spacing" textLength="40" x="2714" y="851.942">WEST</text><text fill="#000000" font-family="sans-serif" font-size="14" lengthAdjust="spacing" textLength="47" x="2714" y="868.2389">OVEST</text><text fill="#000000" font-family="sans-serif" font-size="14" lengthAdjust="spacing" textLength="49" x="2714" y="884.5357">SOUTH</text><line style="stroke:#181818;stroke-width:0.5;" x1="2709" x2="2801" y1="891.8375" y2="891.8375"/></g><!--class node--><g id="elem_node"><rect codeLine="152" fill="#F1F1F1" height="129.4844" id="node" rx="2.5" ry="2.5" style="stroke:#181818;stroke-width:0.5;" width="244" x="2633" y="442.35"/><ellipse cx="2732.75" cy="458.35" fill="#ADD1B2" rx="11" ry="11" style="stroke:#181818;stroke-width:1.0;"/><path d="M2735.7188,463.9906 Q2735.1406,464.2875 2734.5,464.4281 Q2733.8594,464.5844 2733.1563,464.5844 Q2730.6563,464.5844 2729.3281,462.9438 Q2728.0156,461.2875 2728.0156,458.1625 Q2728.0156,455.0375 2729.3281,453.3813 Q2730.6563,451.725 2733.1563,451.725 Q2733.8594,451.725 2734.5,451.8813 Q2735.1563,452.0375 2735.7188,452.3344 L2735.7188,455.0531 Q2735.0938,454.475 2734.5,454.2094 Q2733.9063,453.9281 2733.2813,453.9281 Q2731.9375,453.9281 2731.25,455.0063 Q2730.5625,456.0688 2730.5625,458.1625 Q2730.5625,460.2563 2731.25,461.3344 Q2731.9375,462.3969 2733.2813,462.3969 Q2733.9063,462.3969 2734.5,462.1313 Q2735.0938,461.85 2735.7188,461.2719 L2735.7188,463.9906 Z " fill="#000000"/><text fill="#000000" font-family="sans-serif" font-size="14" lengthAdjust="spacing" textLength="36" x="2753.25" y="463.1967">node</text><line style="stroke:#181818;stroke-width:0.5;" x1="2634" x2="2876" y1="474.35" y2="474.35"/><text fill="#000000" font-family="sans-serif" font-size="14" lengthAdjust="spacing" textLength="124" x="2639" y="491.3451">Coordinates cord;</text><text fill="#000000" font-family="sans-serif" font-size="14" lengthAdjust="spacing" textLength="232" x="2639" y="507.642">Direction[] dir = new Direction[4];</text><line style="stroke:#181818;stroke-width:0.5;" x1="2634" x2="2876" y1="514.9438" y2="514.9438"/><text fill="#000000" font-family="sans-serif" font-size="14" lengthAdjust="spacing" textLength="184" x="2639" y="531.9389">setDirection(Direction[] d);</text><text fill="#000000" font-family="sans-serif" font-size="14" lengthAdjust="spacing" textLength="178" x="2639" y="548.2357">addDirection(Direction d);</text><text fill="#000000" font-family="sans-serif" font-size="14" lengthAdjust="spacing" textLength="176" x="2639" y="564.5326">Direction[] getDirection();</text></g><!--class Stanza--><g id="elem_Stanza"><rect codeLine="161" fill="#F1F1F1" height="162.0781" id="Stanza" rx="2.5" ry="2.5" style="stroke:#181818;stroke-width:0.5;" width="171" x="2099.5" y="426.05"/><ellipse cx="2157.25" cy="442.05" fill="#ADD1B2" rx="11" ry="11" style="stroke:#181818;stroke-width:1.0;"/><path d="M2160.2188,447.6906 Q2159.6406,447.9875 2159,448.1281 Q2158.3594,448.2844 2157.6563,448.2844 Q2155.1563,448.2844 2153.8281,446.6438 Q2152.5156,444.9875 2152.5156,441.8625 Q2152.5156,438.7375 2153.8281,437.0813 Q2155.1563,435.425 2157.6563,435.425 Q2158.3594,435.425 2159,435.5813 Q2159.6563,435.7375 2160.2188,436.0344 L2160.2188,438.7531 Q2159.5938,438.175 2159,437.9094 Q2158.4063,437.6281 2157.7813,437.6281 Q2156.4375,437.6281 2155.75,438.7063 Q2155.0625,439.7688 2155.0625,441.8625 Q2155.0625,443.9563 2155.75,445.0344 Q2156.4375,446.0969 2157.7813,446.0969 Q2158.4063,446.0969 2159,445.8313 Q2159.5938,445.55 2160.2188,444.9719 L2160.2188,447.6906 Z " fill="#000000"/><text fill="#000000" font-family="sans-serif" font-size="14" lengthAdjust="spacing" textLength="47" x="2177.75" y="446.8967">Stanza</text><line style="stroke:#181818;stroke-width:0.5;" x1="2100.5" x2="2269.5" y1="458.05" y2="458.05"/><text fill="#000000" font-family="sans-serif" font-size="14" lengthAdjust="spacing" textLength="124" x="2105.5" y="475.0451">Coordinates cord;</text><text fill="#000000" font-family="sans-serif" font-size="14" lengthAdjust="spacing" textLength="115" x="2105.5" y="491.342">Monster mostro;</text><text fill="#000000" font-family="sans-serif" font-size="14" lengthAdjust="spacing" textLength="88" x="2105.5" y="507.6389">Chest baule;</text><line style="stroke:#181818;stroke-width:0.5;" x1="2100.5" x2="2269.5" y1="514.9406" y2="514.9406"/><text fill="#000000" font-family="sans-serif" font-size="14" lengthAdjust="spacing" textLength="134" x="2105.5" y="531.9357">setCord(int x, int y);</text><text fill="#000000" font-family="sans-serif" font-size="14" lengthAdjust="spacing" textLength="159" x="2105.5" y="548.2326">Coordinates getCord();</text><text fill="#000000" font-family="sans-serif" font-size="14" lengthAdjust="spacing" textLength="147" x="2105.5" y="564.5295">Monster getMostro();</text><text fill="#000000" font-family="sans-serif" font-size="14" lengthAdjust="spacing" textLength="124" x="2105.5" y="580.8264">Chest getChest();</text></g><!--class Promt--><g id="elem_Promt"><rect codeLine="184" fill="#F1F1F1" height="162.0781" id="Promt" rx="2.5" ry="2.5" style="stroke:#181818;stroke-width:0.5;" width="510" x="4887" y="57.3"/><ellipse cx="5117.25" cy="73.3" fill="#ADD1B2" rx="11" ry="11" style="stroke:#181818;stroke-width:1.0;"/><path d="M5120.2188,78.9406 Q5119.6406,79.2375 5119,79.3781 Q5118.3594,79.5344 5117.6563,79.5344 Q5115.1563,79.5344 5113.8281,77.8937 Q5112.5156,76.2375 5112.5156,73.1125 Q5112.5156,69.9875 5113.8281,68.3312 Q5115.1563,66.675 5117.6563,66.675 Q5118.3594,66.675 5119,66.8312 Q5119.6563,66.9875 5120.2188,67.2844 L5120.2188,70.0031 Q5119.5938,69.425 5119,69.1594 Q5118.4063,68.8781 5117.7813,68.8781 Q5116.4375,68.8781 5115.75,69.9562 Q5115.0625,71.0187 5115.0625,73.1125 Q5115.0625,75.2062 5115.75,76.2844 Q5116.4375,77.3469 5117.7813,77.3469 Q5118.4063,77.3469 5119,77.0812 Q5119.5938,76.8 5120.2188,76.2219 L5120.2188,78.9406 Z " fill="#000000"/><text fill="#000000" font-family="sans-serif" font-size="14" lengthAdjust="spacing" textLength="41" x="5137.75" y="78.1467">Promt</text><line style="stroke:#181818;stroke-width:0.5;" x1="4888" x2="5396" y1="89.3" y2="89.3"/><text fill="#000000" font-family="sans-serif" font-size="14" lengthAdjust="spacing" textLength="123" x="4893" y="106.2951">Command cmmd;</text><text fill="#000000" font-family="sans-serif" font-size="14" lengthAdjust="spacing" textLength="498" x="4893" y="122.592">HashMap&lt;String,Command&gt; map = new HashMap&lt;String,Command&gt;;</text><line style="stroke:#181818;stroke-width:0.5;" x1="4888" x2="5396" y1="129.8937" y2="129.8937"/><text fill="#000000" font-family="sans-serif" font-size="14" lengthAdjust="spacing" textLength="271" x="4893" y="146.8889">private changeCommand(Command c);</text><text fill="#000000" font-family="sans-serif" font-size="14" lengthAdjust="spacing" textLength="4" x="4893" y="163.1857">&#160;</text><text fill="#000000" font-family="sans-serif" font-size="14" lengthAdjust="spacing" textLength="158" x="4893" y="179.4826">Promt(GameEngine g);</text><text fill="#000000" font-family="sans-serif" font-size="14" lengthAdjust="spacing" textLength="150" x="4893" y="195.7795">InputType waitInput();</text><text fill="#000000" font-family="sans-serif" font-size="14" lengthAdjust="spacing" textLength="121" x="4893" y="212.0764">File getOldSave();</text></g><!--class StartCommand--><g id="elem_StartCommand"><rect codeLine="195" fill="#F1F1F1" height="64.2969" id="StartCommand" rx="2.5" ry="2.5" style="stroke:#181818;stroke-width:0.5;" width="135" x="5644.5" y="106.19"/><ellipse cx="5659.5" cy="122.19" fill="#ADD1B2" rx="11" ry="11" style="stroke:#181818;stroke-width:1.0;"/><path d="M5662.4688,127.8306 Q5661.8906,128.1275 5661.25,128.2681 Q5660.6094,128.4244 5659.9063,128.4244 Q5657.4063,128.4244 5656.0781,126.7838 Q5654.7656,125.1275 5654.7656,122.0025 Q5654.7656,118.8775 5656.0781,117.2213 Q5657.4063,115.565 5659.9063,115.565 Q5660.6094,115.565 5661.25,115.7213 Q5661.9063,115.8775 5662.4688,116.1744 L5662.4688,118.8931 Q5661.8438,118.315 5661.25,118.0494 Q5660.6563,117.7681 5660.0313,117.7681 Q5658.6875,117.7681 5658,118.8463 Q5657.3125,119.9088 5657.3125,122.0025 Q5657.3125,124.0963 5658,125.1744 Q5658.6875,126.2369 5660.0313,126.2369 Q5660.6563,126.2369 5661.25,125.9713 Q5661.8438,125.69 5662.4688,125.1119 L5662.4688,127.8306 Z " fill="#000000"/><text fill="#000000" font-family="sans-serif" font-size="14" lengthAdjust="spacing" textLength="103" x="5673.5" y="127.0367">StartCommand</text><line style="stroke:#181818;stroke-width:0.5;" x1="5645.5" x2="5778.5" y1="138.19" y2="138.19"/><line style="stroke:#181818;stroke-width:0.5;" x1="5645.5" x2="5778.5" y1="146.19" y2="146.19"/><text fill="#000000" font-family="sans-serif" font-size="14" lengthAdjust="spacing" textLength="71" x="5650.5" y="163.1851">execute();</text></g><!--class ExitCommand--><g id="elem_ExitCommand"><rect codeLine="198" fill="#F1F1F1" height="64.2969" id="ExitCommand" rx="2.5" ry="2.5" style="stroke:#181818;stroke-width:0.5;" width="127" x="6050.5" y="106.19"/><ellipse cx="6065.5" cy="122.19" fill="#ADD1B2" rx="11" ry="11" style="stroke:#181818;stroke-width:1.0;"/><path d="M6068.4688,127.8306 Q6067.8906,128.1275 6067.25,128.2681 Q6066.6094,128.4244 6065.9063,128.4244 Q6063.4063,128.4244 6062.0781,126.7838 Q6060.7656,125.1275 6060.7656,122.0025 Q6060.7656,118.8775 6062.0781,117.2213 Q6063.4063,115.565 6065.9063,115.565 Q6066.6094,115.565 6067.25,115.7213 Q6067.9063,115.8775 6068.4688,116.1744 L6068.4688,118.8931 Q6067.8438,118.315 6067.25,118.0494 Q6066.6563,117.7681 6066.0313,117.7681 Q6064.6875,117.7681 6064,118.8463 Q6063.3125,119.9088 6063.3125,122.0025 Q6063.3125,124.0963 6064,125.1744 Q6064.6875,126.2369 6066.0313,126.2369 Q6066.6563,126.2369 6067.25,125.9713 Q6067.8438,125.69 6068.4688,125.1119 L6068.4688,127.8306 Z " fill="#000000"/><text fill="#000000" font-family="sans-serif" font-size="14" lengthAdjust="spacing" textLength="95" x="6079.5" y="127.0367">ExitCommand</text><line style="stroke:#181818;stroke-width:0.5;" x1="6051.5" x2="6176.5" y1="138.19" y2="138.19"/><line style="stroke:#181818;stroke-width:0.5;" x1="6051.5" x2="6176.5" y1="146.19" y2="146.19"/><text fill="#000000" font-family="sans-serif" font-size="14" lengthAdjust="spacing" textLength="71" x="6056.5" y="163.1851">execute();</text></g><!--class LookCommand--><g id="elem_LookCommand"><rect codeLine="201" fill="#F1F1F1" height="64.2969" id="LookCommand" rx="2.5" ry="2.5" style="stroke:#181818;stroke-width:0.5;" width="136" x="6213" y="106.19"/><ellipse cx="6228" cy="122.19" fill="#ADD1B2" rx="11" ry="11" style="stroke:#181818;stroke-width:1.0;"/><path d="M6230.9688,127.8306 Q6230.3906,128.1275 6229.75,128.2681 Q6229.1094,128.4244 6228.4063,128.4244 Q6225.9063,128.4244 6224.5781,126.7838 Q6223.2656,125.1275 6223.2656,122.0025 Q6223.2656,118.8775 6224.5781,117.2213 Q6225.9063,115.565 6228.4063,115.565 Q6229.1094,115.565 6229.75,115.7213 Q6230.4063,115.8775 6230.9688,116.1744 L6230.9688,118.8931 Q6230.3438,118.315 6229.75,118.0494 Q6229.1563,117.7681 6228.5313,117.7681 Q6227.1875,117.7681 6226.5,118.8463 Q6225.8125,119.9088 6225.8125,122.0025 Q6225.8125,124.0963 6226.5,125.1744 Q6227.1875,126.2369 6228.5313,126.2369 Q6229.1563,126.2369 6229.75,125.9713 Q6230.3438,125.69 6230.9688,125.1119 L6230.9688,127.8306 Z " fill="#000000"/><text fill="#000000" font-family="sans-serif" font-size="14" lengthAdjust="spacing" textLength="104" x="6242" y="127.0367">LookCommand</text><line style="stroke:#181818;stroke-width:0.5;" x1="6214" x2="6348" y1="138.19" y2="138.19"/><line style="stroke:#181818;stroke-width:0.5;" x1="6214" x2="6348" y1="146.19" y2="146.19"/><text fill="#000000" font-family="sans-serif" font-size="14" lengthAdjust="spacing" textLength="71" x="6219" y="163.1851">execute();</text></g><!--class AttackCommand--><g id="elem_AttackCommand"><rect codeLine="204" fill="#F1F1F1" height="64.2969" id="AttackCommand" rx="2.5" ry="2.5" style="stroke:#181818;stroke-width:0.5;" width="146" x="3630" y="106.19"/><ellipse cx="3645" cy="122.19" fill="#ADD1B2" rx="11" ry="11" style="stroke:#181818;stroke-width:1.0;"/><path d="M3647.9688,127.8306 Q3647.3906,128.1275 3646.75,128.2681 Q3646.1094,128.4244 3645.4063,128.4244 Q3642.9063,128.4244 3641.5781,126.7838 Q3640.2656,125.1275 3640.2656,122.0025 Q3640.2656,118.8775 3641.5781,117.2213 Q3642.9063,115.565 3645.4063,115.565 Q3646.1094,115.565 3646.75,115.7213 Q3647.4063,115.8775 3647.9688,116.1744 L3647.9688,118.8931 Q3647.3438,118.315 3646.75,118.0494 Q3646.1563,117.7681 3645.5313,117.7681 Q3644.1875,117.7681 3643.5,118.8463 Q3642.8125,119.9088 3642.8125,122.0025 Q3642.8125,124.0963 3643.5,125.1744 Q3644.1875,126.2369 3645.5313,126.2369 Q3646.1563,126.2369 3646.75,125.9713 Q3647.3438,125.69 3647.9688,125.1119 L3647.9688,127.8306 Z " fill="#000000"/><text fill="#000000" font-family="sans-serif" font-size="14" lengthAdjust="spacing" textLength="114" x="3659" y="127.0367">AttackCommand</text><line style="stroke:#181818;stroke-width:0.5;" x1="3631" x2="3775" y1="138.19" y2="138.19"/><line style="stroke:#181818;stroke-width:0.5;" x1="3631" x2="3775" y1="146.19" y2="146.19"/><text fill="#000000" font-family="sans-serif" font-size="14" lengthAdjust="spacing" textLength="71" x="3636" y="163.1851">execute();</text></g><!--class MoveBackCommand--><g id="elem_MoveBackCommand"><rect codeLine="207" fill="#F1F1F1" height="64.2969" id="MoveBackCommand" rx="2.5" ry="2.5" style="stroke:#181818;stroke-width:0.5;" width="174" x="3811" y="106.19"/><ellipse cx="3826" cy="122.19" fill="#ADD1B2" rx="11" ry="11" style="stroke:#181818;stroke-width:1.0;"/><path d="M3828.9688,127.8306 Q3828.3906,128.1275 3827.75,128.2681 Q3827.1094,128.4244 3826.4063,128.4244 Q3823.9063,128.4244 3822.5781,126.7838 Q3821.2656,125.1275 3821.2656,122.0025 Q3821.2656,118.8775 3822.5781,117.2213 Q3823.9063,115.565 3826.4063,115.565 Q3827.1094,115.565 3827.75,115.7213 Q3828.4063,115.8775 3828.9688,116.1744 L3828.9688,118.8931 Q3828.3438,118.315 3827.75,118.0494 Q3827.1563,117.7681 3826.5313,117.7681 Q3825.1875,117.7681 3824.5,118.8463 Q3823.8125,119.9088 3823.8125,122.0025 Q3823.8125,124.0963 3824.5,125.1744 Q3825.1875,126.2369 3826.5313,126.2369 Q3827.1563,126.2369 3827.75,125.9713 Q3828.3438,125.69 3828.9688,125.1119 L3828.9688,127.8306 Z " fill="#000000"/><text fill="#000000" font-family="sans-serif" font-size="14" lengthAdjust="spacing" textLength="142" x="3840" y="127.0367">MoveBackCommand</text><line style="stroke:#181818;stroke-width:0.5;" x1="3812" x2="3984" y1="138.19" y2="138.19"/><line style="stroke:#181818;stroke-width:0.5;" x1="3812" x2="3984" y1="146.19" y2="146.19"/><text fill="#000000" font-family="sans-serif" font-size="14" lengthAdjust="spacing" textLength="71" x="3817" y="163.1851">execute();</text></g><!--class MovePlayerCommand--><g id="elem_MovePlayerCommand"><rect codeLine="210" fill="#F1F1F1" height="64.2969" id="MovePlayerCommand" rx="2.5" ry="2.5" style="stroke:#181818;stroke-width:0.5;" width="181" x="4020.5" y="106.19"/><ellipse cx="4035.5" cy="122.19" fill="#ADD1B2" rx="11" ry="11" style="stroke:#181818;stroke-width:1.0;"/><path d="M4038.4688,127.8306 Q4037.8906,128.1275 4037.25,128.2681 Q4036.6094,128.4244 4035.9063,128.4244 Q4033.4063,128.4244 4032.0781,126.7838 Q4030.7656,125.1275 4030.7656,122.0025 Q4030.7656,118.8775 4032.0781,117.2213 Q4033.4063,115.565 4035.9063,115.565 Q4036.6094,115.565 4037.25,115.7213 Q4037.9063,115.8775 4038.4688,116.1744 L4038.4688,118.8931 Q4037.8438,118.315 4037.25,118.0494 Q4036.6563,117.7681 4036.0313,117.7681 Q4034.6875,117.7681 4034,118.8463 Q4033.3125,119.9088 4033.3125,122.0025 Q4033.3125,124.0963 4034,125.1744 Q4034.6875,126.2369 4036.0313,126.2369 Q4036.6563,126.2369 4037.25,125.9713 Q4037.8438,125.69 4038.4688,125.1119 L4038.4688,127.8306 Z " fill="#000000"/><text fill="#000000" font-family="sans-serif" font-size="14" lengthAdjust="spacing" textLength="149" x="4049.5" y="127.0367">MovePlayerCommand</text><line style="stroke:#181818;stroke-width:0.5;" x1="4021.5" x2="4200.5" y1="138.19" y2="138.19"/><line style="stroke:#181818;stroke-width:0.5;" x1="4021.5" x2="4200.5" y1="146.19" y2="146.19"/><text fill="#000000" font-family="sans-serif" font-size="14" lengthAdjust="spacing" textLength="71" x="4026.5" y="163.1851">execute();</text></g><!--class PlayerTakeCommand--><g id="elem_PlayerTakeCommand"><rect codeLine="213" fill="#F1F1F1" height="64.2969" id="PlayerTakeCommand" rx="2.5" ry="2.5" style="stroke:#181818;stroke-width:0.5;" width="178" x="5432" y="106.19"/><ellipse cx="5447" cy="122.19" fill="#ADD1B2" rx="11" ry="11" style="stroke:#181818;stroke-width:1.0;"/><path d="M5449.9688,127.8306 Q5449.3906,128.1275 5448.75,128.2681 Q5448.1094,128.4244 5447.4063,128.4244 Q5444.9063,128.4244 5443.5781,126.7838 Q5442.2656,125.1275 5442.2656,122.0025 Q5442.2656,118.8775 5443.5781,117.2213 Q5444.9063,115.565 5447.4063,115.565 Q5448.1094,115.565 5448.75,115.7213 Q5449.4063,115.8775 5449.9688,116.1744 L5449.9688,118.8931 Q5449.3438,118.315 5448.75,118.0494 Q5448.1563,117.7681 5447.5313,117.7681 Q5446.1875,117.7681 5445.5,118.8463 Q5444.8125,119.9088 5444.8125,122.0025 Q5444.8125,124.0963 5445.5,125.1744 Q5446.1875,126.2369 5447.5313,126.2369 Q5448.1563,126.2369 5448.75,125.9713 Q5449.3438,125.69 5449.9688,125.1119 L5449.9688,127.8306 Z " fill="#000000"/><text fill="#000000" font-family="sans-serif" font-size="14" lengthAdjust="spacing" textLength="146" x="5461" y="127.0367">PlayerTakeCommand</text><line style="stroke:#181818;stroke-width:0.5;" x1="5433" x2="5609" y1="138.19" y2="138.19"/><line style="stroke:#181818;stroke-width:0.5;" x1="5433" x2="5609" y1="146.19" y2="146.19"/><text fill="#000000" font-family="sans-serif" font-size="14" lengthAdjust="spacing" textLength="71" x="5438" y="163.1851">execute();</text></g><!--class PlayerUseCommand--><g id="elem_PlayerUseCommand"><rect codeLine="216" fill="#F1F1F1" height="64.2969" id="PlayerUseCommand" rx="2.5" ry="2.5" style="stroke:#181818;stroke-width:0.5;" width="171" x="4236.5" y="106.19"/><ellipse cx="4251.5" cy="122.19" fill="#ADD1B2" rx="11" ry="11" style="stroke:#181818;stroke-width:1.0;"/><path d="M4254.4688,127.8306 Q4253.8906,128.1275 4253.25,128.2681 Q4252.6094,128.4244 4251.9063,128.4244 Q4249.4063,128.4244 4248.0781,126.7838 Q4246.7656,125.1275 4246.7656,122.0025 Q4246.7656,118.8775 4248.0781,117.2213 Q4249.4063,115.565 4251.9063,115.565 Q4252.6094,115.565 4253.25,115.7213 Q4253.9063,115.8775 4254.4688,116.1744 L4254.4688,118.8931 Q4253.8438,118.315 4253.25,118.0494 Q4252.6563,117.7681 4252.0313,117.7681 Q4250.6875,117.7681 4250,118.8463 Q4249.3125,119.9088 4249.3125,122.0025 Q4249.3125,124.0963 4250,125.1744 Q4250.6875,126.2369 4252.0313,126.2369 Q4252.6563,126.2369 4253.25,125.9713 Q4253.8438,125.69 4254.4688,125.1119 L4254.4688,127.8306 Z " fill="#000000"/><text fill="#000000" font-family="sans-serif" font-size="14" lengthAdjust="spacing" textLength="139" x="4265.5" y="127.0367">PlayerUseCommand</text><line style="stroke:#181818;stroke-width:0.5;" x1="4237.5" x2="4406.5" y1="138.19" y2="138.19"/><line style="stroke:#181818;stroke-width:0.5;" x1="4237.5" x2="4406.5" y1="146.19" y2="146.19"/><text fill="#000000" font-family="sans-serif" font-size="14" lengthAdjust="spacing" textLength="71" x="4242.5" y="163.1851">execute();</text></g><!--class PlayerRemoveCommand--><g id="elem_PlayerRemoveCommand"><rect codeLine="219" fill="#F1F1F1" height="64.2969" id="PlayerRemoveCommand" rx="2.5" ry="2.5" style="stroke:#181818;stroke-width:0.5;" width="201" x="5814.5" y="106.19"/><ellipse cx="5829.5" cy="122.19" fill="#ADD1B2" rx="11" ry="11" style="stroke:#181818;stroke-width:1.0;"/><path d="M5832.4688,127.8306 Q5831.8906,128.1275 5831.25,128.2681 Q5830.6094,128.4244 5829.9063,128.4244 Q5827.4063,128.4244 5826.0781,126.7838 Q5824.7656,125.1275 5824.7656,122.0025 Q5824.7656,118.8775 5826.0781,117.2213 Q5827.4063,115.565 5829.9063,115.565 Q5830.6094,115.565 5831.25,115.7213 Q5831.9063,115.8775 5832.4688,116.1744 L5832.4688,118.8931 Q5831.8438,118.315 5831.25,118.0494 Q5830.6563,117.7681 5830.0313,117.7681 Q5828.6875,117.7681 5828,118.8463 Q5827.3125,119.9088 5827.3125,122.0025 Q5827.3125,124.0963 5828,125.1744 Q5828.6875,126.2369 5830.0313,126.2369 Q5830.6563,126.2369 5831.25,125.9713 Q5831.8438,125.69 5832.4688,125.1119 L5832.4688,127.8306 Z " fill="#000000"/><text fill="#000000" font-family="sans-serif" font-size="14" lengthAdjust="spacing" textLength="169" x="5843.5" y="127.0367">PlayerRemoveCommand</text><line style="stroke:#181818;stroke-width:0.5;" x1="5815.5" x2="6014.5" y1="138.19" y2="138.19"/><line style="stroke:#181818;stroke-width:0.5;" x1="5815.5" x2="6014.5" y1="146.19" y2="146.19"/><text fill="#000000" font-family="sans-serif" font-size="14" lengthAdjust="spacing" textLength="71" x="5820.5" y="163.1851">execute();</text></g><!--class PlayerRemoveStackCommand--><g id="elem_PlayerRemoveStackCommand"><rect codeLine="222" fill="#F1F1F1" height="64.2969" id="PlayerRemoveStackCommand" rx="2.5" ry="2.5" style="stroke:#181818;stroke-width:0.5;" width="239" x="4442.5" y="106.19"/><ellipse cx="4457.5" cy="122.19" fill="#ADD1B2" rx="11" ry="11" style="stroke:#181818;stroke-width:1.0;"/><path d="M4460.4688,127.8306 Q4459.8906,128.1275 4459.25,128.2681 Q4458.6094,128.4244 4457.9063,128.4244 Q4455.4063,128.4244 4454.0781,126.7838 Q4452.7656,125.1275 4452.7656,122.0025 Q4452.7656,118.8775 4454.0781,117.2213 Q4455.4063,115.565 4457.9063,115.565 Q4458.6094,115.565 4459.25,115.7213 Q4459.9063,115.8775 4460.4688,116.1744 L4460.4688,118.8931 Q4459.8438,118.315 4459.25,118.0494 Q4458.6563,117.7681 4458.0313,117.7681 Q4456.6875,117.7681 4456,118.8463 Q4455.3125,119.9088 4455.3125,122.0025 Q4455.3125,124.0963 4456,125.1744 Q4456.6875,126.2369 4458.0313,126.2369 Q4458.6563,126.2369 4459.25,125.9713 Q4459.8438,125.69 4460.4688,125.1119 L4460.4688,127.8306 Z " fill="#000000"/><text fill="#000000" font-family="sans-serif" font-size="14" lengthAdjust="spacing" textLength="207" x="4471.5" y="127.0367">PlayerRemoveStackCommand</text><line style="stroke:#181818;stroke-width:0.5;" x1="4443.5" x2="4680.5" y1="138.19" y2="138.19"/><line style="stroke:#181818;stroke-width:0.5;" x1="4443.5" x2="4680.5" y1="146.19" y2="146.19"/><text fill="#000000" font-family="sans-serif" font-size="14" lengthAdjust="spacing" textLength="71" x="4448.5" y="163.1851">execute();</text></g><!--class LoadCommand--><g id="elem_LoadCommand"><rect codeLine="225" fill="#F1F1F1" height="64.2969" id="LoadCommand" rx="2.5" ry="2.5" style="stroke:#181818;stroke-width:0.5;" width="136" x="4716" y="106.19"/><ellipse cx="4731" cy="122.19" fill="#ADD1B2" rx="11" ry="11" style="stroke:#181818;stroke-width:1.0;"/><path d="M4733.9688,127.8306 Q4733.3906,128.1275 4732.75,128.2681 Q4732.1094,128.4244 4731.4063,128.4244 Q4728.9063,128.4244 4727.5781,126.7838 Q4726.2656,125.1275 4726.2656,122.0025 Q4726.2656,118.8775 4727.5781,117.2213 Q4728.9063,115.565 4731.4063,115.565 Q4732.1094,115.565 4732.75,115.7213 Q4733.4063,115.8775 4733.9688,116.1744 L4733.9688,118.8931 Q4733.3438,118.315 4732.75,118.0494 Q4732.1563,117.7681 4731.5313,117.7681 Q4730.1875,117.7681 4729.5,118.8463 Q4728.8125,119.9088 4728.8125,122.0025 Q4728.8125,124.0963 4729.5,125.1744 Q4730.1875,126.2369 4731.5313,126.2369 Q4732.1563,126.2369 4732.75,125.9713 Q4733.3438,125.69 4733.9688,125.1119 L4733.9688,127.8306 Z " fill="#000000"/><text fill="#000000" font-family="sans-serif" font-size="14" lengthAdjust="spacing" textLength="104" x="4745" y="127.0367">LoadCommand</text><line style="stroke:#181818;stroke-width:0.5;" x1="4717" x2="4851" y1="138.19" y2="138.19"/><line style="stroke:#181818;stroke-width:0.5;" x1="4717" x2="4851" y1="146.19" y2="146.19"/><text fill="#000000" font-family="sans-serif" font-size="14" lengthAdjust="spacing" textLength="71" x="4722" y="163.1851">execute();</text></g><!--class Command--><g id="elem_Command"><rect codeLine="229" fill="#F1F1F1" height="64.2969" id="Command" rx="2.5" ry="2.5" style="stroke:#181818;stroke-width:0.5;" width="103" x="4621.5" y="474.94"/><ellipse cx="4636.5" cy="490.94" fill="#B4A7E5" rx="11" ry="11" style="stroke:#181818;stroke-width:1.0;"/><path d="M4632.4219,486.7056 L4632.4219,484.5494 L4639.8125,484.5494 L4639.8125,486.7056 L4637.3438,486.7056 L4637.3438,494.7838 L4639.8125,494.7838 L4639.8125,496.94 L4632.4219,496.94 L4632.4219,494.7838 L4634.8906,494.7838 L4634.8906,486.7056 L4632.4219,486.7056 Z " fill="#000000"/><text fill="#000000" font-family="sans-serif" font-size="14" font-style="italic" lengthAdjust="spacing" textLength="71" x="4650.5" y="495.7867">Command</text><line style="stroke:#181818;stroke-width:0.5;" x1="4622.5" x2="4723.5" y1="506.94" y2="506.94"/><line style="stroke:#181818;stroke-width:0.5;" x1="4622.5" x2="4723.5" y1="514.94" y2="514.94"/><text fill="#000000" font-family="sans-serif" font-size="14" lengthAdjust="spacing" textLength="71" x="4627.5" y="531.9351">execute();</text></g><!--class GameEngine--><g id="elem_GameEngine"><rect codeLine="247" fill="#F1F1F1" height="422.8281" id="GameEngine" rx="2.5" ry="2.5" style="stroke:#181818;stroke-width:0.5;" width="277" x="2932.5" y="295.67"/><ellipse cx="3022.25" cy="311.67" fill="#ADD1B2" rx="11" ry="11" style="stroke:#181818;stroke-width:1.0;"/><path d="M3025.2188,317.3106 Q3024.6406,317.6075 3024,317.7481 Q3023.3594,317.9044 3022.6563,317.9044 Q3020.1563,317.9044 3018.8281,316.2638 Q3017.5156,314.6075 3017.5156,311.4825 Q3017.5156,308.3575 3018.8281,306.7013 Q3020.1563,305.045 3022.6563,305.045 Q3023.3594,305.045 3024,305.2013 Q3024.6563,305.3575 3025.2188,305.6544 L3025.2188,308.3731 Q3024.5938,307.795 3024,307.5294 Q3023.4063,307.2481 3022.7813,307.2481 Q3021.4375,307.2481 3020.75,308.3263 Q3020.0625,309.3888 3020.0625,311.4825 Q3020.0625,313.5763 3020.75,314.6544 Q3021.4375,315.7169 3022.7813,315.7169 Q3023.4063,315.7169 3024,315.4513 Q3024.5938,315.17 3025.2188,314.5919 L3025.2188,317.3106 Z " fill="#000000"/><text fill="#000000" font-family="sans-serif" font-size="14" lengthAdjust="spacing" textLength="89" x="3042.75" y="316.5167">GameEngine</text><line style="stroke:#181818;stroke-width:0.5;" x1="2933.5" x2="3208.5" y1="327.67" y2="327.67"/><text fill="#000000" font-family="sans-serif" font-size="14" lengthAdjust="spacing" textLength="59" x="2938.5" y="344.6651">Player p;</text><text fill="#000000" font-family="sans-serif" font-size="14" lengthAdjust="spacing" textLength="68" x="2938.5" y="360.962">Mappa m;</text><text fill="#000000" font-family="sans-serif" font-size="14" lengthAdjust="spacing" textLength="84" x="2938.5" y="377.2589">String buffer</text><line style="stroke:#181818;stroke-width:0.5;" x1="2933.5" x2="3208.5" y1="384.5606" y2="384.5606"/><text fill="#000000" font-family="sans-serif" font-size="14" lengthAdjust="spacing" textLength="111" x="2938.5" y="401.5557">void runSetup();</text><text fill="#000000" font-family="sans-serif" font-size="14" lengthAdjust="spacing" textLength="165" x="2938.5" y="417.8526">Vector&lt;Object&gt; save();</text><text fill="#000000" font-family="sans-serif" font-size="14" lengthAdjust="spacing" textLength="4" x="2938.5" y="434.1495">&#160;</text><text fill="#000000" font-family="sans-serif" font-size="14" lengthAdjust="spacing" textLength="126" x="2938.5" y="450.4464">void lookAround();</text><text fill="#000000" font-family="sans-serif" font-size="14" lengthAdjust="spacing" textLength="89" x="2938.5" y="466.7432">void attack();</text><text fill="#000000" font-family="sans-serif" font-size="14" lengthAdjust="spacing" textLength="160" x="2938.5" y="483.0401">void movePlayerBack();</text><text fill="#000000" font-family="sans-serif" font-size="14" lengthAdjust="spacing" textLength="201" x="2938.5" y="499.337">void movePlayer(Direction d);</text><text fill="#000000" font-family="sans-serif" font-size="14" lengthAdjust="spacing" textLength="196" x="2938.5" y="515.6339">void playerTake(String item);</text><text fill="#000000" font-family="sans-serif" font-size="14" lengthAdjust="spacing" textLength="189" x="2938.5" y="531.9307">void playerUse(String item);</text><text fill="#000000" font-family="sans-serif" font-size="14" lengthAdjust="spacing" textLength="219" x="2938.5" y="548.2276">void playerRemove(String item);</text><text fill="#000000" font-family="sans-serif" font-size="14" lengthAdjust="spacing" textLength="265" x="2938.5" y="564.5245">void playerRemoveStack(String items);</text><text fill="#000000" font-family="sans-serif" font-size="14" lengthAdjust="spacing" textLength="4" x="2938.5" y="580.8214">&#160;</text><text fill="#000000" font-family="sans-serif" font-size="14" lengthAdjust="spacing" textLength="142" x="2938.5" y="597.1182">String getPlayerInv();</text><text fill="#000000" font-family="sans-serif" font-size="14" lengthAdjust="spacing" textLength="136" x="2938.5" y="613.4151">byte getPlayerLife();</text><text fill="#000000" font-family="sans-serif" font-size="14" lengthAdjust="spacing" textLength="127" x="2938.5" y="629.712">byte getPlayerLv();</text><text fill="#000000" font-family="sans-serif" font-size="14" lengthAdjust="spacing" textLength="152" x="2938.5" y="646.0089">byte getMonsterLife();</text><text fill="#000000" font-family="sans-serif" font-size="14" lengthAdjust="spacing" textLength="182" x="2938.5" y="662.3057">boolean PlayerIsFighting();</text><text fill="#000000" font-family="sans-serif" font-size="14" lengthAdjust="spacing" textLength="123" x="2938.5" y="678.6026">String getBuffer();</text><text fill="#000000" font-family="sans-serif" font-size="14" lengthAdjust="spacing" textLength="4" x="2938.5" y="694.8995">&#160;</text><text fill="#000000" font-family="sans-serif" font-size="14" lengthAdjust="spacing" textLength="107" x="2938.5" y="711.1964">void load(File f);</text></g><g id="elem_GMN90"><path d="M3244,494.52 L3244,503.09 L3209.96,507.09 L3244,511.09 L3244,519.6528 A0,0 0 0 0 3244,519.6528 L3574,519.6528 A0,0 0 0 0 3574,519.6528 L3574,504.52 L3564,494.52 L3244,494.52 A0,0 0 0 0 3244,494.52 " fill="#FEFFDD" style="stroke:#181818;stroke-width:0.5;"/><path d="M3564,494.52 L3564,504.52 L3574,504.52 L3564,494.52 " fill="#FEFFDD" style="stroke:#181818;stroke-width:0.5;"/><text fill="#000000" font-family="sans-serif" font-size="13" lengthAdjust="spacing" textLength="309" x="3250" y="511.5869">"DANTE COSA RESTITUISCE ADAPTER GRAFICA?"</text></g><g id="elem_GMN36"><path d="M1041.5,830.68 L1041.5,855.8128 A0,0 0 0 0 1041.5,855.8128 L1460.5,855.8128 A0,0 0 0 0 1460.5,855.8128 L1460.5,848.68 L1495.01,843.24 L1460.5,840.68 L1460.5,840.68 L1450.5,830.68 L1041.5,830.68 A0,0 0 0 0 1041.5,830.68 " fill="#FEFFDD" style="stroke:#181818;stroke-width:0.5;"/><path d="M1450.5,830.68 L1450.5,840.68 L1460.5,840.68 L1450.5,830.68 " fill="#FEFFDD" style="stroke:#181818;stroke-width:0.5;"/><text fill="#000000" font-family="sans-serif" font-size="13" lengthAdjust="spacing" textLength="398" x="1047.5" y="847.7469">"Specificare i singoli comnadi nelle implementazioni dei men&#249;"</text></g><!--class Game--><g id="elem_Game"><rect codeLine="281" fill="#F1F1F1" height="64.2969" id="Game" rx="2.5" ry="2.5" style="stroke:#181818;stroke-width:0.5;" width="137" x="3002.5" y="106.19"/><ellipse cx="3046.3" cy="122.19" fill="#ADD1B2" rx="11" ry="11" style="stroke:#181818;stroke-width:1.0;"/><path d="M3049.2688,127.8306 Q3048.6906,128.1275 3048.05,128.2681 Q3047.4094,128.4244 3046.7063,128.4244 Q3044.2063,128.4244 3042.8781,126.7838 Q3041.5656,125.1275 3041.5656,122.0025 Q3041.5656,118.8775 3042.8781,117.2213 Q3044.2063,115.565 3046.7063,115.565 Q3047.4094,115.565 3048.05,115.7213 Q3048.7063,115.8775 3049.2688,116.1744 L3049.2688,118.8931 Q3048.6438,118.315 3048.05,118.0494 Q3047.4563,117.7681 3046.8313,117.7681 Q3045.4875,117.7681 3044.8,118.8463 Q3044.1125,119.9088 3044.1125,122.0025 Q3044.1125,124.0963 3044.8,125.1744 Q3045.4875,126.2369 3046.8313,126.2369 Q3047.4563,126.2369 3048.05,125.9713 Q3048.6438,125.69 3049.2688,125.1119 L3049.2688,127.8306 Z " fill="#000000"/><text fill="#000000" font-family="sans-serif" font-size="14" lengthAdjust="spacing" textLength="41" x="3066.7" y="127.0367">Game</text><line style="stroke:#181818;stroke-width:0.5;" x1="3003.5" x2="3138.5" y1="138.19" y2="138.19"/><line style="stroke:#181818;stroke-width:0.5;" x1="3003.5" x2="3138.5" y1="146.19" y2="146.19"/><text fill="#000000" font-family="sans-serif" font-size="14" lengthAdjust="spacing" textLength="125" x="3008.5" y="163.1851">public void main();</text></g><!--link Monster to MType--><g id="link_Monster_MType"><path codeLine="58" d="M836.46,843.24 C847.81,843.24 853.16,843.24 864.51,843.24 " fill="none" id="Monster-to-MType" style="stroke:#181818;stroke-width:1.0;"/><polygon fill="#181818" points="870.51,843.24,861.51,839.24,865.51,843.24,861.51,847.24,870.51,843.24" style="stroke:#181818;stroke-width:1.0;"/></g><!--link Player to Entity--><g id="link_Player_Entity"><path codeLine="59" d="M597.38,900.3 C604.28,920.24 606.5086,926.698 614.7886,950.648 " fill="none" id="Player-to-Entity" style="stroke:#181818;stroke-width:1.0;"/><polygon fill="none" points="620.67,967.66,620.4593,948.6875,609.1179,952.6084,620.67,967.66" style="stroke:#181818;stroke-width:1.0;"/></g><!--link Monster to Entity--><g id="link_Monster_Entity"><path codeLine="60" d="M747.48,892.02 C740.04,913.53 736.7024,923.1883 727.2624,950.4883 " fill="none" id="Monster-to-Entity" style="stroke:#181818;stroke-width:1.0;"/><polygon fill="none" points="721.38,967.5,732.933,952.4491,721.5919,948.5275,721.38,967.5" style="stroke:#181818;stroke-width:1.0;"/></g><!--link Armatura to Monster--><g id="link_Armatura_Monster"><path codeLine="61" d="M523.05,531.5 C524.38,577.58 533.69,680.88 588,742.5 C615.4,773.59 637.76,758.41 674,778.5 C682.71,783.33 676.5624,778.9219 685.1924,784.6119 " fill="none" id="Armatura-to-Monster" style="stroke:#181818;stroke-width:1.0;"/><polygon fill="none" points="700.22,794.52,688.4951,779.6027,681.8897,789.6211,700.22,794.52" style="stroke:#181818;stroke-width:1.0;"/></g><!--link Mago_nero to Monster--><g id="link_Mago_nero_Monster"><path codeLine="62" d="M667.06,531.41 C679.85,573.58 707.77,665.33 732,742.5 C737.31,759.42 737.7098,760.7841 742.9898,777.2041 " fill="none" id="Mago_nero-to-Monster" style="stroke:#181818;stroke-width:1.0;"/><polygon fill="none" points="748.5,794.34,748.7018,775.3674,737.2779,779.0409,748.5,794.34" style="stroke:#181818;stroke-width:1.0;"/></g><!--link Mostro_Marino to Monster--><g id="link_Mostro_Marino_Monster"><path codeLine="63" d="M812.34,531.59 C803.87,586.03 785.5286,703.9242 774.2086,776.6442 " fill="none" id="Mostro_Marino-to-Monster" style="stroke:#181818;stroke-width:1.0;"/><polygon fill="none" points="771.44,794.43,780.1372,777.5671,768.28,775.7213,771.44,794.43" style="stroke:#181818;stroke-width:1.0;"/></g><!--link Coboldo to Monster--><g id="link_Coboldo_Monster"><path codeLine="64" d="M960.9,531.49 C957.76,576.23 945.76,675.37 900,742.5 C898.67,744.45 878.7147,759.1831 844.7847,783.8231 " fill="none" id="Coboldo-to-Monster" style="stroke:#181818;stroke-width:1.0;"/><polygon fill="none" points="830.22,794.4,848.3103,788.678,841.259,778.9682,830.22,794.4" style="stroke:#181818;stroke-width:1.0;"/></g><!--link BossDrago to Monster--><g id="link_BossDrago_Monster"><path codeLine="65" d="M385.66,531.26 C386.32,578.78 395.05,687.41 458,742.5 C531.23,806.6 584.01,741.44 674,778.5 C684.27,782.73 679.2741,778.7194 688.9641,784.8294 " fill="none" id="BossDrago-to-Monster" style="stroke:#181818;stroke-width:1.0;"/><polygon fill="none" points="704.19,794.43,692.1643,779.7541,685.7639,789.9047,704.19,794.43" style="stroke:#181818;stroke-width:1.0;"/></g><!--link Monster_Factory to BossDrago--><g id="link_Monster_Factory_BossDrago"><path codeLine="67" d="M554.4,179.01 C519.37,196.79 482.98,221.03 458,252.67 C402.32,323.22 390.0565,428.7806 387.1965,476.8306 " fill="none" id="Monster_Factory-to-BossDrago" style="stroke:#181818;stroke-width:1.0;"/><polygon fill="#181818" points="386.84,482.82,391.3677,474.0736,387.1371,477.8288,383.3818,473.5982,386.84,482.82" style="stroke:#181818;stroke-width:1.0;"/></g><!--link Monster_Factory to Mago_nero--><g id="link_Monster_Factory_Mago_nero"><path codeLine="68" d="M660,178.94 C660,255.43 660,415.39 660,476.7 " fill="none" id="Monster_Factory-to-Mago_nero" style="stroke:#181818;stroke-width:1.0;"/><polygon fill="#181818" points="660,482.7,664,473.7,660,477.7,656,473.7,660,482.7" style="stroke:#181818;stroke-width:1.0;"/></g><!--link Monster_Factory to Coboldo--><g id="link_Monster_Factory_Coboldo"><path codeLine="69" d="M766.49,166.81 C813.75,184.12 866.19,211.27 900,252.67 C956.44,321.79 962.7424,428.6 962.6424,476.92 " fill="none" id="Monster_Factory-to-Coboldo" style="stroke:#181818;stroke-width:1.0;"/><polygon fill="#181818" points="962.63,482.92,966.6486,473.9283,962.6403,477.92,958.6486,473.9117,962.63,482.92" style="stroke:#181818;stroke-width:1.0;"/></g><!--link Monster_Factory to Armatura--><g id="link_Monster_Factory_Armatura"><path codeLine="70" d="M630.4,179.05 C615.9,200.05 599.21,226.79 588,252.67 C553,333.54 534.668,431.4454 527.378,477.0054 " fill="none" id="Monster_Factory-to-Armatura" style="stroke:#181818;stroke-width:1.0;"/><polygon fill="#181818" points="526.43,482.93,531.8017,474.675,527.22,477.9928,523.9022,473.4111,526.43,482.93" style="stroke:#181818;stroke-width:1.0;"/></g><!--link Monster_Factory to Mostro_Marino--><g id="link_Monster_Factory_Mostro_Marino"><path codeLine="71" d="M688.69,179.13 C703.02,200.26 719.86,227.09 732,252.67 C770.45,333.7 797.2886,431.2032 808.8286,476.8232 " fill="none" id="Monster_Factory-to-Mostro_Marino" style="stroke:#181818;stroke-width:1.0;"/><polygon fill="#181818" points="810.3,482.64,811.9707,472.9339,809.0738,477.7927,804.215,474.8958,810.3,482.64" style="stroke:#181818;stroke-width:1.0;"/></g><!--link BattleMenu to Menu--><g id="link_BattleMenu_Menu"><path codeLine="93" d="M1989.11,162.64 C1995.65,247.81 2008.26,547.39 1884,742.5 C1868.4,767 1859.4903,777.2876 1835.5303,792.8676 " fill="none" id="BattleMenu-to-Menu" style="stroke:#181818;stroke-width:1.0;"/><polygon fill="none" points="1820.44,802.68,1838.8011,797.8976,1832.2594,787.8375,1820.44,802.68" style="stroke:#181818;stroke-width:1.0;"/></g><!--link StartMenu to Menu--><g id="link_StartMenu_Menu"><path codeLine="94" d="M1851.91,162.63 C1875.31,245.94 1945,535.15 1852,742.5 C1841.4,766.14 1836.0563,775.0779 1816.4463,791.1079 " fill="none" id="StartMenu-to-Menu" style="stroke:#181818;stroke-width:1.0;"/><polygon fill="none" points="1802.51,802.5,1820.2437,795.7533,1812.6489,786.4625,1802.51,802.5" style="stroke:#181818;stroke-width:1.0;"/></g><!--link MovmentMenu to Menu--><g id="link_MovmentMenu_Menu"><path codeLine="95" d="M1554.86,162.73 C1533.96,247.57 1472.98,544.54 1586,742.5 C1600.29,767.54 1608.4463,777.8317 1632.7663,792.9617 " fill="none" id="MovmentMenu-to-Menu" style="stroke:#181818;stroke-width:1.0;"/><polygon fill="none" points="1648.05,802.47,1635.9357,787.8671,1629.5968,798.0562,1648.05,802.47" style="stroke:#181818;stroke-width:1.0;"/></g><!--link ExitMenu to Menu--><g id="link_ExitMenu_Menu"><path codeLine="96" d="M1692.86,162.48 C1676.97,184.32 1655.05,218.7 1646,252.67 C1589.96,463.04 1565.68,540.16 1646,742.5 C1655.13,765.5 1659.3823,773.8069 1676.6123,790.3669 " fill="none" id="ExitMenu-to-Menu" style="stroke:#181818;stroke-width:1.0;"/><polygon fill="none" points="1689.59,802.84,1680.77,786.041,1672.4546,794.6928,1689.59,802.84" style="stroke:#181818;stroke-width:1.0;"/></g><!--link BattleMenu to LoaderMenu--><g id="link_BattleMenu_LoaderMenu"><path codeLine="98" d="M1971.75,162.84 C1931.89,224.26 1827.5362,385.0669 1777.9362,461.4969 " fill="none" id="BattleMenu-to-LoaderMenu" style="stroke:#181818;stroke-width:1.0;"/><polygon fill="#181818" points="1774.67,466.53,1782.9247,461.1579,1777.3919,462.3358,1776.214,456.8029,1774.67,466.53" style="stroke:#181818;stroke-width:1.0;"/></g><!--link StartMenu to LoaderMenu--><g id="link_StartMenu_LoaderMenu"><path codeLine="99" d="M1838.85,162.84 C1822.77,224.26 1780.8796,384.2956 1760.8696,460.7256 " fill="none" id="StartMenu-to-LoaderMenu" style="stroke:#181818;stroke-width:1.0;"/><polygon fill="#181818" points="1759.35,466.53,1765.499,458.8365,1760.6164,461.693,1757.7599,456.8104,1759.35,466.53" style="stroke:#181818;stroke-width:1.0;"/></g><!--link MovmentMenu to LoaderMenu--><g id="link_MovmentMenu_LoaderMenu"><path codeLine="100" d="M1573.05,162.84 C1604.53,224.26 1686.8029,384.7607 1725.9829,461.1907 " fill="none" id="MovmentMenu-to-LoaderMenu" style="stroke:#181818;stroke-width:1.0;"/><polygon fill="#181818" points="1728.72,466.53,1728.1739,456.6963,1726.4391,462.0806,1721.0548,460.3457,1728.72,466.53" style="stroke:#181818;stroke-width:1.0;"/></g><!--link ExitMenu to LoaderMenu--><g id="link_ExitMenu_LoaderMenu"><path codeLine="101" d="M1713.43,162.84 C1719.8,224.26 1736.3616,384.132 1744.2816,460.562 " fill="none" id="ExitMenu-to-LoaderMenu" style="stroke:#181818;stroke-width:1.0;"/><polygon fill="#181818" points="1744.9,466.53,1747.951,457.1656,1744.3846,461.5566,1739.9937,457.9902,1744.9,466.53" style="stroke:#181818;stroke-width:1.0;"/></g><!--link MapGraf to Stanza--><g id="link_MapGraf_Stanza"><path codeLine="174" d="M2303.15,235.92 C2297.79,241.32 2292.71,246.9 2288,252.67 C2246.79,303.18 2221.8677,366.6181 2206.0377,419.9381 " fill="none" id="MapGraf-to-Stanza" style="stroke:#181818;stroke-width:1.0;"/><polygon fill="#181818" points="2204.33,425.69,2210.7261,418.2006,2205.753,420.8968,2203.0569,415.9238,2204.33,425.69" style="stroke:#181818;stroke-width:1.0;"/><text fill="#000000" font-family="sans-serif" font-size="13" lengthAdjust="spacing" textLength="8" x="2283.4845" y="255.7089">1</text><text fill="#000000" font-family="sans-serif" font-size="13" lengthAdjust="spacing" textLength="7" x="2198.6904" y="415.1228">*</text></g><!--link MapGraf to LoadNode--><g id="link_MapGraf_LoadNode"><path codeLine="175" d="M2456.42,235.7 C2455.31,304.04 2453.9381,387.3608 2453.0081,444.2508 " fill="none" id="MapGraf-to-LoadNode" style="stroke:#181818;stroke-width:1.0;"/><polygon fill="#181818" points="2452.91,450.25,2457.0566,441.3166,2452.9917,445.2507,2449.0576,441.1858,2452.91,450.25" style="stroke:#181818;stroke-width:1.0;"/><text fill="#000000" font-family="sans-serif" font-size="13" lengthAdjust="spacing" textLength="8" x="2447.9928" y="255.8006">1</text><text fill="#000000" font-family="sans-serif" font-size="13" lengthAdjust="spacing" textLength="8" x="2444.5334" y="439.4843">1</text></g><!--link MapGraf to node--><g id="link_MapGraf_node"><path codeLine="176" d="M2599.98,236.01 C2605.59,241.43 2610.96,246.99 2616,252.67 C2666.34,309.48 2703.3066,382.1224 2727.1066,436.5624 " fill="none" id="MapGraf-to-node" style="stroke:#181818;stroke-width:1.0;"/><polygon fill="#181818" points="2729.51,442.06,2729.5699,432.2113,2727.5071,437.4787,2722.2398,435.4159,2729.51,442.06" style="stroke:#181818;stroke-width:1.0;"/><text fill="#000000" font-family="sans-serif" font-size="13" lengthAdjust="spacing" textLength="8" x="2602.1129" y="255.8055">1</text><text fill="#000000" font-family="sans-serif" font-size="13" lengthAdjust="spacing" textLength="7" x="2719.3392" y="431.2009">*</text></g><!--link node to Coordinates--><g id="link_node_Coordinates"><path codeLine="177" d="M2729.77,572.22 C2706.71,623.85 2668.25,695.36 2616,742.5 C2570.46,783.59 2510.7696,808.6953 2463.8896,824.1153 " fill="none" id="node-to-Coordinates" style="stroke:#181818;stroke-width:1.0;"/><polygon fill="#181818" points="2458.19,825.99,2467.9892,826.9776,2462.9397,824.4277,2465.4896,819.3782,2458.19,825.99" style="stroke:#181818;stroke-width:1.0;"/><text fill="#000000" font-family="sans-serif" font-size="13" lengthAdjust="spacing" textLength="8" x="2718.7557" y="591.7835">1</text><text fill="#000000" font-family="sans-serif" font-size="13" lengthAdjust="spacing" textLength="8" x="2466.1581" y="819.894">1</text></g><!--link node to Direction--><g id="link_node_Direction"><path codeLine="178" d="M2755,572.12 C2755,634.09 2755,721.09 2755,780.2 " fill="none" id="node-to-Direction" style="stroke:#181818;stroke-width:1.0;"/><polygon fill="#181818" points="2755,786.2,2759,777.2,2755,781.2,2751,777.2,2755,786.2" style="stroke:#181818;stroke-width:1.0;"/><text fill="#000000" font-family="sans-serif" font-size="13" lengthAdjust="spacing" textLength="8" x="2746.5625" y="592.1269">1</text><text fill="#000000" font-family="sans-serif" font-size="13" lengthAdjust="spacing" textLength="8" x="2746.5125" y="775.4087">1</text></g><!--link Stanza to Coordinates--><g id="link_Stanza_Coordinates"><path codeLine="179" d="M2210.6,588.58 C2227.99,636.04 2254.02,695.76 2288,742.5 C2302.93,763.04 2318.1727,778.4972 2336.9727,794.5972 " fill="none" id="Stanza-to-Coordinates" style="stroke:#181818;stroke-width:1.0;"/><polygon fill="#181818" points="2341.53,798.5,2337.296,789.6077,2337.7323,795.2477,2332.0923,795.684,2341.53,798.5" style="stroke:#181818;stroke-width:1.0;"/><text fill="#000000" font-family="sans-serif" font-size="13" lengthAdjust="spacing" textLength="8" x="2204.4562" y="608.3003">1</text><text fill="#000000" font-family="sans-serif" font-size="13" lengthAdjust="spacing" textLength="8" x="2325.9165" y="789.208">1</text></g><!--link StartCommand to Command--><g id="link_StartCommand_Command"><path codeLine="234" d="M5691.4,170.96 C5676.04,192.17 5653.23,219.15 5627,235.67 C5321.27,428.21 4893.553,485.032 4742.893,499.902 " fill="none" id="StartCommand-to-Command" style="stroke:#181818;stroke-width:1.0;"/><polygon fill="none" points="4724.98,501.67,4743.4823,505.873,4742.3036,493.931,4724.98,501.67" style="stroke:#181818;stroke-width:1.0;"/></g><!--link ExitCommand to Command--><g id="link_ExitCommand_Command"><path codeLine="235" d="M6095.7,170.7 C6081.4,192.36 6059.52,219.99 6033,235.67 C5802.47,371.98 4963.1972,473.6079 4742.8172,498.3979 " fill="none" id="ExitCommand-to-Command" style="stroke:#181818;stroke-width:1.0;"/><polygon fill="none" points="4724.93,500.41,4743.4879,504.3603,4742.1465,492.4355,4724.93,500.41" style="stroke:#181818;stroke-width:1.0;"/></g><!--link LookCommand to Command--><g id="link_LookCommand_Command"><path codeLine="236" d="M6261.24,170.87 C6245.89,192.61 6222.61,220.27 6195,235.67 C5932.07,382.37 4978.7737,477.9947 4742.8337,499.7847 " fill="none" id="LookCommand-to-Command" style="stroke:#181818;stroke-width:1.0;"/><polygon fill="none" points="4724.91,501.44,4743.3855,505.7592,4742.2819,493.8101,4724.91,501.44" style="stroke:#181818;stroke-width:1.0;"/></g><!--link AttackCommand to Command--><g id="link_AttackCommand_Command"><path codeLine="237" d="M3725.31,170.74 C3741.81,191.86 3766.02,218.81 3793,235.67 C4074.54,411.7 4460.8371,477.6732 4603.1771,497.2032 " fill="none" id="AttackCommand-to-Command" style="stroke:#181818;stroke-width:1.0;"/><polygon fill="none" points="4621.01,499.65,4603.9927,491.2589,4602.3615,503.1475,4621.01,499.65" style="stroke:#181818;stroke-width:1.0;"/></g><!--link MoveBackCommand to Command--><g id="link_MoveBackCommand_Command"><path codeLine="238" d="M3926.39,170.71 C3946.28,191.27 3974.34,217.58 4003,235.67 C4215.15,369.57 4487.425,454.4169 4603.975,487.2669 " fill="none" id="MoveBackCommand-to-Command" style="stroke:#181818;stroke-width:1.0;"/><polygon fill="none" points="4621.3,492.15,4605.6027,481.4919,4602.3473,493.0419,4621.3,492.15" style="stroke:#181818;stroke-width:1.0;"/></g><!--link MovePlayerCommand to Command--><g id="link_MovePlayerCommand_Command"><path codeLine="239" d="M4142.71,170.56 C4163.53,190.3 4191.85,215.76 4219,235.67 C4356.97,336.86 4518.932,425.7645 4605.352,471.1245 " fill="none" id="MovePlayerCommand-to-Command" style="stroke:#181818;stroke-width:1.0;"/><polygon fill="none" points="4621.29,479.49,4608.1405,465.8119,4602.5635,476.4372,4621.29,479.49" style="stroke:#181818;stroke-width:1.0;"/></g><!--link PlayerUseCommand to Command--><g id="link_PlayerUseCommand_Command"><path codeLine="240" d="M4352.23,170.92 C4418.58,240.25 4563.8744,392.0659 4630.2744,461.4459 " fill="none" id="PlayerUseCommand-to-Command" style="stroke:#181818;stroke-width:1.0;"/><polygon fill="none" points="4642.72,474.45,4634.6091,457.2973,4625.9397,465.5944,4642.72,474.45" style="stroke:#181818;stroke-width:1.0;"/></g><!--link PlayerRemoveStackCommand to Command--><g id="link_PlayerRemoveStackCommand_Command"><path codeLine="241" d="M4571.56,170.92 C4592.54,240.25 4637.2177,387.8412 4658.2077,457.2212 " fill="none" id="PlayerRemoveStackCommand-to-Command" style="stroke:#181818;stroke-width:1.0;"/><polygon fill="none" points="4663.42,474.45,4663.9506,455.4838,4652.4647,458.9587,4663.42,474.45" style="stroke:#181818;stroke-width:1.0;"/></g><!--link LoadCommand to Command--><g id="link_LoadCommand_Command"><path codeLine="242" d="M4774.44,170.92 C4753.46,240.25 4708.7823,387.8412 4687.7923,457.2212 " fill="none" id="LoadCommand-to-Command" style="stroke:#181818;stroke-width:1.0;"/><polygon fill="none" points="4682.58,474.45,4693.5353,458.9587,4682.0494,455.4838,4682.58,474.45" style="stroke:#181818;stroke-width:1.0;"/></g><!--link Promt to Command--><g id="link_Promt_Command"><path codeLine="243" d="M5039.08,219.82 C4936.75,299.84 4789.7165,414.814 4718.0265,470.874 " fill="none" id="Promt-to-Command" style="stroke:#181818;stroke-width:1.0;"/><polygon fill="#181818" points="4713.3,474.57,4722.8537,472.177,4717.2387,471.49,4717.9257,465.875,4713.3,474.57" style="stroke:#181818;stroke-width:1.0;"/></g><!--link Game to GameEngine--><g id="link_Game_GameEngine"><path codeLine="286" d="M3071,170.92 C3071,200.2 3071,240.51 3071,289.47 " fill="none" id="Game-to-GameEngine" style="stroke:#181818;stroke-width:1.0;"/><polygon fill="#181818" points="3071,295.47,3075,286.47,3071,290.47,3067,286.47,3071,295.47" style="stroke:#181818;stroke-width:1.0;"/></g><!--SRC=[ZLZDSjiu4hxpAL3QW-HKNAvKxSdEQagMd8nhBSiZoTdPcffoGIGaOqqIN13InF7cNUOuhp3dlDX-3O04ACkU-62HtOtkHlytAvu-y8rWlOlIICFxFVQtYVrxOYVzqMJ9pDOOoOoi9Cia4qJrxNVMFqb4kItOTFbOYQU4iUbiiPpFxgQZ-UNr3E_ZsVdiQa9FvxF5ucuo7tsabz5yEbhUpaTq0f2xsM9yEvybNvE4hsgZUMfOclEwPbQTH-9yMUuWbMkfc2ntPu3KzqeRl1XMytnh1C5MZqQmZ9UbkblnEe2uBhZPQjv25qRBSiDANiIljL5QylPKBdSYpzLPqW0smbmvsE0eEWRmmfvqK4jQxv6IdkazBpVY4mpi2PNA1IyPpx9B8uekK8j2xKI01mFyyYj9TEzAFpeqDmO-TFOQk9-ZCnR-Jlgf8gOvDtB7MQNLYgzaJcw45x-o17_EvZSvVnIQRBwM9S_TTMuk5kJMdzlxZRc6IA65jGvksmASFfizoDUaL6HIiJPChRsGqzvbpjA6Z7txW_4oLPh3XKmMLIuAUsKnW9K1rhbYbT1CvgnGX597lMSXCrLbRPp-KuEmfA1Lf2CX13033xPgkcSeQqFOAThXS_S1h67b9zOr9j4WhaWqB0yEjP5rAg0OG18czHB1WgLQS2C6LWGZWKvq1pldPQQAM86HZzcdLYE-KNUbq2f0I9Ywco8goW0TgvNAi_1-hkfwed4O471lv1uFNTucpXVi-FX_GnSuWII06cq8rAYUj1gnBZXMgulokdLWhNuTQBBd0F0PXgiSn0Pr3gAzx8Euvdg7-NRkaoGd_HekBqNE7eIc7sj0-BpoPNIAglXHy-fUfcqXzSwuKZmJcWWeGiFRmDUIjSp54KK7O3Ok2OUeE50S6oOd_IjAQ5bmLbicd0dAaLGL55ICCWNPbGCjK0IGMqWql6MYJhNy8bKfe3j4ykgzq-Ajhsn3ua5CW6B_m8r_Op_o-lu08GLqA8X6kOSud1T8P7kR49V8d5nqG5Er8sqxi8lFiW7i5H5hezFUeXAfN4lK4LoRrLGhSacQbnoz2lx9HLHDwBveOaAINRxzsKk26iSk0F6KjDf6i4Wv5e4R_I9GnDC6K71pOBoFw7Ble1e9-_0a11olAXvwDdpH3JTUHT76gqwmdJdN8rxNDk209hUHEy6dAIbAP-W6HjHFlfbzVllOz3MS-ZbqERpzExpL7LpjSV0anUtOLT7qNb0NW0Ufy9DI59wvf2mZHvKgapP2mvskLMO7ZYiGlGTU32sz3zAHrlmne4XwjLtboCRcR6o1Qmm1Hpw08twssTTcx3AWTfUWD6pqy4PhrO1hoozyY2J4htYcYaSJbvCtFsq5tSwtaH2TR4jDEZjUvV0iGzgADtJn9Huew_xvrkb65Y6O5nBGduQs7sy4oY2yPMMs7Td1ReH6ZwtzN08dA4mIsiGsToQ7nqWTdgzGKgtz2RrK96qG6zuowbgk4R9K0vXRaKsqeMf1Di3yc8Kp4wb5Qf2LGxRZkSnkL2tfTROU43jMTiOYn4hwK1qaSUxfLWWVrwSz7sgurPgdI0CC3dPqPQruykFrR3x1pxyk5alyp3wvtyNiTlaZUTxvdKGcH1rb1SgDpaY9bXscj4ngxw00_VklPsvUQa63pX4tp6NP0RH7nkIRc4-JLwmjkB3rItesBTxEAyhhD0Pou9BRfkkZ5HWVttWYXxX74BCLt-OYPab5n7ADgUWWFRYMu0REnZkzTpsgRBqtFQ_qCyoxNfkvCOurnwnBw5yBVDUBrDv7jJPBdBmNJeNwUgDLKPawDFEJVfp1r52HAGjKb5mOLPxQVKdHdeHXLcHCq6Y8slRVBKSY-JaRFCrJukiBIul2EcQlmNhqa1KljU26mgS01e4TjFVBXaSEMYb7jZvOsOEFA7mNvKQMc83zZb5jZPrIV-FIs3VdmmzKa-72MPuj-CxFoN5Zz_mfsiHdaM8TYti_DR3NAQwKUdYTOcGNdDTfq4F5-NTHkPdtTJf7i-GFudleRkll8flRjUxxAHT_VMlAZ9Se4gInq2XvsDXU8lcQn2vqyxf_IIBFTH6Hmxg8Zf-wg3ttF4TslD95xnlv4FQvnVPrRWsrTvpImUy83j9cViYHAxibHHL0wGqlvPSl78k2OCBkWFIKYGtcJq7hEGsQETj8bQesxmD7SeLVlYe_XM6AAw8l2wljUasx4FNf0fKbSmjmtfSGBD4j8TqEy0Cqjign4bGgAdvaE_PEoOpfRRaGPbkvNFuaQBDvFrlz1m-OLdm-np8mYjrBZeq8-cCfGWZHFc6lmGBR724mqcfR-dPWWUuxH0GeMh-UluHurk8ilchJhndMf175FXuHyHhQXKIN8cpnVBEHMrH9kyivMwEES_I-jV9kL1kKFTX1vBAWjY33_Qlze8l5r4Td9tsZm4BuPf3RAGXJ7KrMe73V2BpD9TlMP6xoBccbTCdTphP1hwF9EFO9jq5aDGcVe9mjByjTz1Mg1L_9jJW8twFsFJmYztENvrv_a9jxurUxMFgvjLuta9fBsHKPkKStHvkiK6pe8sCKI3mRs1QpXdUQ6KwJ91hYGiASzYQZw-K56yyM8pR7S7QvlBrSZ2_OQ3AwMLxCsSVvwCFbUFH3BmdzYOu_9Nx-Tv77PJCj9OIrcH-a_1y0]--></g></svg>