<?xml version="1.0" encoding="us-ascii" standalone="no"?><svg xmlns="http://www.w3.org/2000/svg" xmlns:xlink="http://www.w3.org/1999/xlink" contentStyleType="text/css" height="467px" preserveAspectRatio="none" style="width:842px;height:467px;background:#FFFFFF;" version="1.1" viewBox="0 0 842 467" width="842px" zoomAndPan="magnify"><defs/><g><!--cluster UI Layer--><g id="cluster_UI Layer"><path d="M719.5,119.3 L784.5,119.3 A3.75,3.75 0 0 1 787,121.8 L794,141.5969 L832.5,141.5969 A2.5,2.5 0 0 1 835,144.0969 L835,320.39 A2.5,2.5 0 0 1 832.5,322.89 L719.5,322.89 A2.5,2.5 0 0 1 717,320.39 L717,121.8 A2.5,2.5 0 0 1 719.5,119.3 " fill="none" style="stroke:#000000;stroke-width:1.5;"/><line style="stroke:#000000;stroke-width:1.5;" x1="717" x2="794" y1="141.5969" y2="141.5969"/><text fill="#000000" font-family="sans-serif" font-size="14" font-weight="bold" lengthAdjust="spacing" textLength="64" x="721" y="134.2951">UI Layer</text></g><!--cluster Game Engine Layer--><g id="cluster_Game Engine Layer"><path d="M8.5,6 L161.5,6 A3.75,3.75 0 0 1 164,8.5 L171,28.2969 L239.5,28.2969 A2.5,2.5 0 0 1 242,30.7969 L242,320.39 A2.5,2.5 0 0 1 239.5,322.89 L8.5,322.89 A2.5,2.5 0 0 1 6,320.39 L6,8.5 A2.5,2.5 0 0 1 8.5,6 " fill="none" style="stroke:#000000;stroke-width:1.5;"/><line style="stroke:#000000;stroke-width:1.5;" x1="6" x2="171" y1="28.2969" y2="28.2969"/><text fill="#000000" font-family="sans-serif" font-size="14" font-weight="bold" lengthAdjust="spacing" textLength="152" x="10" y="20.9951">Game Engine Layer</text></g><!--cluster Adapter Layer--><g id="cluster_Adapter Layer"><path d="M276.5,111.3 L389.5,111.3 A3.75,3.75 0 0 1 392,113.8 L399,133.5969 L682.5,133.5969 A2.5,2.5 0 0 1 685,136.0969 L685,328.39 A2.5,2.5 0 0 1 682.5,330.89 L276.5,330.89 A2.5,2.5 0 0 1 274,328.39 L274,113.8 A2.5,2.5 0 0 1 276.5,111.3 " fill="none" style="stroke:#000000;stroke-width:1.5;"/><line style="stroke:#000000;stroke-width:1.5;" x1="274" x2="399" y1="133.5969" y2="133.5969"/><text fill="#000000" font-family="sans-serif" font-size="14" font-weight="bold" lengthAdjust="spacing" textLength="112" x="278" y="126.2951">Adapter Layer</text></g><!--cluster Persitance Layer--><g id="cluster_Persitance Layer"><path d="M319.5,362.89 L453.5,362.89 A3.75,3.75 0 0 1 456,365.39 L463,385.1869 L464.5,385.1869 A2.5,2.5 0 0 1 467,387.6869 L467,457.69 A2.5,2.5 0 0 1 464.5,460.19 L319.5,460.19 A2.5,2.5 0 0 1 317,457.69 L317,365.39 A2.5,2.5 0 0 1 319.5,362.89 " fill="none" style="stroke:#000000;stroke-width:1.5;"/><line style="stroke:#000000;stroke-width:1.5;" x1="317" x2="463" y1="385.1869" y2="385.1869"/><text fill="#000000" font-family="sans-serif" font-size="14" font-weight="bold" lengthAdjust="spacing" textLength="133" x="321" y="377.8851">Persitance Layer</text></g><!--entity Grafica--><g id="elem_Grafica"><rect fill="#F1F1F1" height="46.2969" rx="2.5" ry="2.5" style="stroke:#181818;stroke-width:0.5;" width="87" x="732.5" y="154.3"/><rect fill="#F1F1F1" height="10" style="stroke:#181818;stroke-width:0.5;" width="15" x="799.5" y="159.3"/><rect fill="#F1F1F1" height="2" style="stroke:#181818;stroke-width:0.5;" width="4" x="797.5" y="161.3"/><rect fill="#F1F1F1" height="2" style="stroke:#181818;stroke-width:0.5;" width="4" x="797.5" y="165.3"/><text fill="#000000" font-family="sans-serif" font-size="14" lengthAdjust="spacing" textLength="47" x="747.5" y="187.2951">Grafica</text></g><!--entity Menu--><g id="elem_Menu"><rect fill="#F1F1F1" height="46.2969" rx="2.5" ry="2.5" style="stroke:#181818;stroke-width:0.5;" width="79" x="734.5" y="260.6"/><rect fill="#F1F1F1" height="10" style="stroke:#181818;stroke-width:0.5;" width="15" x="793.5" y="265.6"/><rect fill="#F1F1F1" height="2" style="stroke:#181818;stroke-width:0.5;" width="4" x="791.5" y="267.6"/><rect fill="#F1F1F1" height="2" style="stroke:#181818;stroke-width:0.5;" width="4" x="791.5" y="271.6"/><text fill="#000000" font-family="sans-serif" font-size="14" lengthAdjust="spacing" textLength="39" x="749.5" y="293.5951">Menu</text></g><!--entity Player--><g id="elem_Player"><rect fill="#F1F1F1" height="46.2969" rx="2.5" ry="2.5" style="stroke:#181818;stroke-width:0.5;" width="81" x="22.5" y="260.6"/><rect fill="#F1F1F1" height="10" style="stroke:#181818;stroke-width:0.5;" width="15" x="83.5" y="265.6"/><rect fill="#F1F1F1" height="2" style="stroke:#181818;stroke-width:0.5;" width="4" x="81.5" y="267.6"/><rect fill="#F1F1F1" height="2" style="stroke:#181818;stroke-width:0.5;" width="4" x="81.5" y="271.6"/><text fill="#000000" font-family="sans-serif" font-size="14" lengthAdjust="spacing" textLength="41" x="37.5" y="293.5951">Player</text></g><!--entity Mappa--><g id="elem_Mappa"><rect fill="#F1F1F1" height="46.2969" rx="2.5" ry="2.5" style="stroke:#181818;stroke-width:0.5;" width="86" x="138" y="260.6"/><rect fill="#F1F1F1" height="10" style="stroke:#181818;stroke-width:0.5;" width="15" x="204" y="265.6"/><rect fill="#F1F1F1" height="2" style="stroke:#181818;stroke-width:0.5;" width="4" x="202" y="267.6"/><rect fill="#F1F1F1" height="2" style="stroke:#181818;stroke-width:0.5;" width="4" x="202" y="271.6"/><text fill="#000000" font-family="sans-serif" font-size="14" lengthAdjust="spacing" textLength="46" x="153" y="293.5951">Mappa</text></g><!--entity GameEngine--><g id="elem_GameEngine"><rect fill="#F1F1F1" height="46.2969" rx="2.5" ry="2.5" style="stroke:#181818;stroke-width:0.5;" width="129" x="96.5" y="154.3"/><rect fill="#F1F1F1" height="10" style="stroke:#181818;stroke-width:0.5;" width="15" x="205.5" y="159.3"/><rect fill="#F1F1F1" height="2" style="stroke:#181818;stroke-width:0.5;" width="4" x="203.5" y="161.3"/><rect fill="#F1F1F1" height="2" style="stroke:#181818;stroke-width:0.5;" width="4" x="203.5" y="165.3"/><text fill="#000000" font-family="sans-serif" font-size="14" lengthAdjust="spacing" textLength="89" x="111.5" y="187.2951">GameEngine</text></g><!--entity StorageManagment--><g id="elem_StorageManagment"><rect fill="#F1F1F1" height="46.2969" rx="2.5" ry="2.5" style="stroke:#181818;stroke-width:0.5;" width="176" x="22" y="41"/><rect fill="#F1F1F1" height="10" style="stroke:#181818;stroke-width:0.5;" width="15" x="178" y="46"/><rect fill="#F1F1F1" height="2" style="stroke:#181818;stroke-width:0.5;" width="4" x="176" y="48"/><rect fill="#F1F1F1" height="2" style="stroke:#181818;stroke-width:0.5;" width="4" x="176" y="52"/><text fill="#000000" font-family="sans-serif" font-size="14" lengthAdjust="spacing" textLength="136" x="37" y="73.9951">StorageManagment</text></g><!--entity Prompt--><g id="elem_Prompt"><rect fill="#F1F1F1" height="46.2969" rx="2.5" ry="2.5" style="stroke:#181818;stroke-width:0.5;" width="90" x="444" y="154.3"/><rect fill="#F1F1F1" height="10" style="stroke:#181818;stroke-width:0.5;" width="15" x="514" y="159.3"/><rect fill="#F1F1F1" height="2" style="stroke:#181818;stroke-width:0.5;" width="4" x="512" y="161.3"/><rect fill="#F1F1F1" height="2" style="stroke:#181818;stroke-width:0.5;" width="4" x="512" y="165.3"/><text fill="#000000" font-family="sans-serif" font-size="14" lengthAdjust="spacing" textLength="50" x="459" y="187.2951">Prompt</text></g><!--entity GraphicAdapter--><g id="elem_GraphicAdapter"><rect fill="#F1F1F1" height="46.2969" rx="2.5" ry="2.5" style="stroke:#181818;stroke-width:0.5;" width="147" x="513.5" y="260.6"/><rect fill="#F1F1F1" height="10" style="stroke:#181818;stroke-width:0.5;" width="15" x="640.5" y="265.6"/><rect fill="#F1F1F1" height="2" style="stroke:#181818;stroke-width:0.5;" width="4" x="638.5" y="267.6"/><rect fill="#F1F1F1" height="2" style="stroke:#181818;stroke-width:0.5;" width="4" x="638.5" y="271.6"/><text fill="#000000" font-family="sans-serif" font-size="14" lengthAdjust="spacing" textLength="107" x="528.5" y="293.5951">GraphicAdapter</text></g><!--entity AdapterSalvataggio--><g id="elem_AdapterSalvataggio"><rect fill="#F1F1F1" height="46.2969" rx="2.5" ry="2.5" style="stroke:#181818;stroke-width:0.5;" width="172" x="306" y="260.6"/><rect fill="#F1F1F1" height="10" style="stroke:#181818;stroke-width:0.5;" width="15" x="458" y="265.6"/><rect fill="#F1F1F1" height="2" style="stroke:#181818;stroke-width:0.5;" width="4" x="456" y="267.6"/><rect fill="#F1F1F1" height="2" style="stroke:#181818;stroke-width:0.5;" width="4" x="456" y="271.6"/><text fill="#000000" font-family="sans-serif" font-size="14" lengthAdjust="spacing" textLength="132" x="321" y="293.5951">AdapterSalvataggio</text></g><!--entity Salvataggio--><g id="elem_Salvataggio"><rect fill="#F1F1F1" height="46.2969" rx="2.5" ry="2.5" style="stroke:#181818;stroke-width:0.5;" width="118" x="333" y="397.89"/><rect fill="#F1F1F1" height="10" style="stroke:#181818;stroke-width:0.5;" width="15" x="431" y="402.89"/><rect fill="#F1F1F1" height="2" style="stroke:#181818;stroke-width:0.5;" width="4" x="429" y="404.89"/><rect fill="#F1F1F1" height="2" style="stroke:#181818;stroke-width:0.5;" width="4" x="429" y="408.89"/><text fill="#000000" font-family="sans-serif" font-size="14" lengthAdjust="spacing" textLength="78" x="348" y="430.8851">Salvataggio</text></g><!--link Grafica to Menu--><!--link GameEngine to Mappa--><g id="link_GameEngine_Mappa"><path d="M166.4687,206.9729 C169.8187,224.4629 172.1907,236.7872 175.5407,254.2672 " fill="none" id="GameEngine-Mappa" style="stroke:#181818;stroke-width:1.0;"/><polygon fill="#181818" points="165.34,201.08,163.1045,210.6718,166.2806,205.9907,170.9617,209.1668,165.34,201.08" style="stroke:#181818;stroke-width:1.0;"/><polygon fill="#181818" points="176.67,260.16,178.9045,250.568,175.7289,255.2494,171.0475,252.0738,176.67,260.16" style="stroke:#181818;stroke-width:1.0;"/></g><!--link GameEngine to Player--><g id="link_GameEngine_Player"><path d="M135.6306,205.4518 C119.1906,222.9418 104.7593,238.3081 88.3293,255.7881 " fill="none" id="GameEngine-Player" style="stroke:#181818;stroke-width:1.0;"/><polygon fill="#181818" points="139.74,201.08,130.6614,204.8982,136.3155,204.7232,136.4905,210.3773,139.74,201.08" style="stroke:#181818;stroke-width:1.0;"/><polygon fill="#181818" points="84.22,260.16,93.2986,256.3417,87.6444,256.5167,87.4693,250.8626,84.22,260.16" style="stroke:#181818;stroke-width:1.0;"/></g><!--reverse link StorageManagment to Player--><g id="link_StorageManagment_Player"><path d="M52.7454,92.0305 C50.4854,94.3205 52.68,92.55 51,95.3 C19.25,147.17 40.13,222.95 53.81,260.27 " fill="none" id="StorageManagment-backto-Player" style="stroke:#181818;stroke-width:1.0;"/><polygon fill="#181818" points="56.96,87.76,47.7911,91.3561,53.4479,91.3188,53.4852,96.9755,56.96,87.76" style="stroke:#181818;stroke-width:1.0;"/></g><!--reverse link StorageManagment to Mappa--><g id="link_StorageManagment_Mappa"><path d="M79.7765,92.6752 C78.0865,95.0452 80.11,92.67 79,95.3 C60.79,138.41 58.8,158.38 79,200.6 C91.22,226.13 115.68,246.26 137.58,260.2 " fill="none" id="StorageManagment-backto-Mappa" style="stroke:#181818;stroke-width:1.0;"/><polygon fill="#181818" points="83.26,87.79,74.7779,92.7954,80.3571,91.861,81.2915,97.4401,83.26,87.79" style="stroke:#181818;stroke-width:1.0;"/></g><!--reverse link StorageManagment to GameEngine--><g id="link_StorageManagment_GameEngine"><path d="M122.8198,93.1244 C131.6698,112.4344 141.85,134.66 150.69,153.96 " fill="none" id="StorageManagment-backto-GameEngine" style="stroke:#181818;stroke-width:1.0;"/><polygon fill="#181818" points="120.32,87.67,120.4335,97.5182,122.4032,92.2154,127.706,94.1851,120.32,87.67" style="stroke:#181818;stroke-width:1.0;"/></g><!--link GameEngine to Adapter Layer--><!--link Prompt to GraphicAdapter--><!--link AdapterSalvataggio to GraphicAdapter--><!--link Grafica to Prompt--><g id="link_Grafica_Prompt"><path d="M732.12,177.45 C666.21,177.45 606.31,177.45 540.4,177.45 " fill="none" id="Grafica-to-Prompt" style="stroke:#181818;stroke-width:1.0;"/><polygon fill="#181818" points="534.4,177.45,543.4,181.45,539.4,177.45,543.4,173.45,534.4,177.45" style="stroke:#181818;stroke-width:1.0;"/></g><!--link Prompt to GameEngine--><g id="link_Prompt_GameEngine"><path d="M480.96,154.02 C473.33,135.29 460.01,109.85 440,95.3 C425.93,85.07 300.78,89.35 283.5,91.3 C241.13,96.08 206.8499,125.6907 184.7499,149.5207 " fill="none" id="Prompt-to-GameEngine" style="stroke:#181818;stroke-width:1.0;"/><polygon fill="#181818" points="180.67,153.92,189.7228,150.041,184.07,150.2539,183.857,144.6011,180.67,153.92" style="stroke:#181818;stroke-width:1.0;"/></g><!--link GameEngine to GraphicAdapter--><g id="link_GameEngine_GraphicAdapter"><path d="M225.7,194.29 C302.98,213.21 426.1222,243.3529 507.2622,263.2229 " fill="none" id="GameEngine-to-GraphicAdapter" style="stroke:#181818;stroke-width:1.0;"/><polygon fill="#181818" points="513.09,264.65,505.2997,258.6241,508.2335,263.4607,503.3969,266.3945,513.09,264.65" style="stroke:#181818;stroke-width:1.0;"/></g><!--link Prompt to AdapterSalvataggio--><g id="link_Prompt_AdapterSalvataggio"><path d="M467.95,201.08 C451.68,218.57 433.3566,238.2868 417.0966,255.7668 " fill="none" id="Prompt-to-AdapterSalvataggio" style="stroke:#181818;stroke-width:1.0;"/><polygon fill="#181818" points="413.01,260.16,422.0686,256.2946,416.4155,256.499,416.2111,250.8459,413.01,260.16" style="stroke:#181818;stroke-width:1.0;"/></g><!--link GraphicAdapter to Grafica--><g id="link_GraphicAdapter_Grafica"><path d="M627.93,260.16 C659.61,242.68 698.0366,221.4685 729.7366,203.9785 " fill="none" id="GraphicAdapter-to-Grafica" style="stroke:#181818;stroke-width:1.0;"/><polygon fill="#181818" points="734.99,201.08,725.1775,201.9255,730.6121,203.4954,729.0422,208.9301,734.99,201.08" style="stroke:#181818;stroke-width:1.0;"/></g><!--link GraphicAdapter to Menu--><g id="link_GraphicAdapter_Menu"><path d="M660.78,283.74 C685.25,283.74 703.72,283.74 728.2,283.74 " fill="none" id="GraphicAdapter-to-Menu" style="stroke:#181818;stroke-width:1.0;"/><polygon fill="#181818" points="734.2,283.74,725.2,279.74,729.2,283.74,725.2,287.74,734.2,283.74" style="stroke:#181818;stroke-width:1.0;"/></g><!--link AdapterSalvataggio to Salvataggio--><g id="link_AdapterSalvataggio_Salvataggio"><path d="M392,313.39 C392,338.52 392,366.8 392,391.77 " fill="none" id="AdapterSalvataggio-Salvataggio" style="stroke:#181818;stroke-width:1.0;"/><polygon fill="#181818" points="392,307.39,388,316.39,392,312.39,396,316.39,392,307.39" style="stroke:#181818;stroke-width:1.0;"/><polygon fill="#181818" points="392,397.77,396,388.77,392,392.77,388,388.77,392,397.77" style="stroke:#181818;stroke-width:1.0;"/></g><!--link AdapterSalvataggio to GameEngine--><g id="link_AdapterSalvataggio_GameEngine"><path d="M336.5014,257.6912 C297.7814,240.2112 255.3388,221.0383 216.5888,203.5483 " fill="none" id="AdapterSalvataggio-GameEngine" style="stroke:#181818;stroke-width:1.0;"/><polygon fill="#181818" points="341.97,260.16,335.413,252.8111,337.4129,258.1027,332.1213,260.1026,341.97,260.16" style="stroke:#181818;stroke-width:1.0;"/><polygon fill="#181818" points="211.12,201.08,217.6776,208.4284,215.6773,203.137,220.9687,201.1367,211.12,201.08" style="stroke:#181818;stroke-width:1.0;"/></g><!--SRC=[ZLB1QeGm4Btx5ODt_w08FHGfT46GdiJ3eDCOkiQGpHQMfVzUOqpDL6jxoynxysRcPJIsxoW8qjTdUC4RcHJk2K1T67oJBJRkVI9rRU8aP5dTowuZrUG1_amI7RGA70YUb92Ac6XvTe7NHAszkYDxxXnMTZIJo0aLYe6KTSenvo7Byb2zoOS6MnMOSFWJ3xg_mF6eh3atvB53RSdurIVcQWn3WYbc7BGD_kfUjWjhJYtl2iyVQ548EJPH4U_xlt8uA87PxEzVpjVfreuvzu7Ri3C5gznR9zbCiSZu0zn5_SsjnfPaBjAYQld1iJxJQdjskCFvmJpWHTj-0G00]--></g></svg>