<svg xmlns="http://www.w3.org/2000/svg" xmlns:xlink="http://www.w3.org/1999/xlink" contentStyleType="text/css" height="352px" preserveAspectRatio="none" style="width:611px;height:352px;background:#FFFFFF;" version="1.1" viewBox="0 0 611 352" width="611px" zoomAndPan="magnify"><defs/><g><!--cluster UI Layer--><g id="cluster_UI Layer"><path d="M55.47,248.59 L120.47,248.59 A3.75,3.75 0 0 1 122.97,251.09 L129.97,270.8869 L374.47,270.8869 A2.5,2.5 0 0 1 376.97,273.3869 L376.97,343.39 A2.5,2.5 0 0 1 374.47,345.89 L55.47,345.89 A2.5,2.5 0 0 1 52.97,343.39 L52.97,251.09 A2.5,2.5 0 0 1 55.47,248.59 " fill="#2E5642" style="stroke:#000000;stroke-width:1.5;"/><line style="stroke:#000000;stroke-width:1.5;" x1="52.97" x2="129.97" y1="270.8869" y2="270.8869"/><text fill="#000000" font-family="sans-serif" font-size="14" font-weight="bold" lengthAdjust="spacing" textLength="64" x="56.97" y="263.5851">UI Layer</text></g><!--cluster Game Engine Layer--><g id="cluster_Game Engine Layer"><path d="M36.47,127.3 L189.47,127.3 A3.75,3.75 0 0 1 191.97,129.8 L198.97,149.5969 L199.47,149.5969 A2.5,2.5 0 0 1 201.97,152.0969 L201.97,222.09 A2.5,2.5 0 0 1 199.47,224.59 L36.47,224.59 A2.5,2.5 0 0 1 33.97,222.09 L33.97,129.8 A2.5,2.5 0 0 1 36.47,127.3 " fill="#F5F5DC" style="stroke:#000000;stroke-width:1.5;"/><line style="stroke:#000000;stroke-width:1.5;" x1="33.97" x2="198.97" y1="149.5969" y2="149.5969"/><text fill="#000000" font-family="sans-serif" font-size="14" font-weight="bold" lengthAdjust="spacing" textLength="152" x="37.97" y="142.2951">Game Engine Layer</text></g><!--cluster Kernel Layer--><g id="cluster_Kernel Layer"><path d="M16.47,6 L118.47,6 A3.75,3.75 0 0 1 120.97,8.5 L127.97,28.2969 L363.47,28.2969 A2.5,2.5 0 0 1 365.97,30.7969 L365.97,100.8 A2.5,2.5 0 0 1 363.47,103.3 L16.47,103.3 A2.5,2.5 0 0 1 13.97,100.8 L13.97,8.5 A2.5,2.5 0 0 1 16.47,6 " fill="#96DED1" style="stroke:#000000;stroke-width:1.5;"/><line style="stroke:#000000;stroke-width:1.5;" x1="13.97" x2="127.97" y1="28.2969" y2="28.2969"/><text fill="#000000" font-family="sans-serif" font-size="14" font-weight="bold" lengthAdjust="spacing" textLength="101" x="17.97" y="20.9951">Kernel Layer</text></g><!--cluster Persitance Layer--><g id="cluster_Persitance Layer"><path d="M430.47,248.59 L564.47,248.59 A3.75,3.75 0 0 1 566.97,251.09 L573.97,270.8869 L575.47,270.8869 A2.5,2.5 0 0 1 577.97,273.3869 L577.97,343.39 A2.5,2.5 0 0 1 575.47,345.89 L430.47,345.89 A2.5,2.5 0 0 1 427.97,343.39 L427.97,251.09 A2.5,2.5 0 0 1 430.47,248.59 " fill="#CC0605" style="stroke:#000000;stroke-width:1.5;"/><line style="stroke:#000000;stroke-width:1.5;" x1="427.97" x2="573.97" y1="270.8869" y2="270.8869"/><text fill="#000000" font-family="sans-serif" font-size="14" font-weight="bold" lengthAdjust="spacing" textLength="133" x="431.97" y="263.5851">Persitance Layer</text></g><!--cluster Adapter Layer--><g id="cluster_Adapter Layer"><path d="M228.47,127.3 L341.47,127.3 A3.75,3.75 0 0 1 343.97,129.8 L350.97,149.5969 L602.47,149.5969 A2.5,2.5 0 0 1 604.97,152.0969 L604.97,222.09 A2.5,2.5 0 0 1 602.47,224.59 L228.47,224.59 A2.5,2.5 0 0 1 225.97,222.09 L225.97,129.8 A2.5,2.5 0 0 1 228.47,127.3 " fill="#A65E2E" style="stroke:#000000;stroke-width:1.5;"/><line style="stroke:#000000;stroke-width:1.5;" x1="225.97" x2="350.97" y1="149.5969" y2="149.5969"/><text fill="#000000" font-family="sans-serif" font-size="14" font-weight="bold" lengthAdjust="spacing" textLength="112" x="229.97" y="142.2951">Adapter Layer</text></g><!--entity GraficaInput--><g id="elem_GraficaInput"><rect fill="#F1F1F1" height="46.2969" rx="2.5" ry="2.5" style="stroke:#181818;stroke-width:0.5;" width="122" x="68.97" y="283.59"/><rect fill="#F1F1F1" height="10" style="stroke:#181818;stroke-width:0.5;" width="15" x="170.97" y="288.59"/><rect fill="#F1F1F1" height="2" style="stroke:#181818;stroke-width:0.5;" width="4" x="168.97" y="290.59"/><rect fill="#F1F1F1" height="2" style="stroke:#181818;stroke-width:0.5;" width="4" x="168.97" y="294.59"/><text fill="#000000" font-family="sans-serif" font-size="14" lengthAdjust="spacing" textLength="82" x="83.97" y="316.5851">GraficaInput</text></g><!--entity GraficaOutput--><g id="elem_GraficaOutput"><rect fill="#F1F1F1" height="46.2969" rx="2.5" ry="2.5" style="stroke:#181818;stroke-width:0.5;" width="135" x="225.47" y="283.59"/><rect fill="#F1F1F1" height="10" style="stroke:#181818;stroke-width:0.5;" width="15" x="340.47" y="288.59"/><rect fill="#F1F1F1" height="2" style="stroke:#181818;stroke-width:0.5;" width="4" x="338.47" y="290.59"/><rect fill="#F1F1F1" height="2" style="stroke:#181818;stroke-width:0.5;" width="4" x="338.47" y="294.59"/><text fill="#000000" font-family="sans-serif" font-size="14" lengthAdjust="spacing" textLength="95" x="240.47" y="316.5851">GraficaOutput</text></g><!--entity GameEngine--><g id="elem_GameEngine"><rect fill="#F1F1F1" height="46.2969" rx="2.5" ry="2.5" style="stroke:#181818;stroke-width:0.5;" width="129" x="56.47" y="162.3"/><rect fill="#F1F1F1" height="10" style="stroke:#181818;stroke-width:0.5;" width="15" x="165.47" y="167.3"/><rect fill="#F1F1F1" height="2" style="stroke:#181818;stroke-width:0.5;" width="4" x="163.47" y="169.3"/><rect fill="#F1F1F1" height="2" style="stroke:#181818;stroke-width:0.5;" width="4" x="163.47" y="173.3"/><text fill="#000000" font-family="sans-serif" font-size="14" lengthAdjust="spacing" textLength="89" x="71.47" y="195.2951">GameEngine</text></g><!--entity Prompt--><g id="elem_Prompt"><rect fill="#F1F1F1" height="46.2969" rx="2.5" ry="2.5" style="stroke:#181818;stroke-width:0.5;" width="90" x="146.97" y="41"/><rect fill="#F1F1F1" height="10" style="stroke:#181818;stroke-width:0.5;" width="15" x="216.97" y="46"/><rect fill="#F1F1F1" height="2" style="stroke:#181818;stroke-width:0.5;" width="4" x="214.97" y="48"/><rect fill="#F1F1F1" height="2" style="stroke:#181818;stroke-width:0.5;" width="4" x="214.97" y="52"/><text fill="#000000" font-family="sans-serif" font-size="14" lengthAdjust="spacing" textLength="50" x="161.97" y="73.9951">Prompt</text></g><!--entity Game--><g id="elem_Game"><rect fill="#F1F1F1" height="46.2969" rx="2.5" ry="2.5" style="stroke:#181818;stroke-width:0.5;" width="81" x="30.47" y="41"/><rect fill="#F1F1F1" height="10" style="stroke:#181818;stroke-width:0.5;" width="15" x="91.47" y="46"/><rect fill="#F1F1F1" height="2" style="stroke:#181818;stroke-width:0.5;" width="4" x="89.47" y="48"/><rect fill="#F1F1F1" height="2" style="stroke:#181818;stroke-width:0.5;" width="4" x="89.47" y="52"/><text fill="#000000" font-family="sans-serif" font-size="14" lengthAdjust="spacing" textLength="41" x="45.47" y="73.9951">Game</text></g><!--entity Menu--><g id="elem_Menu"><rect fill="#F1F1F1" height="46.2969" rx="2.5" ry="2.5" style="stroke:#181818;stroke-width:0.5;" width="79" x="271.47" y="41"/><rect fill="#F1F1F1" height="10" style="stroke:#181818;stroke-width:0.5;" width="15" x="330.47" y="46"/><rect fill="#F1F1F1" height="2" style="stroke:#181818;stroke-width:0.5;" width="4" x="328.47" y="48"/><rect fill="#F1F1F1" height="2" style="stroke:#181818;stroke-width:0.5;" width="4" x="328.47" y="52"/><text fill="#000000" font-family="sans-serif" font-size="14" lengthAdjust="spacing" textLength="39" x="286.47" y="73.9951">Menu</text></g><!--entity Salvataggio--><g id="elem_Salvataggio"><rect fill="#F1F1F1" height="46.2969" rx="2.5" ry="2.5" style="stroke:#181818;stroke-width:0.5;" width="118" x="443.97" y="283.59"/><rect fill="#F1F1F1" height="10" style="stroke:#181818;stroke-width:0.5;" width="15" x="541.97" y="288.59"/><rect fill="#F1F1F1" height="2" style="stroke:#181818;stroke-width:0.5;" width="4" x="539.97" y="290.59"/><rect fill="#F1F1F1" height="2" style="stroke:#181818;stroke-width:0.5;" width="4" x="539.97" y="294.59"/><text fill="#000000" font-family="sans-serif" font-size="14" lengthAdjust="spacing" textLength="78" x="458.97" y="316.5851">Salvataggio</text></g><!--entity AdapterGrafica--><g id="elem_AdapterGrafica"><rect fill="#F1F1F1" height="46.2969" rx="2.5" ry="2.5" style="stroke:#181818;stroke-width:0.5;" width="141" x="241.47" y="162.3"/><rect fill="#F1F1F1" height="10" style="stroke:#181818;stroke-width:0.5;" width="15" x="362.47" y="167.3"/><rect fill="#F1F1F1" height="2" style="stroke:#181818;stroke-width:0.5;" width="4" x="360.47" y="169.3"/><rect fill="#F1F1F1" height="2" style="stroke:#181818;stroke-width:0.5;" width="4" x="360.47" y="173.3"/><text fill="#000000" font-family="sans-serif" font-size="14" lengthAdjust="spacing" textLength="101" x="256.47" y="195.2951">AdapterGrafica</text></g><!--entity AdapterSalvataggio--><g id="elem_AdapterSalvataggio"><rect fill="#F1F1F1" height="46.2969" rx="2.5" ry="2.5" style="stroke:#181818;stroke-width:0.5;" width="172" x="416.97" y="162.3"/><rect fill="#F1F1F1" height="10" style="stroke:#181818;stroke-width:0.5;" width="15" x="568.97" y="167.3"/><rect fill="#F1F1F1" height="2" style="stroke:#181818;stroke-width:0.5;" width="4" x="566.97" y="169.3"/><rect fill="#F1F1F1" height="2" style="stroke:#181818;stroke-width:0.5;" width="4" x="566.97" y="173.3"/><text fill="#000000" font-family="sans-serif" font-size="14" lengthAdjust="spacing" textLength="132" x="431.97" y="195.2951">AdapterSalvataggio</text></g><!--link Game to Prompt--><g id="link_Game_Prompt"><path d="M111.62,64.15 C123.34,64.15 129.05,64.15 140.77,64.15 " fill="none" id="Game-to-Prompt" style="stroke:#181818;stroke-width:1.0;"/><polygon fill="#181818" points="146.77,64.15,137.77,60.15,141.77,64.15,137.77,68.15,146.77,64.15" style="stroke:#181818;stroke-width:1.0;"/></g><!--link Prompt to GameEngine--><g id="link_Prompt_GameEngine"><path d="M178.62,87.59 C165.92,108.92 150.0092,135.6544 137.3292,156.9544 " fill="none" id="Prompt-to-GameEngine" style="stroke:#181818;stroke-width:1.0;"/><polygon fill="#181818" points="134.26,162.11,142.3008,156.4227,136.8176,157.8137,135.4267,152.3305,134.26,162.11" style="stroke:#181818;stroke-width:1.0;"/></g><!--link Prompt to GraficaInput--><g id="link_Prompt_GraficaInput"><path d="M167.78,87.68 C156.76,96.6 143.05,105.98 128.97,111.3 C110.39,118.31 53.37,104.64 39.97,119.3 C6,156.46 18.33,187.12 39.97,232.59 C50.09,253.87 64.7748,267.6312 83.1548,279.9412 " fill="none" id="Prompt-to-GraficaInput" style="stroke:#181818;stroke-width:1.0;"/><polygon fill="#181818" points="88.14,283.28,82.8881,274.9483,83.9857,280.4976,78.4363,281.5952,88.14,283.28" style="stroke:#181818;stroke-width:1.0;"/></g><!--link Prompt to Menu--><g id="link_Prompt_Menu"><path d="M237.06,64.15 C248.42,64.15 253.77,64.15 265.13,64.15 " fill="none" id="Prompt-to-Menu" style="stroke:#181818;stroke-width:1.0;"/><polygon fill="#181818" points="271.13,64.15,262.13,60.15,266.13,64.15,262.13,68.15,271.13,64.15" style="stroke:#181818;stroke-width:1.0;"/></g><!--link Prompt to AdapterSalvataggio--><g id="link_Prompt_AdapterSalvataggio"><path d="M215.34,87.67 C226.21,96.71 239.84,106.18 253.97,111.3 C315.08,133.42 338.07,99.51 399.97,119.3 C428.19,128.31 451.5792,143.3114 471.2992,158.3514 " fill="none" id="Prompt-to-AdapterSalvataggio" style="stroke:#181818;stroke-width:1.0;"/><polygon fill="#181818" points="476.07,161.99,471.3395,153.3516,472.0943,158.9578,466.4881,159.7127,476.07,161.99" style="stroke:#181818;stroke-width:1.0;"/></g><!--link AdapterSalvataggio to Salvataggio--><g id="link_AdapterSalvataggio_Salvataggio"><path d="M502.97,208.88 C502.97,230.21 502.97,256.11 502.97,277.4 " fill="none" id="AdapterSalvataggio-to-Salvataggio" style="stroke:#181818;stroke-width:1.0;"/><polygon fill="#181818" points="502.97,283.4,506.97,274.4,502.97,278.4,498.97,274.4,502.97,283.4" style="stroke:#181818;stroke-width:1.0;"/></g><!--link AdapterGrafica to GraficaOutput--><g id="link_AdapterGrafica_GraficaOutput"><path d="M308.4,208.88 C305,230.21 300.8635,256.1846 297.4735,277.4746 " fill="none" id="AdapterGrafica-to-GraficaOutput" style="stroke:#181818;stroke-width:1.0;"/><polygon fill="#181818" points="296.53,283.4,301.8955,275.141,297.3162,278.4622,293.995,273.883,296.53,283.4" style="stroke:#181818;stroke-width:1.0;"/></g><!--link Prompt to AdapterGrafica--><g id="link_Prompt_AdapterGrafica"><path d="M214.54,87.59 C236,108.92 263.8255,136.5793 285.2455,157.8793 " fill="none" id="Prompt-to-AdapterGrafica" style="stroke:#181818;stroke-width:1.0;"/><polygon fill="#181818" points="289.5,162.11,285.9387,152.9276,285.9545,158.5844,280.2977,158.6003,289.5,162.11" style="stroke:#181818;stroke-width:1.0;"/></g><!--SRC=[VPB1QuCm6CNl-Ij2T-YfsCaKTX725aIsEgdTeGmF8NwAh4qbqy4O_Tzdez7gKdEAt_Vqzzv3QxcQ7joUzm2_aZtTja__L4iBbOn_iXpmuY9bFo0N-Cu6ntsmVn767xvaMS5P8CgwIgu6RtMb9cU4B1FT9nkAQUW78TKEPka-EmAc8Yy4z3Oo9tDIVh6Xm8sY5TocOaoUIRHhQ7tgMUeBI0677lZeff3UgzoHF1tBBd43LfSDY3ffp9nHEyChRn3gImFqncOdcr6Xmyxhle-GELj4jt4GxqZuf0kTJHQ1_2eg9lXG9-ThT-rW5IzcXszMiJmlJZVR75SvIoCfAokGFOgv3jYWIDsgYvrSZIOUnZMPDAPXgpRAD7BKk_vlZJJznXy0]--></g></svg>