<?xml version="1.0" encoding="us-ascii" standalone="no"?><svg xmlns="http://www.w3.org/2000/svg" xmlns:xlink="http://www.w3.org/1999/xlink" contentStyleType="text/css" height="337px" preserveAspectRatio="none" style="width:938px;height:337px;background:#FFFFFF;" version="1.1" viewBox="0 0 938 337" width="938px" zoomAndPan="magnify"><defs/><g><!--cluster UI Layer--><g id="cluster_UI Layer"><path d="M815.5,112.3 L880.5,112.3 A3.75,3.75 0 0 1 883,114.8 L890,134.5969 L928.5,134.5969 A2.5,2.5 0 0 1 931,137.0969 L931,328.39 A2.5,2.5 0 0 1 928.5,330.89 L815.5,330.89 A2.5,2.5 0 0 1 813,328.39 L813,114.8 A2.5,2.5 0 0 1 815.5,112.3 " fill="#2E5642" style="stroke:#000000;stroke-width:1.5;"/><line style="stroke:#000000;stroke-width:1.5;" x1="813" x2="890" y1="134.5969" y2="134.5969"/><text fill="#000000" font-family="sans-serif" font-size="14" font-weight="bold" lengthAdjust="spacing" textLength="64" x="817" y="127.2951">UI Layer</text></g><!--cluster Game Engine Layer--><g id="cluster_Game Engine Layer"><path d="M8.5,6 L161.5,6 A3.75,3.75 0 0 1 164,8.5 L171,28.2969 L375.5,28.2969 A2.5,2.5 0 0 1 378,30.7969 L378,328.39 A2.5,2.5 0 0 1 375.5,330.89 L8.5,330.89 A2.5,2.5 0 0 1 6,328.39 L6,8.5 A2.5,2.5 0 0 1 8.5,6 " fill="#F5F5DC" style="stroke:#000000;stroke-width:1.5;"/><line style="stroke:#000000;stroke-width:1.5;" x1="6" x2="171" y1="28.2969" y2="28.2969"/><text fill="#000000" font-family="sans-serif" font-size="14" font-weight="bold" lengthAdjust="spacing" textLength="152" x="10" y="20.9951">Game Engine Layer</text></g><!--cluster Adapter Layer--><g id="cluster_Adapter Layer"><path d="M404.5,6 L517.5,6 A3.75,3.75 0 0 1 520,8.5 L527,28.2969 L786.5,28.2969 A2.5,2.5 0 0 1 789,30.7969 L789,207.09 A2.5,2.5 0 0 1 786.5,209.59 L404.5,209.59 A2.5,2.5 0 0 1 402,207.09 L402,8.5 A2.5,2.5 0 0 1 404.5,6 " fill="#96DED1" style="stroke:#000000;stroke-width:1.5;"/><line style="stroke:#000000;stroke-width:1.5;" x1="402" x2="527" y1="28.2969" y2="28.2969"/><text fill="#000000" font-family="sans-serif" font-size="14" font-weight="bold" lengthAdjust="spacing" textLength="112" x="406" y="20.9951">Adapter Layer</text></g><!--cluster Persitance Layer--><g id="cluster_Persitance Layer"><path d="M431.5,233.59 L565.5,233.59 A3.75,3.75 0 0 1 568,236.09 L575,255.8869 L576.5,255.8869 A2.5,2.5 0 0 1 579,258.3869 L579,328.39 A2.5,2.5 0 0 1 576.5,330.89 L431.5,330.89 A2.5,2.5 0 0 1 429,328.39 L429,236.09 A2.5,2.5 0 0 1 431.5,233.59 " fill="#CC0605" style="stroke:#000000;stroke-width:1.5;"/><line style="stroke:#000000;stroke-width:1.5;" x1="429" x2="575" y1="255.8869" y2="255.8869"/><text fill="#000000" font-family="sans-serif" font-size="14" font-weight="bold" lengthAdjust="spacing" textLength="133" x="433" y="248.5851">Persitance Layer</text></g><!--entity Grafica--><g id="elem_Grafica"><rect fill="#F1F1F1" height="46.2969" rx="2.5" ry="2.5" style="stroke:#181818;stroke-width:0.5;" width="87" x="828.5" y="147.3"/><rect fill="#F1F1F1" height="10" style="stroke:#181818;stroke-width:0.5;" width="15" x="895.5" y="152.3"/><rect fill="#F1F1F1" height="2" style="stroke:#181818;stroke-width:0.5;" width="4" x="893.5" y="154.3"/><rect fill="#F1F1F1" height="2" style="stroke:#181818;stroke-width:0.5;" width="4" x="893.5" y="158.3"/><text fill="#000000" font-family="sans-serif" font-size="14" lengthAdjust="spacing" textLength="47" x="843.5" y="180.2951">Grafica</text></g><!--entity Menu--><g id="elem_Menu"><rect fill="#F1F1F1" height="46.2969" rx="2.5" ry="2.5" style="stroke:#181818;stroke-width:0.5;" width="79" x="830.5" y="268.59"/><rect fill="#F1F1F1" height="10" style="stroke:#181818;stroke-width:0.5;" width="15" x="889.5" y="273.59"/><rect fill="#F1F1F1" height="2" style="stroke:#181818;stroke-width:0.5;" width="4" x="887.5" y="275.59"/><rect fill="#F1F1F1" height="2" style="stroke:#181818;stroke-width:0.5;" width="4" x="887.5" y="279.59"/><text fill="#000000" font-family="sans-serif" font-size="14" lengthAdjust="spacing" textLength="39" x="845.5" y="301.5851">Menu</text></g><!--entity Player--><g id="elem_Player"><rect fill="#F1F1F1" height="46.2969" rx="2.5" ry="2.5" style="stroke:#181818;stroke-width:0.5;" width="81" x="166.5" y="147.3"/><rect fill="#F1F1F1" height="10" style="stroke:#181818;stroke-width:0.5;" width="15" x="227.5" y="152.3"/><rect fill="#F1F1F1" height="2" style="stroke:#181818;stroke-width:0.5;" width="4" x="225.5" y="154.3"/><rect fill="#F1F1F1" height="2" style="stroke:#181818;stroke-width:0.5;" width="4" x="225.5" y="158.3"/><text fill="#000000" font-family="sans-serif" font-size="14" lengthAdjust="spacing" textLength="41" x="181.5" y="180.2951">Player</text></g><!--entity Mappa--><g id="elem_Mappa"><rect fill="#F1F1F1" height="46.2969" rx="2.5" ry="2.5" style="stroke:#181818;stroke-width:0.5;" width="86" x="164" y="268.59"/><rect fill="#F1F1F1" height="10" style="stroke:#181818;stroke-width:0.5;" width="15" x="230" y="273.59"/><rect fill="#F1F1F1" height="2" style="stroke:#181818;stroke-width:0.5;" width="4" x="228" y="275.59"/><rect fill="#F1F1F1" height="2" style="stroke:#181818;stroke-width:0.5;" width="4" x="228" y="279.59"/><text fill="#000000" font-family="sans-serif" font-size="14" lengthAdjust="spacing" textLength="46" x="179" y="301.5851">Mappa</text></g><!--entity GameEngine--><g id="elem_GameEngine"><rect fill="#F1F1F1" height="46.2969" rx="2.5" ry="2.5" style="stroke:#181818;stroke-width:0.5;" width="129" x="232.5" y="41"/><rect fill="#F1F1F1" height="10" style="stroke:#181818;stroke-width:0.5;" width="15" x="341.5" y="46"/><rect fill="#F1F1F1" height="2" style="stroke:#181818;stroke-width:0.5;" width="4" x="339.5" y="48"/><rect fill="#F1F1F1" height="2" style="stroke:#181818;stroke-width:0.5;" width="4" x="339.5" y="52"/><text fill="#000000" font-family="sans-serif" font-size="14" lengthAdjust="spacing" textLength="89" x="247.5" y="73.9951">GameEngine</text></g><!--entity StorageManagment--><g id="elem_StorageManagment"><rect fill="#F1F1F1" height="46.2969" rx="2.5" ry="2.5" style="stroke:#181818;stroke-width:0.5;" width="176" x="22" y="41"/><rect fill="#F1F1F1" height="10" style="stroke:#181818;stroke-width:0.5;" width="15" x="178" y="46"/><rect fill="#F1F1F1" height="2" style="stroke:#181818;stroke-width:0.5;" width="4" x="176" y="48"/><rect fill="#F1F1F1" height="2" style="stroke:#181818;stroke-width:0.5;" width="4" x="176" y="52"/><text fill="#000000" font-family="sans-serif" font-size="14" lengthAdjust="spacing" textLength="136" x="37" y="73.9951">StorageManagment</text></g><!--entity Prompt--><g id="elem_Prompt"><rect fill="#F1F1F1" height="46.2969" rx="2.5" ry="2.5" style="stroke:#181818;stroke-width:0.5;" width="90" x="556" y="41"/><rect fill="#F1F1F1" height="10" style="stroke:#181818;stroke-width:0.5;" width="15" x="626" y="46"/><rect fill="#F1F1F1" height="2" style="stroke:#181818;stroke-width:0.5;" width="4" x="624" y="48"/><rect fill="#F1F1F1" height="2" style="stroke:#181818;stroke-width:0.5;" width="4" x="624" y="52"/><text fill="#000000" font-family="sans-serif" font-size="14" lengthAdjust="spacing" textLength="50" x="571" y="73.9951">Prompt</text></g><!--entity GraphicAdapter--><g id="elem_GraphicAdapter"><rect fill="#F1F1F1" height="46.2969" rx="2.5" ry="2.5" style="stroke:#181818;stroke-width:0.5;" width="147" x="625.5" y="147.3"/><rect fill="#F1F1F1" height="10" style="stroke:#181818;stroke-width:0.5;" width="15" x="752.5" y="152.3"/><rect fill="#F1F1F1" height="2" style="stroke:#181818;stroke-width:0.5;" width="4" x="750.5" y="154.3"/><rect fill="#F1F1F1" height="2" style="stroke:#181818;stroke-width:0.5;" width="4" x="750.5" y="158.3"/><text fill="#000000" font-family="sans-serif" font-size="14" lengthAdjust="spacing" textLength="107" x="640.5" y="180.2951">GraphicAdapter</text></g><!--entity AdapterSalvataggio--><g id="elem_AdapterSalvataggio"><rect fill="#F1F1F1" height="46.2969" rx="2.5" ry="2.5" style="stroke:#181818;stroke-width:0.5;" width="172" x="418" y="147.3"/><rect fill="#F1F1F1" height="10" style="stroke:#181818;stroke-width:0.5;" width="15" x="570" y="152.3"/><rect fill="#F1F1F1" height="2" style="stroke:#181818;stroke-width:0.5;" width="4" x="568" y="154.3"/><rect fill="#F1F1F1" height="2" style="stroke:#181818;stroke-width:0.5;" width="4" x="568" y="158.3"/><text fill="#000000" font-family="sans-serif" font-size="14" lengthAdjust="spacing" textLength="132" x="433" y="180.2951">AdapterSalvataggio</text></g><!--entity Salvataggio--><g id="elem_Salvataggio"><rect fill="#F1F1F1" height="46.2969" rx="2.5" ry="2.5" style="stroke:#181818;stroke-width:0.5;" width="118" x="445" y="268.59"/><rect fill="#F1F1F1" height="10" style="stroke:#181818;stroke-width:0.5;" width="15" x="543" y="273.59"/><rect fill="#F1F1F1" height="2" style="stroke:#181818;stroke-width:0.5;" width="4" x="541" y="275.59"/><rect fill="#F1F1F1" height="2" style="stroke:#181818;stroke-width:0.5;" width="4" x="541" y="279.59"/><text fill="#000000" font-family="sans-serif" font-size="14" lengthAdjust="spacing" textLength="78" x="460" y="301.5851">Salvataggio</text></g><!--link Grafica to Menu--><!--link GameEngine to Mappa--><g id="link_GameEngine_Mappa"><path d="M295.52,87.62 C292.8,118.29 285.27,174.38 265,217.59 C256.19,236.37 245.7163,250.2115 233.4163,263.8015 " fill="none" id="GameEngine-to-Mappa" style="stroke:#181818;stroke-width:1.0;"/><polygon fill="#181818" points="229.39,268.25,238.3951,264.2614,232.7452,264.5429,232.4637,258.8931,229.39,268.25" style="stroke:#181818;stroke-width:1.0;"/></g><!--link GameEngine to Player--><g id="link_GameEngine_Player"><path d="M277.47,87.78 C262.38,105.27 245.5008,124.8382 230.4108,142.3182 " fill="none" id="GameEngine-to-Player" style="stroke:#181818;stroke-width:1.0;"/><polygon fill="#181818" points="226.49,146.86,235.399,142.6612,229.7573,143.0752,229.3433,137.4335,226.49,146.86" style="stroke:#181818;stroke-width:1.0;"/></g><!--reverse link StorageManagment to Player--><g id="link_StorageManagment_Player"><path d="M135.1367,92.1731 C151.4067,109.6631 169.73,129.38 185.99,146.86 " fill="none" id="StorageManagment-backto-Player" style="stroke:#181818;stroke-width:1.0;"/><polygon fill="#181818" points="131.05,87.78,134.2513,97.0941,134.4555,91.4409,140.1087,91.6452,131.05,87.78" style="stroke:#181818;stroke-width:1.0;"/></g><!--reverse link StorageManagment to Mappa--><g id="link_StorageManagment_Mappa"><path d="M113.6018,93.5592 C118.0018,124.2392 127.58,174.4 149,217.59 C158.22,236.18 172.72,254.46 184.91,268.11 " fill="none" id="StorageManagment-backto-Mappa" style="stroke:#181818;stroke-width:1.0;"/><polygon fill="#181818" points="112.75,87.62,110.0682,97.0967,113.4598,92.5694,117.9872,95.961,112.75,87.62" style="stroke:#181818;stroke-width:1.0;"/></g><!--link GameEngine to StorageManagment--><g id="link_GameEngine_StorageManagment"><path d="M232.29,64.15 C220.99,64.15 215.69,64.15 204.39,64.15 " fill="none" id="GameEngine-to-StorageManagment" style="stroke:#181818;stroke-width:1.0;"/><polygon fill="#181818" points="198.39,64.15,207.39,68.15,203.39,64.15,207.39,60.15,198.39,64.15" style="stroke:#181818;stroke-width:1.0;"/></g><!--link Player to Mappa--><!--link Prompt to GraphicAdapter--><!--link AdapterSalvataggio to GraphicAdapter--><!--link Prompt to Grafica--><g id="link_Prompt_Grafica"><path d="M646.12,68.7 C685.39,73.13 743.05,82.92 789,104.3 C811.59,114.8 829.1696,128.4838 844.8496,142.8038 " fill="none" id="Prompt-to-Grafica" style="stroke:#181818;stroke-width:1.0;"/><polygon fill="#181818" points="849.28,146.85,845.3318,137.8272,845.588,143.4782,839.9369,143.7344,849.28,146.85" style="stroke:#181818;stroke-width:1.0;"/></g><!--link GameEngine to Prompt--><g id="link_GameEngine_Prompt"><path d="M361.72,64.15 C426.37,64.15 485.02,64.15 549.67,64.15 " fill="none" id="GameEngine-to-Prompt" style="stroke:#181818;stroke-width:1.0;"/><polygon fill="#181818" points="555.67,64.15,546.67,60.15,550.67,64.15,546.67,68.15,555.67,64.15" style="stroke:#181818;stroke-width:1.0;"/></g><!--link GameEngine to GraphicAdapter--><g id="link_GameEngine_GraphicAdapter"><path d="M361.74,80.13 C375.01,82.83 388.91,85.38 402,87.3 C492.9,100.58 521.76,72.64 608,104.3 C633.35,113.6 653.4579,128.0897 670.6979,142.9697 " fill="none" id="GameEngine-to-GraphicAdapter" style="stroke:#181818;stroke-width:1.0;"/><polygon fill="#181818" points="675.24,146.89,671.0404,137.9814,671.4549,143.623,665.8133,144.0376,675.24,146.89" style="stroke:#181818;stroke-width:1.0;"/></g><!--link Prompt to AdapterSalvataggio--><g id="link_Prompt_AdapterSalvataggio"><path d="M579.95,87.78 C563.68,105.27 545.3566,124.9868 529.0966,142.4668 " fill="none" id="Prompt-to-AdapterSalvataggio" style="stroke:#181818;stroke-width:1.0;"/><polygon fill="#181818" points="525.01,146.86,534.0686,142.9946,528.4155,143.199,528.2111,137.5459,525.01,146.86" style="stroke:#181818;stroke-width:1.0;"/></g><!--link GraphicAdapter to Grafica--><g id="link_GraphicAdapter_Grafica"><path d="M773,170.44 C791.43,170.44 803.87,170.44 822.3,170.44 " fill="none" id="GraphicAdapter-to-Grafica" style="stroke:#181818;stroke-width:1.0;"/><polygon fill="#181818" points="828.3,170.44,819.3,166.44,823.3,170.44,819.3,174.44,828.3,170.44" style="stroke:#181818;stroke-width:1.0;"/></g><!--link GraphicAdapter to Menu--><g id="link_GraphicAdapter_Menu"><path d="M731.16,193.88 C761.64,215.14 802.249,243.4772 832.769,264.7672 " fill="none" id="GraphicAdapter-to-Menu" style="stroke:#181818;stroke-width:1.0;"/><polygon fill="#181818" points="837.69,268.2,832.597,259.7702,833.5892,265.3394,828.02,266.3315,837.69,268.2" style="stroke:#181818;stroke-width:1.0;"/></g><!--link AdapterSalvataggio to Salvataggio--><g id="link_AdapterSalvataggio_Salvataggio"><path d="M504,199.88 C504,221.21 504,241.11 504,262.4 " fill="none" id="AdapterSalvataggio-Salvataggio" style="stroke:#181818;stroke-width:1.0;"/><polygon fill="#181818" points="504,193.88,500,202.88,504,198.88,508,202.88,504,193.88" style="stroke:#181818;stroke-width:1.0;"/><polygon fill="#181818" points="504,268.4,508,259.4,504,263.4,500,259.4,504,268.4" style="stroke:#181818;stroke-width:1.0;"/></g><!--link AdapterSalvataggio to GameEngine--><g id="link_AdapterSalvataggio_GameEngine"><path d="M455.6707,144.0642 C431.3907,131.3942 405.75,118.17 378,104.3 C367.1,98.85 360.7321,95.6911 349.6221,90.3211 " fill="none" id="AdapterSalvataggio-GameEngine" style="stroke:#181818;stroke-width:1.0;"/><polygon fill="#181818" points="460.99,146.84,454.8615,139.1301,456.5572,144.5269,451.1605,146.2226,460.99,146.84" style="stroke:#181818;stroke-width:1.0;"/><polygon fill="#181818" points="344.22,87.71,350.5824,95.228,348.7217,89.8859,354.0638,88.0252,344.22,87.71" style="stroke:#181818;stroke-width:1.0;"/></g><!--SRC=[ZL9DQuD04BtxAuRqa9Ca3JLG28Aq8a8LYUcX10_3kXffNCNQGYdzxtNThF5ZQxkdtVbu- -QzMItryG5ndbruibxilNXDgfOhhKJoYYc51I_5Jreju6P3ZUtTvai3E3eL9Xd1YDyzojwZVh01F9woEAOiCcNwMrkfs3YMPuFjEwvlIqQpR1pCATWipHZjQ2L6OiIafHMSUKommh8K_7YFQ6cVOLrK3PQ73DESiffpwzVekYcRns49FyM0NJFDdta5BEYcWX9e4ckafG1GQmbWFLh1eT6mytPMIol6igPLf-FzDgRnhT2nAlAobgQMfunSYjlGvHxY-GDhJDEiY7fDGyR_QuUP5k3-TDXcRyr6GlASh5Eanam6cAgH9aJwdwkpOjULzWJsFdJ3W-K_o4sVDIUWrLjM8oFNFITalLqRq1eq8Dheez9qruuz7EdtkfvUFm00]--></g></svg>