<?xml version="1.0" encoding="us-ascii" standalone="no"?><svg xmlns="http://www.w3.org/2000/svg" xmlns:xlink="http://www.w3.org/1999/xlink" contentStyleType="text/css" height="352px" preserveAspectRatio="none" style="width:632px;height:352px;background:#FFFFFF;" version="1.1" viewBox="0 0 632 352" width="632px" zoomAndPan="magnify"><defs/><g><!--cluster UI Layer--><g id="cluster_UI Layer"><path d="M98.5,248.59 L163.5,248.59 A3.75,3.75 0 0 1 166,251.09 L173,270.8869 L417.5,270.8869 A2.5,2.5 0 0 1 420,273.3869 L420,343.39 A2.5,2.5 0 0 1 417.5,345.89 L98.5,345.89 A2.5,2.5 0 0 1 96,343.39 L96,251.09 A2.5,2.5 0 0 1 98.5,248.59 " fill="#2E5642" style="stroke:#000000;stroke-width:1.5;"/><line style="stroke:#000000;stroke-width:1.5;" x1="96" x2="173" y1="270.8869" y2="270.8869"/><text fill="#000000" font-family="sans-serif" font-size="14" font-weight="bold" lengthAdjust="spacing" textLength="64" x="100" y="263.5851">UI Layer</text></g><!--cluster Game Engine Layer--><g id="cluster_Game Engine Layer"><path d="M8.5,127.3 L161.5,127.3 A3.75,3.75 0 0 1 164,129.8 L171,149.5969 L171.5,149.5969 A2.5,2.5 0 0 1 174,152.0969 L174,222.09 A2.5,2.5 0 0 1 171.5,224.59 L8.5,224.59 A2.5,2.5 0 0 1 6,222.09 L6,129.8 A2.5,2.5 0 0 1 8.5,127.3 " fill="#F5F5DC" style="stroke:#000000;stroke-width:1.5;"/><line style="stroke:#000000;stroke-width:1.5;" x1="6" x2="171" y1="149.5969" y2="149.5969"/><text fill="#000000" font-family="sans-serif" font-size="14" font-weight="bold" lengthAdjust="spacing" textLength="152" x="10" y="142.2951">Game Engine Layer</text></g><!--cluster Kernel Layer--><g id="cluster_Kernel Layer"><path d="M36.5,6 L138.5,6 A3.75,3.75 0 0 1 141,8.5 L148,28.2969 L270.5,28.2969 A2.5,2.5 0 0 1 273,30.7969 L273,100.8 A2.5,2.5 0 0 1 270.5,103.3 L36.5,103.3 A2.5,2.5 0 0 1 34,100.8 L34,8.5 A2.5,2.5 0 0 1 36.5,6 " fill="#96DED1" style="stroke:#000000;stroke-width:1.5;"/><line style="stroke:#000000;stroke-width:1.5;" x1="34" x2="148" y1="28.2969" y2="28.2969"/><text fill="#000000" font-family="sans-serif" font-size="14" font-weight="bold" lengthAdjust="spacing" textLength="101" x="38" y="20.9951">Kernel Layer</text></g><!--cluster Persitance Layer--><g id="cluster_Persitance Layer"><path d="M450.5,248.59 L584.5,248.59 A3.75,3.75 0 0 1 587,251.09 L594,270.8869 L595.5,270.8869 A2.5,2.5 0 0 1 598,273.3869 L598,343.39 A2.5,2.5 0 0 1 595.5,345.89 L450.5,345.89 A2.5,2.5 0 0 1 448,343.39 L448,251.09 A2.5,2.5 0 0 1 450.5,248.59 " fill="#CC0605" style="stroke:#000000;stroke-width:1.5;"/><line style="stroke:#000000;stroke-width:1.5;" x1="448" x2="594" y1="270.8869" y2="270.8869"/><text fill="#000000" font-family="sans-serif" font-size="14" font-weight="bold" lengthAdjust="spacing" textLength="133" x="452" y="263.5851">Persitance Layer</text></g><!--cluster Adapter Layer--><g id="cluster_Adapter Layer"><path d="M248.5,127.3 L361.5,127.3 A3.75,3.75 0 0 1 364,129.8 L371,149.5969 L622.5,149.5969 A2.5,2.5 0 0 1 625,152.0969 L625,222.09 A2.5,2.5 0 0 1 622.5,224.59 L248.5,224.59 A2.5,2.5 0 0 1 246,222.09 L246,129.8 A2.5,2.5 0 0 1 248.5,127.3 " fill="#A65E2E" style="stroke:#000000;stroke-width:1.5;"/><line style="stroke:#000000;stroke-width:1.5;" x1="246" x2="371" y1="149.5969" y2="149.5969"/><text fill="#000000" font-family="sans-serif" font-size="14" font-weight="bold" lengthAdjust="spacing" textLength="112" x="250" y="142.2951">Adapter Layer</text></g><!--entity GraficaInput--><g id="elem_GraficaInput"><rect fill="#F1F1F1" height="46.2969" rx="2.5" ry="2.5" style="stroke:#181818;stroke-width:0.5;" width="122" x="112" y="283.59"/><rect fill="#F1F1F1" height="10" style="stroke:#181818;stroke-width:0.5;" width="15" x="214" y="288.59"/><rect fill="#F1F1F1" height="2" style="stroke:#181818;stroke-width:0.5;" width="4" x="212" y="290.59"/><rect fill="#F1F1F1" height="2" style="stroke:#181818;stroke-width:0.5;" width="4" x="212" y="294.59"/><text fill="#000000" font-family="sans-serif" font-size="14" lengthAdjust="spacing" textLength="82" x="127" y="316.5851">GraficaInput</text></g><!--entity GraficaOutput--><g id="elem_GraficaOutput"><rect fill="#F1F1F1" height="46.2969" rx="2.5" ry="2.5" style="stroke:#181818;stroke-width:0.5;" width="135" x="268.5" y="283.59"/><rect fill="#F1F1F1" height="10" style="stroke:#181818;stroke-width:0.5;" width="15" x="383.5" y="288.59"/><rect fill="#F1F1F1" height="2" style="stroke:#181818;stroke-width:0.5;" width="4" x="381.5" y="290.59"/><rect fill="#F1F1F1" height="2" style="stroke:#181818;stroke-width:0.5;" width="4" x="381.5" y="294.59"/><text fill="#000000" font-family="sans-serif" font-size="14" lengthAdjust="spacing" textLength="95" x="283.5" y="316.5851">GraficaOutput</text></g><!--entity GameEngine--><g id="elem_GameEngine"><rect fill="#F1F1F1" height="46.2969" rx="2.5" ry="2.5" style="stroke:#181818;stroke-width:0.5;" width="129" x="26.5" y="162.3"/><rect fill="#F1F1F1" height="10" style="stroke:#181818;stroke-width:0.5;" width="15" x="135.5" y="167.3"/><rect fill="#F1F1F1" height="2" style="stroke:#181818;stroke-width:0.5;" width="4" x="133.5" y="169.3"/><rect fill="#F1F1F1" height="2" style="stroke:#181818;stroke-width:0.5;" width="4" x="133.5" y="173.3"/><text fill="#000000" font-family="sans-serif" font-size="14" lengthAdjust="spacing" textLength="89" x="41.5" y="195.2951">GameEngine</text></g><!--entity Prompt--><g id="elem_Prompt"><rect fill="#F1F1F1" height="46.2969" rx="2.5" ry="2.5" style="stroke:#181818;stroke-width:0.5;" width="90" x="167" y="41"/><rect fill="#F1F1F1" height="10" style="stroke:#181818;stroke-width:0.5;" width="15" x="237" y="46"/><rect fill="#F1F1F1" height="2" style="stroke:#181818;stroke-width:0.5;" width="4" x="235" y="48"/><rect fill="#F1F1F1" height="2" style="stroke:#181818;stroke-width:0.5;" width="4" x="235" y="52"/><text fill="#000000" font-family="sans-serif" font-size="14" lengthAdjust="spacing" textLength="50" x="182" y="73.9951">Prompt</text></g><!--entity Game--><g id="elem_Game"><rect fill="#F1F1F1" height="46.2969" rx="2.5" ry="2.5" style="stroke:#181818;stroke-width:0.5;" width="81" x="50.5" y="41"/><rect fill="#F1F1F1" height="10" style="stroke:#181818;stroke-width:0.5;" width="15" x="111.5" y="46"/><rect fill="#F1F1F1" height="2" style="stroke:#181818;stroke-width:0.5;" width="4" x="109.5" y="48"/><rect fill="#F1F1F1" height="2" style="stroke:#181818;stroke-width:0.5;" width="4" x="109.5" y="52"/><text fill="#000000" font-family="sans-serif" font-size="14" lengthAdjust="spacing" textLength="41" x="65.5" y="73.9951">Game</text></g><!--entity Salvataggio--><g id="elem_Salvataggio"><rect fill="#F1F1F1" height="46.2969" rx="2.5" ry="2.5" style="stroke:#181818;stroke-width:0.5;" width="118" x="464" y="283.59"/><rect fill="#F1F1F1" height="10" style="stroke:#181818;stroke-width:0.5;" width="15" x="562" y="288.59"/><rect fill="#F1F1F1" height="2" style="stroke:#181818;stroke-width:0.5;" width="4" x="560" y="290.59"/><rect fill="#F1F1F1" height="2" style="stroke:#181818;stroke-width:0.5;" width="4" x="560" y="294.59"/><text fill="#000000" font-family="sans-serif" font-size="14" lengthAdjust="spacing" textLength="78" x="479" y="316.5851">Salvataggio</text></g><!--entity AdapterGrafica--><g id="elem_AdapterGrafica"><rect fill="#F1F1F1" height="46.2969" rx="2.5" ry="2.5" style="stroke:#181818;stroke-width:0.5;" width="141" x="261.5" y="162.3"/><rect fill="#F1F1F1" height="10" style="stroke:#181818;stroke-width:0.5;" width="15" x="382.5" y="167.3"/><rect fill="#F1F1F1" height="2" style="stroke:#181818;stroke-width:0.5;" width="4" x="380.5" y="169.3"/><rect fill="#F1F1F1" height="2" style="stroke:#181818;stroke-width:0.5;" width="4" x="380.5" y="173.3"/><text fill="#000000" font-family="sans-serif" font-size="14" lengthAdjust="spacing" textLength="101" x="276.5" y="195.2951">AdapterGrafica</text></g><!--entity AdapterSalvataggio--><g id="elem_AdapterSalvataggio"><rect fill="#F1F1F1" height="46.2969" rx="2.5" ry="2.5" style="stroke:#181818;stroke-width:0.5;" width="172" x="437" y="162.3"/><rect fill="#F1F1F1" height="10" style="stroke:#181818;stroke-width:0.5;" width="15" x="589" y="167.3"/><rect fill="#F1F1F1" height="2" style="stroke:#181818;stroke-width:0.5;" width="4" x="587" y="169.3"/><rect fill="#F1F1F1" height="2" style="stroke:#181818;stroke-width:0.5;" width="4" x="587" y="173.3"/><text fill="#000000" font-family="sans-serif" font-size="14" lengthAdjust="spacing" textLength="132" x="452" y="195.2951">AdapterSalvataggio</text></g><!--link Game to Prompt--><g id="link_Game_Prompt"><path d="M131.65,64.15 C143.37,64.15 149.08,64.15 160.8,64.15 " fill="none" id="Game-to-Prompt" style="stroke:#181818;stroke-width:1.0;"/><polygon fill="#181818" points="166.8,64.15,157.8,60.15,161.8,64.15,157.8,68.15,166.8,64.15" style="stroke:#181818;stroke-width:1.0;"/></g><!--link Game to GameEngine--><g id="link_Game_GameEngine"><path d="M91,87.59 C91,108.92 91,134.81 91,156.11 " fill="none" id="Game-to-GameEngine" style="stroke:#181818;stroke-width:1.0;"/><polygon fill="#181818" points="91,162.11,95,153.11,91,157.11,87,153.11,91,162.11" style="stroke:#181818;stroke-width:1.0;"/></g><!--link Prompt to GameEngine--><g id="link_Prompt_GameEngine"><path d="M189.24,87.59 C167.61,108.92 139.5322,136.5971 117.9322,157.8971 " fill="none" id="Prompt-to-GameEngine" style="stroke:#181818;stroke-width:1.0;"/><polygon fill="#181818" points="113.66,162.11,122.8769,158.6388,117.2202,158.5993,117.2597,152.9426,113.66,162.11" style="stroke:#181818;stroke-width:1.0;"/></g><!--link Prompt to GraficaInput--><g id="link_Prompt_GraficaInput"><path d="M208.33,87.78 C200.88,133.75 185.0102,231.6473 177.5902,277.4173 " fill="none" id="Prompt-to-GraficaInput" style="stroke:#181818;stroke-width:1.0;"/><polygon fill="#181818" points="176.63,283.34,182.0187,275.0961,177.4301,278.4044,174.1218,273.8159,176.63,283.34" style="stroke:#181818;stroke-width:1.0;"/></g><!--link Prompt to AdapterSalvataggio--><g id="link_Prompt_AdapterSalvataggio"><path d="M257.15,72.72 C300.2,80.9 366.26,95.98 420,119.3 C446.01,130.58 468.1026,144.4478 487.9326,158.3978 " fill="none" id="Prompt-to-AdapterSalvataggio" style="stroke:#181818;stroke-width:1.0;"/><polygon fill="#181818" points="492.84,161.85,487.7804,153.4001,488.7505,158.9731,483.1775,159.9432,492.84,161.85" style="stroke:#181818;stroke-width:1.0;"/></g><!--link AdapterSalvataggio to Salvataggio--><g id="link_AdapterSalvataggio_Salvataggio"><path d="M523,208.88 C523,230.21 523,256.11 523,277.4 " fill="none" id="AdapterSalvataggio-to-Salvataggio" style="stroke:#181818;stroke-width:1.0;"/><polygon fill="#181818" points="523,283.4,527,274.4,523,278.4,519,274.4,523,283.4" style="stroke:#181818;stroke-width:1.0;"/></g><!--link AdapterGrafica to GraficaOutput--><g id="link_AdapterGrafica_GraficaOutput"><path d="M332.75,208.88 C333.47,230.21 334.34,256.1133 335.05,277.4033 " fill="none" id="AdapterGrafica-to-GraficaOutput" style="stroke:#181818;stroke-width:1.0;"/><polygon fill="#181818" points="335.25,283.4,338.9478,274.2717,335.0833,278.4028,330.9522,274.5383,335.25,283.4" style="stroke:#181818;stroke-width:1.0;"/></g><!--link Game to AdapterGrafica--><g id="link_Game_AdapterGrafica"><path d="M116.19,87.7 C126.22,95.89 138.17,104.74 150,111.3 C159.1,116.34 162.29,115.56 172,119.3 C207.54,132.99 241.6551,146.8378 272.5951,159.6278 " fill="none" id="Game-to-AdapterGrafica" style="stroke:#181818;stroke-width:1.0;"/><polygon fill="#181818" points="278.14,161.92,271.3507,154.7852,273.5192,160.0099,268.2945,162.1784,278.14,161.92" style="stroke:#181818;stroke-width:1.0;"/></g><!--SRC=[VP91QuD048Nl_eeXFUGKaaeLUYaixIBIrafC3w5u6DPHf8cHhIcKalzUNLsZLjtJ-kR9D-_fUhaQ7gZFkmilRC-tzTC_rt9jv2W-CI5OL5Ry8Rc06vCi-yxyDG0-78bnAj3DydCHTeItSw6KYs6in-WEU-N0FSVrkDvWbkxWaO1dIPfHkqPinLOagZKKk7JKXcag07jY_gwajQbdgSyaCpgqm7ixekXMvVRbwPWtYKjmMEvmCPhhwk4wrrAbTJVK1fWUg4cltl5KFjy6Rh1ZtgEkSZQJJ_8hBJ0JroA5sDWR2rIm00_VM62IfAV97libpj9OX7b1iaMXRP59YjICceXXHnhiqAzap3CcrkvHcqRsEjP_RE-J3Lxu0m00]--></g></svg>