<svg xmlns="http://www.w3.org/2000/svg" xmlns:xlink="http://www.w3.org/1999/xlink" contentStyleType="text/css" height="1031px" preserveAspectRatio="none" style="width:1186px;height:1031px;background:#FFFFFF;" version="1.1" viewBox="0 0 1186 1031" width="1186px" zoomAndPan="magnify"><defs/><g><text fill="#000000" font-family="sans-serif" font-size="14" font-weight="bold" lengthAdjust="spacing" textLength="149" x="519.5" y="27.9951">Comando generico</text><rect fill="#FFFFFF" height="272.0625" style="stroke:#181818;stroke-width:1.0;" width="10" x="42.5" y="128.5938"/><rect fill="#FFFFFF" height="746.5313" style="stroke:#181818;stroke-width:1.0;" width="10" x="210.5" y="178.8594"/><rect fill="#FFFFFF" height="115.3984" style="stroke:#181818;stroke-width:1.0;" width="10" x="470.5" y="207.9922"/><rect fill="#FFFFFF" height="57.1328" style="stroke:#181818;stroke-width:1.0;" width="10" x="590" y="237.125"/><rect fill="#FFFFFF" height="29.1328" style="stroke:#181818;stroke-width:1.0;" width="10" x="725" y="251.125"/><rect fill="none" height="510.7344" style="stroke:#000000;stroke-width:1.5;" width="1169" x="10" y="422.6563"/><line style="stroke:#181818;stroke-width:0.5;stroke-dasharray:5.0,5.0;" x1="47" x2="47" y1="118.5938" y2="950.3906"/><line style="stroke:#181818;stroke-width:0.5;stroke-dasharray:5.0,5.0;" x1="215.5" x2="215.5" y1="118.5938" y2="950.3906"/><line style="stroke:#181818;stroke-width:0.5;stroke-dasharray:5.0,5.0;" x1="475" x2="475" y1="118.5938" y2="950.3906"/><line style="stroke:#181818;stroke-width:0.5;stroke-dasharray:5.0,5.0;" x1="595" x2="595" y1="118.5938" y2="950.3906"/><line style="stroke:#181818;stroke-width:0.5;stroke-dasharray:5.0,5.0;" x1="729.5" x2="729.5" y1="118.5938" y2="950.3906"/><line style="stroke:#181818;stroke-width:0.5;stroke-dasharray:5.0,5.0;" x1="817.5" x2="817.5" y1="118.5938" y2="950.3906"/><line style="stroke:#181818;stroke-width:0.5;stroke-dasharray:5.0,5.0;" x1="940.5" x2="940.5" y1="118.5938" y2="950.3906"/><line style="stroke:#181818;stroke-width:0.5;stroke-dasharray:5.0,5.0;" x1="1068" x2="1068" y1="118.5938" y2="950.3906"/><line style="stroke:#181818;stroke-width:0.5;stroke-dasharray:5.0,5.0;" x1="1138" x2="1138" y1="118.5938" y2="950.3906"/><rect fill="#E2E2F0" height="30.2969" rx="2.5" ry="2.5" style="stroke:#181818;stroke-width:0.5;" width="55" x="20" y="87.2969"/><text fill="#000000" font-family="sans-serif" font-size="14" lengthAdjust="spacing" textLength="41" x="27" y="107.292">Game</text><rect fill="#E2E2F0" height="30.2969" rx="2.5" ry="2.5" style="stroke:#181818;stroke-width:0.5;" width="55" x="20" y="949.3906"/><text fill="#000000" font-family="sans-serif" font-size="14" lengthAdjust="spacing" textLength="41" x="27" y="969.3857">Game</text><rect fill="#FFFF00" height="30.2969" rx="2.5" ry="2.5" style="stroke:#181818;stroke-width:0.5;" width="64" x="183.5" y="87.2969"/><text fill="#000000" font-family="sans-serif" font-size="14" lengthAdjust="spacing" textLength="50" x="190.5" y="107.292">Prompt</text><rect fill="#FFFF00" height="30.2969" rx="2.5" ry="2.5" style="stroke:#181818;stroke-width:0.5;" width="64" x="183.5" y="949.3906"/><text fill="#000000" font-family="sans-serif" font-size="14" lengthAdjust="spacing" textLength="50" x="190.5" y="969.3857">Prompt</text><rect fill="#E2E2F0" height="30.2969" rx="2.5" ry="2.5" style="stroke:#181818;stroke-width:0.5;" width="121" x="415" y="87.2969"/><text fill="#000000" font-family="sans-serif" font-size="14" lengthAdjust="spacing" textLength="107" x="422" y="107.292">GraphicAdapter</text><rect fill="#E2E2F0" height="30.2969" rx="2.5" ry="2.5" style="stroke:#181818;stroke-width:0.5;" width="121" x="415" y="949.3906"/><text fill="#000000" font-family="sans-serif" font-size="14" lengthAdjust="spacing" textLength="107" x="422" y="969.3857">GraphicAdapter</text><rect fill="#E2E2F0" height="30.2969" rx="2.5" ry="2.5" style="stroke:#181818;stroke-width:0.5;" width="98" x="546" y="87.2969"/><text fill="#000000" font-family="sans-serif" font-size="14" lengthAdjust="spacing" textLength="84" x="553" y="107.292">GameFrame</text><rect fill="#E2E2F0" height="30.2969" rx="2.5" ry="2.5" style="stroke:#181818;stroke-width:0.5;" width="98" x="546" y="949.3906"/><text fill="#000000" font-family="sans-serif" font-size="14" lengthAdjust="spacing" textLength="84" x="553" y="969.3857">GameFrame</text><text fill="#000000" font-family="sans-serif" font-size="14" lengthAdjust="spacing" textLength="47" x="703.5" y="115.292">Utente</text><ellipse cx="730" cy="50.7969" fill="#E2E2F0" rx="8" ry="8" style="stroke:#181818;stroke-width:0.5;"/><path d="M730,58.7969 L730,85.7969 M717,66.7969 L743,66.7969 M730,85.7969 L717,100.7969 M730,85.7969 L743,100.7969 " fill="none" style="stroke:#181818;stroke-width:0.5;"/><text fill="#000000" font-family="sans-serif" font-size="14" lengthAdjust="spacing" textLength="47" x="703.5" y="962.3857">Utente</text><ellipse cx="730" cy="974.1875" fill="#E2E2F0" rx="8" ry="8" style="stroke:#181818;stroke-width:0.5;"/><path d="M730,982.1875 L730,1009.1875 M717,990.1875 L743,990.1875 M730,1009.1875 L717,1024.1875 M730,1009.1875 L743,1024.1875 " fill="none" style="stroke:#181818;stroke-width:0.5;"/><rect fill="#E2E2F0" height="30.2969" rx="2.5" ry="2.5" style="stroke:#181818;stroke-width:0.5;" width="103" x="766.5" y="87.2969"/><text fill="#000000" font-family="sans-serif" font-size="14" lengthAdjust="spacing" textLength="89" x="773.5" y="107.292">GameEngine</text><rect fill="#E2E2F0" height="30.2969" rx="2.5" ry="2.5" style="stroke:#181818;stroke-width:0.5;" width="103" x="766.5" y="949.3906"/><text fill="#000000" font-family="sans-serif" font-size="14" lengthAdjust="spacing" textLength="89" x="773.5" y="969.3857">GameEngine</text><rect fill="#E2E2F0" height="30.2969" rx="2.5" ry="2.5" style="stroke:#181818;stroke-width:0.5;" width="101" x="890.5" y="87.2969"/><text fill="#000000" font-family="sans-serif" font-size="14" lengthAdjust="spacing" textLength="87" x="897.5" y="107.292">SaveAdapter</text><rect fill="#E2E2F0" height="30.2969" rx="2.5" ry="2.5" style="stroke:#181818;stroke-width:0.5;" width="101" x="890.5" y="949.3906"/><text fill="#000000" font-family="sans-serif" font-size="14" lengthAdjust="spacing" textLength="87" x="897.5" y="969.3857">SaveAdapter</text><rect fill="#E2E2F0" height="30.2969" rx="2.5" ry="2.5" style="stroke:#181818;stroke-width:0.5;" width="58" x="1039" y="87.2969"/><text fill="#000000" font-family="sans-serif" font-size="14" lengthAdjust="spacing" textLength="44" x="1046" y="107.292">Parser</text><rect fill="#E2E2F0" height="30.2969" rx="2.5" ry="2.5" style="stroke:#181818;stroke-width:0.5;" width="58" x="1039" y="949.3906"/><text fill="#000000" font-family="sans-serif" font-size="14" lengthAdjust="spacing" textLength="44" x="1046" y="969.3857">Parser</text><text fill="#000000" font-family="sans-serif" font-size="14" lengthAdjust="spacing" textLength="56" x="1107" y="115.292">Amazon</text><path d="M1120,66.2969 C1120,56.2969 1138,56.2969 1138,56.2969 C1138,56.2969 1156,56.2969 1156,66.2969 L1156,92.2969 C1156,102.2969 1138,102.2969 1138,102.2969 C1138,102.2969 1120,102.2969 1120,92.2969 L1120,66.2969 " fill="#E2E2F0" style="stroke:#181818;stroke-width:1.5;"/><path d="M1120,66.2969 C1120,76.2969 1138,76.2969 1138,76.2969 C1138,76.2969 1156,76.2969 1156,66.2969 " fill="none" style="stroke:#181818;stroke-width:1.5;"/><text fill="#000000" font-family="sans-serif" font-size="14" lengthAdjust="spacing" textLength="56" x="1107" y="962.3857">Amazon</text><path d="M1120,975.6875 C1120,965.6875 1138,965.6875 1138,965.6875 C1138,965.6875 1156,965.6875 1156,975.6875 L1156,1001.6875 C1156,1011.6875 1138,1011.6875 1138,1011.6875 C1138,1011.6875 1120,1011.6875 1120,1001.6875 L1120,975.6875 " fill="#E2E2F0" style="stroke:#181818;stroke-width:1.5;"/><path d="M1120,975.6875 C1120,985.6875 1138,985.6875 1138,985.6875 C1138,985.6875 1156,985.6875 1156,975.6875 " fill="none" style="stroke:#181818;stroke-width:1.5;"/><rect fill="#FFFFFF" height="272.0625" style="stroke:#181818;stroke-width:1.0;" width="10" x="42.5" y="128.5938"/><rect fill="#FFFFFF" height="746.5313" style="stroke:#181818;stroke-width:1.0;" width="10" x="210.5" y="178.8594"/><rect fill="#FFFFFF" height="115.3984" style="stroke:#181818;stroke-width:1.0;" width="10" x="470.5" y="207.9922"/><rect fill="#FFFFFF" height="57.1328" style="stroke:#181818;stroke-width:1.0;" width="10" x="590" y="237.125"/><rect fill="#FFFFFF" height="29.1328" style="stroke:#181818;stroke-width:1.0;" width="10" x="725" y="251.125"/><polygon fill="#181818" points="203.5,145.7266,213.5,149.7266,203.5,153.7266,207.5,149.7266" style="stroke:#181818;stroke-width:1.0;"/><line style="stroke:#181818;stroke-width:1.0;" x1="52.5" x2="209.5" y1="149.7266" y2="149.7266"/><text fill="#000000" font-family="sans-serif" font-size="13" lengthAdjust="spacing" textLength="139" x="59.5" y="144.6606">Prompt(GameEngine)</text><polygon fill="#181818" points="198.5,174.8594,208.5,178.8594,198.5,182.8594,202.5,178.8594" style="stroke:#181818;stroke-width:1.0;"/><line style="stroke:#181818;stroke-width:1.0;" x1="52.5" x2="204.5" y1="178.8594" y2="178.8594"/><text fill="#000000" font-family="sans-serif" font-size="13" lengthAdjust="spacing" textLength="67" x="59.5" y="173.7935">waitInput()</text><polygon fill="#181818" points="458.5,203.9922,468.5,207.9922,458.5,211.9922,462.5,207.9922" style="stroke:#181818;stroke-width:1.0;"/><line style="stroke:#181818;stroke-width:1.0;" x1="220.5" x2="464.5" y1="207.9922" y2="207.9922"/><text fill="#000000" font-family="sans-serif" font-size="13" lengthAdjust="spacing" textLength="69" x="227.5" y="202.9263">WaitInput()</text><polygon fill="#181818" points="578,233.125,588,237.125,578,241.125,582,237.125" style="stroke:#181818;stroke-width:1.0;"/><line style="stroke:#181818;stroke-width:1.0;" x1="480.5" x2="584" y1="237.125" y2="237.125"/><text fill="#000000" font-family="sans-serif" font-size="13" lengthAdjust="spacing" textLength="80" x="487.5" y="232.0591">stringa input</text><polygon fill="#181818" points="713,247.125,723,251.125,713,255.125,717,251.125" style="stroke:#181818;stroke-width:1.0;"/><line style="stroke:#181818;stroke-width:1.0;" x1="600" x2="719" y1="251.125" y2="251.125"/><polygon fill="#181818" points="611,276.2578,601,280.2578,611,284.2578,607,280.2578" style="stroke:#181818;stroke-width:1.0;"/><line style="stroke:#181818;stroke-width:1.0;stroke-dasharray:2.0,2.0;" x1="605" x2="729" y1="280.2578" y2="280.2578"/><text fill="#000000" font-family="sans-serif" font-size="13" lengthAdjust="spacing" textLength="101" x="617" y="275.1919">scrive comando</text><polygon fill="#181818" points="491.5,290.2578,481.5,294.2578,491.5,298.2578,487.5,294.2578" style="stroke:#181818;stroke-width:1.0;"/><line style="stroke:#181818;stroke-width:1.0;stroke-dasharray:2.0,2.0;" x1="485.5" x2="594" y1="294.2578" y2="294.2578"/><polygon fill="#181818" points="231.5,319.3906,221.5,323.3906,231.5,327.3906,227.5,323.3906" style="stroke:#181818;stroke-width:1.0;"/><line style="stroke:#181818;stroke-width:1.0;stroke-dasharray:2.0,2.0;" x1="225.5" x2="474.5" y1="323.3906" y2="323.3906"/><text fill="#000000" font-family="sans-serif" font-size="13" lengthAdjust="spacing" textLength="44" x="237.5" y="318.3247">stringa</text><line style="stroke:#181818;stroke-width:1.0;" x1="220.5" x2="262.5" y1="352.5234" y2="352.5234"/><line style="stroke:#181818;stroke-width:1.0;" x1="262.5" x2="262.5" y1="352.5234" y2="365.5234"/><line style="stroke:#181818;stroke-width:1.0;" x1="221.5" x2="262.5" y1="365.5234" y2="365.5234"/><polygon fill="#181818" points="231.5,361.5234,221.5,365.5234,231.5,369.5234,227.5,365.5234" style="stroke:#181818;stroke-width:1.0;"/><text fill="#000000" font-family="sans-serif" font-size="13" lengthAdjust="spacing" textLength="226" x="227.5" y="347.4575">controllo correttezza rispetto menù</text><line style="stroke:#181818;stroke-width:1.0;" x1="220.5" x2="262.5" y1="399.6563" y2="399.6563"/><line style="stroke:#181818;stroke-width:1.0;" x1="262.5" x2="262.5" y1="399.6563" y2="412.6563"/><line style="stroke:#181818;stroke-width:1.0;" x1="215.5" x2="262.5" y1="412.6563" y2="412.6563"/><polygon fill="#181818" points="225.5,408.6563,215.5,412.6563,225.5,416.6563,221.5,412.6563" style="stroke:#181818;stroke-width:1.0;"/><text fill="#000000" font-family="sans-serif" font-size="13" lengthAdjust="spacing" textLength="126" x="227.5" y="394.5903">cambia il command</text><path d="M10,422.6563 L74,422.6563 L74,429.7891 L64,439.7891 L10,439.7891 L10,422.6563 " fill="#EEEEEE" style="stroke:#000000;stroke-width:1.5;"/><rect fill="none" height="510.7344" style="stroke:#000000;stroke-width:1.5;" width="1169" x="10" y="422.6563"/><text fill="#000000" font-family="sans-serif" font-size="13" font-weight="bold" lengthAdjust="spacing" textLength="19" x="25" y="435.7231">alt</text><text fill="#000000" font-family="sans-serif" font-size="11" font-weight="bold" lengthAdjust="spacing" textLength="89" x="89" y="434.8667">[Azioni Gioco]</text><polygon fill="#FF0000" points="806,456.9219,816,460.9219,806,464.9219,810,460.9219" style="stroke:#FF0000;stroke-width:1.0;"/><line style="stroke:#FF0000;stroke-width:1.0;" x1="220.5" x2="812" y1="460.9219" y2="460.9219"/><text fill="#000000" font-family="sans-serif" font-size="13" lengthAdjust="spacing" textLength="152" x="227.5" y="455.856">attacco/movimento/uso</text><line style="stroke:#181818;stroke-width:1.0;" x1="818" x2="860" y1="490.0547" y2="490.0547"/><line style="stroke:#181818;stroke-width:1.0;" x1="860" x2="860" y1="490.0547" y2="503.0547"/><line style="stroke:#181818;stroke-width:1.0;" x1="819" x2="860" y1="503.0547" y2="503.0547"/><polygon fill="#181818" points="829,499.0547,819,503.0547,829,507.0547,825,503.0547" style="stroke:#181818;stroke-width:1.0;"/><text fill="#000000" font-family="sans-serif" font-size="13" lengthAdjust="spacing" textLength="109" x="825" y="484.9888">chiamate interne</text><polygon fill="#181818" points="231.5,528.1875,221.5,532.1875,231.5,536.1875,227.5,532.1875" style="stroke:#181818;stroke-width:1.0;"/><line style="stroke:#181818;stroke-width:1.0;stroke-dasharray:2.0,2.0;" x1="225.5" x2="817" y1="532.1875" y2="532.1875"/><text fill="#000000" font-family="sans-serif" font-size="13" lengthAdjust="spacing" textLength="87" x="237.5" y="527.1216">valori richiesti</text><polygon fill="#181818" points="463.5,557.3203,473.5,561.3203,463.5,565.3203,467.5,561.3203" style="stroke:#181818;stroke-width:1.0;"/><line style="stroke:#181818;stroke-width:1.0;stroke-dasharray:2.0,2.0;" x1="220.5" x2="469.5" y1="561.3203" y2="561.3203"/><text fill="#000000" font-family="sans-serif" font-size="13" lengthAdjust="spacing" textLength="143" x="227.5" y="556.2544">dipende dalla richiesta</text><polygon fill="#181818" points="58.5,586.4531,48.5,590.4531,58.5,594.4531,54.5,590.4531" style="stroke:#181818;stroke-width:1.0;"/><line style="stroke:#181818;stroke-width:1.0;stroke-dasharray:2.0,2.0;" x1="52.5" x2="209.5" y1="590.4531" y2="590.4531"/><text fill="#000000" font-family="sans-serif" font-size="13" lengthAdjust="spacing" textLength="123" x="64.5" y="585.3872">Enum per gli eventi</text><line style="stroke:#000000;stroke-width:1.0;stroke-dasharray:2.0,2.0;" x1="10" x2="1179" y1="599.4531" y2="599.4531"/><text fill="#000000" font-family="sans-serif" font-size="11" font-weight="bold" lengthAdjust="spacing" textLength="90" x="15" y="609.6636">[Salvataggio:]</text><polygon fill="#008000" points="806,630.3906,816,634.3906,806,638.3906,810,634.3906" style="stroke:#008000;stroke-width:1.0;"/><line style="stroke:#008000;stroke-width:1.0;" x1="220.5" x2="812" y1="634.3906" y2="634.3906"/><text fill="#000000" font-family="sans-serif" font-size="13" lengthAdjust="spacing" textLength="95" x="227.5" y="629.3247">ottengo i valori</text><polygon fill="#181818" points="231.5,659.5234,221.5,663.5234,231.5,667.5234,227.5,663.5234" style="stroke:#181818;stroke-width:1.0;"/><line style="stroke:#181818;stroke-width:1.0;stroke-dasharray:2.0,2.0;" x1="225.5" x2="817" y1="663.5234" y2="663.5234"/><text fill="#000000" font-family="sans-serif" font-size="13" lengthAdjust="spacing" textLength="90" x="237.5" y="658.4575">Prende i valori</text><polygon fill="#181818" points="929,688.6563,939,692.6563,929,696.6563,933,692.6563" style="stroke:#181818;stroke-width:1.0;"/><line style="stroke:#181818;stroke-width:1.0;" x1="220.5" x2="935" y1="692.6563" y2="692.6563"/><text fill="#000000" font-family="sans-serif" font-size="13" lengthAdjust="spacing" textLength="92" x="227.5" y="687.5903">Ottiene i valori</text><polygon fill="#181818" points="1056,717.7891,1066,721.7891,1056,725.7891,1060,721.7891" style="stroke:#181818;stroke-width:1.0;"/><line style="stroke:#181818;stroke-width:1.0;" x1="941" x2="1062" y1="721.7891" y2="721.7891"/><text fill="#000000" font-family="sans-serif" font-size="13" lengthAdjust="spacing" textLength="103" x="948" y="716.7231">Converte in Json</text><polygon fill="#181818" points="1126,731.7891,1136,735.7891,1126,739.7891,1130,735.7891" style="stroke:#181818;stroke-width:1.0;"/><line style="stroke:#181818;stroke-width:1.0;" x1="1068" x2="1132" y1="735.7891" y2="735.7891"/><polygon fill="#181818" points="58.5,760.9219,48.5,764.9219,58.5,768.9219,54.5,764.9219" style="stroke:#181818;stroke-width:1.0;"/><line style="stroke:#181818;stroke-width:1.0;stroke-dasharray:2.0,2.0;" x1="52.5" x2="209.5" y1="764.9219" y2="764.9219"/><text fill="#000000" font-family="sans-serif" font-size="13" lengthAdjust="spacing" textLength="123" x="64.5" y="759.856">Enum per gli eventi</text><polygon fill="#008000" points="929,790.0547,939,794.0547,929,798.0547,933,794.0547" style="stroke:#008000;stroke-width:1.0;"/><line style="stroke:#008000;stroke-width:1.0;" x1="220.5" x2="935" y1="794.0547" y2="794.0547"/><text fill="#000000" font-family="sans-serif" font-size="13" lengthAdjust="spacing" textLength="127" x="227.5" y="788.9888">Load: richiedo valori</text><polygon fill="#181818" points="231.5,819.1875,221.5,823.1875,231.5,827.1875,227.5,823.1875" style="stroke:#181818;stroke-width:1.0;"/><line style="stroke:#181818;stroke-width:1.0;stroke-dasharray:2.0,2.0;" x1="225.5" x2="940" y1="823.1875" y2="823.1875"/><text fill="#000000" font-family="sans-serif" font-size="13" lengthAdjust="spacing" textLength="116" x="237.5" y="818.1216">Valore istanziabile</text><polygon fill="#181818" points="806,848.3203,816,852.3203,806,856.3203,810,852.3203" style="stroke:#181818;stroke-width:1.0;"/><line style="stroke:#181818;stroke-width:1.0;" x1="220.5" x2="812" y1="852.3203" y2="852.3203"/><text fill="#000000" font-family="sans-serif" font-size="13" lengthAdjust="spacing" textLength="49" x="227.5" y="847.2544">Istanzia</text><polygon fill="#181818" points="58.5,877.4531,48.5,881.4531,58.5,885.4531,54.5,881.4531" style="stroke:#181818;stroke-width:1.0;"/><line style="stroke:#181818;stroke-width:1.0;stroke-dasharray:2.0,2.0;" x1="52.5" x2="209.5" y1="881.4531" y2="881.4531"/><text fill="#000000" font-family="sans-serif" font-size="13" lengthAdjust="spacing" textLength="123" x="64.5" y="876.3872">Enum per gli eventi</text><line style="stroke:#000000;stroke-width:1.0;stroke-dasharray:2.0,2.0;" x1="10" x2="1179" y1="890.4531" y2="890.4531"/><text fill="#000000" font-family="sans-serif" font-size="11" font-weight="bold" lengthAdjust="spacing" textLength="140" x="15" y="900.6636">[No azioni particolari]</text><polygon fill="#181818" points="58.5,921.3906,48.5,925.3906,58.5,929.3906,54.5,925.3906" style="stroke:#181818;stroke-width:1.0;"/><line style="stroke:#181818;stroke-width:1.0;stroke-dasharray:2.0,2.0;" x1="52.5" x2="214.5" y1="925.3906" y2="925.3906"/><text fill="#000000" font-family="sans-serif" font-size="13" lengthAdjust="spacing" textLength="123" x="64.5" y="920.3247">Enum per gli eventi</text><!--SRC=[dLNBQjqm4DthAmQoIBAutBmsrI8GIXfIIXi8RHUXYuazE0EoP6J5eVVFkkwFTNpzakGcYtXbx7D6vvpnZ0C7G_3HrMXB1nLPybmufHhqWGjkq0QumPfWkPmloSDf0hdphcv21Zc3WzzaZ7j9gtbidhYuAh490XgWvwi3F_dvr0c2HN0UlWUo8TQpG2vMLQvjnPPYsIS9vXuxcfGikbFC7VfsU0q9fiI0ZzWINDMuStOjv_n4gUsXvmhXzFnms-ld3aLxhqobgMukfmprU7Eqw3z-0_o276vjynoEZfS3XhSgxOgmikmr_8pOaRu4fZ9MNsTka8OsUBPYaVioAZMvnwYidS8VUXY1nmT9RpVvGONdZg0OlbLLKiwUmZxx8657fsvMpcFoedDbDCvvj9amqvhhk6TouMpmJaP1xhod46YtG_3SDdBle2RxzyzRTAmVMH8slVdUVQv_jdvnrbjNQ09SxTXPXXjsCizJxSt3WQVorsKy71em12mAjwrTnw8bkErpwrGwFvkCKpmnrltvBD5xIoayYgw_D7Hed6UnB3ng0wTk1Pw6gQ7aXcn9KA8nEFDmnOktauPh-rn38xsh30DrueKb3Z8ofVTe92-iAdPQuifcfOyjBYr1LPx8vb4vwPsj7F3eA4jfLZNKqiE3Ex-tCdEoRJdrErf66hw5mBAD5rAsgkQFPB-TjAnmsv7VzmC-jywgR6rD-65PlIV6L-99L7znMEgnM_8_ULrwCbi_UfWeb_xQ7UCZ6tejeoLk3RSZ_Zrczf_4LmSuJCcmxvt1h3jpiV-NYSPmNBbAElqF]--></g></svg>