<?xml version="1.0" encoding="us-ascii" standalone="no"?><svg xmlns="http://www.w3.org/2000/svg" xmlns:xlink="http://www.w3.org/1999/xlink" contentStyleType="text/css" height="991px" preserveAspectRatio="none" style="width:1445px;height:991px;background:#FFFFFF;" version="1.1" viewBox="0 0 1445 991" width="1445px" zoomAndPan="magnify"><defs/><g><rect fill="none" height="223.6172" style="stroke:#000000;stroke-width:1.5;" width="910" x="20" y="98.2969"/><rect fill="none" height="558.0156" style="stroke:#000000;stroke-width:1.5;" width="1429" x="10" y="335.9141"/><rect fill="none" height="293.8203" style="stroke:#000000;stroke-width:1.5;" width="1409" x="20" y="593.1094"/><line style="stroke:#181818;stroke-width:0.5;stroke-dasharray:5.0,5.0;" x1="57" x2="57" y1="81.2969" y2="910.9297"/><line style="stroke:#181818;stroke-width:0.5;stroke-dasharray:5.0,5.0;" x1="277.5" x2="277.5" y1="146.0781" y2="910.9297"/><line style="stroke:#181818;stroke-width:0.5;stroke-dasharray:5.0,5.0;" x1="488" x2="488" y1="187.375" y2="910.9297"/><line style="stroke:#181818;stroke-width:0.5;stroke-dasharray:5.0,5.0;" x1="595" x2="595" y1="228.6719" y2="910.9297"/><line style="stroke:#181818;stroke-width:0.5;stroke-dasharray:5.0,5.0;" x1="680" x2="680" y1="269.9688" y2="910.9297"/><line style="stroke:#181818;stroke-width:0.5;stroke-dasharray:5.0,5.0;" x1="872" x2="872" y1="311.2656" y2="910.9297"/><line style="stroke:#181818;stroke-width:0.5;stroke-dasharray:5.0,5.0;" x1="1005.5" x2="1005.5" y1="81.2969" y2="910.9297"/><line style="stroke:#181818;stroke-width:0.5;stroke-dasharray:5.0,5.0;" x1="1093.5" x2="1093.5" y1="640.8906" y2="910.9297"/><line style="stroke:#181818;stroke-width:0.5;stroke-dasharray:5.0,5.0;" x1="1275" x2="1275" y1="682.1875" y2="910.9297"/><line style="stroke:#181818;stroke-width:0.5;stroke-dasharray:5.0,5.0;" x1="1374" x2="1374" y1="847.1484" y2="910.9297"/><rect fill="#E2E2F0" height="30.2969" rx="2.5" ry="2.5" style="stroke:#181818;stroke-width:0.5;" width="55" x="30" y="50"/><text fill="#000000" font-family="sans-serif" font-size="14" lengthAdjust="spacing" textLength="41" x="37" y="69.9951">Game</text><rect fill="#E2E2F0" height="30.2969" rx="2.5" ry="2.5" style="stroke:#181818;stroke-width:0.5;" width="55" x="30" y="909.9297"/><text fill="#000000" font-family="sans-serif" font-size="14" lengthAdjust="spacing" textLength="41" x="37" y="929.9248">Game</text><rect fill="#E2E2F0" height="30.2969" rx="2.5" ry="2.5" style="stroke:#181818;stroke-width:0.5;" width="115" x="220.5" y="909.9297"/><text fill="#000000" font-family="sans-serif" font-size="14" lengthAdjust="spacing" textLength="101" x="227.5" y="929.9248">AdapterGrafica</text><rect fill="#E2E2F0" height="30.2969" rx="2.5" ry="2.5" style="stroke:#181818;stroke-width:0.5;" width="109" x="434" y="909.9297"/><text fill="#000000" font-family="sans-serif" font-size="14" lengthAdjust="spacing" textLength="95" x="441" y="929.9248">GraficaOutput</text><rect fill="#E2E2F0" height="30.2969" rx="2.5" ry="2.5" style="stroke:#181818;stroke-width:0.5;" width="85" x="553" y="909.9297"/><text fill="#000000" font-family="sans-serif" font-size="14" lengthAdjust="spacing" textLength="71" x="560" y="929.9248">MainMenu</text><rect fill="#E2E2F0" height="30.2969" rx="2.5" ry="2.5" style="stroke:#181818;stroke-width:0.5;" width="64" x="648" y="909.9297"/><text fill="#000000" font-family="sans-serif" font-size="14" lengthAdjust="spacing" textLength="50" x="655" y="929.9248">Prompt</text><rect fill="#E2E2F0" height="30.2969" rx="2.5" ry="2.5" style="stroke:#181818;stroke-width:0.5;" width="96" x="824" y="909.9297"/><text fill="#000000" font-family="sans-serif" font-size="14" lengthAdjust="spacing" textLength="82" x="831" y="929.9248">GraficaInput</text><text fill="#000000" font-family="sans-serif" font-size="14" lengthAdjust="spacing" textLength="47" x="979.5" y="77.9951">Utente</text><ellipse cx="1006" cy="13.5" fill="#E2E2F0" rx="8" ry="8" style="stroke:#181818;stroke-width:0.5;"/><path d="M1006,21.5 L1006,48.5 M993,29.5 L1019,29.5 M1006,48.5 L993,63.5 M1006,48.5 L1019,63.5 " fill="none" style="stroke:#181818;stroke-width:0.5;"/><text fill="#000000" font-family="sans-serif" font-size="14" lengthAdjust="spacing" textLength="47" x="979.5" y="922.9248">Utente</text><ellipse cx="1006" cy="934.7266" fill="#E2E2F0" rx="8" ry="8" style="stroke:#181818;stroke-width:0.5;"/><path d="M1006,942.7266 L1006,969.7266 M993,950.7266 L1019,950.7266 M1006,969.7266 L993,984.7266 M1006,969.7266 L1019,984.7266 " fill="none" style="stroke:#181818;stroke-width:0.5;"/><rect fill="#E2E2F0" height="30.2969" rx="2.5" ry="2.5" style="stroke:#181818;stroke-width:0.5;" width="103" x="1042.5" y="909.9297"/><text fill="#000000" font-family="sans-serif" font-size="14" lengthAdjust="spacing" textLength="89" x="1049.5" y="929.9248">GameEngine</text><rect fill="#E2E2F0" height="30.2969" rx="2.5" ry="2.5" style="stroke:#181818;stroke-width:0.5;" width="88" x="1231" y="909.9297"/><text fill="#000000" font-family="sans-serif" font-size="14" lengthAdjust="spacing" textLength="74" x="1238" y="929.9248">MappaGraf</text><rect fill="#E2E2F0" height="30.2969" rx="2.5" ry="2.5" style="stroke:#181818;stroke-width:0.5;" width="90" x="1329" y="909.9297"/><text fill="#000000" font-family="sans-serif" font-size="14" lengthAdjust="spacing" textLength="76" x="1336" y="929.9248">MoveMenu</text><path d="M20,98.2969 L84,98.2969 L84,105.4297 L74,115.4297 L20,115.4297 L20,98.2969 " fill="#EEEEEE" style="stroke:#000000;stroke-width:1.5;"/><rect fill="none" height="223.6172" style="stroke:#000000;stroke-width:1.5;" width="910" x="20" y="98.2969"/><text fill="#000000" font-family="sans-serif" font-size="13" font-weight="bold" lengthAdjust="spacing" textLength="19" x="35" y="111.3638">alt</text><text fill="#000000" font-family="sans-serif" font-size="11" font-weight="bold" lengthAdjust="spacing" textLength="121" x="99" y="110.5073">[INIZIALIZZAZIONE]</text><polygon fill="#181818" points="208.5,132.5625,218.5,136.5625,208.5,140.5625,212.5,136.5625" style="stroke:#181818;stroke-width:1.0;"/><line style="stroke:#181818;stroke-width:1.0;" x1="57.5" x2="214.5" y1="136.5625" y2="136.5625"/><text fill="#000000" font-family="sans-serif" font-size="13" lengthAdjust="spacing" textLength="139" x="64.5" y="131.4966">new AdapterGrafica();</text><rect fill="#E2E2F0" height="30.2969" rx="2.5" ry="2.5" style="stroke:#181818;stroke-width:0.5;" width="115" x="220.5" y="115.4297"/><text fill="#000000" font-family="sans-serif" font-size="14" lengthAdjust="spacing" textLength="101" x="227.5" y="135.4248">AdapterGrafica</text><polygon fill="#181818" points="422,173.8594,432,177.8594,422,181.8594,426,177.8594" style="stroke:#181818;stroke-width:1.0;"/><line style="stroke:#181818;stroke-width:1.0;" x1="278" x2="428" y1="177.8594" y2="177.8594"/><text fill="#000000" font-family="sans-serif" font-size="13" lengthAdjust="spacing" textLength="132" x="285" y="172.7935">new GraficaOutput();</text><rect fill="#E2E2F0" height="30.2969" rx="2.5" ry="2.5" style="stroke:#181818;stroke-width:0.5;" width="109" x="434" y="156.7266"/><text fill="#000000" font-family="sans-serif" font-size="14" lengthAdjust="spacing" textLength="95" x="441" y="176.7217">GraficaOutput</text><polygon fill="#181818" points="541,215.1563,551,219.1563,541,223.1563,545,219.1563" style="stroke:#181818;stroke-width:1.0;"/><line style="stroke:#181818;stroke-width:1.0;" x1="57.5" x2="547" y1="219.1563" y2="219.1563"/><text fill="#000000" font-family="sans-serif" font-size="13" lengthAdjust="spacing" textLength="108" x="64.5" y="214.0903">new MainMenu();</text><rect fill="#E2E2F0" height="30.2969" rx="2.5" ry="2.5" style="stroke:#181818;stroke-width:0.5;" width="85" x="553" y="198.0234"/><text fill="#000000" font-family="sans-serif" font-size="14" lengthAdjust="spacing" textLength="71" x="560" y="218.0186">MainMenu</text><polygon fill="#181818" points="636,256.4531,646,260.4531,636,264.4531,640,260.4531" style="stroke:#181818;stroke-width:1.0;"/><line style="stroke:#181818;stroke-width:1.0;" x1="57.5" x2="642" y1="260.4531" y2="260.4531"/><text fill="#000000" font-family="sans-serif" font-size="13" lengthAdjust="spacing" textLength="86" x="64.5" y="255.3872">new Prompt()</text><rect fill="#E2E2F0" height="30.2969" rx="2.5" ry="2.5" style="stroke:#181818;stroke-width:0.5;" width="64" x="648" y="239.3203"/><text fill="#000000" font-family="sans-serif" font-size="14" lengthAdjust="spacing" textLength="50" x="655" y="259.3154">Prompt</text><polygon fill="#181818" points="812,297.75,822,301.75,812,305.75,816,301.75" style="stroke:#181818;stroke-width:1.0;"/><line style="stroke:#181818;stroke-width:1.0;" x1="680" x2="818" y1="301.75" y2="301.75"/><text fill="#000000" font-family="sans-serif" font-size="13" lengthAdjust="spacing" textLength="120" x="687" y="296.6841">new GraficaInput();</text><rect fill="#E2E2F0" height="30.2969" rx="2.5" ry="2.5" style="stroke:#181818;stroke-width:0.5;" width="96" x="824" y="280.6172"/><text fill="#000000" font-family="sans-serif" font-size="14" lengthAdjust="spacing" textLength="82" x="831" y="300.6123">GraficaInput</text><path d="M10,335.9141 L74,335.9141 L74,343.0469 L64,353.0469 L10,353.0469 L10,335.9141 " fill="#EEEEEE" style="stroke:#000000;stroke-width:1.5;"/><rect fill="none" height="558.0156" style="stroke:#000000;stroke-width:1.5;" width="1429" x="10" y="335.9141"/><text fill="#000000" font-family="sans-serif" font-size="13" font-weight="bold" lengthAdjust="spacing" textLength="19" x="25" y="348.981">alt</text><text fill="#000000" font-family="sans-serif" font-size="11" font-weight="bold" lengthAdjust="spacing" textLength="145" x="89" y="348.1245">[AVVIO MENU INIZIALE]</text><polygon fill="#181818" points="266,370.1797,276,374.1797,266,378.1797,270,374.1797" style="stroke:#181818;stroke-width:1.0;"/><line style="stroke:#181818;stroke-width:1.0;" x1="57.5" x2="272" y1="374.1797" y2="374.1797"/><text fill="#000000" font-family="sans-serif" font-size="13" lengthAdjust="spacing" textLength="143" x="64.5" y="369.1138">print(Menu.toString());</text><polygon fill="#181818" points="476.5,399.3125,486.5,403.3125,476.5,407.3125,480.5,403.3125" style="stroke:#181818;stroke-width:1.0;"/><line style="stroke:#181818;stroke-width:1.0;" x1="278" x2="482.5" y1="403.3125" y2="403.3125"/><text fill="#000000" font-family="sans-serif" font-size="13" lengthAdjust="spacing" textLength="77" x="285" y="398.2466">print(String)</text><polygon fill="#181818" points="668,428.4453,678,432.4453,668,436.4453,672,432.4453" style="stroke:#181818;stroke-width:1.0;"/><line style="stroke:#181818;stroke-width:1.0;" x1="57.5" x2="674" y1="432.4453" y2="432.4453"/><text fill="#000000" font-family="sans-serif" font-size="13" lengthAdjust="spacing" textLength="147" x="64.5" y="427.3794">stateMenu(MainMenu);</text><polygon fill="#181818" points="668,457.5781,678,461.5781,668,465.5781,672,461.5781" style="stroke:#181818;stroke-width:1.0;"/><line style="stroke:#181818;stroke-width:1.0;" x1="57.5" x2="674" y1="461.5781" y2="461.5781"/><text fill="#000000" font-family="sans-serif" font-size="13" lengthAdjust="spacing" textLength="71" x="64.5" y="456.5122">waitInput();</text><polygon fill="#181818" points="860,486.7109,870,490.7109,860,494.7109,864,490.7109" style="stroke:#181818;stroke-width:1.0;"/><line style="stroke:#181818;stroke-width:1.0;" x1="680" x2="866" y1="490.7109" y2="490.7109"/><text fill="#000000" font-family="sans-serif" font-size="13" lengthAdjust="spacing" textLength="46" x="687" y="485.645">input();</text><polygon fill="#181818" points="883,515.8438,873,519.8438,883,523.8438,879,519.8438" style="stroke:#181818;stroke-width:1.0;"/><line style="stroke:#181818;stroke-width:1.0;" x1="877" x2="1005" y1="519.8438" y2="519.8438"/><text fill="#000000" font-family="sans-serif" font-size="13" lengthAdjust="spacing" textLength="110" x="889" y="514.7778">comando["start"]</text><polygon fill="#181818" points="691,544.9766,681,548.9766,691,552.9766,687,548.9766" style="stroke:#181818;stroke-width:1.0;"/><line style="stroke:#181818;stroke-width:1.0;stroke-dasharray:2.0,2.0;" x1="685" x2="871" y1="548.9766" y2="548.9766"/><text fill="#000000" font-family="sans-serif" font-size="13" lengthAdjust="spacing" textLength="113" x="697" y="543.9106">risultato di input()</text><polygon fill="#181818" points="68.5,574.1094,58.5,578.1094,68.5,582.1094,64.5,578.1094" style="stroke:#181818;stroke-width:1.0;"/><line style="stroke:#181818;stroke-width:1.0;stroke-dasharray:2.0,2.0;" x1="62.5" x2="679" y1="578.1094" y2="578.1094"/><text fill="#000000" font-family="sans-serif" font-size="13" lengthAdjust="spacing" textLength="189" x="74.5" y="573.0435">risultato di waitInput() [enum]</text><path d="M20,593.1094 L236,593.1094 L236,600.2422 L226,610.2422 L20,610.2422 L20,593.1094 " fill="#EEEEEE" style="stroke:#000000;stroke-width:1.5;"/><rect fill="none" height="293.8203" style="stroke:#000000;stroke-width:1.5;" width="1409" x="20" y="593.1094"/><text fill="#000000" font-family="sans-serif" font-size="13" font-weight="bold" lengthAdjust="spacing" textLength="171" x="35" y="606.1763">Riceve comando START</text><polygon fill="#181818" points="1030.5,627.375,1040.5,631.375,1030.5,635.375,1034.5,631.375" style="stroke:#181818;stroke-width:1.0;"/><line style="stroke:#181818;stroke-width:1.0;" x1="57.5" x2="1036.5" y1="631.375" y2="631.375"/><text fill="#000000" font-family="sans-serif" font-size="13" lengthAdjust="spacing" textLength="125" x="64.5" y="626.3091">new GameEngine();</text><rect fill="#E2E2F0" height="30.2969" rx="2.5" ry="2.5" style="stroke:#181818;stroke-width:0.5;" width="103" x="1042.5" y="610.2422"/><text fill="#000000" font-family="sans-serif" font-size="14" lengthAdjust="spacing" textLength="89" x="1049.5" y="630.2373">GameEngine</text><polygon fill="#181818" points="1219,668.6719,1229,672.6719,1219,676.6719,1223,672.6719" style="stroke:#181818;stroke-width:1.0;"/><line style="stroke:#181818;stroke-width:1.0;" x1="1094" x2="1225" y1="672.6719" y2="672.6719"/><text fill="#000000" font-family="sans-serif" font-size="13" lengthAdjust="spacing" textLength="113" x="1101" y="667.606">new MappaGraf();</text><rect fill="#E2E2F0" height="30.2969" rx="2.5" ry="2.5" style="stroke:#181818;stroke-width:0.5;" width="88" x="1231" y="651.5391"/><text fill="#000000" font-family="sans-serif" font-size="14" lengthAdjust="spacing" textLength="74" x="1238" y="671.5342">MappaGraf</text><polygon fill="#181818" points="1082,728.1016,1092,732.1016,1082,736.1016,1086,732.1016" style="stroke:#181818;stroke-width:1.0;"/><line style="stroke:#181818;stroke-width:1.0;" x1="57.5" x2="1088" y1="732.1016" y2="732.1016"/><text fill="#000000" font-family="sans-serif" font-size="13" lengthAdjust="spacing" textLength="73" x="64.5" y="727.0356">runSetup();</text><path d="M1099,697.8359 L1099,752.8359 L1265,752.8359 L1265,707.8359 L1255,697.8359 L1099,697.8359 " fill="#FEFFDD" style="stroke:#181818;stroke-width:0.5;"/><path d="M1255,697.8359 L1255,707.8359 L1265,707.8359 L1255,697.8359 " fill="#FEFFDD" style="stroke:#181818;stroke-width:0.5;"/><text fill="#000000" font-family="sans-serif" font-size="13" lengthAdjust="spacing" textLength="122" x="1105" y="714.9028">Creazione di Player</text><text fill="#000000" font-family="sans-serif" font-size="13" lengthAdjust="spacing" textLength="145" x="1105" y="730.0356">e di mappa con nemici</text><text fill="#000000" font-family="sans-serif" font-size="13" lengthAdjust="spacing" textLength="110" x="1105" y="745.1685">item nelle stanze</text><polygon fill="#181818" points="1263,775.3672,1273,779.3672,1263,783.3672,1267,779.3672" style="stroke:#181818;stroke-width:1.0;"/><line style="stroke:#181818;stroke-width:1.0;" x1="1094" x2="1269" y1="779.3672" y2="779.3672"/><text fill="#000000" font-family="sans-serif" font-size="13" lengthAdjust="spacing" textLength="33" x="1101" y="774.3013">init();</text><polygon fill="#181818" points="583.5,804.5,593.5,808.5,583.5,812.5,587.5,808.5" style="stroke:#181818;stroke-width:1.0;"/><line style="stroke:#181818;stroke-width:1.0;" x1="57.5" x2="589.5" y1="808.5" y2="808.5"/><text fill="#000000" font-family="sans-serif" font-size="13" lengthAdjust="spacing" textLength="54" x="64.5" y="803.4341">delete[];</text><line style="stroke:#A80036;stroke-width:2.0;" x1="586.5" x2="604.5" y1="799.5" y2="817.5"/><line style="stroke:#A80036;stroke-width:2.0;" x1="586.5" x2="604.5" y1="817.5" y2="799.5"/><polygon fill="#181818" points="1317,833.6328,1327,837.6328,1317,841.6328,1321,837.6328" style="stroke:#181818;stroke-width:1.0;"/><line style="stroke:#181818;stroke-width:1.0;" x1="57.5" x2="1323" y1="837.6328" y2="837.6328"/><text fill="#000000" font-family="sans-serif" font-size="13" lengthAdjust="spacing" textLength="112" x="64.5" y="832.5669">new MoveMenu();</text><rect fill="#E2E2F0" height="30.2969" rx="2.5" ry="2.5" style="stroke:#181818;stroke-width:0.5;" width="90" x="1329" y="816.5"/><text fill="#000000" font-family="sans-serif" font-size="14" lengthAdjust="spacing" textLength="76" x="1336" y="836.4951">MoveMenu</text><polygon fill="#181818" points="668,874.9297,678,878.9297,668,882.9297,672,878.9297" style="stroke:#181818;stroke-width:1.0;"/><line style="stroke:#181818;stroke-width:1.0;" x1="57.5" x2="674" y1="878.9297" y2="878.9297"/><text fill="#000000" font-family="sans-serif" font-size="13" lengthAdjust="spacing" textLength="151" x="64.5" y="873.8638">stateMenu(MoveMenu);</text><!--SRC=[XLJDRk8m4BxxAKQz08SkzwsqKbGX56dvKQ4SG1n6C6Gj9NPa9bJqiVOLziLsd3WXIMcBX9GPV_FvcpzZoX3FusqS_OwtssWRB-OJfN9qh0ywHyCmnOm0pv2WKkF1O-_t8HWMq-balOwXZnoCrS4HCa5qn9p9JHsUz05LWl3ug-Vy2ORUUhxXw4dL5C6rA3WlM7LndgrpNf5rN6sk6Mep8rC48RLPHTLMEs3fR9PpW5S6LEZA68xwEcFZPGReJLxfXewyqbLUDXu4ZWqvVRe-son3SsoHTFmLISVbMQJe945AeVGvscpY1SmcyzUwQnE51xOENfaCbrqkxZRvJkIz_jxhfAINEsruwAluW-sAnKg68n7tJTkQo2f4Yjgh-9cbF6LpwYu9QG_pXfgRcdxQ0DsgUkT8e8KaLjo9ELXVPBjx41cE7_Qg6zWMuVIvI4MiXQEkxsh42331FgWb6tQIMBONPSPAZr8wiLgHm0zq8V1di5f7Bsl0DBKEGPqrvCM_lu2NYqOd4GZbFZFwMG3FukT29SuMERnKF26RYkgB6LZASRoEljXk_rvCJA8DXLxS7FMeDmvVycOBynnz2LKBNwvZyDVx6CnXq-iElolCYhZ8_N5PBwUJFwoUvP9tRGKYnLscU2Mdok_CyqdsHjWpUVAKPihaEqt9pvTvfrlHFX5Mpe_ccw1w6kNWI2anxVPFwaXdTlPwUstglEs5sgzFC4EsmHf-7EpMy0UG7r-_xFB_3m00]--></g></svg>