<?xml version="1.0" encoding="us-ascii" standalone="no"?><svg xmlns="http://www.w3.org/2000/svg" xmlns:xlink="http://www.w3.org/1999/xlink" contentStyleType="text/css" height="1019px" preserveAspectRatio="none" style="width:1667px;height:1019px;background:#FFFFFF;" version="1.1" viewBox="0 0 1667 1019" width="1667px" zoomAndPan="magnify"><defs/><g><line style="stroke:#181818;stroke-width:0.5;stroke-dasharray:5.0,5.0;" x1="217" x2="217" y1="81.2969" y2="938.2266"/><line style="stroke:#181818;stroke-width:0.5;stroke-dasharray:5.0,5.0;" x1="437.5" x2="437.5" y1="121.9453" y2="938.2266"/><line style="stroke:#181818;stroke-width:0.5;stroke-dasharray:5.0,5.0;" x1="648" x2="648" y1="163.2422" y2="938.2266"/><line style="stroke:#181818;stroke-width:0.5;stroke-dasharray:5.0,5.0;" x1="755" x2="755" y1="204.5391" y2="938.2266"/><line style="stroke:#181818;stroke-width:0.5;stroke-dasharray:5.0,5.0;" x1="840" x2="840" y1="245.8359" y2="938.2266"/><line style="stroke:#181818;stroke-width:0.5;stroke-dasharray:5.0,5.0;" x1="1032" x2="1032" y1="287.1328" y2="938.2266"/><line style="stroke:#181818;stroke-width:0.5;stroke-dasharray:5.0,5.0;" x1="1151" x2="1151" y1="328.4297" y2="938.2266"/><line style="stroke:#181818;stroke-width:0.5;stroke-dasharray:5.0,5.0;" x1="1248" x2="1248" y1="81.2969" y2="938.2266"/><line style="stroke:#181818;stroke-width:0.5;stroke-dasharray:5.0,5.0;" x1="1336" x2="1336" y1="682.1875" y2="938.2266"/><line style="stroke:#181818;stroke-width:0.5;stroke-dasharray:5.0,5.0;" x1="1517.5" x2="1517.5" y1="723.4844" y2="938.2266"/><line style="stroke:#181818;stroke-width:0.5;stroke-dasharray:5.0,5.0;" x1="1616.5" x2="1616.5" y1="888.4453" y2="938.2266"/><rect fill="#E2E2F0" height="30.2969" rx="2.5" ry="2.5" style="stroke:#181818;stroke-width:0.5;" width="55" x="190" y="50"/><text fill="#000000" font-family="sans-serif" font-size="14" lengthAdjust="spacing" textLength="41" x="197" y="69.9951">Game</text><rect fill="#E2E2F0" height="30.2969" rx="2.5" ry="2.5" style="stroke:#181818;stroke-width:0.5;" width="55" x="190" y="937.2266"/><text fill="#000000" font-family="sans-serif" font-size="14" lengthAdjust="spacing" textLength="41" x="197" y="957.2217">Game</text><rect fill="#E2E2F0" height="30.2969" rx="2.5" ry="2.5" style="stroke:#181818;stroke-width:0.5;" width="115" x="380.5" y="937.2266"/><text fill="#000000" font-family="sans-serif" font-size="14" lengthAdjust="spacing" textLength="101" x="387.5" y="957.2217">AdapterGrafica</text><rect fill="#E2E2F0" height="30.2969" rx="2.5" ry="2.5" style="stroke:#181818;stroke-width:0.5;" width="109" x="594" y="937.2266"/><text fill="#000000" font-family="sans-serif" font-size="14" lengthAdjust="spacing" textLength="95" x="601" y="957.2217">GraficaOutput</text><rect fill="#E2E2F0" height="30.2969" rx="2.5" ry="2.5" style="stroke:#181818;stroke-width:0.5;" width="85" x="713" y="937.2266"/><text fill="#000000" font-family="sans-serif" font-size="14" lengthAdjust="spacing" textLength="71" x="720" y="957.2217">MainMenu</text><rect fill="#E2E2F0" height="30.2969" rx="2.5" ry="2.5" style="stroke:#181818;stroke-width:0.5;" width="64" x="808" y="937.2266"/><text fill="#000000" font-family="sans-serif" font-size="14" lengthAdjust="spacing" textLength="50" x="815" y="957.2217">Prompt</text><rect fill="#E2E2F0" height="30.2969" rx="2.5" ry="2.5" style="stroke:#181818;stroke-width:0.5;" width="96" x="984" y="937.2266"/><text fill="#000000" font-family="sans-serif" font-size="14" lengthAdjust="spacing" textLength="82" x="991" y="957.2217">GraficaInput</text><rect fill="#E2E2F0" height="30.2969" rx="2.5" ry="2.5" style="stroke:#181818;stroke-width:0.5;" width="122" x="1090" y="937.2266"/><text fill="#000000" font-family="sans-serif" font-size="14" lengthAdjust="spacing" textLength="108" x="1097" y="957.2217">VerifyCommand</text><text fill="#000000" font-family="sans-serif" font-size="14" lengthAdjust="spacing" textLength="47" x="1222" y="77.9951">Utente</text><ellipse cx="1248.5" cy="13.5" fill="#E2E2F0" rx="8" ry="8" style="stroke:#181818;stroke-width:0.5;"/><path d="M1248.5,21.5 L1248.5,48.5 M1235.5,29.5 L1261.5,29.5 M1248.5,48.5 L1235.5,63.5 M1248.5,48.5 L1261.5,63.5 " fill="none" style="stroke:#181818;stroke-width:0.5;"/><text fill="#000000" font-family="sans-serif" font-size="14" lengthAdjust="spacing" textLength="47" x="1222" y="950.2217">Utente</text><ellipse cx="1248.5" cy="962.0234" fill="#E2E2F0" rx="8" ry="8" style="stroke:#181818;stroke-width:0.5;"/><path d="M1248.5,970.0234 L1248.5,997.0234 M1235.5,978.0234 L1261.5,978.0234 M1248.5,997.0234 L1235.5,1012.0234 M1248.5,997.0234 L1261.5,1012.0234 " fill="none" style="stroke:#181818;stroke-width:0.5;"/><rect fill="#E2E2F0" height="30.2969" rx="2.5" ry="2.5" style="stroke:#181818;stroke-width:0.5;" width="103" x="1285" y="937.2266"/><text fill="#000000" font-family="sans-serif" font-size="14" lengthAdjust="spacing" textLength="89" x="1292" y="957.2217">GameEngine</text><rect fill="#E2E2F0" height="30.2969" rx="2.5" ry="2.5" style="stroke:#181818;stroke-width:0.5;" width="88" x="1473.5" y="937.2266"/><text fill="#000000" font-family="sans-serif" font-size="14" lengthAdjust="spacing" textLength="74" x="1480.5" y="957.2217">MappaGraf</text><rect fill="#E2E2F0" height="30.2969" rx="2.5" ry="2.5" style="stroke:#181818;stroke-width:0.5;" width="90" x="1571.5" y="937.2266"/><text fill="#000000" font-family="sans-serif" font-size="14" lengthAdjust="spacing" textLength="76" x="1578.5" y="957.2217">MoveMenu</text><polygon fill="#181818" points="368.5,108.4297,378.5,112.4297,368.5,116.4297,372.5,112.4297" style="stroke:#181818;stroke-width:1.0;"/><line style="stroke:#181818;stroke-width:1.0;" x1="217.5" x2="374.5" y1="112.4297" y2="112.4297"/><text fill="#000000" font-family="sans-serif" font-size="13" lengthAdjust="spacing" textLength="139" x="224.5" y="107.3638">new AdapterGrafica();</text><rect fill="#E2E2F0" height="30.2969" rx="2.5" ry="2.5" style="stroke:#181818;stroke-width:0.5;" width="115" x="380.5" y="91.2969"/><text fill="#000000" font-family="sans-serif" font-size="14" lengthAdjust="spacing" textLength="101" x="387.5" y="111.292">AdapterGrafica</text><polygon fill="#181818" points="582,149.7266,592,153.7266,582,157.7266,586,153.7266" style="stroke:#181818;stroke-width:1.0;"/><line style="stroke:#181818;stroke-width:1.0;" x1="438" x2="588" y1="153.7266" y2="153.7266"/><text fill="#000000" font-family="sans-serif" font-size="13" lengthAdjust="spacing" textLength="132" x="445" y="148.6606">new GraficaOutput();</text><rect fill="#E2E2F0" height="30.2969" rx="2.5" ry="2.5" style="stroke:#181818;stroke-width:0.5;" width="109" x="594" y="132.5938"/><text fill="#000000" font-family="sans-serif" font-size="14" lengthAdjust="spacing" textLength="95" x="601" y="152.5889">GraficaOutput</text><polygon fill="#181818" points="701,191.0234,711,195.0234,701,199.0234,705,195.0234" style="stroke:#181818;stroke-width:1.0;"/><line style="stroke:#181818;stroke-width:1.0;" x1="217.5" x2="707" y1="195.0234" y2="195.0234"/><text fill="#000000" font-family="sans-serif" font-size="13" lengthAdjust="spacing" textLength="108" x="224.5" y="189.9575">new MainMenu();</text><rect fill="#E2E2F0" height="30.2969" rx="2.5" ry="2.5" style="stroke:#181818;stroke-width:0.5;" width="85" x="713" y="173.8906"/><text fill="#000000" font-family="sans-serif" font-size="14" lengthAdjust="spacing" textLength="71" x="720" y="193.8857">MainMenu</text><polygon fill="#181818" points="796,232.3203,806,236.3203,796,240.3203,800,236.3203" style="stroke:#181818;stroke-width:1.0;"/><line style="stroke:#181818;stroke-width:1.0;" x1="217.5" x2="802" y1="236.3203" y2="236.3203"/><text fill="#000000" font-family="sans-serif" font-size="13" lengthAdjust="spacing" textLength="86" x="224.5" y="231.2544">new Prompt()</text><rect fill="#E2E2F0" height="30.2969" rx="2.5" ry="2.5" style="stroke:#181818;stroke-width:0.5;" width="64" x="808" y="215.1875"/><text fill="#000000" font-family="sans-serif" font-size="14" lengthAdjust="spacing" textLength="50" x="815" y="235.1826">Prompt</text><polygon fill="#181818" points="972,273.6172,982,277.6172,972,281.6172,976,277.6172" style="stroke:#181818;stroke-width:1.0;"/><line style="stroke:#181818;stroke-width:1.0;" x1="840" x2="978" y1="277.6172" y2="277.6172"/><text fill="#000000" font-family="sans-serif" font-size="13" lengthAdjust="spacing" textLength="120" x="847" y="272.5513">new GraficaInput();</text><rect fill="#E2E2F0" height="30.2969" rx="2.5" ry="2.5" style="stroke:#181818;stroke-width:0.5;" width="96" x="984" y="256.4844"/><text fill="#000000" font-family="sans-serif" font-size="14" lengthAdjust="spacing" textLength="82" x="991" y="276.4795">GraficaInput</text><polygon fill="#181818" points="1078,314.9141,1088,318.9141,1078,322.9141,1082,318.9141" style="stroke:#181818;stroke-width:1.0;"/><line style="stroke:#181818;stroke-width:1.0;" x1="840" x2="1084" y1="318.9141" y2="318.9141"/><text fill="#000000" font-family="sans-serif" font-size="13" lengthAdjust="spacing" textLength="146" x="847" y="313.8481">new VerifyCommand();</text><rect fill="#E2E2F0" height="30.2969" rx="2.5" ry="2.5" style="stroke:#181818;stroke-width:0.5;" width="122" x="1090" y="297.7813"/><text fill="#000000" font-family="sans-serif" font-size="14" lengthAdjust="spacing" textLength="108" x="1097" y="317.7764">VerifyCommand</text><polygon fill="#181818" points="426,356.2109,436,360.2109,426,364.2109,430,360.2109" style="stroke:#181818;stroke-width:1.0;"/><line style="stroke:#181818;stroke-width:1.0;" x1="217.5" x2="432" y1="360.2109" y2="360.2109"/><text fill="#000000" font-family="sans-serif" font-size="13" lengthAdjust="spacing" textLength="143" x="224.5" y="355.145">print(Menu.toString());</text><polygon fill="#181818" points="636.5,385.3438,646.5,389.3438,636.5,393.3438,640.5,389.3438" style="stroke:#181818;stroke-width:1.0;"/><line style="stroke:#181818;stroke-width:1.0;" x1="438" x2="642.5" y1="389.3438" y2="389.3438"/><text fill="#000000" font-family="sans-serif" font-size="13" lengthAdjust="spacing" textLength="77" x="445" y="384.2778">print(String)</text><polygon fill="#181818" points="828,414.4766,838,418.4766,828,422.4766,832,418.4766" style="stroke:#181818;stroke-width:1.0;"/><line style="stroke:#181818;stroke-width:1.0;" x1="217.5" x2="834" y1="418.4766" y2="418.4766"/><text fill="#000000" font-family="sans-serif" font-size="13" lengthAdjust="spacing" textLength="147" x="224.5" y="413.4106">stateMenu(MainMenu);</text><polygon fill="#181818" points="828,443.6094,838,447.6094,828,451.6094,832,447.6094" style="stroke:#181818;stroke-width:1.0;"/><line style="stroke:#181818;stroke-width:1.0;" x1="217.5" x2="834" y1="447.6094" y2="447.6094"/><text fill="#000000" font-family="sans-serif" font-size="13" lengthAdjust="spacing" textLength="71" x="224.5" y="442.5435">waitInput();</text><polygon fill="#181818" points="1020,472.7422,1030,476.7422,1020,480.7422,1024,476.7422" style="stroke:#181818;stroke-width:1.0;"/><line style="stroke:#181818;stroke-width:1.0;" x1="840" x2="1026" y1="476.7422" y2="476.7422"/><text fill="#000000" font-family="sans-serif" font-size="13" lengthAdjust="spacing" textLength="46" x="847" y="471.6763">input();</text><polygon fill="#181818" points="1043,501.875,1033,505.875,1043,509.875,1039,505.875" style="stroke:#181818;stroke-width:1.0;"/><line style="stroke:#181818;stroke-width:1.0;" x1="1037" x2="1247.5" y1="505.875" y2="505.875"/><text fill="#000000" font-family="sans-serif" font-size="13" lengthAdjust="spacing" textLength="110" x="1049" y="500.8091">comando["start"]</text><polygon fill="#181818" points="851,531.0078,841,535.0078,851,539.0078,847,535.0078" style="stroke:#181818;stroke-width:1.0;"/><line style="stroke:#181818;stroke-width:1.0;stroke-dasharray:2.0,2.0;" x1="845" x2="1031" y1="535.0078" y2="535.0078"/><text fill="#000000" font-family="sans-serif" font-size="13" lengthAdjust="spacing" textLength="113" x="857" y="529.9419">risultato di input()</text><polygon fill="#181818" points="1139,560.1406,1149,564.1406,1139,568.1406,1143,564.1406" style="stroke:#181818;stroke-width:1.0;"/><line style="stroke:#181818;stroke-width:1.0;" x1="840" x2="1145" y1="564.1406" y2="564.1406"/><text fill="#000000" font-family="sans-serif" font-size="13" lengthAdjust="spacing" textLength="189" x="847" y="559.0747">checkSintax(String comando)</text><polygon fill="#181818" points="851,589.2734,841,593.2734,851,597.2734,847,593.2734" style="stroke:#181818;stroke-width:1.0;"/><line style="stroke:#181818;stroke-width:1.0;stroke-dasharray:2.0,2.0;" x1="845" x2="1150" y1="593.2734" y2="593.2734"/><text fill="#000000" font-family="sans-serif" font-size="13" lengthAdjust="spacing" textLength="158" x="857" y="588.2075">risultato di checkSintax()</text><polygon fill="#181818" points="228.5,628.9727,218.5,632.9727,228.5,636.9727,224.5,632.9727" style="stroke:#181818;stroke-width:1.0;"/><line style="stroke:#181818;stroke-width:1.0;stroke-dasharray:2.0,2.0;" x1="222.5" x2="839" y1="632.9727" y2="632.9727"/><text fill="#000000" font-family="sans-serif" font-size="13" lengthAdjust="spacing" textLength="189" x="234.5" y="627.9067">risultato di waitInput() [enum]</text><path d="M5,606.2734 L5,646.2734 L213,646.2734 L213,616.2734 L203,606.2734 L5,606.2734 " fill="#FEFFDD" style="stroke:#181818;stroke-width:0.5;"/><path d="M203,606.2734 L203,616.2734 L213,616.2734 L203,606.2734 " fill="#FEFFDD" style="stroke:#181818;stroke-width:0.5;"/><text fill="#000000" font-family="sans-serif" font-size="13" lengthAdjust="spacing" textLength="183" x="11" y="623.3403">Se riceve enum START allora</text><text fill="#000000" font-family="sans-serif" font-size="13" lengthAdjust="spacing" textLength="149" x="11" y="638.4731">si pu&#242; avviare la partita</text><polygon fill="#181818" points="1273,668.6719,1283,672.6719,1273,676.6719,1277,672.6719" style="stroke:#181818;stroke-width:1.0;"/><line style="stroke:#181818;stroke-width:1.0;" x1="217.5" x2="1279" y1="672.6719" y2="672.6719"/><text fill="#000000" font-family="sans-serif" font-size="13" lengthAdjust="spacing" textLength="125" x="224.5" y="667.606">new GameEngine();</text><rect fill="#E2E2F0" height="30.2969" rx="2.5" ry="2.5" style="stroke:#181818;stroke-width:0.5;" width="103" x="1285" y="651.5391"/><text fill="#000000" font-family="sans-serif" font-size="14" lengthAdjust="spacing" textLength="89" x="1292" y="671.5342">GameEngine</text><polygon fill="#181818" points="1461.5,709.9688,1471.5,713.9688,1461.5,717.9688,1465.5,713.9688" style="stroke:#181818;stroke-width:1.0;"/><line style="stroke:#181818;stroke-width:1.0;" x1="1336.5" x2="1467.5" y1="713.9688" y2="713.9688"/><text fill="#000000" font-family="sans-serif" font-size="13" lengthAdjust="spacing" textLength="113" x="1343.5" y="708.9028">new MappaGraf();</text><rect fill="#E2E2F0" height="30.2969" rx="2.5" ry="2.5" style="stroke:#181818;stroke-width:0.5;" width="88" x="1473.5" y="692.8359"/><text fill="#000000" font-family="sans-serif" font-size="14" lengthAdjust="spacing" textLength="74" x="1480.5" y="712.8311">MappaGraf</text><polygon fill="#181818" points="1324.5,769.3984,1334.5,773.3984,1324.5,777.3984,1328.5,773.3984" style="stroke:#181818;stroke-width:1.0;"/><line style="stroke:#181818;stroke-width:1.0;" x1="217.5" x2="1330.5" y1="773.3984" y2="773.3984"/><text fill="#000000" font-family="sans-serif" font-size="13" lengthAdjust="spacing" textLength="73" x="224.5" y="768.3325">runSetup();</text><path d="M1341,739.1328 L1341,794.1328 L1507,794.1328 L1507,749.1328 L1497,739.1328 L1341,739.1328 " fill="#FEFFDD" style="stroke:#181818;stroke-width:0.5;"/><path d="M1497,739.1328 L1497,749.1328 L1507,749.1328 L1497,739.1328 " fill="#FEFFDD" style="stroke:#181818;stroke-width:0.5;"/><text fill="#000000" font-family="sans-serif" font-size="13" lengthAdjust="spacing" textLength="122" x="1347" y="756.1997">Creazione di Player</text><text fill="#000000" font-family="sans-serif" font-size="13" lengthAdjust="spacing" textLength="145" x="1347" y="771.3325">e di mappa con nemici</text><text fill="#000000" font-family="sans-serif" font-size="13" lengthAdjust="spacing" textLength="110" x="1347" y="786.4653">item nelle stanze</text><polygon fill="#181818" points="1505.5,816.6641,1515.5,820.6641,1505.5,824.6641,1509.5,820.6641" style="stroke:#181818;stroke-width:1.0;"/><line style="stroke:#181818;stroke-width:1.0;" x1="1336.5" x2="1511.5" y1="820.6641" y2="820.6641"/><text fill="#000000" font-family="sans-serif" font-size="13" lengthAdjust="spacing" textLength="33" x="1343.5" y="815.5981">init();</text><polygon fill="#181818" points="743.5,845.7969,753.5,849.7969,743.5,853.7969,747.5,849.7969" style="stroke:#181818;stroke-width:1.0;"/><line style="stroke:#181818;stroke-width:1.0;" x1="217.5" x2="749.5" y1="849.7969" y2="849.7969"/><text fill="#000000" font-family="sans-serif" font-size="13" lengthAdjust="spacing" textLength="54" x="224.5" y="844.731">delete[];</text><line style="stroke:#A80036;stroke-width:2.0;" x1="746.5" x2="764.5" y1="840.7969" y2="858.7969"/><line style="stroke:#A80036;stroke-width:2.0;" x1="746.5" x2="764.5" y1="858.7969" y2="840.7969"/><polygon fill="#181818" points="1559.5,874.9297,1569.5,878.9297,1559.5,882.9297,1563.5,878.9297" style="stroke:#181818;stroke-width:1.0;"/><line style="stroke:#181818;stroke-width:1.0;" x1="217.5" x2="1565.5" y1="878.9297" y2="878.9297"/><text fill="#000000" font-family="sans-serif" font-size="13" lengthAdjust="spacing" textLength="112" x="224.5" y="873.8638">new MoveMenu();</text><rect fill="#E2E2F0" height="30.2969" rx="2.5" ry="2.5" style="stroke:#181818;stroke-width:0.5;" width="90" x="1571.5" y="857.7969"/><text fill="#000000" font-family="sans-serif" font-size="14" lengthAdjust="spacing" textLength="76" x="1578.5" y="877.792">MoveMenu</text><polygon fill="#181818" points="828,916.2266,838,920.2266,828,924.2266,832,920.2266" style="stroke:#181818;stroke-width:1.0;"/><line style="stroke:#181818;stroke-width:1.0;" x1="217.5" x2="834" y1="920.2266" y2="920.2266"/><text fill="#000000" font-family="sans-serif" font-size="13" lengthAdjust="spacing" textLength="151" x="224.5" y="915.1606">stateMenu(MoveMenu);</text><!--SRC=[XLJDRjim3BxhAOHUwXootXTWW544WO7b1qkQGu8U28TnXTcIeT3fqiVQA-p5HjbI_BEayyaaFtsaFf8gmP9ALGcQv0mAb72I6GZnz3WUV39P9Bia_fxiTl4kMIwcSZcRJJURH0wHZqyYjGY4CZv0IMXd5eug1P6177yREBzAZUy3NpIQ10RlMLPKLYJwC4VMYpTSFLU7QWvApr5NlenWDeU2rS6lh2bAykZ6a0suCQBHeCX4knezigsjTijURRMhasgBLXqlpwOeG1yw33r_mz1pEGe1AHahNmWrrUshRdOltcwJfPnF5o-XaTDRZRlL8gwzj4fJv0JwGcPDR6NHY9F_fo7NaysHqL3C4_7jQzc3_imvmBo3egjUTyLL0L7T2AR6YMNs3vpFqiEhwCN7tMnMdQgSgpBoe0BflOOuvZTCVwxvXl3Btp4a6ua-jiqoIDAbQ5CnEeDXFHqfv9x5Abw5Djpq78yariZW5CyeNKIkD_6FZOGyDnQaE2bPLdz-IpYV5LW-0R9qcqyWa8jpB9zCpOgfaatyoQAxfsEgCwNHjwzrXCc_EdehMPRWcY4w-7etlJyifpUZwtZq-6sbrqXLwSAr85PbRoIUESc7CWnXxLOvND2A-hzmVDmepUm5ltv24HRyd-VeHb9_OAlAdSBgaLFK5XG6c0C7p95m_peH1poHDPVswGdtDcViFaNUzBVrLlJlBdJsnOD6axy0]--></g></svg>