<?xml version="1.0" encoding="us-ascii" standalone="no"?><svg xmlns="http://www.w3.org/2000/svg" xmlns:xlink="http://www.w3.org/1999/xlink" contentStyleType="text/css" height="925px" preserveAspectRatio="none" style="width:1184px;height:925px;background:#FFFFFF;" version="1.1" viewBox="0 0 1184 925" width="1184px" zoomAndPan="magnify"><defs/><g><line style="stroke:#181818;stroke-width:0.5;stroke-dasharray:5.0,5.0;" x1="27" x2="27" y1="81.2969" y2="844.3359"/><line style="stroke:#181818;stroke-width:0.5;stroke-dasharray:5.0,5.0;" x1="95" x2="95" y1="81.2969" y2="844.3359"/><line style="stroke:#181818;stroke-width:0.5;stroke-dasharray:5.0,5.0;" x1="167" x2="167" y1="81.2969" y2="844.3359"/><line style="stroke:#181818;stroke-width:0.5;stroke-dasharray:5.0,5.0;" x1="231" x2="231" y1="81.2969" y2="844.3359"/><line style="stroke:#181818;stroke-width:0.5;stroke-dasharray:5.0,5.0;" x1="427.5" x2="427.5" y1="121.9453" y2="844.3359"/><line style="stroke:#181818;stroke-width:0.5;stroke-dasharray:5.0,5.0;" x1="628.5" x2="628.5" y1="163.2422" y2="844.3359"/><line style="stroke:#181818;stroke-width:0.5;stroke-dasharray:5.0,5.0;" x1="830" x2="830" y1="204.5391" y2="844.3359"/><line style="stroke:#181818;stroke-width:0.5;stroke-dasharray:5.0,5.0;" x1="954" x2="954" y1="304.1016" y2="844.3359"/><line style="stroke:#181818;stroke-width:0.5;stroke-dasharray:5.0,5.0;" x1="1069" x2="1069" y1="491.0625" y2="844.3359"/><line style="stroke:#181818;stroke-width:0.5;stroke-dasharray:5.0,5.0;" x1="1150" x2="1150" y1="590.625" y2="844.3359"/><text fill="#000000" font-family="sans-serif" font-size="14" lengthAdjust="spacing" textLength="38" x="5" y="77.9951">Entity</text><ellipse cx="27" cy="49" fill="#E2E2F0" rx="12" ry="12" style="stroke:#181818;stroke-width:0.5;"/><line style="stroke:#181818;stroke-width:0.5;" x1="15" x2="39" y1="63" y2="63"/><text fill="#000000" font-family="sans-serif" font-size="14" lengthAdjust="spacing" textLength="38" x="5" y="856.3311">Entity</text><ellipse cx="27" cy="875.6328" fill="#E2E2F0" rx="12" ry="12" style="stroke:#181818;stroke-width:0.5;"/><line style="stroke:#181818;stroke-width:0.5;" x1="15" x2="39" y1="889.6328" y2="889.6328"/><text fill="#000000" font-family="sans-serif" font-size="14" lengthAdjust="spacing" textLength="66" x="59" y="77.9951">Database</text><path d="M77,29 C77,19 95,19 95,19 C95,19 113,19 113,29 L113,55 C113,65 95,65 95,65 C95,65 77,65 77,55 L77,29 " fill="#E2E2F0" style="stroke:#181818;stroke-width:1.5;"/><path d="M77,29 C77,39 95,39 95,39 C95,39 113,39 113,29 " fill="none" style="stroke:#181818;stroke-width:1.5;"/><text fill="#000000" font-family="sans-serif" font-size="14" lengthAdjust="spacing" textLength="66" x="59" y="856.3311">Database</text><path d="M77,869.6328 C77,859.6328 95,859.6328 95,859.6328 C95,859.6328 113,859.6328 113,869.6328 L113,895.6328 C113,905.6328 95,905.6328 95,905.6328 C95,905.6328 77,905.6328 77,895.6328 L77,869.6328 " fill="#E2E2F0" style="stroke:#181818;stroke-width:1.5;"/><path d="M77,869.6328 C77,879.6328 95,879.6328 95,879.6328 C95,879.6328 113,879.6328 113,869.6328 " fill="none" style="stroke:#181818;stroke-width:1.5;"/><text fill="#000000" font-family="sans-serif" font-size="14" lengthAdjust="spacing" textLength="47" x="141" y="77.9951">Utente</text><ellipse cx="167.5" cy="13.5" fill="#E2E2F0" rx="8" ry="8" style="stroke:#181818;stroke-width:0.5;"/><path d="M167.5,21.5 L167.5,48.5 M154.5,29.5 L180.5,29.5 M167.5,48.5 L154.5,63.5 M167.5,48.5 L180.5,63.5 " fill="none" style="stroke:#181818;stroke-width:0.5;"/><text fill="#000000" font-family="sans-serif" font-size="14" lengthAdjust="spacing" textLength="47" x="141" y="856.3311">Utente</text><ellipse cx="167.5" cy="868.1328" fill="#E2E2F0" rx="8" ry="8" style="stroke:#181818;stroke-width:0.5;"/><path d="M167.5,876.1328 L167.5,903.1328 M154.5,884.1328 L180.5,884.1328 M167.5,903.1328 L154.5,918.1328 M167.5,903.1328 L180.5,918.1328 " fill="none" style="stroke:#181818;stroke-width:0.5;"/><rect fill="#E2E2F0" height="30.2969" rx="2.5" ry="2.5" style="stroke:#181818;stroke-width:0.5;" width="55" x="204" y="50"/><text fill="#000000" font-family="sans-serif" font-size="14" lengthAdjust="spacing" textLength="41" x="211" y="69.9951">Game</text><rect fill="#E2E2F0" height="30.2969" rx="2.5" ry="2.5" style="stroke:#181818;stroke-width:0.5;" width="55" x="204" y="843.3359"/><text fill="#000000" font-family="sans-serif" font-size="14" lengthAdjust="spacing" textLength="41" x="211" y="863.3311">Game</text><rect fill="#E2E2F0" height="30.2969" rx="2.5" ry="2.5" style="stroke:#181818;stroke-width:0.5;" width="103" x="376.5" y="843.3359"/><text fill="#000000" font-family="sans-serif" font-size="14" lengthAdjust="spacing" textLength="89" x="383.5" y="863.3311">GameEngine</text><rect fill="#E2E2F0" height="30.2969" rx="2.5" ry="2.5" style="stroke:#181818;stroke-width:0.5;" width="61" x="598.5" y="843.3359"/><text fill="#000000" font-family="sans-serif" font-size="14" lengthAdjust="spacing" textLength="47" x="605.5" y="863.3311">Grafica</text><rect fill="#E2E2F0" height="30.2969" rx="2.5" ry="2.5" style="stroke:#181818;stroke-width:0.5;" width="106" x="777" y="843.3359"/><text fill="#000000" font-family="sans-serif" font-size="14" lengthAdjust="spacing" textLength="92" x="784" y="863.3311">Menu_iniziale</text><rect fill="#E2E2F0" height="30.2969" rx="2.5" ry="2.5" style="stroke:#181818;stroke-width:0.5;" width="122" x="893" y="843.3359"/><text fill="#000000" font-family="sans-serif" font-size="14" lengthAdjust="spacing" textLength="108" x="900" y="863.3311">VerifyCommand</text><rect fill="#E2E2F0" height="30.2969" rx="2.5" ry="2.5" style="stroke:#181818;stroke-width:0.5;" width="88" x="1025" y="843.3359"/><text fill="#000000" font-family="sans-serif" font-size="14" lengthAdjust="spacing" textLength="74" x="1032" y="863.3311">MappaGraf</text><rect fill="#E2E2F0" height="30.2969" rx="2.5" ry="2.5" style="stroke:#181818;stroke-width:0.5;" width="55" x="1123" y="843.3359"/><text fill="#000000" font-family="sans-serif" font-size="14" lengthAdjust="spacing" textLength="41" x="1130" y="863.3311">Player</text><polygon fill="#181818" points="364.5,108.4297,374.5,112.4297,364.5,116.4297,368.5,112.4297" style="stroke:#181818;stroke-width:1.0;"/><line style="stroke:#181818;stroke-width:1.0;" x1="231.5" x2="370.5" y1="112.4297" y2="112.4297"/><text fill="#000000" font-family="sans-serif" font-size="13" lengthAdjust="spacing" textLength="121" x="238.5" y="107.3638">new GameEngine()</text><rect fill="#E2E2F0" height="30.2969" rx="2.5" ry="2.5" style="stroke:#181818;stroke-width:0.5;" width="103" x="376.5" y="91.2969"/><text fill="#000000" font-family="sans-serif" font-size="14" lengthAdjust="spacing" textLength="89" x="383.5" y="111.292">GameEngine</text><polygon fill="#181818" points="586.5,149.7266,596.5,153.7266,586.5,157.7266,590.5,153.7266" style="stroke:#181818;stroke-width:1.0;"/><line style="stroke:#181818;stroke-width:1.0;" x1="231.5" x2="592.5" y1="153.7266" y2="153.7266"/><text fill="#000000" font-family="sans-serif" font-size="13" lengthAdjust="spacing" textLength="84" x="238.5" y="148.6606">new Grafica()</text><rect fill="#E2E2F0" height="30.2969" rx="2.5" ry="2.5" style="stroke:#181818;stroke-width:0.5;" width="61" x="598.5" y="132.5938"/><text fill="#000000" font-family="sans-serif" font-size="14" lengthAdjust="spacing" textLength="47" x="605.5" y="152.5889">Grafica</text><polygon fill="#181818" points="765,191.0234,775,195.0234,765,199.0234,769,195.0234" style="stroke:#181818;stroke-width:1.0;"/><line style="stroke:#181818;stroke-width:1.0;" x1="629" x2="771" y1="195.0234" y2="195.0234"/><text fill="#000000" font-family="sans-serif" font-size="13" lengthAdjust="spacing" textLength="124" x="636" y="189.9575">new Menu_iniziale()</text><rect fill="#E2E2F0" height="30.2969" rx="2.5" ry="2.5" style="stroke:#181818;stroke-width:0.5;" width="106" x="777" y="173.8906"/><text fill="#000000" font-family="sans-serif" font-size="14" lengthAdjust="spacing" textLength="92" x="784" y="193.8857">Menu_iniziale</text><polygon fill="#181818" points="818,232.3203,828,236.3203,818,240.3203,822,236.3203" style="stroke:#181818;stroke-width:1.0;"/><line style="stroke:#181818;stroke-width:1.0;" x1="629" x2="824" y1="236.3203" y2="236.3203"/><text fill="#000000" font-family="sans-serif" font-size="13" lengthAdjust="spacing" textLength="61" x="636" y="231.2544">toString()</text><polygon fill="#181818" points="640,261.4531,630,265.4531,640,269.4531,636,265.4531" style="stroke:#181818;stroke-width:1.0;"/><line style="stroke:#181818;stroke-width:1.0;" x1="634" x2="829" y1="265.4531" y2="265.4531"/><text fill="#000000" font-family="sans-serif" font-size="13" lengthAdjust="spacing" textLength="151" x="646" y="260.3872">vociDelMenu["voce1..."]</text><polygon fill="#181818" points="881,290.5859,891,294.5859,881,298.5859,885,294.5859" style="stroke:#181818;stroke-width:1.0;"/><line style="stroke:#181818;stroke-width:1.0;" x1="629" x2="887" y1="294.5859" y2="294.5859"/><text fill="#000000" font-family="sans-serif" font-size="13" lengthAdjust="spacing" textLength="142" x="636" y="289.52">new VerifyCommand()</text><rect fill="#E2E2F0" height="30.2969" rx="2.5" ry="2.5" style="stroke:#181818;stroke-width:0.5;" width="122" x="893" y="273.4531"/><text fill="#000000" font-family="sans-serif" font-size="14" lengthAdjust="spacing" textLength="108" x="900" y="293.4482">VerifyCommand</text><polygon fill="#181818" points="617,331.8828,627,335.8828,617,339.8828,621,335.8828" style="stroke:#181818;stroke-width:1.0;"/><line style="stroke:#181818;stroke-width:1.0;" x1="167.5" x2="623" y1="335.8828" y2="335.8828"/><text fill="#000000" font-family="sans-serif" font-size="13" lengthAdjust="spacing" textLength="110" x="174.5" y="330.8169">comando["start"]</text><polygon fill="#181818" points="942,361.0156,952,365.0156,942,369.0156,946,365.0156" style="stroke:#181818;stroke-width:1.0;"/><line style="stroke:#181818;stroke-width:1.0;" x1="629" x2="948" y1="365.0156" y2="365.0156"/><text fill="#000000" font-family="sans-serif" font-size="13" lengthAdjust="spacing" textLength="147" x="636" y="359.9497">checkSintax(comando)</text><polygon fill="#181818" points="439,390.1484,429,394.1484,439,398.1484,435,394.1484" style="stroke:#181818;stroke-width:1.0;"/><line style="stroke:#181818;stroke-width:1.0;" x1="433" x2="953" y1="394.1484" y2="394.1484"/><text fill="#000000" font-family="sans-serif" font-size="13" lengthAdjust="spacing" textLength="69" x="445" y="389.0825">runSetup()</text><polygon fill="#181818" points="617,419.2813,627,423.2813,617,427.2813,621,423.2813" style="stroke:#181818;stroke-width:1.0;"/><line style="stroke:#181818;stroke-width:1.0;" x1="428" x2="623" y1="423.2813" y2="423.2813"/><text fill="#000000" font-family="sans-serif" font-size="13" lengthAdjust="spacing" textLength="76" x="435" y="418.2153">clearMenu()</text><polygon fill="#181818" points="818,448.4141,828,452.4141,818,456.4141,822,452.4141" style="stroke:#181818;stroke-width:1.0;"/><line style="stroke:#181818;stroke-width:1.0;" x1="629" x2="824" y1="452.4141" y2="452.4141"/><text fill="#000000" font-family="sans-serif" font-size="13" lengthAdjust="spacing" textLength="50" x="636" y="447.3481">delete()</text><line style="stroke:#A80036;stroke-width:2.0;" x1="821" x2="839" y1="443.4141" y2="461.4141"/><line style="stroke:#A80036;stroke-width:2.0;" x1="821" x2="839" y1="461.4141" y2="443.4141"/><polygon fill="#181818" points="1013,477.5469,1023,481.5469,1013,485.5469,1017,481.5469" style="stroke:#181818;stroke-width:1.0;"/><line style="stroke:#181818;stroke-width:1.0;" x1="428" x2="1019" y1="481.5469" y2="481.5469"/><text fill="#000000" font-family="sans-serif" font-size="13" lengthAdjust="spacing" textLength="109" x="435" y="476.481">new MappaGraf()</text><rect fill="#E2E2F0" height="30.2969" rx="2.5" ry="2.5" style="stroke:#181818;stroke-width:0.5;" width="88" x="1025" y="460.4141"/><text fill="#000000" font-family="sans-serif" font-size="14" lengthAdjust="spacing" textLength="74" x="1032" y="480.4092">MappaGraf</text><polygon fill="#181818" points="617,518.8438,627,522.8438,617,526.8438,621,522.8438" style="stroke:#181818;stroke-width:1.0;"/><line style="stroke:#181818;stroke-width:1.0;" x1="428" x2="623" y1="522.8438" y2="522.8438"/><text fill="#000000" font-family="sans-serif" font-size="13" lengthAdjust="spacing" textLength="100" x="435" y="517.7778">getUserName()</text><polygon fill="#181818" points="439,547.9766,429,551.9766,439,555.9766,435,551.9766" style="stroke:#181818;stroke-width:1.0;"/><line style="stroke:#181818;stroke-width:1.0;" x1="433" x2="628" y1="551.9766" y2="551.9766"/><text fill="#000000" font-family="sans-serif" font-size="13" lengthAdjust="spacing" textLength="125" x="445" y="546.9106">name["giocatore1"]</text><polygon fill="#181818" points="1111,577.1094,1121,581.1094,1111,585.1094,1115,581.1094" style="stroke:#181818;stroke-width:1.0;"/><line style="stroke:#181818;stroke-width:1.0;" x1="428" x2="1117" y1="581.1094" y2="581.1094"/><text fill="#000000" font-family="sans-serif" font-size="13" lengthAdjust="spacing" textLength="203" x="435" y="576.0435">new Player(name["giocatore1"])</text><rect fill="#E2E2F0" height="30.2969" rx="2.5" ry="2.5" style="stroke:#181818;stroke-width:0.5;" width="55" x="1123" y="559.9766"/><text fill="#000000" font-family="sans-serif" font-size="14" lengthAdjust="spacing" textLength="41" x="1130" y="579.9717">Player</text><polygon fill="#181818" points="617,618.4063,627,622.4063,617,626.4063,621,622.4063" style="stroke:#181818;stroke-width:1.0;"/><line style="stroke:#181818;stroke-width:1.0;" x1="428" x2="623" y1="622.4063" y2="622.4063"/><text fill="#000000" font-family="sans-serif" font-size="13" lengthAdjust="spacing" textLength="177" x="435" y="617.3403">setPosition(Player.getPos())</text><polygon fill="#181818" points="617,647.5391,627,651.5391,617,655.5391,621,651.5391" style="stroke:#181818;stroke-width:1.0;"/><line style="stroke:#181818;stroke-width:1.0;" x1="167.5" x2="623" y1="651.5391" y2="651.5391"/><text fill="#000000" font-family="sans-serif" font-size="13" lengthAdjust="spacing" textLength="149" x="174.5" y="646.4731">comando["move nord"]</text><polygon fill="#181818" points="942,676.6719,952,680.6719,942,684.6719,946,680.6719" style="stroke:#181818;stroke-width:1.0;"/><line style="stroke:#181818;stroke-width:1.0;" x1="629" x2="948" y1="680.6719" y2="680.6719"/><text fill="#000000" font-family="sans-serif" font-size="13" lengthAdjust="spacing" textLength="147" x="636" y="675.606">checkSintax(comando)</text><polygon fill="#181818" points="439,705.8047,429,709.8047,439,713.8047,435,709.8047" style="stroke:#181818;stroke-width:1.0;"/><line style="stroke:#181818;stroke-width:1.0;" x1="433" x2="953" y1="709.8047" y2="709.8047"/><text fill="#000000" font-family="sans-serif" font-size="13" lengthAdjust="spacing" textLength="39" x="445" y="704.7388">nord()</text><polygon fill="#181818" points="1057,734.9375,1067,738.9375,1057,742.9375,1061,738.9375" style="stroke:#181818;stroke-width:1.0;"/><line style="stroke:#181818;stroke-width:1.0;" x1="428" x2="1063" y1="738.9375" y2="738.9375"/><text fill="#000000" font-family="sans-serif" font-size="13" lengthAdjust="spacing" textLength="280" x="435" y="733.8716">getNode(Player.getPos(), DIRECTION.NORD)</text><polygon fill="#181818" points="439,764.0703,429,768.0703,439,772.0703,435,768.0703" style="stroke:#181818;stroke-width:1.0;"/><line style="stroke:#181818;stroke-width:1.0;" x1="433" x2="1068" y1="768.0703" y2="768.0703"/><text fill="#000000" font-family="sans-serif" font-size="13" lengthAdjust="spacing" textLength="102" x="445" y="763.0044">restituisce node</text><polygon fill="#181818" points="1138.5,793.2031,1148.5,797.2031,1138.5,801.2031,1142.5,797.2031" style="stroke:#181818;stroke-width:1.0;"/><line style="stroke:#181818;stroke-width:1.0;" x1="428" x2="1144.5" y1="797.2031" y2="797.2031"/><text fill="#000000" font-family="sans-serif" font-size="13" lengthAdjust="spacing" textLength="143" x="435" y="792.1372">setPos(node.getPos())</text><polygon fill="#181818" points="617,822.3359,627,826.3359,617,830.3359,621,826.3359" style="stroke:#181818;stroke-width:1.0;"/><line style="stroke:#181818;stroke-width:1.0;" x1="428" x2="623" y1="826.3359" y2="826.3359"/><text fill="#000000" font-family="sans-serif" font-size="13" lengthAdjust="spacing" textLength="177" x="435" y="821.27">setPosition(player.getPos())</text><!--SRC=[hLHTYvj057ttLmnvYIdTX8NsPIaB4YT1I3GO8-o64gPwOuUQ6T4nRVhhzqxCXvgDRQ7pDFVShtFd7WMXk3gGuw6rEol8HCfFHimK-yOAq9XTkrV-puR18YLpib8W56YqD3AMAnxnZ0b5fcntH1Dc6AF-mpl72aF78pQTaQdZZRt-o8XoO5XBfrAHS056miZ3SmqWJqJ0pnfW3YvPETloY9rJAkiSNraOVA8ozgdrwdWk9NFgheZZEg-EDQDN3dCGvOOB_fkp58npDIpSS9pADp1iqX6kv5BbN2GOrNGrEEzbn6r8TSIwXmOy3eV3tjTRzY7rdSdBPkpDvvPhN-c7aFFjOIntEoRYEf-6uqI_WI4nRFEXus0pxEMHPM3v0JvTw5W1xj4Ygu2w0UrAHO9bSz98wgPotIiKYWT7xE0QVOVenv8BnNwPfxo1qGngYoKlnH9KcUcbNF4cWnHOhb-wUt4nfA3qScCeL2uFhG0owczrQGnB6TbpnVILxEf1EFsj_Ap5mjfCVMjIqnxBCgQfj3XVyBFipdR7T0ceLG6vY-xcVCrl2errB-4oOlXDm-DxKblCh1VgNrakKdQ0lDMu0a_yAiEyBNw7xXCfG2ramHMNmgooXyaHCWT_BSkv5rBonNPyEWwG-FD_K-XExe48cSV_hbBo1vdggZTBhAyRNy6LCRGVvIEvp3bqFT_6dyebwUPJGDroLV8YqbF4S6zprGvC7L9x_7lwgcyiQsti3G00]--></g></svg>